<?xml version="1.0" encoding="UTF-8"?>
<svg xmlns="http://www.w3.org/2000/svg" xmlns:xlink="http://www.w3.org/1999/xlink" viewBox="0 0 360 360">
  <defs>
    <style>
      .cls-1 {
        opacity: .83;
      }

      .cls-2 {
        fill: url(#linear-gradient);
      }

      .cls-2, .cls-3, .cls-4 {
        stroke: #24363f;
        stroke-miterlimit: 10;
      }

      .cls-2, .cls-4 {
        stroke-width: .05px;
      }

      .cls-3 {
        fill: url(#linear-gradient-3);
        stroke-width: .05px;
      }

      .cls-5 {
        fill: #24363f;
      }

      .cls-6 {
        fill: #851014;
      }

      .cls-7 {
        fill: #8a1216;
      }

      .cls-4 {
        fill: url(#linear-gradient-2);
      }

      .cls-8 {
        fill: #56646c;
      }
    </style>
    <linearGradient id="linear-gradient" x1="316.7" y1="243.2" x2="179.41" y2="243.2" gradientTransform="translate(-63.85 25.58)" gradientUnits="userSpaceOnUse">
      <stop offset="0" stop-color="#520000"/>
      <stop offset=".23" stop-color="#b8161c"/>
      <stop offset=".25" stop-color="#b8171d"/>
      <stop offset=".26" stop-color="#ba1e23"/>
      <stop offset=".26" stop-color="#be2a2e"/>
      <stop offset=".26" stop-color="#c33b3d"/>
      <stop offset=".26" stop-color="#c94b4b"/>
      <stop offset=".32" stop-color="#c33b3d"/>
      <stop offset=".39" stop-color="#be2a2e"/>
      <stop offset=".49" stop-color="#ba1e23"/>
      <stop offset=".62" stop-color="#b8171d"/>
      <stop offset="1" stop-color="#b8161c"/>
    </linearGradient>
    <linearGradient id="linear-gradient-2" y1="115.57" y2="115.57" gradientTransform="translate(26.39 62.96)" xlink:href="#linear-gradient"/>
    <linearGradient id="linear-gradient-3" x1="45.64" y1="179.7" x2="303.94" y2="179.7" gradientTransform="translate(180.77 -78.59) rotate(45)" gradientUnits="userSpaceOnUse">
      <stop offset="0" stop-color="#b8161c"/>
      <stop offset=".29" stop-color="#b8171d"/>
      <stop offset=".4" stop-color="#ba1e23"/>
      <stop offset=".48" stop-color="#be2a2e"/>
      <stop offset=".54" stop-color="#c33b3d"/>
      <stop offset=".58" stop-color="#c94b4b"/>
      <stop offset=".58" stop-color="#b8161c"/>
      <stop offset="1" stop-color="#520000"/>
    </linearGradient>
  </defs>
  <g id="Treads">
    <g>
      <g>
        <rect class="cls-5" x="94.52" y="108.19" width="282.48" height="37.74" rx=".36" ry=".36" transform="translate(158.9 -129.49) rotate(45)"/>
        <g>
          <rect class="cls-8" x="123.22" y="28.45" width="40.52" height="12.67" rx="1.74" ry="1.74" transform="translate(17.43 111.64) rotate(-45)"/>
          <rect class="cls-8" x="141.61" y="46.84" width="40.52" height="12.67" rx="1.74" ry="1.74" transform="translate(9.81 130.03) rotate(-45)"/>
          <rect class="cls-8" x="178.39" y="83.61" width="40.52" height="12.67" rx="1.74" ry="1.74" transform="translate(-5.42 166.81) rotate(-45)"/>
          <rect class="cls-8" x="160" y="65.23" width="40.52" height="12.67" rx="1.74" ry="1.74" transform="translate(2.2 148.42) rotate(-45)"/>
          <rect class="cls-8" x="196.78" y="102" width="40.52" height="12.67" rx="1.74" ry="1.74" transform="translate(-13.04 185.2) rotate(-45)"/>
          <rect class="cls-8" x="215.17" y="120.39" width="40.52" height="12.67" rx="1.74" ry="1.74" transform="translate(-20.65 203.59) rotate(-45)"/>
          <rect class="cls-8" x="251.94" y="157.17" width="40.52" height="12.67" rx="1.74" ry="1.74" transform="translate(-35.89 240.37) rotate(-45)"/>
          <rect class="cls-8" x="233.56" y="138.78" width="40.52" height="12.67" rx="1.74" ry="1.74" transform="translate(-28.27 221.98) rotate(-45)"/>
          <rect class="cls-8" x="270.33" y="175.56" width="40.52" height="12.67" rx="1.74" ry="1.74" transform="translate(-43.51 258.76) rotate(-45)"/>
          <rect class="cls-8" x="288.72" y="193.95" width="40.52" height="12.67" rx="1.74" ry="1.74" transform="translate(-51.12 277.15) rotate(-45)"/>
          <rect class="cls-8" x="307.11" y="212.34" width="40.52" height="12.67" rx="1.74" ry="1.74" transform="translate(-58.74 295.54) rotate(-45)"/>
        </g>
      </g>
      <g>
        <rect class="cls-5" x="-9.32" y="212.04" width="282.48" height="37.74" rx=".36" ry=".36" transform="translate(201.91 -25.65) rotate(45)"/>
        <g>
          <rect class="cls-8" x="19.38" y="132.29" width="40.52" height="12.67" rx="1.74" ry="1.74" transform="translate(-86.41 68.63) rotate(-45)"/>
          <rect class="cls-8" x="37.77" y="150.68" width="40.52" height="12.67" rx="1.74" ry="1.74" transform="translate(-94.03 87.02) rotate(-45)"/>
          <rect class="cls-8" x="74.55" y="187.46" width="40.52" height="12.67" rx="1.74" ry="1.74" transform="translate(-109.26 123.8) rotate(-45)"/>
          <rect class="cls-8" x="56.16" y="169.07" width="40.52" height="12.67" rx="1.74" ry="1.74" transform="translate(-101.65 105.41) rotate(-45)"/>
          <rect class="cls-8" x="92.93" y="205.85" width="40.52" height="12.67" rx="1.74" ry="1.74" transform="translate(-116.88 142.19) rotate(-45)"/>
          <rect class="cls-8" x="111.32" y="224.24" width="40.52" height="12.67" rx="1.74" ry="1.74" transform="translate(-124.5 160.58) rotate(-45)"/>
          <rect class="cls-8" x="148.1" y="261.01" width="40.52" height="12.67" rx="1.74" ry="1.74" transform="translate(-139.73 197.35) rotate(-45)"/>
          <rect class="cls-8" x="129.71" y="242.62" width="40.52" height="12.67" rx="1.74" ry="1.74" transform="translate(-132.11 178.97) rotate(-45)"/>
          <rect class="cls-8" x="166.49" y="279.4" width="40.52" height="12.67" rx="1.74" ry="1.74" transform="translate(-147.35 215.74) rotate(-45)"/>
          <rect class="cls-8" x="184.88" y="297.79" width="40.52" height="12.67" rx="1.74" ry="1.74" transform="translate(-154.97 234.13) rotate(-45)"/>
          <rect class="cls-8" x="203.27" y="316.18" width="40.52" height="12.67" rx="1.74" ry="1.74" transform="translate(-162.58 252.52) rotate(-45)"/>
        </g>
      </g>
    </g>
  </g>
  <g id="Ram_Tank" data-name="Ram Tank">
    <g>
      <g>
        <rect class="cls-2" x="115.55" y="247.31" width="137.3" height="42.93" transform="translate(244.01 -51.53) rotate(45)"/>
        <rect class="cls-4" x="205.8" y="157.07" width="137.3" height="42.93" transform="translate(206.62 -141.77) rotate(45)"/>
      </g>
      <path class="cls-3" d="m238.56,293.45l60.6-60.6-46.23-106.83-81.95-81.68c-13.48-13.39-35.25-13.35-48.68.09L49.51,117.21c-13.59,13.59-13.45,35.67.32,49.09l81.91,80.92,106.83,46.23Z"/>
      <circle class="cls-6" cx="237.03" cy="143.27" r="17.06"/>
      <g class="cls-1">
        <rect class="cls-7" x="101.93" y="75.34" width="3.97" height="46.7" transform="translate(100.22 -44.57) rotate(45)"/>
        <rect class="cls-7" x="106.05" y="79.46" width="3.97" height="46.7" transform="translate(104.34 -46.28) rotate(45)"/>
        <rect class="cls-7" x="110.17" y="83.58" width="3.97" height="46.7" transform="translate(108.46 -47.99) rotate(45)"/>
        <rect class="cls-7" x="114.29" y="87.7" width="3.97" height="46.7" transform="translate(112.58 -49.69) rotate(45)"/>
        <rect class="cls-7" x="118.41" y="91.82" width="3.97" height="46.7" transform="translate(116.7 -51.4) rotate(45)"/>
        <rect class="cls-7" x="122.54" y="95.94" width="3.97" height="46.7" transform="translate(120.83 -53.11) rotate(45)"/>
        <rect class="cls-7" x="126.66" y="100.07" width="3.97" height="46.7" transform="translate(124.95 -54.82) rotate(45)"/>
        <rect class="cls-7" x="130.78" y="104.19" width="3.97" height="46.7" transform="translate(129.07 -56.52) rotate(45)"/>
      </g>
    </g>
    <g>
      <rect class="cls-7" x="112.38" y="75.97" width="58.22" height="16.89" transform="translate(101.13 -75.32) rotate(45)"/>
      <rect class="cls-7" x="60.53" y="127.82" width="58.22" height="16.89" transform="translate(122.61 -23.48) rotate(45)"/>
    </g>
  </g>
</svg>