<?xml version="1.0" encoding="UTF-8"?>
<svg xmlns="http://www.w3.org/2000/svg" xmlns:xlink="http://www.w3.org/1999/xlink" viewBox="0 0 360 360">
  <defs>
    <style>
      .cls-1 {
        fill: url(#linear-gradient-2);
      }

      .cls-2, .cls-3 {
        fill: #032000;
      }

      .cls-4 {
        fill: #24363f;
      }

      .cls-5 {
        fill: url(#linear-gradient-5);
      }

      .cls-6 {
        opacity: .49;
      }

      .cls-7 {
        fill: #56646c;
      }

      .cls-8 {
        fill: url(#linear-gradient-3);
      }

      .cls-9 {
        fill: url(#linear-gradient);
      }

      .cls-3 {
        opacity: .69;
      }

      .cls-10 {
        fill: url(#linear-gradient-4);
      }
    </style>
    <linearGradient id="linear-gradient" x1="180.35" y1="266.22" x2="180.35" y2="229.19" gradientTransform="translate(3.45 362.39) rotate(-90)" gradientUnits="userSpaceOnUse">
      <stop offset="0" stop-color="#225e00"/>
      <stop offset="1" stop-color="#4c9619"/>
    </linearGradient>
    <linearGradient id="linear-gradient-2" x1="180.35" y1="93.77" x2="180.35" y2="130.8" gradientTransform="translate(3.45 362.39) rotate(-90)" gradientUnits="userSpaceOnUse">
      <stop offset="0" stop-color="#225e00"/>
      <stop offset="1" stop-color="#4c9619"/>
    </linearGradient>
    <linearGradient id="linear-gradient-3" x1="300.52" y1="180" x2="320.2" y2="180" gradientTransform="translate(3.45 362.39) rotate(-90)" gradientUnits="userSpaceOnUse">
      <stop offset="0" stop-color="#4c9619"/>
      <stop offset="1" stop-color="#0f3800"/>
    </linearGradient>
    <linearGradient id="linear-gradient-4" x1="60.68" y1="180" x2="300.58" y2="180" gradientTransform="translate(3.45 362.39) rotate(-90)" gradientUnits="userSpaceOnUse">
      <stop offset="0" stop-color="#8ce13c"/>
      <stop offset="0" stop-color="#88de39"/>
      <stop offset=".07" stop-color="#77d22e"/>
      <stop offset=".14" stop-color="#6bca26"/>
      <stop offset=".23" stop-color="#64c522"/>
      <stop offset=".5" stop-color="#63c421"/>
      <stop offset=".77" stop-color="#64c522"/>
      <stop offset=".87" stop-color="#6bca26"/>
      <stop offset=".94" stop-color="#77d22e"/>
      <stop offset=".99" stop-color="#88de39"/>
      <stop offset="1" stop-color="#8ce13c"/>
    </linearGradient>
    <linearGradient id="linear-gradient-5" x1="40.51" y1="180" x2="60.72" y2="180" gradientTransform="translate(3.45 362.39) rotate(-90)" gradientUnits="userSpaceOnUse">
      <stop offset="0" stop-color="#225e00"/>
      <stop offset="1" stop-color="#63c421"/>
    </linearGradient>
  </defs>
  <g id="Treads">
    <g>
      <g>
        <rect class="cls-4" x="-31.25" y="159.22" width="282.48" height="37.74" rx=".36" ry=".36" transform="translate(-68.1 288.07) rotate(-90)"/>
        <g>
          <rect class="cls-7" x="89.72" y="302.25" width="40.52" height="12.67" rx="1.74" ry="1.74"/>
          <rect class="cls-7" x="89.72" y="276.25" width="40.52" height="12.67" rx="1.74" ry="1.74"/>
          <rect class="cls-7" x="89.72" y="224.24" width="40.52" height="12.67" rx="1.74" ry="1.74"/>
          <rect class="cls-7" x="89.72" y="250.24" width="40.52" height="12.67" rx="1.74" ry="1.74"/>
          <rect class="cls-7" x="89.72" y="198.23" width="40.52" height="12.67" rx="1.74" ry="1.74"/>
          <rect class="cls-7" x="89.72" y="172.22" width="40.52" height="12.67" rx="1.74" ry="1.74"/>
          <rect class="cls-7" x="89.72" y="120.21" width="40.52" height="12.67" rx="1.74" ry="1.74"/>
          <rect class="cls-7" x="89.72" y="146.22" width="40.52" height="12.67" rx="1.74" ry="1.74"/>
          <rect class="cls-7" x="89.72" y="94.21" width="40.52" height="12.67" rx="1.74" ry="1.74"/>
          <rect class="cls-7" x="89.72" y="68.2" width="40.52" height="12.67" rx="1.74" ry="1.74"/>
          <rect class="cls-7" x="89.72" y="42.19" width="40.52" height="12.67" rx="1.74" ry="1.74"/>
        </g>
      </g>
      <g>
        <rect class="cls-4" x="115.6" y="159.22" width="282.48" height="37.74" rx=".36" ry=".36" transform="translate(78.76 434.93) rotate(-90)"/>
        <g>
          <rect class="cls-7" x="236.58" y="302.25" width="40.52" height="12.67" rx="1.74" ry="1.74"/>
          <rect class="cls-7" x="236.58" y="276.25" width="40.52" height="12.67" rx="1.74" ry="1.74"/>
          <rect class="cls-7" x="236.58" y="224.24" width="40.52" height="12.67" rx="1.74" ry="1.74"/>
          <rect class="cls-7" x="236.58" y="250.24" width="40.52" height="12.67" rx="1.74" ry="1.74"/>
          <rect class="cls-7" x="236.58" y="198.23" width="40.52" height="12.67" rx="1.74" ry="1.74"/>
          <rect class="cls-7" x="236.58" y="172.22" width="40.52" height="12.67" rx="1.74" ry="1.74"/>
          <rect class="cls-7" x="236.58" y="120.21" width="40.52" height="12.67" rx="1.74" ry="1.74"/>
          <rect class="cls-7" x="236.58" y="146.22" width="40.52" height="12.67" rx="1.74" ry="1.74"/>
          <rect class="cls-7" x="236.58" y="94.21" width="40.52" height="12.67" rx="1.74" ry="1.74"/>
          <rect class="cls-7" x="236.58" y="68.2" width="40.52" height="12.67" rx="1.74" ry="1.74"/>
          <rect class="cls-7" x="236.58" y="42.19" width="40.52" height="12.67" rx="1.74" ry="1.74"/>
        </g>
      </g>
    </g>
  </g>
  <g id="M4_Sherman" data-name="M4 Sherman">
    <g>
      <g>
        <polygon class="cls-9" points="269.68 321.92 261.85 301.3 232.64 61.84 262.14 42.16 269.68 321.92"/>
        <polygon class="cls-1" points="97.23 321.92 105.05 301.3 134.26 61.84 104.77 42.16 97.23 321.92"/>
        <polygon class="cls-8" points="182.53 42.19 104.76 42.19 133.7 61.87 183.93 61.87 184.37 61.87 184.37 61.87 233.2 61.87 262.14 42.19 182.97 42.19 182.53 42.19 182.53 42.19"/>
        <polygon class="cls-10" points="183.27 61.81 183.23 61.81 133.61 61.81 104.16 301.71 183.23 301.71 183.63 301.71 183.63 301.71 183.68 301.71 262.74 301.71 233.29 61.81 183.68 61.81 183.27 61.81 183.27 61.81"/>
        <polygon class="cls-5" points="262.82 301.67 183.27 301.71 183.27 301.71 104.08 301.67 97.21 321.88 183.53 321.88 183.53 321.88 269.69 321.88 262.82 301.67"/>
      </g>
      <g class="cls-6">
        <circle class="cls-2" cx="128.91" cy="278.42" r="18.33"/>
        <path class="cls-2" d="m237.99,260.09c10.12,0,18.33,8.21,18.33,18.33s-8.21,18.33-18.33,18.33c-10.12,0-18.33-8.21-18.33-18.33,0-10.12,8.21-18.33,18.33-18.33Z"/>
      </g>
      <rect class="cls-3" x="180.98" y="256.49" width="4.85" height="63.43" transform="translate(-104.8 471.62) rotate(-90)"/>
      <rect class="cls-3" x="180.98" y="248.43" width="4.85" height="63.43" transform="translate(-96.74 463.55) rotate(-90)"/>
      <rect class="cls-3" x="180.98" y="240.36" width="4.85" height="63.43" transform="translate(-88.67 455.49) rotate(-90)"/>
      <rect class="cls-3" x="180.98" y="232.3" width="4.85" height="63.43" transform="translate(-80.61 447.43) rotate(-90)"/>
      <rect class="cls-3" x="180.98" y="224.24" width="4.85" height="63.43" transform="translate(-72.54 439.36) rotate(-90)"/>
    </g>
  </g>
</svg>