<?xml version="1.0" encoding="UTF-8"?>
<svg xmlns="http://www.w3.org/2000/svg" xmlns:xlink="http://www.w3.org/1999/xlink" viewBox="0 0 360 360">
  <defs>
    <style>
      .cls-1 {
        fill: url(#linear-gradient-4);
      }

      .cls-1, .cls-2 {
        opacity: .85;
      }

      .cls-3 {
        fill: url(#linear-gradient-2);
      }

      .cls-4, .cls-5, .cls-6 {
        fill: #943100;
      }

      .cls-5 {
        opacity: .69;
      }

      .cls-7 {
        opacity: .35;
      }

      .cls-6 {
        opacity: .71;
      }

      .cls-8 {
        fill: #b84a00;
      }

      .cls-9 {
        fill: #24363f;
      }

      .cls-10 {
        fill: #660f00;
      }

      .cls-11 {
        fill: #56646c;
      }

      .cls-2 {
        fill: url(#linear-gradient-3);
      }

      .cls-12 {
        fill: url(#linear-gradient);
      }
    </style>
    <linearGradient id="linear-gradient" x1="70.72" y1="181.91" x2="300.05" y2="181.91" gradientTransform="translate(-4.4 -1.42)" gradientUnits="userSpaceOnUse">
      <stop offset=".01" stop-color="#e6762b"/>
      <stop offset=".33" stop-color="#e05a00"/>
      <stop offset="1" stop-color="#e6762b"/>
    </linearGradient>
    <linearGradient id="linear-gradient-2" x1="299.69" y1="181.91" x2="319" y2="181.91" gradientTransform="translate(-128.35 122.53)" gradientUnits="userSpaceOnUse">
      <stop offset="0" stop-color="#953200"/>
      <stop offset=".05" stop-color="#943100"/>
      <stop offset="1" stop-color="#b84a00"/>
    </linearGradient>
    <linearGradient id="linear-gradient-3" x1="185.26" y1="252.76" x2="185.26" y2="264.24" gradientTransform="translate(-80.86 -78.14)" gradientUnits="userSpaceOnUse">
      <stop offset="0" stop-color="#681100"/>
      <stop offset="1" stop-color="#953200"/>
    </linearGradient>
    <linearGradient id="linear-gradient-4" x1="185.31" y1="99.49" x2="185.31" y2="110.97" gradientTransform="translate(72.37 75.18)" gradientUnits="userSpaceOnUse">
      <stop offset="0" stop-color="#943100"/>
      <stop offset="1" stop-color="#660f00"/>
    </linearGradient>
  </defs>
  <g id="Treads">
    <g>
      <g>
        <rect class="cls-9" x="115.13" y="160.54" width="282.48" height="37.74" rx=".36" ry=".36" transform="translate(435.78 -76.96) rotate(90)"/>
        <g>
          <rect class="cls-11" x="236.11" y="42.57" width="40.52" height="12.67" rx="1.74" ry="1.74"/>
          <rect class="cls-11" x="236.11" y="68.58" width="40.52" height="12.67" rx="1.74" ry="1.74"/>
          <rect class="cls-11" x="236.11" y="120.59" width="40.52" height="12.67" rx="1.74" ry="1.74"/>
          <rect class="cls-11" x="236.11" y="94.58" width="40.52" height="12.67" rx="1.74" ry="1.74"/>
          <rect class="cls-11" x="236.11" y="146.6" width="40.52" height="12.67" rx="1.74" ry="1.74"/>
          <rect class="cls-11" x="236.11" y="172.6" width="40.52" height="12.67" rx="1.74" ry="1.74"/>
          <rect class="cls-11" x="236.11" y="224.61" width="40.52" height="12.67" rx="1.74" ry="1.74"/>
          <rect class="cls-11" x="236.11" y="198.61" width="40.52" height="12.67" rx="1.74" ry="1.74"/>
          <rect class="cls-11" x="236.11" y="250.62" width="40.52" height="12.67" rx="1.74" ry="1.74"/>
          <rect class="cls-11" x="236.11" y="276.63" width="40.52" height="12.67" rx="1.74" ry="1.74"/>
          <rect class="cls-11" x="236.11" y="302.63" width="40.52" height="12.67" rx="1.74" ry="1.74"/>
        </g>
      </g>
      <g>
        <rect class="cls-9" x="-31.73" y="160.54" width="282.48" height="37.74" rx=".36" ry=".36" transform="translate(288.92 69.89) rotate(90)"/>
        <g>
          <rect class="cls-11" x="89.25" y="42.57" width="40.52" height="12.67" rx="1.74" ry="1.74"/>
          <rect class="cls-11" x="89.25" y="68.58" width="40.52" height="12.67" rx="1.74" ry="1.74"/>
          <rect class="cls-11" x="89.25" y="120.59" width="40.52" height="12.67" rx="1.74" ry="1.74"/>
          <rect class="cls-11" x="89.25" y="94.58" width="40.52" height="12.67" rx="1.74" ry="1.74"/>
          <rect class="cls-11" x="89.25" y="146.6" width="40.52" height="12.67" rx="1.74" ry="1.74"/>
          <rect class="cls-11" x="89.25" y="172.6" width="40.52" height="12.67" rx="1.74" ry="1.74"/>
          <rect class="cls-11" x="89.25" y="224.61" width="40.52" height="12.67" rx="1.74" ry="1.74"/>
          <rect class="cls-11" x="89.25" y="198.61" width="40.52" height="12.67" rx="1.74" ry="1.74"/>
          <rect class="cls-11" x="89.25" y="250.62" width="40.52" height="12.67" rx="1.74" ry="1.74"/>
          <rect class="cls-11" x="89.25" y="276.63" width="40.52" height="12.67" rx="1.74" ry="1.74"/>
          <rect class="cls-11" x="89.25" y="302.63" width="40.52" height="12.67" rx="1.74" ry="1.74"/>
        </g>
      </g>
    </g>
  </g>
  <g id="Tiger_1" data-name="Tiger 1">
    <rect class="cls-10" x="171.38" y="43.28" width="21.84" height="44.26" transform="translate(247.71 -116.89) rotate(90)"/>
    <rect class="cls-12" x="66.32" y="98.19" width="229.33" height="164.6" transform="translate(361.48 -.5) rotate(90)"/>
    <rect class="cls-3" x="171.34" y="218.52" width="19.31" height="171.86" transform="translate(485.44 123.46) rotate(90)"/>
    <rect class="cls-2" x="-10.11" y="174.62" width="229.02" height="11.48" transform="translate(284.76 75.96) rotate(90)"/>
    <rect class="cls-1" x="143.17" y="174.67" width="229.02" height="11.48" transform="translate(438.08 -77.26) rotate(90)"/>
    <g>
      <ellipse class="cls-4" cx="202.85" cy="59.74" rx="10.35" ry="10.83"/>
      <path class="cls-4" d="m159.13,70.57c-5.71,0-10.35-4.85-10.35-10.83s4.63-10.83,10.35-10.83,10.35,4.85,10.35,10.83c0,5.98-4.63,10.83-10.35,10.83Z"/>
    </g>
    <g>
      <g>
        <rect class="cls-6" x="136.04" y="267.09" width="2.9" height="13.56" transform="translate(411.36 136.38) rotate(90)"/>
        <rect class="cls-6" x="136.04" y="271.36" width="2.9" height="13.56" transform="translate(415.63 140.66) rotate(90)"/>
        <rect class="cls-6" x="136.04" y="275.64" width="2.9" height="13.56" transform="translate(419.91 144.93) rotate(90)"/>
        <rect class="cls-6" x="136.04" y="279.92" width="2.9" height="13.56" transform="translate(424.19 149.21) rotate(90)"/>
      </g>
      <g>
        <rect class="cls-6" x="120.39" y="267.09" width="2.9" height="13.56" transform="translate(395.71 152.03) rotate(90)"/>
        <rect class="cls-6" x="120.39" y="271.36" width="2.9" height="13.56" transform="translate(399.99 156.3) rotate(90)"/>
        <rect class="cls-6" x="120.39" y="275.64" width="2.9" height="13.56" transform="translate(404.26 160.58) rotate(90)"/>
        <rect class="cls-6" x="120.39" y="279.92" width="2.9" height="13.56" transform="translate(408.54 164.86) rotate(90)"/>
      </g>
      <g>
        <rect class="cls-6" x="238.69" y="267.09" width="2.9" height="13.56" transform="translate(514 33.73) rotate(90)"/>
        <rect class="cls-6" x="238.69" y="271.36" width="2.9" height="13.56" transform="translate(518.28 38.01) rotate(90)"/>
        <rect class="cls-6" x="238.69" y="275.64" width="2.9" height="13.56" transform="translate(522.56 42.29) rotate(90)"/>
        <rect class="cls-6" x="238.69" y="279.92" width="2.9" height="13.56" transform="translate(526.83 46.56) rotate(90)"/>
      </g>
      <g>
        <rect class="cls-6" x="223.04" y="267.09" width="2.9" height="13.56" transform="translate(498.36 49.38) rotate(90)"/>
        <rect class="cls-6" x="223.04" y="271.36" width="2.9" height="13.56" transform="translate(502.63 53.66) rotate(90)"/>
        <rect class="cls-6" x="223.04" y="275.64" width="2.9" height="13.56" transform="translate(506.91 57.93) rotate(90)"/>
        <rect class="cls-6" x="223.04" y="279.92" width="2.9" height="13.56" transform="translate(511.19 62.21) rotate(90)"/>
      </g>
    </g>
    <g class="cls-7">
      <polygon class="cls-5" points="179.89 155.86 135.71 47.96 113.99 57.71 158.17 165.61 179.89 155.86"/>
      <polygon class="cls-5" points="204.43 163.14 248.6 55.24 226.88 45.48 182.7 153.38 204.43 163.14"/>
    </g>
    <g>
      <rect class="cls-8" x="219.03" y="44.33" width="44.26" height="21.84"/>
      <rect class="cls-8" x="98.81" y="43.98" width="44.26" height="21.84"/>
    </g>
  </g>
</svg>