<?xml version="1.0" encoding="UTF-8"?>
<svg xmlns="http://www.w3.org/2000/svg" xmlns:xlink="http://www.w3.org/1999/xlink" viewBox="0 0 360 360">
  <defs>
    <style>
      .cls-1 {
        opacity: .83;
      }

      .cls-2 {
        fill: url(#linear-gradient);
      }

      .cls-2, .cls-3, .cls-4 {
        stroke: #24363f;
        stroke-miterlimit: 10;
      }

      .cls-2, .cls-4 {
        stroke-width: .05px;
      }

      .cls-3 {
        fill: url(#linear-gradient-3);
        stroke-width: .05px;
      }

      .cls-5 {
        fill: #24363f;
      }

      .cls-6 {
        fill: #851014;
      }

      .cls-7 {
        fill: #8a1216;
      }

      .cls-4 {
        fill: url(#linear-gradient-2);
      }

      .cls-8 {
        fill: #56646c;
      }
    </style>
    <linearGradient id="linear-gradient" x1="317.44" y1="245.41" x2="180.14" y2="245.41" gradientTransform="translate(.07 -131.81)" gradientUnits="userSpaceOnUse">
      <stop offset="0" stop-color="#520000"/>
      <stop offset=".23" stop-color="#b8161c"/>
      <stop offset=".25" stop-color="#b8171d"/>
      <stop offset=".26" stop-color="#ba1e23"/>
      <stop offset=".26" stop-color="#be2a2e"/>
      <stop offset=".26" stop-color="#c33b3d"/>
      <stop offset=".26" stop-color="#c94b4b"/>
      <stop offset=".32" stop-color="#c33b3d"/>
      <stop offset=".39" stop-color="#be2a2e"/>
      <stop offset=".49" stop-color="#ba1e23"/>
      <stop offset=".62" stop-color="#b8171d"/>
      <stop offset="1" stop-color="#b8161c"/>
    </linearGradient>
    <linearGradient id="linear-gradient-2" y1="117.78" y2="117.78" gradientTransform="translate(-127.56 -4.19)" xlink:href="#linear-gradient"/>
    <linearGradient id="linear-gradient-3" x1="46.38" y1="181.91" x2="304.68" y2="181.91" gradientTransform="translate(3.45 362.39) rotate(-90)" gradientUnits="userSpaceOnUse">
      <stop offset="0" stop-color="#b8161c"/>
      <stop offset=".29" stop-color="#b8171d"/>
      <stop offset=".4" stop-color="#ba1e23"/>
      <stop offset=".48" stop-color="#be2a2e"/>
      <stop offset=".54" stop-color="#c33b3d"/>
      <stop offset=".58" stop-color="#c94b4b"/>
      <stop offset=".58" stop-color="#b8161c"/>
      <stop offset="1" stop-color="#520000"/>
    </linearGradient>
  </defs>
  <g id="Treads">
    <g>
      <g>
        <rect class="cls-5" x="-31.25" y="159.22" width="282.48" height="37.74" rx=".36" ry=".36" transform="translate(-68.1 288.07) rotate(-90)"/>
        <g>
          <rect class="cls-8" x="89.72" y="302.25" width="40.52" height="12.67" rx="1.74" ry="1.74"/>
          <rect class="cls-8" x="89.72" y="276.25" width="40.52" height="12.67" rx="1.74" ry="1.74"/>
          <rect class="cls-8" x="89.72" y="224.24" width="40.52" height="12.67" rx="1.74" ry="1.74"/>
          <rect class="cls-8" x="89.72" y="250.24" width="40.52" height="12.67" rx="1.74" ry="1.74"/>
          <rect class="cls-8" x="89.72" y="198.23" width="40.52" height="12.67" rx="1.74" ry="1.74"/>
          <rect class="cls-8" x="89.72" y="172.22" width="40.52" height="12.67" rx="1.74" ry="1.74"/>
          <rect class="cls-8" x="89.72" y="120.21" width="40.52" height="12.67" rx="1.74" ry="1.74"/>
          <rect class="cls-8" x="89.72" y="146.22" width="40.52" height="12.67" rx="1.74" ry="1.74"/>
          <rect class="cls-8" x="89.72" y="94.21" width="40.52" height="12.67" rx="1.74" ry="1.74"/>
          <rect class="cls-8" x="89.72" y="68.2" width="40.52" height="12.67" rx="1.74" ry="1.74"/>
          <rect class="cls-8" x="89.72" y="42.19" width="40.52" height="12.67" rx="1.74" ry="1.74"/>
        </g>
      </g>
      <g>
        <rect class="cls-5" x="115.6" y="159.22" width="282.48" height="37.74" rx=".36" ry=".36" transform="translate(78.76 434.93) rotate(-90)"/>
        <g>
          <rect class="cls-8" x="236.58" y="302.25" width="40.52" height="12.67" rx="1.74" ry="1.74"/>
          <rect class="cls-8" x="236.58" y="276.25" width="40.52" height="12.67" rx="1.74" ry="1.74"/>
          <rect class="cls-8" x="236.58" y="224.24" width="40.52" height="12.67" rx="1.74" ry="1.74"/>
          <rect class="cls-8" x="236.58" y="250.24" width="40.52" height="12.67" rx="1.74" ry="1.74"/>
          <rect class="cls-8" x="236.58" y="198.23" width="40.52" height="12.67" rx="1.74" ry="1.74"/>
          <rect class="cls-8" x="236.58" y="172.22" width="40.52" height="12.67" rx="1.74" ry="1.74"/>
          <rect class="cls-8" x="236.58" y="120.21" width="40.52" height="12.67" rx="1.74" ry="1.74"/>
          <rect class="cls-8" x="236.58" y="146.22" width="40.52" height="12.67" rx="1.74" ry="1.74"/>
          <rect class="cls-8" x="236.58" y="94.21" width="40.52" height="12.67" rx="1.74" ry="1.74"/>
          <rect class="cls-8" x="236.58" y="68.2" width="40.52" height="12.67" rx="1.74" ry="1.74"/>
          <rect class="cls-8" x="236.58" y="42.19" width="40.52" height="12.67" rx="1.74" ry="1.74"/>
        </g>
      </g>
    </g>
  </g>
  <g id="Ram_Tank" data-name="Ram Tank">
    <g>
      <g>
        <rect class="cls-2" x="180.22" y="92.13" width="137.3" height="42.93" transform="translate(135.27 362.46) rotate(-90)"/>
        <rect class="cls-4" x="52.59" y="92.13" width="137.3" height="42.93" transform="translate(7.64 234.83) rotate(-90)"/>
      </g>
      <path class="cls-3" d="m227.87,57.71h-85.71s-42.85,108.23-42.85,108.23l.19,115.71c.07,19,15.49,34.36,34.49,34.36h102.95c19.22,0,34.73-15.72,34.48-34.94l-.69-115.14-42.85-108.23Z"/>
      <circle class="cls-6" cx="122.76" cy="164.99" r="17.06"/>
      <g class="cls-1">
        <rect class="cls-7" x="183.38" y="267.29" width="3.97" height="46.7" transform="translate(-105.28 476.01) rotate(-90)"/>
        <rect class="cls-7" x="183.38" y="261.46" width="3.97" height="46.7" transform="translate(-99.45 470.18) rotate(-90)"/>
        <rect class="cls-7" x="183.38" y="255.64" width="3.97" height="46.7" transform="translate(-93.62 464.35) rotate(-90)"/>
        <rect class="cls-7" x="183.38" y="249.81" width="3.97" height="46.7" transform="translate(-87.79 458.52) rotate(-90)"/>
        <rect class="cls-7" x="183.38" y="243.98" width="3.97" height="46.7" transform="translate(-81.96 452.7) rotate(-90)"/>
        <rect class="cls-7" x="183.38" y="238.15" width="3.97" height="46.7" transform="translate(-76.13 446.87) rotate(-90)"/>
        <rect class="cls-7" x="183.38" y="232.32" width="3.97" height="46.7" transform="translate(-70.3 441.04) rotate(-90)"/>
        <rect class="cls-7" x="183.38" y="226.49" width="3.97" height="46.7" transform="translate(-64.47 435.21) rotate(-90)"/>
      </g>
    </g>
    <g>
      <rect class="cls-7" x="119.6" y="265.72" width="58.22" height="16.89" transform="translate(-125.45 422.87) rotate(-90)"/>
      <rect class="cls-7" x="192.91" y="265.72" width="58.22" height="16.89" transform="translate(-52.14 496.19) rotate(-90)"/>
    </g>
  </g>
</svg>