<?xml version="1.0" encoding="UTF-8"?>
<svg xmlns="http://www.w3.org/2000/svg" xmlns:xlink="http://www.w3.org/1999/xlink" viewBox="0 0 360 360">
  <defs>
    <style>
      .cls-1 {
        fill: url(#linear-gradient-2);
      }

      .cls-2 {
        fill: url(#New_Gradient_Swatch_copy_3-2);
      }

      .cls-3 {
        fill: #24363f;
      }

      .cls-4 {
        fill: #56646c;
      }

      .cls-5 {
        fill: url(#linear-gradient);
      }

      .cls-6 {
        fill: url(#New_Gradient_Swatch_copy_3);
      }

      .cls-7 {
        fill: url(#New_Gradient_Swatch_copy_3-3);
      }
    </style>
    <linearGradient id="linear-gradient" x1="49.23" y1="180" x2="323.9" y2="180" gradientTransform="translate(-1.53 -3.48)" gradientUnits="userSpaceOnUse">
      <stop offset=".45" stop-color="#008ae6"/>
      <stop offset="1" stop-color="#5fb3ea"/>
    </linearGradient>
    <linearGradient id="New_Gradient_Swatch_copy_3" data-name="New Gradient Swatch copy 3" x1="256.46" y1="180" x2="323.9" y2="180" gradientTransform="translate(-31.87 -76.75)" gradientUnits="userSpaceOnUse">
      <stop offset="0" stop-color="#008ae6"/>
      <stop offset="1" stop-color="#002c4a"/>
    </linearGradient>
    <linearGradient id="linear-gradient-2" x1="49.23" y1="180" x2="89.66" y2="180" gradientTransform="translate(-74.16 181.16) rotate(-45)" gradientUnits="userSpaceOnUse">
      <stop offset="0" stop-color="#008ae6"/>
      <stop offset="1" stop-color="#002c4a"/>
    </linearGradient>
    <linearGradient id="New_Gradient_Swatch_copy_3-2" x1="177.27" y1="276.13" x2="177.27" y2="235.7" gradientTransform="translate(-74.16 181.16) rotate(-45)" gradientUnits="userSpaceOnUse">
      <stop offset="0" stop-color="#008ae6"/>
      <stop offset="1" stop-color="#002c4a"/>
    </linearGradient>
    <linearGradient id="New_Gradient_Swatch_copy_3-3" x1="175.47" y1="83.92" x2="175.47" y2="124.36" gradientTransform="translate(-74.16 181.16) rotate(-45)" gradientUnits="userSpaceOnUse">
      <stop offset="0" stop-color="#008ae6"/>
      <stop offset="1" stop-color="#002c4a"/>
    </linearGradient>
  </defs>
  <g id="Treads">
    <g>
      <g>
        <rect class="cls-3" x="-9.75" y="107.3" width="282.48" height="37.74" rx=".36" ry=".36" transform="translate(-50.7 129.93) rotate(-45)"/>
        <g>
          <rect class="cls-4" x="32.88" y="198.18" width="12.67" height="40.52" rx="1.74" ry="1.74" transform="translate(-142.98 91.71) rotate(-45)"/>
          <rect class="cls-4" x="51.27" y="179.79" width="12.67" height="40.52" rx="1.74" ry="1.74" transform="translate(-124.59 99.32) rotate(-45)"/>
          <rect class="cls-4" x="88.05" y="143.02" width="12.67" height="40.52" rx="1.74" ry="1.74" transform="translate(-87.81 114.56) rotate(-45)"/>
          <rect class="cls-4" x="69.66" y="161.41" width="12.67" height="40.52" rx="1.74" ry="1.74" transform="translate(-106.2 106.94) rotate(-45)"/>
          <rect class="cls-4" x="106.43" y="124.63" width="12.67" height="40.52" rx="1.74" ry="1.74" transform="translate(-69.42 122.18) rotate(-45)"/>
          <rect class="cls-4" x="124.82" y="106.24" width="12.67" height="40.52" rx="1.74" ry="1.74" transform="translate(-51.03 129.79) rotate(-45)"/>
          <rect class="cls-4" x="161.6" y="69.46" width="12.67" height="40.52" rx="1.74" ry="1.74" transform="translate(-14.25 145.03) rotate(-45)"/>
          <rect class="cls-4" x="143.21" y="87.85" width="12.67" height="40.52" rx="1.74" ry="1.74" transform="translate(-32.64 137.41) rotate(-45)"/>
          <rect class="cls-4" x="179.99" y="51.07" width="12.67" height="40.52" rx="1.74" ry="1.74" transform="translate(4.13 152.64) rotate(-45)"/>
          <rect class="cls-4" x="198.38" y="32.68" width="12.67" height="40.52" rx="1.74" ry="1.74" transform="translate(22.52 160.26) rotate(-45)"/>
          <rect class="cls-4" x="216.77" y="14.29" width="12.67" height="40.52" rx="1.74" ry="1.74" transform="translate(40.91 167.88) rotate(-45)"/>
        </g>
      </g>
      <g>
        <rect class="cls-3" x="94.09" y="211.14" width="282.48" height="37.74" rx=".36" ry=".36" transform="translate(-93.71 233.77) rotate(-45)"/>
        <g>
          <rect class="cls-4" x="136.72" y="302.03" width="12.67" height="40.52" rx="1.74" ry="1.74" transform="translate(-185.99 195.55) rotate(-45)"/>
          <rect class="cls-4" x="155.11" y="283.64" width="12.67" height="40.52" rx="1.74" ry="1.74" transform="translate(-167.6 203.17) rotate(-45)"/>
          <rect class="cls-4" x="191.89" y="246.86" width="12.67" height="40.52" rx="1.74" ry="1.74" transform="translate(-130.82 218.4) rotate(-45)"/>
          <rect class="cls-4" x="173.5" y="265.25" width="12.67" height="40.52" rx="1.74" ry="1.74" transform="translate(-149.21 210.78) rotate(-45)"/>
          <rect class="cls-4" x="210.28" y="228.47" width="12.67" height="40.52" rx="1.74" ry="1.74" transform="translate(-112.43 226.02) rotate(-45)"/>
          <rect class="cls-4" x="228.67" y="210.08" width="12.67" height="40.52" rx="1.74" ry="1.74" transform="translate(-94.05 233.64) rotate(-45)"/>
          <rect class="cls-4" x="265.44" y="173.3" width="12.67" height="40.52" rx="1.74" ry="1.74" transform="translate(-57.27 248.87) rotate(-45)"/>
          <rect class="cls-4" x="247.06" y="191.69" width="12.67" height="40.52" rx="1.74" ry="1.74" transform="translate(-75.66 241.25) rotate(-45)"/>
          <rect class="cls-4" x="283.83" y="154.91" width="12.67" height="40.52" rx="1.74" ry="1.74" transform="translate(-38.88 256.49) rotate(-45)"/>
          <rect class="cls-4" x="302.22" y="136.52" width="12.67" height="40.52" rx="1.74" ry="1.74" transform="translate(-20.49 264.1) rotate(-45)"/>
          <rect class="cls-4" x="320.61" y="118.13" width="12.67" height="40.52" rx="1.74" ry="1.74" transform="translate(-2.1 271.72) rotate(-45)"/>
        </g>
      </g>
    </g>
  </g>
  <g id="Churchill">
    <rect class="cls-5" x="47.71" y="121.26" width="274.66" height="110.51" transform="translate(-70.62 182.54) rotate(-45)"/>
    <rect class="cls-6" x="224.58" y="47.99" width="67.44" height="110.51" transform="translate(2.65 212.89) rotate(-45)"/>
    <polygon class="cls-1" points="121.79 307.48 134.91 263.42 98.13 226.64 54.07 239.76 121.79 307.48"/>
    <polygon class="cls-2" points="157.18 283.15 213.48 284.02 279.39 218.11 278.52 161.8 157.18 283.15"/>
    <polygon class="cls-7" points="198.52 84.35 142.21 83.47 76.3 149.38 77.18 205.69 198.52 84.35"/>
  </g>
</svg>