<?xml version="1.0" encoding="UTF-8"?>
<svg xmlns="http://www.w3.org/2000/svg" xmlns:xlink="http://www.w3.org/1999/xlink" viewBox="0 0 360 360">
  <defs>
    <style>
      .cls-1 {
        fill: url(#linear-gradient-4);
      }

      .cls-1, .cls-2 {
        opacity: .85;
      }

      .cls-3 {
        fill: url(#linear-gradient-2);
      }

      .cls-4, .cls-5, .cls-6 {
        fill: #943100;
      }

      .cls-5 {
        opacity: .69;
      }

      .cls-7 {
        opacity: .35;
      }

      .cls-6 {
        opacity: .71;
      }

      .cls-8 {
        fill: #b84a00;
      }

      .cls-9 {
        fill: #24363f;
      }

      .cls-10 {
        fill: #660f00;
      }

      .cls-11 {
        fill: #56646c;
      }

      .cls-2 {
        fill: url(#linear-gradient-3);
      }

      .cls-12 {
        fill: url(#linear-gradient);
      }
    </style>
    <linearGradient id="linear-gradient" x1="70.72" y1="181.91" x2="300.05" y2="181.91" gradientTransform="translate(-2.26 -5.55)" gradientUnits="userSpaceOnUse">
      <stop offset=".01" stop-color="#e6762b"/>
      <stop offset=".33" stop-color="#e05a00"/>
      <stop offset="1" stop-color="#e6762b"/>
    </linearGradient>
    <linearGradient id="linear-gradient-2" x1="299.69" y1="181.91" x2="319" y2="181.91" gradientTransform="translate(-213.86 -93.2)" gradientUnits="userSpaceOnUse">
      <stop offset="0" stop-color="#953200"/>
      <stop offset=".05" stop-color="#943100"/>
      <stop offset="1" stop-color="#b84a00"/>
    </linearGradient>
    <linearGradient id="linear-gradient-3" x1="185.26" y1="252.76" x2="185.26" y2="264.24" gradientTransform="translate(52.12 -136.21)" gradientUnits="userSpaceOnUse">
      <stop offset="0" stop-color="#681100"/>
      <stop offset="1" stop-color="#953200"/>
    </linearGradient>
    <linearGradient id="linear-gradient-4" x1="185.31" y1="99.49" x2="185.31" y2="110.97" gradientTransform="translate(-56.34 125.42)" gradientUnits="userSpaceOnUse">
      <stop offset="0" stop-color="#943100"/>
      <stop offset="1" stop-color="#660f00"/>
    </linearGradient>
  </defs>
  <g id="Treads">
    <g>
      <g>
        <rect class="cls-9" x="-10.65" y="211.57" width="282.48" height="37.74" rx=".36" ry=".36" transform="translate(60 485.72) rotate(-135)"/>
        <g>
          <rect class="cls-11" x="202.61" y="316.38" width="40.52" height="12.67" rx="1.74" ry="1.74" transform="translate(-162.91 252.12) rotate(-45)"/>
          <rect class="cls-11" x="184.23" y="297.99" width="40.52" height="12.67" rx="1.74" ry="1.74" transform="translate(-155.3 233.73) rotate(-45)"/>
          <rect class="cls-11" x="147.45" y="261.21" width="40.52" height="12.67" rx="1.74" ry="1.74" transform="translate(-140.06 196.95) rotate(-45)"/>
          <rect class="cls-11" x="165.84" y="279.6" width="40.52" height="12.67" rx="1.74" ry="1.74" transform="translate(-147.68 215.34) rotate(-45)"/>
          <rect class="cls-11" x="129.06" y="242.82" width="40.52" height="12.67" rx="1.74" ry="1.74" transform="translate(-132.45 178.56) rotate(-45)"/>
          <rect class="cls-11" x="110.67" y="224.43" width="40.52" height="12.67" rx="1.74" ry="1.74" transform="translate(-124.83 160.17) rotate(-45)"/>
          <rect class="cls-11" x="73.89" y="187.66" width="40.52" height="12.67" rx="1.74" ry="1.74" transform="translate(-109.6 123.39) rotate(-45)"/>
          <rect class="cls-11" x="92.28" y="206.04" width="40.52" height="12.67" rx="1.74" ry="1.74" transform="translate(-117.21 141.78) rotate(-45)"/>
          <rect class="cls-11" x="55.5" y="169.27" width="40.52" height="12.67" rx="1.74" ry="1.74" transform="translate(-101.98 105) rotate(-45)"/>
          <rect class="cls-11" x="37.11" y="150.88" width="40.52" height="12.67" rx="1.74" ry="1.74" transform="translate(-94.36 86.61) rotate(-45)"/>
          <rect class="cls-11" x="18.72" y="132.49" width="40.52" height="12.67" rx="1.74" ry="1.74" transform="translate(-86.74 68.23) rotate(-45)"/>
        </g>
      </g>
      <g>
        <rect class="cls-9" x="93.2" y="107.72" width="282.48" height="37.74" rx=".36" ry=".36" transform="translate(310.7 381.88) rotate(-135)"/>
        <g>
          <rect class="cls-11" x="306.46" y="212.54" width="40.52" height="12.67" rx="1.74" ry="1.74" transform="translate(-59.07 295.13) rotate(-45)"/>
          <rect class="cls-11" x="288.07" y="194.15" width="40.52" height="12.67" rx="1.74" ry="1.74" transform="translate(-51.45 276.74) rotate(-45)"/>
          <rect class="cls-11" x="251.29" y="157.37" width="40.52" height="12.67" rx="1.74" ry="1.74" transform="translate(-36.22 239.96) rotate(-45)"/>
          <rect class="cls-11" x="269.68" y="175.76" width="40.52" height="12.67" rx="1.74" ry="1.74" transform="translate(-43.84 258.35) rotate(-45)"/>
          <rect class="cls-11" x="232.9" y="138.98" width="40.52" height="12.67" rx="1.74" ry="1.74" transform="translate(-28.6 221.57) rotate(-45)"/>
          <rect class="cls-11" x="214.51" y="120.59" width="40.52" height="12.67" rx="1.74" ry="1.74" transform="translate(-20.99 203.18) rotate(-45)"/>
          <rect class="cls-11" x="177.73" y="83.81" width="40.52" height="12.67" rx="1.74" ry="1.74" transform="translate(-5.75 166.41) rotate(-45)"/>
          <rect class="cls-11" x="196.12" y="102.2" width="40.52" height="12.67" rx="1.74" ry="1.74" transform="translate(-13.37 184.8) rotate(-45)"/>
          <rect class="cls-11" x="159.34" y="65.42" width="40.52" height="12.67" rx="1.74" ry="1.74" transform="translate(1.86 148.02) rotate(-45)"/>
          <rect class="cls-11" x="140.95" y="47.03" width="40.52" height="12.67" rx="1.74" ry="1.74" transform="translate(9.48 129.63) rotate(-45)"/>
          <rect class="cls-11" x="122.57" y="28.64" width="40.52" height="12.67" rx="1.74" ry="1.74" transform="translate(17.1 111.24) rotate(-45)"/>
        </g>
      </g>
    </g>
  </g>
  <g id="Tiger_1" data-name="Tiger 1">
    <rect class="cls-10" x="252.66" y="236.54" width="21.84" height="44.26" transform="translate(267.05 627.95) rotate(-135)"/>
    <rect class="cls-12" x="68.47" y="94.06" width="229.33" height="164.6" transform="translate(187.92 430.56) rotate(-135)"/>
    <rect class="cls-3" x="85.83" y="2.78" width="19.31" height="171.86" transform="translate(100.27 218.96) rotate(-135)"/>
    <rect class="cls-2" x="122.87" y="116.56" width="229.02" height="11.48" transform="translate(318.76 376.63) rotate(-135)"/>
    <rect class="cls-1" x="14.46" y="224.91" width="229.02" height="11.48" transform="translate(57.07 484.93) rotate(-135)"/>
    <g>
      <ellipse class="cls-4" cx="253.06" cy="277.21" rx="10.35" ry="10.83" transform="translate(-121.9 260.13) rotate(-45)"/>
      <ellipse class="cls-4" cx="283.98" cy="246.29" rx="10.35" ry="10.83" transform="translate(-90.98 272.94) rotate(-45)"/>
    </g>
    <g>
      <g>
        <rect class="cls-6" x="146.42" y="72.8" width="2.9" height="13.56" transform="translate(196.15 240.41) rotate(-135)"/>
        <rect class="cls-6" x="143.39" y="69.78" width="2.9" height="13.56" transform="translate(193.13 233.11) rotate(-135)"/>
        <rect class="cls-6" x="140.37" y="66.75" width="2.9" height="13.56" transform="translate(190.1 225.8) rotate(-135)"/>
        <rect class="cls-6" x="137.34" y="63.73" width="2.9" height="13.56" transform="translate(187.08 218.5) rotate(-135)"/>
      </g>
      <g>
        <rect class="cls-6" x="157.48" y="61.74" width="2.9" height="13.56" transform="translate(222.86 229.34) rotate(-135)"/>
        <rect class="cls-6" x="154.46" y="58.71" width="2.9" height="13.56" transform="translate(219.84 222.04) rotate(-135)"/>
        <rect class="cls-6" x="151.43" y="55.69" width="2.9" height="13.56" transform="translate(216.81 214.74) rotate(-135)"/>
        <rect class="cls-6" x="148.41" y="52.66" width="2.9" height="13.56" transform="translate(213.79 207.44) rotate(-135)"/>
      </g>
      <g>
        <rect class="cls-6" x="73.83" y="145.38" width="2.9" height="13.56" transform="translate(20.92 312.99) rotate(-135)"/>
        <rect class="cls-6" x="70.81" y="142.36" width="2.9" height="13.56" transform="translate(17.9 305.69) rotate(-135)"/>
        <rect class="cls-6" x="67.79" y="139.33" width="2.9" height="13.56" transform="translate(14.87 298.39) rotate(-135)"/>
        <rect class="cls-6" x="64.76" y="136.31" width="2.9" height="13.56" transform="translate(11.85 291.08) rotate(-135)"/>
      </g>
      <g>
        <rect class="cls-6" x="84.9" y="134.32" width="2.9" height="13.56" transform="translate(47.63 301.92) rotate(-135)"/>
        <rect class="cls-6" x="81.87" y="131.29" width="2.9" height="13.56" transform="translate(44.61 294.62) rotate(-135)"/>
        <rect class="cls-6" x="78.85" y="128.27" width="2.9" height="13.56" transform="translate(41.59 287.32) rotate(-135)"/>
        <rect class="cls-6" x="75.83" y="125.24" width="2.9" height="13.56" transform="translate(38.56 280.02) rotate(-135)"/>
      </g>
    </g>
    <g class="cls-7">
      <polygon class="cls-5" points="201.33 193.01 308.86 238.07 317.33 215.81 209.79 170.75 201.33 193.01"/>
      <polygon class="cls-5" points="178.83 205.21 223.89 312.75 246.15 304.28 201.09 196.75 178.83 205.21"/>
    </g>
    <g>
      <rect class="cls-8" x="207.01" y="296.55" width="44.26" height="21.84" transform="translate(-150.3 252.09) rotate(-45)"/>
      <rect class="cls-8" x="292.27" y="211.8" width="44.26" height="21.84" transform="translate(-65.4 287.55) rotate(-45)"/>
    </g>
  </g>
</svg>