<?xml version="1.0" encoding="UTF-8" standalone="no"?>
<!-- Created with Inkscape (http://www.inkscape.org/) -->

<svg
   width="100"
   height="100"
   viewBox="0 0 100 100"
   version="1.1"
   id="svg1"
   xml:space="preserve"
   xmlns="http://www.w3.org/2000/svg"
   xmlns:svg="http://www.w3.org/2000/svg"><defs
     id="defs1" /><g
     id="layer3"
     style="display:inline"><path
       id="path18-7"
       style="display:inline;fill:#000000;fill-opacity:1;stroke-width:1.00795;stroke-linecap:round;stroke-linejoin:round;stroke-opacity:0.532872"
       d="m 41.532043,27.857837 a 1.6924493,1.6924493 0 0 1 1.86328,1.683594 v 6.285156 h 4.40821 c 13.36269,-3.66e-4 24.19544,11.529324 24.19531,25.751953 -1.1e-4,0.04508 -0.004,0.08971 -0.004,0.134766 h 0.004 v 8.9375 c 0,0.828427 -0.67157,1.5 -1.5,1.5 h -0.66406 -6.6211 c -0.82842,0 -1.5,-0.671573 -1.5,-1.5 v -8.9375 c -1e-5,-8.170571 -6.84287,-15.264571 -13.91015,-15.263672 h -4.40821 v 6.591797 a 1.6932982,1.6932982 0 0 1 -2.87109,1.214844 L 28.590643,42.689869 a 1.9396276,1.9396276 0 0 1 0,-2.785157 l 11.93359,-11.578125 a 1.6924493,1.6924493 0 0 1 1.00781,-0.46875 z" /></g></svg>
