<?xml version="1.0" encoding="UTF-8" standalone="no"?>
<!-- Created with Inkscape (http://www.inkscape.org/) -->

<svg
   width="210"
   height="60"
   viewBox="0 0 210 60"
   version="1.1"
   id="svg1"
   sodipodi:docname="cancel_button_pressed.svg"
   inkscape:version="1.4 (e7c3feb100, 2024-10-09)"
   xmlns:inkscape="http://www.inkscape.org/namespaces/inkscape"
   xmlns:sodipodi="http://sodipodi.sourceforge.net/DTD/sodipodi-0.dtd"
   xmlns="http://www.w3.org/2000/svg"
   xmlns:svg="http://www.w3.org/2000/svg">
  <sodipodi:namedview
     id="namedview1"
     pagecolor="#505050"
     bordercolor="#eeeeee"
     borderopacity="1"
     inkscape:showpageshadow="0"
     inkscape:pageopacity="0"
     inkscape:pagecheckerboard="0"
     inkscape:deskcolor="#505050"
     inkscape:zoom="2.95071"
     inkscape:cx="84.725371"
     inkscape:cy="16.09782"
     inkscape:window-width="1280"
     inkscape:window-height="728"
     inkscape:window-x="0"
     inkscape:window-y="0"
     inkscape:window-maximized="1"
     inkscape:current-layer="svg1" />
  <defs
     id="defs1" />
  <g
     id="layer1">
    <path
       id="rect1"
       style="fill:#d73d3d;fill-opacity:1;stroke:#6b2b2b;stroke-width:0.529167;stroke-linecap:round;stroke-linejoin:round;stroke-dasharray:none;stroke-opacity:1"
       d="M 6.8791666,0.26458333 H 48.683333 l 5.961643,6.91550687 a 1.1600001,1.1600001 90 0 1 0,1.51482 L 48.683333,15.610417 H 6.8791666 L 0.91752294,8.6949102 a 1.16,1.16 90 0 1 0,-1.51482 z"
       transform="matrix(3.8308906,0,0,3.778406,-1.4287642,0.0018311)" />
    <path
       d="m 51.551141,23.125005 q -1.680631,0 -2.569241,1.255644 -0.88861,1.255644 -0.88861,3.438532 0,2.202207 0.81134,3.419216 0.830656,1.197691 2.646511,1.197691 0.849974,0 1.680631,-0.193176 0.849974,-0.193176 1.835172,-0.540893 v 2.453335 q -0.907927,0.367035 -1.796537,0.540893 -0.888609,0.173858 -1.989713,0.173858 -2.124936,0 -3.515803,-0.869292 -1.371549,-0.888609 -2.028348,-2.472652 -0.656798,-1.603361 -0.656798,-3.728297 0,-2.086301 0.753386,-3.689662 0.753387,-1.603361 2.182889,-2.511288 1.44882,-0.907927 3.535121,-0.907927 1.023833,0 2.047665,0.270446 1.043151,0.251129 1.989713,0.695434 l -0.946562,2.376065 q -0.772704,-0.367035 -1.564726,-0.637481 -0.772704,-0.270446 -1.52609,-0.270446 z m 10.547393,0.792021 q 2.124936,0 3.245357,0.927245 1.139738,0.907927 1.139738,2.801052 v 7.031606 h -2.00903 l -0.56021,-1.429502 h -0.07727 q -0.676116,0.849974 -1.429502,1.236326 -0.753387,0.386352 -2.066983,0.386352 -1.410185,0 -2.33743,-0.811339 -0.927245,-0.830657 -0.927245,-2.530605 0,-1.680632 1.178374,-2.472653 1.178373,-0.811339 3.535121,-0.88861 l 1.835172,-0.05795 v -0.463622 q 0,-0.830657 -0.444305,-1.217009 -0.424987,-0.386352 -1.197691,-0.386352 -0.772704,0 -1.506773,0.231811 -0.734069,0.212494 -1.468138,0.540893 l -0.946562,-1.951077 q 0.849974,-0.444305 1.873807,-0.695434 1.04315,-0.251129 2.163571,-0.251129 z m 0.40567,5.911186 q -1.390867,0.03863 -1.93176,0.502257 -0.540893,0.463623 -0.540893,1.217009 0,0.656799 0.386352,0.946563 0.386352,0.270446 1.004515,0.270446 0.927245,0 1.564726,-0.540893 0.637481,-0.56021 0.637481,-1.564725 V 29.789577 Z M 75.42768,23.936344 q 1.699949,0 2.723782,0.927245 1.023833,0.907927 1.023833,2.936275 v 6.877065 h -2.878323 v -6.162314 q 0,-1.139738 -0.405669,-1.699949 -0.40567,-0.579528 -1.29428,-0.579528 -1.313596,0 -1.796536,0.907927 -0.48294,0.88861 -0.48294,2.569241 v 4.964623 H 69.439224 V 24.12952 h 2.202206 l 0.386353,1.352232 h 0.15454 q 0.502258,-0.811339 1.37155,-1.178374 0.88861,-0.367034 1.873807,-0.367034 z m 10.991707,10.933761 q -2.356747,0 -3.651026,-1.294279 -1.274962,-1.313597 -1.274962,-4.114649 0,-1.93176 0.656799,-3.148768 0.656798,-1.217009 1.815854,-1.796537 1.178374,-0.579528 2.704464,-0.579528 1.081786,0 1.873807,0.212493 0.81134,0.212494 1.410185,0.502258 l -0.849974,2.221524 q -0.676116,-0.270446 -1.274962,-0.444305 -0.579528,-0.173858 -1.159056,-0.173858 -2.240841,0 -2.240841,3.187404 0,1.584043 0.579528,2.337429 0.598845,0.753387 1.661313,0.753387 0.907927,0 1.603361,-0.231811 0.695434,-0.251129 1.352232,-0.676116 v 2.453335 q -0.656798,0.424987 -1.390867,0.598845 -0.714751,0.193176 -1.815855,0.193176 z m 9.987198,-10.933761 q 2.182889,0 3.457851,1.255644 1.274964,1.236326 1.274964,3.535121 v 1.390867 h -6.799798 q 0.03863,1.217009 0.714751,1.912442 0.695434,0.695434 1.912443,0.695434 1.023832,0 1.854489,-0.193176 0.830657,-0.212494 1.719265,-0.637481 v 2.221524 q -0.772702,0.386352 -1.641994,0.56021 -0.849975,0.193176 -2.066984,0.193176 -1.584043,0 -2.801052,-0.579528 -1.217008,-0.598845 -1.912442,-1.796536 -0.695434,-1.197692 -0.695434,-3.013546 0,-1.85449 0.618164,-3.071498 0.63748,-1.236327 1.757901,-1.85449 1.120421,-0.618163 2.607876,-0.618163 z m 0.01932,2.047665 q -0.830657,0 -1.390867,0.540893 -0.540893,0.540893 -0.637481,1.680631 h 4.037378 q -0.01932,-0.96588 -0.502257,-1.584043 -0.48294,-0.637481 -1.506773,-0.637481 z m 9.929237,8.69292 h -2.87832 V 19.995553 h 2.87832 z m 14.10186,0 -3.32263,-10.817856 h -0.0773 q 0.0193,0.386352 0.058,1.159056 0.0386,0.772704 0.0773,1.661314 0.0386,0.869292 0.0386,1.584043 v 6.413443 h -2.60787 V 20.884163 h 3.97942 l 3.26468,10.54741 h 0.058 l 3.45785,-10.54741 h 3.97943 v 13.792766 h -2.72379 v -6.529348 q 0,-0.656799 0.0193,-1.506773 0.0386,-0.849975 0.058,-1.603361 0.0386,-0.772704 0.058,-1.159056 h -0.0773 l -3.55444,10.798538 z m 16.47792,-10.759903 q 2.12494,0 3.24536,0.927245 1.13974,0.907927 1.13974,2.801052 v 7.031606 h -2.00903 l -0.56021,-1.429502 h -0.0773 q -0.67612,0.849974 -1.4295,1.236326 -0.75339,0.386352 -2.06699,0.386352 -1.41018,0 -2.33743,-0.811339 -0.92724,-0.830657 -0.92724,-2.530605 0,-1.680632 1.17837,-2.472653 1.17838,-0.811339 3.53512,-0.88861 l 1.83518,-0.05795 v -0.463622 q 0,-0.830657 -0.44431,-1.217009 -0.42499,-0.386352 -1.19769,-0.386352 -0.7727,0 -1.50677,0.231811 -0.73407,0.212494 -1.46814,0.540893 l -0.94656,-1.951077 q 0.84997,-0.444305 1.8738,-0.695434 1.04315,-0.251129 2.16357,-0.251129 z m 0.40567,5.911186 q -1.39086,0.03863 -1.93176,0.502257 -0.54089,0.463623 -0.54089,1.217009 0,0.656799 0.38635,0.946563 0.38636,0.270446 1.00452,0.270446 0.92724,0 1.56472,-0.540893 0.63749,-0.56021 0.63749,-1.564725 v -0.869292 z m 11.37808,2.743099 q 0.48294,0 0.92724,-0.09659 0.44431,-0.09659 0.88861,-0.231811 v 2.144253 q -0.46362,0.193176 -1.15905,0.3284 -0.67612,0.15454 -1.48746,0.15454 -0.94656,0 -1.69995,-0.309081 -0.73407,-0.309082 -1.17837,-1.062468 -0.42499,-0.772704 -0.42499,-2.124936 v -5.080529 h -1.37155 v -1.217009 l 1.58405,-0.96588 0.83065,-2.221524 h 1.83518 v 2.240842 h 2.95559 v 2.163571 h -2.95559 v 5.080529 q 0,0.598845 0.34771,0.907927 0.34772,0.289764 0.90793,0.289764 z m 8.22929,2.298794 q -2.35674,0 -3.65102,-1.294279 -1.27496,-1.313597 -1.27496,-4.114649 0,-1.93176 0.65679,-3.148768 0.6568,-1.217009 1.81586,-1.796537 1.17837,-0.579528 2.70446,-0.579528 1.08179,0 1.87381,0.212493 0.81134,0.212494 1.41018,0.502258 l -0.84997,2.221524 q -0.67612,-0.270446 -1.27496,-0.444305 -0.57953,-0.173858 -1.15906,-0.173858 -2.24084,0 -2.24084,3.187404 0,1.584043 0.57953,2.337429 0.59884,0.753387 1.66131,0.753387 0.90793,0 1.60336,-0.231811 0.69544,-0.251129 1.35223,-0.676116 v 2.453335 q -0.65679,0.424987 -1.39086,0.598845 -0.71475,0.193176 -1.81586,0.193176 z m 8.51906,-11.880324 q 0,0.772704 -0.0579,1.487456 -0.0386,0.714751 -0.0773,1.004515 h 0.15454 q 0.50226,-0.811339 1.29428,-1.178374 0.79202,-0.367034 1.7579,-0.367034 1.71927,0 2.7431,0.927245 1.04315,0.907927 1.04315,2.936275 v 6.877065 h -2.87832 v -6.162314 q 0,-2.279477 -1.69995,-2.279477 -1.29428,0 -1.79654,0.907927 -0.48294,0.88861 -0.48294,2.569241 v 4.964623 H 162.5887 V 19.995553 h 2.87832 z"
       id="text1"
       style="font-weight:bold;font-size:19.3176px;line-height:0;font-family:'Noto Sans';-inkscape-font-specification:'Noto Sans Bold';letter-spacing:0px;word-spacing:0px;white-space:pre;fill:#ffffff;stroke-width:1.54164;stroke-linecap:round;stroke-linejoin:round"
       transform="scale(0.96594129,1.0352596)"
       aria-label="Cancel Match" />
  </g>
</svg>
