<?xml version="1.0" encoding="UTF-8" standalone="no"?>
<!-- Created with Inkscape (http://www.inkscape.org/) -->

<svg
   width="210"
   height="60"
   viewBox="0 0 210 60"
   version="1.1"
   id="svg1"
   sodipodi:docname="queue_button_hovered.svg"
   inkscape:version="1.4 (e7c3feb100, 2024-10-09)"
   xmlns:inkscape="http://www.inkscape.org/namespaces/inkscape"
   xmlns:sodipodi="http://sodipodi.sourceforge.net/DTD/sodipodi-0.dtd"
   xmlns="http://www.w3.org/2000/svg"
   xmlns:svg="http://www.w3.org/2000/svg">
  <sodipodi:namedview
     id="namedview1"
     pagecolor="#505050"
     bordercolor="#eeeeee"
     borderopacity="1"
     inkscape:showpageshadow="0"
     inkscape:pageopacity="0"
     inkscape:pagecheckerboard="0"
     inkscape:deskcolor="#505050"
     inkscape:zoom="5.7285714"
     inkscape:cx="105.08728"
     inkscape:cy="29.937656"
     inkscape:window-width="1280"
     inkscape:window-height="728"
     inkscape:window-x="0"
     inkscape:window-y="0"
     inkscape:window-maximized="1"
     inkscape:current-layer="svg1" />
  <defs
     id="defs1" />
  <g
     id="layer1">
    <path
       id="rect1"
       style="fill:#6f59e6;fill-opacity:1;stroke:#352b91;stroke-width:0.529167;stroke-linecap:round;stroke-linejoin:round;stroke-dasharray:none;stroke-opacity:1"
       d="M 6.8791666,0.26458333 H 48.683333 l 5.961643,6.91550687 a 1.1600001,1.1600001 90 0 1 0,1.51482 L 48.683333,15.610417 H 6.8791666 L 0.91752294,8.6949102 a 1.16,1.16 90 0 1 0,-1.51482 z"
       transform="matrix(3.8308906,0,0,3.778406,-1.4287642,0.0018311)" />
    <path
       d="m 40.192397,27.761229 q 0,2.318112 -0.830656,4.01806 -0.830657,1.680632 -2.569241,2.472653 l 3.322627,3.70898 h -3.747614 l -2.530606,-3.090817 h -0.212494 q -2.240841,0 -3.708979,-0.888609 -1.44882,-0.88861 -2.163571,-2.491971 -0.695434,-1.60336 -0.695434,-3.747614 0,-2.144254 0.695434,-3.728297 0.714751,-1.584043 2.163571,-2.453335 1.468138,-0.88861 3.728297,-0.88861 2.240842,0 3.689662,0.88861 1.44882,0.869292 2.144253,2.472653 0.714751,1.584043 0.714751,3.728297 z m -10.064469,0 q 0,2.163571 0.830657,3.419215 0.830656,1.236326 2.665828,1.236326 1.873808,0 2.685147,-1.236326 0.811339,-1.255644 0.811339,-3.419215 0,-2.182889 -0.811339,-3.419216 -0.811339,-1.236326 -2.665829,-1.236326 -1.85449,0 -2.685146,1.236326 -0.830657,1.236327 -0.830657,3.419216 z M 52.4977,24.12952 V 34.676929 H 50.295493 L 49.909141,33.324697 H 49.7546 q -0.502257,0.81134 -1.390867,1.178374 -0.869292,0.367034 -1.85449,0.367034 -1.699948,0 -2.723781,-0.907927 -1.023833,-0.927245 -1.023833,-2.955593 V 24.12952 h 2.878322 v 6.162314 q 0,1.120421 0.40567,1.699949 0.40567,0.579528 1.294279,0.579528 1.313597,0 1.796537,-0.88861 0.48294,-0.907927 0.48294,-2.588558 V 24.12952 Z m 7.359996,-0.193176 q 2.182889,0 3.457851,1.255644 1.274961,1.236326 1.274961,3.535121 v 1.390867 h -6.799795 q 0.03864,1.217009 0.714751,1.912442 0.695434,0.695434 1.912442,0.695434 1.023833,0 1.85449,-0.193176 0.830657,-0.212494 1.719267,-0.637481 v 2.221524 q -0.772704,0.386352 -1.641996,0.56021 -0.849975,0.193176 -2.066984,0.193176 -1.584043,0 -2.801052,-0.579528 -1.217009,-0.598845 -1.912442,-1.796536 -0.695434,-1.197692 -0.695434,-3.013546 0,-1.85449 0.618163,-3.071498 0.637481,-1.236327 1.757902,-1.85449 1.120421,-0.618163 2.607876,-0.618163 z m 0.01932,2.047665 q -0.830657,0 -1.390868,0.540893 -0.540892,0.540893 -0.63748,1.680631 h 4.037378 q -0.01932,-0.96588 -0.502258,-1.584043 -0.48294,-0.637481 -1.506772,-0.637481 z M 76.606048,24.12952 V 34.676929 H 74.403842 L 74.01749,33.324697 h -0.154541 q -0.502257,0.81134 -1.390867,1.178374 -0.869292,0.367034 -1.85449,0.367034 -1.699949,0 -2.723781,-0.907927 -1.023833,-0.927245 -1.023833,-2.955593 V 24.12952 H 69.7483 v 6.162314 q 0,1.120421 0.40567,1.699949 0.40567,0.579528 1.294279,0.579528 1.313597,0 1.796537,-0.88861 0.48294,-0.907927 0.48294,-2.588558 V 24.12952 Z m 7.359997,-0.193176 q 2.182889,0 3.45785,1.255644 1.274962,1.236326 1.274962,3.535121 v 1.390867 h -6.799795 q 0.03863,1.217009 0.714751,1.912442 0.695434,0.695434 1.912442,0.695434 1.023833,0 1.85449,-0.193176 0.830657,-0.212494 1.719266,-0.637481 v 2.221524 q -0.772704,0.386352 -1.641996,0.56021 -0.849974,0.193176 -2.066983,0.193176 -1.584043,0 -2.801052,-0.579528 -1.217009,-0.598845 -1.912442,-1.796536 -0.695434,-1.197692 -0.695434,-3.013546 0,-1.85449 0.618163,-3.071498 0.637481,-1.236327 1.757902,-1.85449 1.120421,-0.618163 2.607876,-0.618163 z m 0.01932,2.047665 q -0.830657,0 -1.390868,0.540893 -0.540893,0.540893 -0.637481,1.680631 h 4.037379 q -0.01932,-0.96588 -0.502258,-1.584043 -0.48294,-0.637481 -1.506772,-0.637481 z m 15.183633,8.69292 H 96.290674 V 20.884163 h 7.900896 v 2.395382 h -5.022574 v 3.554439 h 4.674864 v 2.395382 h -4.674864 z m 17.076754,-5.293022 q 0,2.627194 -1.39087,4.056696 -1.37155,1.429502 -3.74762,1.429502 -1.46813,0 -2.62719,-0.63748 -1.13974,-0.637481 -1.79654,-1.85449 -0.65679,-1.236326 -0.65679,-2.994228 0,-2.627194 1.37155,-4.037378 1.37155,-1.410185 3.76693,-1.410185 1.48745,0 2.62719,0.637481 1.13974,0.63748 1.79654,1.854489 0.6568,1.197691 0.6568,2.955593 z m -7.28274,0 q 0,1.564726 0.50226,2.376065 0.52157,0.792021 1.68063,0.792021 1.13974,0 1.642,-0.792021 0.52157,-0.811339 0.52157,-2.376065 0,-1.564726 -0.52157,-2.33743 -0.50226,-0.792021 -1.66132,-0.792021 -1.13974,0 -1.66131,0.792021 -0.50226,0.772704 -0.50226,2.33743 z m 15.55066,-5.447563 q 0.2125,0 0.50226,0.01932 0.28976,0.01932 0.46362,0.05795 l -0.21249,2.704464 q -0.13522,-0.03863 -0.40567,-0.05795 -0.25113,-0.03863 -0.4443,-0.03863 -0.73407,0 -1.41019,0.270447 -0.67612,0.251128 -1.1011,0.830656 -0.40567,0.579528 -0.40567,1.584044 v 5.370292 h -2.87832 V 24.12952 h 2.18288 l 0.42499,1.777219 h 0.13522 q 0.46363,-0.811339 1.27497,-1.390867 0.81134,-0.579528 1.8738,-0.579528 z m 13.96664,10.740585 -3.32263,-10.817856 h -0.0773 q 0.0193,0.386352 0.058,1.159056 0.0386,0.772704 0.0773,1.661314 0.0386,0.869292 0.0386,1.584043 v 6.413443 h -2.60788 V 20.884163 h 3.97943 l 3.26467,10.54741 h 0.058 l 3.45785,-10.54741 h 3.97942 v 13.792766 h -2.72378 v -6.529348 q 0,-0.656799 0.0193,-1.506773 0.0386,-0.849975 0.058,-1.603361 0.0386,-0.772704 0.0579,-1.159056 h -0.0773 l -3.55443,10.798538 z m 16.47793,-10.759903 q 2.12494,0 3.24536,0.927245 1.13974,0.907927 1.13974,2.801052 v 7.031606 h -2.00904 l -0.56021,-1.429502 h -0.0773 q -0.67611,0.849974 -1.4295,1.236326 -0.75338,0.386352 -2.06698,0.386352 -1.41019,0 -2.33743,-0.811339 -0.92725,-0.830657 -0.92725,-2.530605 0,-1.680632 1.17838,-2.472653 1.17837,-0.811339 3.53512,-0.88861 l 1.83517,-0.05795 v -0.463622 q 0,-0.830657 -0.4443,-1.217009 -0.42499,-0.386352 -1.1977,-0.386352 -0.7727,0 -1.50677,0.231811 -0.73407,0.212494 -1.46814,0.540893 l -0.94656,-1.951077 q 0.84998,-0.444305 1.87381,-0.695434 1.04315,-0.251129 2.16357,-0.251129 z m 0.40567,5.911186 q -1.39087,0.03863 -1.93176,0.502257 -0.54089,0.463623 -0.54089,1.217009 0,0.656799 0.38635,0.946563 0.38635,0.270446 1.00451,0.270446 0.92725,0 1.56473,-0.540893 0.63748,-0.56021 0.63748,-1.564725 v -0.869292 z m 11.37806,2.743099 q 0.48294,0 0.92724,-0.09659 0.44431,-0.09659 0.88861,-0.231811 v 2.144253 q -0.46362,0.193176 -1.15905,0.3284 -0.67612,0.15454 -1.48746,0.15454 -0.94656,0 -1.69995,-0.309081 -0.73406,-0.309082 -1.17837,-1.062468 Q 162.608,32.725852 162.608,31.37362 v -5.080529 h -1.37155 v -1.217009 l 1.58405,-0.96588 0.83065,-2.221524 h 1.83518 v 2.240842 h 2.95559 v 2.163571 h -2.95559 v 5.080529 q 0,0.598845 0.34771,0.907927 0.34772,0.289764 0.90793,0.289764 z m 8.22931,2.298794 q -2.35675,0 -3.65103,-1.294279 -1.27496,-1.313597 -1.27496,-4.114649 0,-1.93176 0.6568,-3.148768 0.6568,-1.217009 1.81585,-1.796537 1.17838,-0.579528 2.70447,-0.579528 1.08178,0 1.8738,0.212493 0.81134,0.212494 1.41019,0.502258 l -0.84997,2.221524 q -0.67612,-0.270446 -1.27497,-0.444305 -0.57952,-0.173858 -1.15905,-0.173858 -2.24084,0 -2.24084,3.187404 0,1.584043 0.57952,2.337429 0.59885,0.753387 1.66132,0.753387 0.90792,0 1.60336,-0.231811 0.69543,-0.251129 1.35223,-0.676116 v 2.453335 q -0.6568,0.424987 -1.39087,0.598845 -0.71475,0.193176 -1.81585,0.193176 z m 8.51906,-11.880324 q 0,0.772704 -0.058,1.487456 -0.0386,0.714751 -0.0773,1.004515 h 0.15454 q 0.50225,-0.811339 1.29428,-1.178374 0.79202,-0.367034 1.7579,-0.367034 1.71926,0 2.7431,0.927245 1.04315,0.907927 1.04315,2.936275 v 6.877065 h -2.87833 v -6.162314 q 0,-2.279477 -1.69994,-2.279477 -1.29428,0 -1.79654,0.907927 -0.48294,0.88861 -0.48294,2.569241 v 4.964623 h -2.87832 V 19.995553 h 2.87832 z"
       id="text1"
       style="font-weight:bold;font-size:19.3176px;line-height:0;font-family:'Noto Sans';-inkscape-font-specification:'Noto Sans Bold';letter-spacing:0px;word-spacing:0px;white-space:pre;fill:#ffffff;stroke-width:1.54164;stroke-linecap:round;stroke-linejoin:round"
       transform="scale(0.96594129,1.0352596)"
       aria-label="Queue For Match" />
  </g>
</svg>
