<?xml version="1.0" encoding="UTF-8" standalone="no"?>
<!-- Created with Inkscape (http://www.inkscape.org/) -->

<svg
   width="100"
   height="100"
   viewBox="0 0 100 100"
   version="1.1"
   id="svg1"
   xml:space="preserve"
   xmlns="http://www.w3.org/2000/svg"
   xmlns:svg="http://www.w3.org/2000/svg"><defs
     id="defs1" /><g
     id="layer3"
     style="display:inline"
     transform="translate(-100)"><g
       id="g2"
       style="display:inline"
       transform="translate(0.027345,-12.494329)"><path
         id="rect17"
         style="display:inline;fill:#000000;fill-opacity:1;stroke:none;stroke-width:4;stroke-linecap:square;stroke-dasharray:none"
         d="m 127.49609,72.054688 a 4,4 0 0 0 -4,4 v 2.929687 h 14.74805 v 5.439453 a 3,3 0 0 0 3,3 h 17.36719 a 3,3 0 0 0 3,-3 v -5.439453 h 14.83789 v -2.929687 a 4,4 0 0 0 -4,-4 z" /><path
         id="rect19"
         style="display:inline;fill:#000000;fill-opacity:1;stroke-width:6.51803;stroke-linecap:square"
         d="m 125.08777,80.464058 h 9.67788 a 1.5,1.5 45 0 1 1.5,1.5 v 8.0516 a 3.5,3.5 135 0 1 -3.5,3.5 l -1.67788,0 a 7.5,7.5 45 0 1 -7.5,-7.5 v -4.0516 a 1.5,1.5 135 0 1 1.5,-1.5 z"
         transform="translate(-0.09137)" /><path
         id="path20"
         style="display:inline;fill:#000000;fill-opacity:1;stroke-width:6.51803;stroke-linecap:square"
         d="m 125.08777,80.464058 h 9.67788 a 1.5,1.5 45 0 1 1.5,1.5 v 8.0516 a 3.5,3.5 135 0 1 -3.5,3.5 l -1.67788,0 a 7.5,7.5 45 0 1 -7.5,-7.5 v -4.0516 a 1.5,1.5 135 0 1 1.5,-1.5 z"
         transform="matrix(-1.0000095,0,0,1,300.03775,-5.8e-5)" /><path
         id="rect22"
         style="fill:#000000;fill-opacity:1;stroke-width:6.09438;stroke-linecap:square"
         d="m 142.38292,61.514759 h 14.16549 a 8,8 45 0 1 8,8 0.84142904,0.84142904 147.17859 0 1 -1,0.644985 h -28.16549 a 1,1 45 0 1 -1,-1 7.8245062,7.8245062 136.29993 0 1 8,-7.644985 z"
         transform="translate(0.50699)" /><path
         id="rect23"
         style="fill:#000000;fill-opacity:1;stroke-width:4.37163;stroke-linecap:square"
         d="m 149.67091,31.500898 a 1.8239975,2.008731 0 0 0 -1.04492,0.626957 l -11.9082,14.378987 a 0.66211403,0.72917257 0 0 0 0.49023,1.22071 h 7.88672 v 8.025437 a 2,2.0000113 0 0 0 2,2.000011 h 6.02539 a 2,2.0000113 0 0 0 2,-2.000011 v -8.025437 h 7.61719 a 0.66214531,0.72920701 0 0 0 0.49024,-1.22071 L 151.3213,32.127855 a 1.8239975,2.008731 0 0 0 -1.65039,-0.626957 z" /></g></g></svg>
