<?xml version="1.0" encoding="UTF-8" standalone="no"?>
<!-- Created with Inkscape (http://www.inkscape.org/) -->

<svg
   width="100"
   height="100"
   viewBox="0 0 100 100"
   version="1.1"
   id="svg1"
   xml:space="preserve"
   xmlns="http://www.w3.org/2000/svg"
   xmlns:svg="http://www.w3.org/2000/svg"><defs
     id="defs1" /><g
     id="layer5"
     style="display:inline"
     transform="translate(-100,-100)"><g
       id="g32"
       style="display:inline"
       transform="matrix(0.11810401,0,0,0.11810401,132.40279,132.47956)"><path
         id="path31"
         style="display:inline;fill:#353535;fill-opacity:1;stroke:#000000;stroke-width:14;stroke-linecap:square;stroke-linejoin:miter;stroke-dasharray:none;stroke-opacity:1"
         d="m 149.0918,42.273438 c 0,0 -56.815139,30.587777 -92.728519,29.089843 C 45.946411,70.928797 34.689534,196.82312 148.638,254.52539 v 0 C 262.58665,196.82312 252.23523,70.928797 241.81836,71.363281 205.90498,72.861215 149.0918,42.273438 149.0918,42.273438 Z" /><path
         id="path17"
         style="display:inline;fill:#d73d3d;fill-opacity:1;stroke:#6b2b2b;stroke-width:0.5;stroke-linecap:round;stroke-linejoin:round;stroke-dasharray:none;stroke-opacity:1"
         d="m 121.58008,90.611328 c -7.82761,-0.21508 -16.53884,2.837732 -25.320314,12.173832 -28.10072,29.8755 3.424569,60.79086 54.005854,103.08984 50.58129,-42.29898 82.10463,-73.21434 54.00391,-103.08984 -24.29487,-25.829296 -48.01395,-3.59802 -54.00391,2.90625 -3.8241,-4.15266 -14.85627,-14.700094 -28.68554,-15.080082 z" /></g><g
       id="g39"
       style="display:inline"
       transform="matrix(0.11810401,0,0,0.11810401,159.90279,132.47956)"><path
         id="path38"
         style="display:inline;fill:#353535;fill-opacity:1;stroke:#000000;stroke-width:14;stroke-linecap:square;stroke-linejoin:miter;stroke-dasharray:none;stroke-opacity:1"
         d="m 149.0918,42.273438 c 0,0 -56.815139,30.587777 -92.728519,29.089843 C 45.946411,70.928797 34.689534,196.82312 148.638,254.52539 v 0 C 262.58665,196.82312 252.23523,70.928797 241.81836,71.363281 205.90498,72.861215 149.0918,42.273438 149.0918,42.273438 Z" /><path
         id="path39"
         style="display:inline;fill:#d73d3d;fill-opacity:1;stroke:#6b2b2b;stroke-width:0.5;stroke-linecap:round;stroke-linejoin:round;stroke-dasharray:none;stroke-opacity:1"
         d="m 121.58008,90.611328 c -7.82761,-0.21508 -16.53884,2.837732 -25.320314,12.173832 -28.10072,29.8755 3.424569,60.79086 54.005854,103.08984 50.58129,-42.29898 82.10463,-73.21434 54.00391,-103.08984 -24.29487,-25.829296 -48.01395,-3.59802 -54.00391,2.90625 -3.8241,-4.15266 -14.85627,-14.700094 -28.68554,-15.080082 z" /></g><g
       id="g41"
       style="display:inline"
       transform="matrix(0.11810401,0,0,0.11810401,104.90279,132.47956)"><path
         id="path40"
         style="display:inline;fill:#353535;fill-opacity:1;stroke:#000000;stroke-width:14;stroke-linecap:square;stroke-linejoin:miter;stroke-dasharray:none;stroke-opacity:1"
         d="m 149.0918,42.273438 c 0,0 -56.815139,30.587777 -92.728519,29.089843 C 45.946411,70.928797 34.689534,196.82312 148.638,254.52539 v 0 C 262.58665,196.82312 252.23523,70.928797 241.81836,71.363281 205.90498,72.861215 149.0918,42.273438 149.0918,42.273438 Z" /><path
         id="path41"
         style="display:inline;fill:#d73d3d;fill-opacity:1;stroke:#6b2b2b;stroke-width:0.5;stroke-linecap:round;stroke-linejoin:round;stroke-dasharray:none;stroke-opacity:1"
         d="m 121.58008,90.611328 c -7.82761,-0.21508 -16.53884,2.837732 -25.320314,12.173832 -28.10072,29.8755 3.424569,60.79086 54.005854,103.08984 50.58129,-42.29898 82.10463,-73.21434 54.00391,-103.08984 -24.29487,-25.829296 -48.01395,-3.59802 -54.00391,2.90625 -3.8241,-4.15266 -14.85627,-14.700094 -28.68554,-15.080082 z" /></g></g></svg>
