<?xml version="1.0" encoding="UTF-8" standalone="no"?>
<!-- Generator: Adobe Illustrator 27.3.0, SVG Export Plug-In . SVG Version: 6.00 Build 0)  -->

<svg
   version="1.1"
   id="Layer_1"
   x="0px"
   y="0px"
   viewBox="0 0 2000 2000"
   style="enable-background:new 0 0 2000 2000;"
   xml:space="preserve"
   sodipodi:docname="grass_middle.svg"
   inkscape:version="1.4 (e7c3feb100, 2024-10-09)"
   xmlns:inkscape="http://www.inkscape.org/namespaces/inkscape"
   xmlns:sodipodi="http://sodipodi.sourceforge.net/DTD/sodipodi-0.dtd"
   xmlns:xlink="http://www.w3.org/1999/xlink"
   xmlns="http://www.w3.org/2000/svg"
   xmlns:svg="http://www.w3.org/2000/svg"><defs
   id="defs62"><style
     id="style1-6">
      .cls-1 {
        fill: url(#linear-gradient-2);
      }

      .cls-2 {
        fill: url(#New_Gradient_Swatch);
      }

      .cls-3 {
        fill: #24363f;
      }

      .cls-4 {
        fill: url(#New_Gradient_Swatch-3);
      }

      .cls-5 {
        fill: #56646c;
      }

      .cls-6 {
        fill: url(#linear-gradient);
      }

      .cls-7 {
        fill: url(#New_Gradient_Swatch-2);
      }
    </style><linearGradient
     id="linear-gradient"
     x1="49.26"
     y1="328.03"
     x2="323.96"
     y2="328.03"
     gradientTransform="translate(-0.46,-148.98)"
     gradientUnits="userSpaceOnUse"><stop
       offset=".45"
       stop-color="#008ae6"
       id="stop1-7" /><stop
       offset="1"
       stop-color="#5fb3ea"
       id="stop2-5" /></linearGradient><linearGradient
     id="New_Gradient_Swatch"
     data-name="New Gradient Swatch"
     x1="256.46"
     y1="328.03"
     x2="323.86"
     y2="328.03"
     gradientTransform="translate(-.46 -148.98)"
     gradientUnits="userSpaceOnUse"><stop
       offset="0"
       stop-color="#008ae6"
       id="stop3-3" /><stop
       offset="1"
       stop-color="#002c4a"
       id="stop4-5" /></linearGradient><linearGradient
     id="linear-gradient-2"
     x1="49.26"
     y1="327.98"
     x2="89.66"
     y2="327.98"
     gradientTransform="translate(-0.46,-148.98)"
     gradientUnits="userSpaceOnUse"><stop
       offset="0"
       stop-color="#008ae6"
       id="stop5-6" /><stop
       offset="1"
       stop-color="#002c4a"
       id="stop6-2" /></linearGradient><linearGradient
     id="New_Gradient_Swatch-2"
     data-name="New Gradient Swatch"
     x1="170.5"
     y1="83.3"
     x2="170.5"
     y2="123.7"
     xlink:href="#New_Gradient_Swatch" /><linearGradient
     id="New_Gradient_Swatch-3"
     data-name="New Gradient Swatch"
     x1="170.5"
     y1="274.8"
     x2="170.5"
     y2="234.3"
     xlink:href="#New_Gradient_Swatch" /></defs><sodipodi:namedview
   id="namedview62"
   pagecolor="#505050"
   bordercolor="#eeeeee"
   borderopacity="1"
   inkscape:showpageshadow="0"
   inkscape:pageopacity="0"
   inkscape:pagecheckerboard="0"
   inkscape:deskcolor="#505050"
   inkscape:zoom="0.12851409"
   inkscape:cx="1252.7809"
   inkscape:cy="922.07788"
   inkscape:window-width="1280"
   inkscape:window-height="728"
   inkscape:window-x="0"
   inkscape:window-y="0"
   inkscape:window-maximized="1"
   inkscape:current-layer="g16" />
<style
   type="text/css"
   id="style1">
	.st0{display:none;fill:#000A0A;}
	.st1{fill:url(#SVGID_1_);}
	.st2{fill:url(#SVGID_00000169537827978997709640000009224468500884241848_);}
	.st3{fill:url(#SVGID_00000177485757930491500180000005001437649714154161_);}
	.st4{display:none;}
	.st5{display:inline;}
	.st6{fill:url(#SVGID_00000039125957604897687340000010740138897545810351_);}
	.st7{display:inline;fill:url(#SVGID_00000173866525941712220510000006216242229897898889_);}
	.st8{display:inline;fill:url(#SVGID_00000018225561361075440670000005261524769023190669_);}
	.st9{display:inline;fill:url(#SVGID_00000106847758383438086680000006400958743264048535_);}
	.st10{display:inline;fill:url(#SVGID_00000099654504645296272700000012191273806564824198_);}
	.st11{display:inline;fill:url(#SVGID_00000165219847940514738900000014579350843934599832_);}
	.st12{display:inline;fill:url(#SVGID_00000149377834522776778870000003871717016590087060_);}
	.st13{display:inline;fill:url(#SVGID_00000020381677625094605850000001732838605908125350_);}
</style>

<g
   id="g16"
   style="display:inline">
	<radialGradient
   id="SVGID_1_"
   cx="996.16107"
   cy="997.2663"
   r="1133.7557"
   gradientUnits="userSpaceOnUse">
		<stop
   offset="0"
   style="stop-color:#000000"
   id="stop1" />
		<stop
   offset="0.3099"
   style="stop-color:#000303"
   id="stop2" />
		<stop
   offset="0.5521"
   style="stop-color:#000D0D"
   id="stop3" />
		<stop
   offset="0.7713"
   style="stop-color:#001E1D"
   id="stop4" />
		<stop
   offset="0.976"
   style="stop-color:#003534"
   id="stop5" />
		<stop
   offset="1"
   style="stop-color:#003837"
   id="stop6" />
	</radialGradient>
	
	
		<radialGradient
   id="SVGID_00000019647959356941040910000010543237782935087025_"
   cx="919.54401"
   cy="1526.2197"
   r="929.24042"
   gradientTransform="matrix(-0.9632,0.2689,-0.2689,-0.9632,2317.3013,2200.6438)"
   gradientUnits="userSpaceOnUse">
		<stop
   offset="0"
   style="stop-color:#000000;stop-opacity:0.60000002;"
   id="stop7" />
		<stop
   offset="0.25760001"
   style="stop-color:#000404;stop-opacity:0.60000002;"
   id="stop8" />
		<stop
   offset="0.5359"
   style="stop-color:#001111;stop-opacity:0.60000002;"
   id="stop9" />
		<stop
   offset="0.82300001"
   style="stop-color:#002726;stop-opacity:0.60000002;"
   id="stop10" />
		<stop
   offset="1"
   style="stop-color:#003837;stop-opacity:0.60000002;"
   id="stop11" />
	</radialGradient>
	<path
   style="display:inline;fill:url(#SVGID_00000019647959356941040910000010543237782935087025_)"
   d="m 601.04,832.49 c -1.96,-3.1 -4.91,-4.56 -7.73,-6.14 -13.34,-7.45 -26.52,-15.21 -39.11,-23.8 -11.69,-7.97 -23.16,-16.3 -34.37,-24.98 -9.59,-7.42 -19.06,-14.98 -28.26,-22.83 -11.27,-9.61 -22.25,-19.6 -32.84,-29.99 -2.86,-2.81 -5.29,-5.69 -10.43,-4.63 -3.84,0.79 -4.72,-4.57 -4.58,-6.47 0.46,-6.13 -4.23,-8.35 -7.54,-11.05 -7.04,-5.73 -13.37,-12.33 -21.04,-17.3 -12.49,-8.1 -22.56,-19.61 -36.03,-26.25 -10.14,-5 -19.53,-11.13 -29.05,-17.1 -4.77,-2.99 -8.97,-6.39 -11.94,-11.44 -3.36,-5.72 -9.04,-9.42 -14.02,-13.6 -13.48,-11.31 -26.28,-23.35 -39.12,-35.35 -18.82,-17.58 -36.22,-36.56 -54.19,-54.98 -4.94,-5.06 -9.52,-10.47 -14.23,-15.75 -0.96,-1.07 -2.65,-2.32 -1.42,-3.77 1.1,-1.31 2.82,-0.29 4.1,0.49 6.98,4.27 13.97,8.5 20.88,12.89 8.28,5.26 16.93,9.89 25.33,14.92 10.99,6.59 22.23,12.76 33.24,19.31 10.18,6.05 20.31,12.18 30.43,18.33 1.93,1.17 3.7,2.61 5.91,3.61 -1.58,-2.29 -3.08,-4.64 -4.75,-6.86 -7.61,-10.11 -14.33,-20.83 -21.48,-31.25 -5.99,-8.73 -11.87,-17.53 -17.53,-26.47 -4.94,-7.8 -9.39,-15.91 -14.01,-23.91 -3.2,-5.53 -6.21,-11.17 -9.51,-16.65 -7.65,-12.71 -14.17,-26.03 -21.32,-39 -5.78,-10.48 -10.92,-21.3 -16.83,-31.73 -5.11,-9.02 -8.47,-18.89 -12.44,-28.45 -0.48,-1.14 -1.52,-2.77 0.11,-3.64 1.34,-0.72 2.61,0.52 3.58,1.42 6.61,6.09 13.19,12.23 19.74,18.39 15.58,14.65 31.08,29.38 46.71,43.98 14.13,13.19 28.34,26.3 42.6,39.34 9.95,9.1 20.06,18.02 30.1,27.01 11.37,10.18 22.63,20.48 34.14,30.51 14.59,12.72 28.73,26.07 44.25,37.55 14.87,11.01 30.3,21.31 45.08,32.51 1.51,1.15 3.22,2.06 4.9,2.95 1.37,0.73 3.09,1.47 3.39,-0.96 0.27,-2.19 3.74,-0.1 3.26,-2.62 -0.57,-3.03 -2.46,-5.46 -4.34,-7.78 -6.89,-8.45 -13.72,-16.97 -20.85,-25.22 -14.38,-16.63 -27.35,-34.31 -40.21,-52.1 -4.63,-6.4 -9.56,-12.57 -14.04,-19.1 -3.41,-4.98 -5.92,-10.4 -8.84,-15.59 -4.05,-7.21 -7.6,-14.74 -11.29,-22.17 -7.05,-14.18 -13.02,-28.81 -18.9,-43.44 -7.37,-18.32 -13.68,-37.07 -18.36,-56.31 -0.48,-1.99 -1.11,-3.94 -1.62,-5.92 -0.3,-1.17 -0.88,-2.49 0.52,-3.3 1.29,-0.74 2.35,0.07 3.29,0.91 5.09,4.52 10.21,9.03 15.27,13.59 12.45,11.21 24.78,22.56 37.34,33.65 23.38,20.64 46.82,41.22 70.36,61.68 15.11,13.13 29.6,26.95 44.46,40.35 25.49,22.99 49.96,47.05 74.64,70.88 9.86,9.51 19.45,19.3 29.25,29.05 0.92,-1.6 -0.2,-2.53 -0.68,-3.53 -5.05,-10.53 -10.64,-20.84 -15.09,-31.62 -5.3,-12.84 -11.47,-25.28 -17.51,-37.73 -7.54,-15.56 -13.54,-31.75 -20.87,-47.38 -2.36,-5.03 -3.27,-10.73 -5.63,-15.76 -9.06,-19.29 -14.28,-40.02 -22.72,-59.51 -7.66,-17.69 -13.32,-35.99 -18.63,-54.46 -2.18,-7.58 -5.6,-14.81 -7.75,-22.39 -4.08,-14.39 -7.65,-28.92 -11.41,-43.4 -0.32,-1.24 -1.22,-2.79 0.41,-3.66 1.4,-0.74 2.69,0.24 3.66,1.18 4.88,4.75 9.82,9.45 14.52,14.38 26.57,27.93 53.83,55.17 80.99,82.51 19.59,19.72 39.08,39.54 58.65,59.27 14.49,14.62 28.19,29.97 41.83,45.37 13.35,15.08 26.44,30.4 39.02,46.12 9.94,12.43 19.39,25.27 28.7,38.18 15.89,22.05 32.74,43.47 45.64,67.54 1.02,1.9 2.34,3.41 4.45,1.81 2.39,-1.81 4.62,-1.77 7.23,-0.73 2.69,1.08 3.45,0.14 2.64,-2.68 -3.11,-10.82 -8.2,-20.78 -13.43,-30.65 -2.47,-4.66 -3.47,-9.75 -5.39,-14.54 -8.52,-21.26 -15.99,-42.85 -22.25,-64.89 -5.92,-20.84 -13.47,-41.26 -18.51,-62.3 -4.01,-16.79 -8.63,-33.49 -11.5,-50.58 -1.05,-6.26 -2.82,-12.45 -4.32,-18.61 -2.14,-8.75 -2.94,-17.7 -5.14,-26.41 -1.45,-5.73 -1.6,-11.8 -2.28,-17.72 -0.51,-4.44 -0.8,-9 -1.7,-13.28 -1.55,-7.39 -0.95,-14.9 -2.36,-22.23 -0.22,-1.15 0.09,-2.27 1.29,-2.72 1.7,-0.64 2.83,0.28 3.8,1.6 5.14,7.03 10.21,14.11 15.45,21.06 15,19.9 28.9,40.59 44.08,60.37 16.5,21.51 31.9,43.82 47.46,66.01 1.41,2 2.65,4.12 4.03,6.14 0.95,1.39 2.04,2.19 2.62,-0.23 0.97,-4.07 2.18,-8.06 0.94,-12.39 -2.39,-8.38 -3.82,-17.17 -6.72,-25.24 -4.16,-11.56 -7.2,-23.44 -11.37,-34.96 -2.07,-5.73 -1.89,-11.8 -3.69,-17.55 -3.35,-10.71 -4.54,-21.83 -5.83,-32.93 -0.8,-6.88 -2.48,-13.67 -3.05,-20.57 -0.47,-5.66 -1.53,-11.25 -1.57,-17 -0.06,-7.3 -1.18,-14.59 -1.63,-21.89 -0.42,-6.78 -0.34,-13.6 -0.86,-20.37 -0.73,-9.37 -0.15,-18.76 -0.64,-28.12 -0.02,-0.41 -0.08,-0.82 -0.06,-1.23 0.08,-1.99 -0.72,-4.6 1.51,-5.53 2.59,-1.08 3.41,1.85 4.38,3.34 9.13,14 18.39,27.91 26.94,42.28 7.21,12.13 14.9,23.98 21.99,36.18 9.23,15.86 18.99,31.39 27.92,47.44 6.46,11.62 12.86,23.28 19.2,34.96 4.33,7.98 7.81,16.42 11.69,24.65 3.7,7.86 7.55,15.65 11.1,23.58 2.55,5.71 5.14,11.47 6.91,17.44 1.22,4.12 4.95,4 7.47,5.78 1.1,0.78 1.79,-1.51 2.03,-2.84 1.76,-9.64 3.45,-19.3 5.28,-28.92 5.67,-29.69 10.86,-59.49 17.27,-89.02 5.43,-25.02 10.02,-50.2 15.43,-75.22 4.09,-18.88 6.96,-38.03 11.14,-56.89 3.69,-16.61 6.66,-33.36 9.94,-50.04 0.89,-4.5 1.3,-9.15 2.07,-13.71 0.29,-1.68 0.95,-3.45 2.83,-3.54 1.74,-0.08 1.66,1.86 2.13,3.06 4.63,11.82 9.39,23.59 13.83,35.48 3.47,9.3 6.56,18.74 9.81,28.13 4.01,11.56 8.33,23.02 11.91,34.71 2.19,7.14 4.99,14.07 6.65,21.42 1.73,7.67 4.77,15.04 6.89,22.64 4.57,16.39 9.15,32.79 13.24,49.3 1.7,6.88 3.4,13.77 5.44,20.55 3,9.99 3.45,20.4 5.57,30.54 2.92,13.98 5.04,28.15 7.05,42.3 1.76,12.38 2.66,24.86 3.68,37.32 0.7,8.5 1.2,17.05 1.68,25.54 0.7,12.31 0.81,24.72 -0.01,37.08 -1.18,17.93 -3.57,35.71 -7.4,53.28 -3.83,17.56 -7.07,35.28 -11.7,52.64 -2.24,8.42 -1.82,16.19 -0.28,24.42 1.09,5.85 1.08,11.9 1.74,17.84 0.69,6.19 1.61,12.36 3.23,18.64 1.4,-4.27 2.96,-8.5 4.17,-12.83 5.79,-20.71 11.64,-41.41 17.17,-62.19 10.09,-37.9 20.18,-75.79 29.85,-113.8 5.11,-20.07 10.38,-40.09 15.5,-60.15 3.91,-15.31 7.09,-30.8 11.13,-46.07 6.14,-23.19 10.62,-46.75 15.89,-70.13 5.72,-25.37 9.71,-51.09 14.23,-76.69 3.3,-18.74 5.68,-37.63 7.91,-56.53 1.03,-8.77 2.73,-17.47 4.27,-26.18 0.44,-2.48 -0.23,-4.9 0.1,-7.34 0.13,-0.98 0.4,-1.99 1.59,-2.05 0.94,-0.04 1.41,0.77 1.67,1.56 1.95,5.91 4.69,11.46 6.33,17.59 2.1,7.82 4.35,15.72 6.43,23.53 2.26,8.49 5.17,16.96 5.99,25.84 0.87,9.42 4.79,18.17 6.1,27.52 3.34,24 9.14,47.62 10.29,71.97 0.34,7.16 1.52,14.32 2.09,21.52 0.53,6.72 -0.1,13.32 -0.36,19.97 -0.05,1.36 -0.2,2.72 -0.2,4.08 0,0.82 0.22,1.69 1.17,1.94 0.95,0.25 1.39,-0.43 1.95,-1.1 3.22,-3.89 3.75,-8.96 4.27,-13.4 0.6,-5.15 2.69,-9.59 4.18,-14.26 6.65,-20.75 13.39,-41.49 20.71,-62.01 10.02,-28.09 21.07,-55.78 32.74,-83.25 7.67,-18.06 15.65,-35.97 23.62,-53.89 6.53,-14.68 13.88,-28.99 20.85,-43.48 8.27,-17.18 16.49,-34.39 24.81,-51.55 2.02,-4.17 4.34,-8.19 6.56,-12.25 0.45,-0.83 1.06,-1.79 2.19,-1.46 1.19,0.34 0.99,1.5 0.97,2.42 -0.25,13.75 0.19,27.49 -0.02,41.25 -0.13,8.56 -0.28,17.13 -0.38,25.7 -0.14,11.96 -0.69,23.91 -1.39,35.85 -0.68,11.5 -1.71,22.98 -2.74,34.45 -0.79,8.78 -1.62,17.57 -2.77,26.31 -2.15,16.32 -4.36,32.64 -7.35,48.83 -1.85,10.03 -3.79,20.05 -5.69,30.07 -0.66,3.49 -1,6.91 -0.22,10.51 0.93,4.3 -1,8.34 -2.28,12.31 -2.24,6.95 -3.11,13.99 -3.14,21.29 -0.02,5.56 -0.57,11.18 -1.58,16.65 -1.44,7.72 -1.19,15.64 -3.64,23.26 -3.53,11 -4.55,22.63 -7.92,33.69 -0.43,1.42 -0.59,2.94 -0.78,4.42 -0.09,0.7 0.16,1.47 0.96,1.54 0.42,0.04 1.02,-0.36 1.31,-0.73 0.58,-0.75 1.11,-1.57 1.48,-2.44 6.93,-16.2 18.86,-29.26 27.82,-44.19 6.72,-11.21 14.34,-21.85 21.08,-33.09 12.76,-21.27 26.11,-42.21 37.92,-64.03 10.11,-18.69 19.51,-37.76 29.08,-56.75 11,-21.83 20.22,-44.4 29.64,-66.87 9.21,-21.97 18,-44.14 25.96,-66.62 1.95,-5.52 4.16,-10.96 6.29,-16.41 0.47,-1.21 0.76,-2.99 2.54,-2.66 1.54,0.28 1.21,1.93 1.28,3.1 1.4,24.36 3.12,48.72 4.05,73.1 0.6,15.9 0.39,31.85 -0.07,47.76 -0.46,16.14 -1.44,32.27 -2.62,48.37 -0.98,13.28 -2.86,26.49 -3.88,39.76 -1.81,23.51 -6.18,46.65 -9.76,69.89 -1.86,12.09 -4.94,23.99 -7.34,36 -3.76,18.84 -8.32,37.5 -13.18,56.07 -4.07,15.54 -8.72,30.93 -13.75,46.2 -1.09,3.3 -1.91,6.69 -2.53,10.19 3.91,-7.79 8.9,-14.88 13.18,-22.41 9.42,-16.58 18.52,-33.38 28.65,-49.52 14.41,-22.95 28.87,-45.87 44.01,-68.36 10.26,-15.25 19.66,-31.08 29.26,-46.76 3.49,-5.7 7.12,-11.29 10.93,-16.78 0.76,-1.09 1.6,-2.62 3.19,-1.88 1.57,0.74 0.39,2.14 0.19,3.26 -3.23,17.82 -6.19,35.69 -9.75,53.44 -4.12,20.57 -9.44,40.86 -15.47,60.97 -4.57,15.26 -9.48,30.4 -14.82,45.39 -4.89,13.73 -10.37,27.28 -17.18,40.2 -9.6,18.21 -19.42,36.3 -29.26,54.38 -7.09,13.03 -16.53,24.3 -26.75,34.96 -4.48,4.68 -7.88,10.22 -10.42,16.04 -2.06,4.73 -5.15,8.27 -8.73,11.61 -9.77,9.12 -19.53,18.25 -28.69,27.99 -5.08,5.4 -9.24,11.63 -14.84,16.59 -1.3,1.15 -2.85,3.12 0.2,4.36 1.3,0.53 0.87,1.2 0.26,1.78 -4.7,4.51 -8.4,10.29 -15.33,11.96 -2.62,0.64 -4.87,2.29 -6.35,4.27 -3.1,4.17 -7.57,6.93 -10.55,11.21 -4.57,6.55 -12.7,9.69 -16.93,16.42 -8.86,14.09 -24.13,20.41 -36,30.81 -1.74,1.53 -3.55,2.99 -5.16,4.65 -1,1.03 -2.14,2.19 -0.08,3.64 1.93,1.37 -0.1,2.76 -0.85,3.17 -5.68,3.12 -9.42,8.67 -14.96,11.86 -6.56,3.78 -8.55,10.69 -11.98,16.64 -0.34,0.6 -0.5,1.41 0.19,1.83 0.98,0.6 1.87,-0.06 2.61,-0.63 5.61,-4.36 11.86,-7.75 17.77,-11.65 21.06,-13.87 42.52,-27.16 63.08,-41.71 16.91,-11.96 34.65,-22.76 50.83,-35.71 4.34,-3.47 7.31,-8.49 11.7,-12.18 20.4,-17.15 41.07,-34.01 60.73,-51.98 21.08,-19.27 41.55,-39.25 60.66,-60.56 23.28,-25.98 45.88,-52.5 67.19,-80.14 8.16,-10.59 15.57,-21.68 23.44,-32.46 0.8,-1.09 1.52,-2.58 3.17,-1.97 1.65,0.62 1.35,2.17 1.03,3.53 -2.99,12.45 -4.69,25.15 -7.2,37.7 -4.38,21.93 -10.29,43.47 -17.06,64.78 -5.33,16.76 -11.17,33.35 -17.79,49.63 -5.95,14.63 -11.67,29.43 -19.38,43.24 -12.8,22.93 -25.35,45.99 -41.2,67.13 -14.41,19.23 -29.21,38.1 -46.76,54.5 -5.09,4.75 -9.93,10.17 -16.56,13.41 -3.53,1.73 -6.19,5.25 -9.21,7.99 -0.6,0.55 -1.19,1.24 -0.88,2.14 0.4,1.16 1.49,1.04 2.42,1.01 6.55,-0.16 13.15,-0.18 19.55,-1.56 11.45,-2.47 23,-3.95 34.66,-4.85 2.97,-0.23 5.88,-1.14 8.83,-1.64 18.86,-3.21 37.9,-5.64 56.28,-11.2 14.35,-4.34 28.77,-8.53 42.8,-13.77 10.29,-3.85 20.26,-8.66 30.09,-13.69 11.23,-5.74 22.51,-11.36 33.14,-18.23 4.77,-3.08 9.92,-5.61 14.66,-8.79 0.81,-0.54 1.82,-0.93 2.67,-0.25 1.11,0.89 0.52,2 0,2.96 -7.68,14.11 -14.39,28.73 -22.95,42.39 -16.41,26.17 -36.9,48.86 -59.27,69.91 -13.87,13.05 -28.59,25.09 -44.86,35.23 -8.52,5.31 -17.42,9.9 -25.96,15.1 -7.11,4.33 -14.54,8.02 -22.1,11.18 -7.14,2.98 -13.88,6.86 -21.38,9.08 -13.96,4.13 -27.76,8.78 -42.05,11.78 -14.92,3.13 -29.74,6.71 -44.89,8.57 -4.91,0.6 -7.76,4.32 -11.05,7.23 -1.91,1.69 -0.05,2.04 1.47,2.15 8.26,0.62 16.51,1.3 24.77,1.91 24.53,1.82 49.05,3.84 73.6,5.33 17.76,1.07 35.52,2.26 53.34,2.22 13.82,-0.03 27.65,0.35 41.47,0.16 13.14,-0.19 26.27,-0.84 39.41,-1.55 9.22,-0.5 18.4,-1.47 27.6,-2.13 7.15,-0.51 14.27,-1.79 21.43,-2.58 9.59,-1.05 19.23,-1.98 28.5,-5.02 1.56,-0.51 3.77,-1.05 4.8,0.93 0.94,1.8 -0.42,3.29 -1.52,4.74 -10.96,14.56 -25.7,25.01 -39.52,36.47 -8.47,7.03 -17.08,13.89 -26.3,19.9 -7.97,5.19 -16.33,9.74 -24.84,14 -8.85,4.43 -17.67,8.97 -26.77,12.83 -4.47,1.9 -8.77,4.18 -13.45,5.74 -4.43,1.48 -8.48,4.1 -12.98,5.77 -11.62,4.33 -23.25,8.55 -35.34,11.36 -3.18,0.74 -6.42,1.23 -9.61,1.96 -0.97,0.22 -2.23,0.15 -2.88,1.85 8.24,1.02 15.62,4.55 23.36,6.95 10.4,3.22 20.65,6.93 31.05,10.15 24.45,7.56 48.9,15.12 73.46,22.31 19.62,5.74 39.41,10.69 59.28,15.37 21.69,5.1 43.58,9.18 65.53,12.95 7.63,1.31 15.35,1.62 23.01,2.49 0.54,0.06 1.12,-0.01 1.63,0.14 2.11,0.63 5.35,-0.01 5.75,2.83 0.36,2.5 -2.59,3.21 -4.45,4.15 -9.58,4.84 -19.43,8.98 -29.46,12.86 -12.15,4.7 -24.42,9.13 -36.77,13.06 -13.03,4.15 -26.45,7.23 -40.01,9.69 -12.64,2.29 -25.4,3.43 -38.11,4.36 -15.96,1.17 -31.99,1.84 -48.06,0.79 -12.35,-0.81 -24.7,-1.39 -36.99,-2.92 -13.89,-1.73 -27.71,-3.88 -41.5,-6.33 -18.8,-3.35 -37.35,-7.72 -55.67,-13.05 -16.24,-4.73 -32.05,-10.55 -47.2,-18.25 -10.91,-5.55 -22.05,-10.77 -33.86,-14.24 -7.03,-2.06 -8.65,-0.93 -7.5,6.29 0.69,4.34 1.83,8.97 6.54,11.6 5.58,3.11 10.86,6.77 16.28,10.19 0.35,0.22 0.69,0.5 1.07,0.59 16.9,4.06 31.09,13.96 46.3,21.61 19.72,9.92 39.18,20.34 58.73,30.57 12.55,6.57 24.99,13.37 37.63,19.75 19.45,9.81 38.59,20.22 58.64,28.86 11.37,4.9 22.32,10.78 33.77,15.55 17.84,7.44 35.71,14.8 53.74,21.81 16.25,6.32 32.53,12.53 48.9,18.48 19.71,7.16 39.66,13.64 59.68,19.88 11.95,3.73 24.12,6.87 35.58,12.03 2.1,0.95 5.69,1.43 5.24,4.2 -0.38,2.36 -3.75,1.22 -5.78,1.41 -16.83,1.52 -33.65,2.95 -50.54,3.86 -14.81,0.8 -29.65,1.84 -44.46,2.24 -9.87,0.27 -19.81,0.87 -29.75,-0.03 -5.91,-0.53 -11.88,0.49 -17.91,-0.04 -7.94,-0.71 -15.98,-0.39 -23.97,-0.58 -8.4,-0.2 -16.81,-0.52 -25.18,-0.99 -11.38,-0.63 -22.72,-2.01 -34.08,-3.08 -13.12,-1.23 -26.09,-3.65 -39.15,-5.38 -17.77,-2.35 -35.32,-6.18 -52.81,-10.22 -11.69,-2.7 -23.22,-5.9 -34.83,-8.88 -0.84,-0.22 -1.73,-0.96 -3.22,0.35 5.08,2.66 9.35,6.15 13.92,9.19 31.54,20.99 63.92,40.65 96.25,60.39 25.71,15.7 51.65,31.03 77.89,45.84 20.17,11.39 40.26,22.94 60.63,33.97 21.81,11.81 43.91,23.08 65.88,34.6 5.55,2.91 11.1,5.83 16.63,8.77 1.21,0.64 2.62,1.35 2.21,3.03 -0.45,1.82 -2.1,2 -3.64,1.9 -11.59,-0.72 -23.17,0.76 -34.75,0.25 -14.68,-0.64 -29.4,-0.85 -44.02,-2.19 -14.98,-1.38 -29.95,-2.93 -44.85,-5.32 -22.93,-3.68 -45.77,-7.84 -68.42,-12.9 -26.72,-5.97 -52.89,-13.92 -78.84,-22.63 -18.2,-6.11 -36.43,-12.22 -54.16,-19.56 -14.21,-5.88 -28.19,-12.31 -41.91,-19.35 -9.71,-4.98 -19.27,-10.21 -28.77,-15.54 -14.61,-8.2 -28.54,-17.53 -42.48,-26.84 -9.74,-6.51 -19.22,-13.39 -28.81,-20.1 -8.14,-5.7 -15.83,-12.04 -23.75,-18.05 -5.75,-4.36 -11.54,-8.66 -17.32,-12.97 -0.75,-0.56 -1.56,-1.13 -2.77,-0.23 7.56,9.83 15.69,19.08 24.93,27.31 14.63,13.04 29.02,26.4 44.08,38.94 14.11,11.75 28.5,23.2 43.1,34.37 14.72,11.26 28.98,23.11 43.41,34.74 9.12,7.34 18.24,14.69 27.28,22.13 20.93,17.22 42.43,33.71 64.53,49.38 22.89,16.23 45.86,32.35 69.49,47.53 13.53,8.69 26.71,17.91 40.84,25.63 1.3,0.71 2.95,1.56 2.2,3.38 -0.68,1.66 -2.3,0.81 -3.62,0.67 -8.37,-0.87 -16.75,-1.63 -25.12,-2.55 -14.32,-1.57 -28.61,-3.41 -42.73,-6.32 -10.78,-2.21 -21.64,-3.91 -32.41,-6.22 -13.99,-2.99 -27.77,-6.67 -41.47,-10.74 -27.33,-8.12 -53.87,-18.34 -80.11,-29.44 -25.13,-10.63 -49.87,-22.12 -73.15,-36.34 -17.32,-10.58 -33.84,-22.38 -49.2,-35.79 -10.98,-9.59 -21.51,-19.65 -32.37,-29.36 -0.1,-0.09 -0.23,-0.17 -0.3,-0.28 -8.23,-12.56 -21.42,-19 -33.25,-27.13 -4.37,-3 -8.46,-6.44 -12.58,-9.8 -2.99,-2.45 -6.27,-4.43 -9.81,-5.82 -2.46,-0.96 -4.75,-1.9 -6.5,-3.97 -1.83,-2.17 -4.11,-1.35 -5.93,-0.18 -2.11,1.35 -0.25,2.92 0.43,4.21 1.2,2.29 2.57,4.47 4.89,5.91 5.16,3.2 6.43,9.31 10.02,13.63 9.95,11.95 18.61,24.8 27.4,37.58 6.62,9.63 13.27,19.23 19.77,28.94 10.96,16.38 21.73,32.88 32.74,49.23 7.66,11.38 15.57,22.58 23.37,33.86 15.54,22.47 31.01,45 46.64,67.4 8.1,11.6 16.5,22.99 24.77,34.47 0.08,0.11 0.19,0.21 0.25,0.32 1.08,1.98 3.32,4.04 1.64,6.27 -1.85,2.45 -4.33,0.47 -6.28,-0.44 -24.04,-11.28 -48.25,-22.23 -71.8,-34.51 -17.66,-9.21 -34.53,-19.76 -51.14,-30.76 -12.85,-8.51 -25.23,-17.64 -37.25,-27.27 -26.36,-21.11 -49.95,-44.97 -71.34,-71.12 -13.89,-16.98 -26.39,-34.94 -38.51,-53.17 -4.04,-6.08 -7.39,-12.63 -11.12,-18.92 -0.81,-1.37 -1.94,-2.56 -2.96,-3.89 -0.37,0.44 -0.71,0.69 -0.67,0.82 2.92,9.28 3.17,19.04 5.02,28.51 1.38,7.05 1.8,14.3 3.15,21.36 1.26,6.57 1.83,13.2 2.57,19.81 1.33,11.99 1.85,24.09 3.61,36.01 1.61,10.91 1.73,21.89 2.52,32.83 0.97,13.38 0.78,26.85 1.06,40.28 0.21,9.92 0.46,19.84 0.13,29.76 -0.41,12.49 -0.51,24.99 -0.98,37.47 -0.59,15.59 -1.29,31.19 -2.76,46.73 -0.47,5 -1.42,9.96 -0.27,14.99 0.26,1.11 0.08,2.26 -1.09,2.82 -1.39,0.66 -2.47,-0.1 -3.1,-1.2 -1.93,-3.42 -3.82,-6.88 -5.56,-10.4 -7.22,-14.62 -14.72,-29.12 -21.46,-43.97 -4.42,-9.75 -9.37,-19.23 -13.8,-28.98 -5.71,-12.59 -11.22,-25.28 -17.57,-37.59 -4.29,-8.31 -7.42,-17.21 -11.05,-25.85 -3.79,-9.03 -7.61,-18.04 -11.3,-27.11 -2.6,-6.4 -5.48,-12.75 -7.37,-19.37 -1.7,-5.94 -4.97,-11.08 -7.15,-18.03 -1.01,7.96 -1.78,14.75 -2.74,21.51 -2.8,19.76 -8.25,38.86 -14.37,57.82 -8.3,25.73 -19.76,50.1 -31.21,74.5 -8.53,18.18 -19.02,35.23 -29.26,52.44 -8.92,14.99 -18.05,29.84 -28,44.16 -5.21,7.49 -11.13,14.47 -15.98,22.23 -0.72,1.15 -1.75,2.29 -3.34,1.83 -1.68,-0.49 -1.67,-2.15 -1.58,-3.43 0.41,-5.82 0.83,-11.64 1.53,-17.43 1.29,-10.8 2.22,-21.62 2.84,-32.48 0.45,-8.01 1.43,-15.98 2.04,-23.98 0.65,-8.65 1.17,-17.3 1.71,-25.95 0.67,-10.84 1.37,-21.68 1.93,-32.53 0.68,-13.27 1.17,-26.55 1.85,-39.82 0.63,-12.34 1.43,-24.68 2.06,-37.02 0.5,-9.9 0.81,-19.8 1.27,-29.7 0.59,-12.87 1.43,-25.74 1.78,-38.62 0.13,-4.63 0.35,-9.22 0.83,-13.82 0.09,-0.9 0.14,-1.93 -1.01,-2.56 -1.97,1.18 -1.96,3.38 -2.61,5.23 -6.86,19.67 -14.1,39.2 -22.05,58.46 -7.7,18.64 -17.12,36.47 -25.8,54.65 -6.89,14.44 -14.94,28.17 -23.12,41.85 -7.89,13.21 -16.51,25.96 -25.39,38.54 -8.01,11.35 -15.91,22.77 -24.57,33.64 -16.89,21.21 -34.23,42.04 -52.96,61.66 -11.09,11.61 -22.77,22.65 -34.64,33.48 -1.2,1.1 -2.18,2.44 -3.39,3.52 -0.91,0.81 -2.1,1.59 -3.29,0.57 -0.96,-0.83 -0.69,-2.08 -0.23,-3.06 1.63,-3.44 3.07,-6.96 4.52,-10.48 8.25,-20.02 16.11,-40.19 23.91,-60.39 9.12,-23.63 17.95,-47.37 26.14,-71.34 7.17,-21.01 13.69,-42.23 20.57,-63.34 10.39,-31.87 18.99,-64.24 27.06,-96.76 1.76,-7.11 3.76,-14.17 5.94,-22.35 -3.3,2.72 -4.44,5.61 -5.89,8.18 -10.33,18.29 -20.27,36.8 -30.92,54.9 -6.28,10.67 -13.82,20.58 -20.42,31.07 -6.9,10.96 -14.41,21.49 -21.87,32.04 -11.66,16.46 -24.18,32.29 -37.16,47.74 -8.85,10.54 -17.56,21.21 -26.76,31.44 -18.28,20.32 -36.88,40.35 -56.43,59.49 -12.23,11.98 -24.41,24.01 -37.25,35.33 -9.78,8.62 -19.73,17.07 -29.44,25.75 -9.43,8.42 -19.4,16.17 -29.06,24.28 -5.25,4.4 -10.79,8.65 -16.33,12.81 -8.17,6.14 -16.53,11.97 -25.08,17.54 -1.95,1.27 -4.42,4.19 -6.31,2.48 -2.09,-1.9 0.41,-4.77 1.62,-6.93 15.75,-28.07 31.24,-56.29 47.45,-84.09 23.42,-40.16 46,-80.79 68.83,-121.29 17.13,-30.4 32.54,-61.72 48.79,-92.59 8,-15.19 15.93,-30.42 23.85,-45.66 10.12,-19.46 20.2,-38.95 30.28,-58.43 0.42,-0.81 0.68,-1.7 1.38,-3.45 -3.82,1.91 -5.87,4.6 -8.39,6.64 -13.77,11.17 -23.87,25.62 -35.11,39.09 -14.14,16.94 -28.77,33.46 -43.49,49.92 -11.45,12.8 -23.23,25.27 -35.4,37.36 -8.67,8.61 -17.72,16.84 -26.73,25.1 -9.31,8.54 -18.55,17.16 -28.21,25.29 -9.34,7.86 -18.49,15.94 -27.96,23.65 -8.95,7.29 -18.14,14.29 -27.12,21.54 -8.01,6.46 -16.64,12.16 -24.7,18.57 -7.36,5.85 -15.18,11.14 -22.95,16.26 -12.73,8.37 -25.01,17.49 -38.37,24.95 -11.66,6.51 -22.97,13.66 -34.43,20.52 -0.82,0.49 -1.64,0.98 -2.5,1.39 -0.74,0.35 -1.64,0.69 -2.32,0.09 -0.93,-0.83 -0.23,-1.75 0.17,-2.59 1.96,-4.26 5.14,-7.68 7.83,-11.43 21.87,-30.42 43.33,-61.12 64.47,-92.06 15.3,-22.38 29.9,-45.21 44.29,-68.17 9.11,-14.55 18.06,-29.21 26.77,-44 7.81,-13.27 14.99,-26.92 22.86,-40.15 5.63,-9.48 11.16,-19.05 16.47,-28.68 9.49,-17.19 19.03,-34.35 28.63,-51.47 2.23,-3.98 5.04,-7.65 6.73,-13.21 -7.39,6.75 -13.86,12.9 -20.58,18.74 -10.47,9.09 -21.07,18.02 -32,26.57 -8.35,6.53 -17.08,12.53 -25.87,18.37 -9.36,6.22 -19.2,11.72 -29.2,16.94 -8.43,4.4 -16.08,10.2 -24.99,13.83 -14.24,5.79 -27.59,13.61 -42.63,17.64 -10.72,2.87 -21.05,7.16 -31.71,10.28 -6.61,1.94 -13.44,3.23 -20.19,4.74 -7.82,1.76 -15.67,2.94 -23.6,3.78 -12.49,1.33 -24.94,3.48 -37.59,1.99 -1.37,-0.16 -2.85,-0.32 -3.24,-1.96 -0.37,-1.54 0.94,-2.1 1.97,-2.75 8.18,-5.22 14.7,-12.44 22.22,-18.46 6.35,-5.08 12.28,-10.67 18.36,-16.08 10.46,-9.31 20.63,-18.92 30.41,-28.96 8.81,-9.05 18.12,-17.62 26.96,-26.65 22.29,-22.77 43.77,-46.27 64.64,-70.35 14.72,-16.97 30.11,-33.36 45.27,-49.93 3,-3.28 6.35,-6.25 9.44,-9.27 -0.49,-1.02 -1.1,-0.9 -1.58,-0.75 -10,3.19 -20.22,5.62 -30.25,8.77 -8.5,2.67 -17.37,4.29 -26.17,5.89 -11.08,2.01 -22.2,4.17 -33.39,5.08 -12.82,1.04 -25.61,2.51 -38.54,2.6 -12.78,0.09 -25.55,0.18 -38.29,-0.45 -19.24,-0.96 -38.13,-4.41 -56.71,-9.46 -6.83,-1.86 -13.9,-2.88 -20.42,-5.82 -1.75,-0.79 -3.91,-1.4 -3.76,-3.74 0.16,-2.52 2.66,-2.73 4.38,-2.83 12.2,-0.68 23.76,-4.58 35.57,-7.1 8.72,-1.86 17.12,-5.43 25.52,-8.62 11.08,-4.2 22.1,-8.58 32.99,-13.24 11.12,-4.75 22.31,-9.44 32.99,-15.08 9.46,-4.99 18.87,-10.16 28.07,-15.68 6.58,-3.95 13.54,-7.35 20.2,-11.23 10.43,-6.07 20.79,-12.25 30.89,-18.85 11.13,-7.28 22.44,-14.28 33.43,-21.75 8.42,-5.73 16.87,-11.43 24.97,-17.64 12.49,-9.58 24.78,-19.38 37.65,-30.32 -3.79,0.22 -6.16,1.45 -8.66,2.22 -9.75,3 -18.86,7.63 -28.81,10.26 -18.29,4.84 -36.78,8.64 -55.38,11.89 -8.1,1.42 -16.51,1 -24.65,2.26 -10.38,1.6 -20.84,1.84 -31.25,2.31 -22.32,0.99 -44.62,0.44 -66.66,-3.87 -14.69,-2.88 -29.32,-5.99 -43.61,-10.46 -21.74,-6.8 -42.68,-15.53 -62.95,-26.02 -21.14,-10.94 -40.66,-24.33 -59.9,-38.14 -7.72,-5.54 -14.65,-12.18 -21.93,-18.34 -0.97,-0.82 -1.8,-1.86 -1.09,-3.19 0.65,-1.21 1.89,-0.86 2.94,-0.63 14.65,3.12 29.44,5.27 44.4,6.1 18.14,1 36.24,2.63 54.46,1.75 7.02,-0.34 14.16,-0.14 21.13,-0.68 10.81,-0.85 21.66,-0.85 32.46,-2.08 10.51,-1.19 21.1,-1.67 31.59,-3.12 6.59,-0.91 13.15,-2.02 19.72,-3.04 9.81,-1.52 19.65,-2.85 29.41,-4.61 10.18,-1.84 20.3,-4.04 30.42,-6.19 6.13,-1.3 12.23,-2.73 18.32,-4.21 2.81,-0.68 4.47,-1.82 0.26,-3.97 1.9,-0.99 3.16,-0.71 3.62,0.8 0.83,2.71 2.61,2.36 4.52,1.71 1.8,-0.61 3.73,-1.09 5.28,-2.11 4.36,-2.89 9.41,-3.71 14.22,-5.31 3.3,-1.1 6.16,-3.18 9.55,-4.33 6.81,-2.3 13.29,-5.58 20.12,-7.77 4.22,-1.35 8.74,-1.68 12.43,-5.32 -2.2,-1.71 -4.56,-1.08 -6.71,-1.25 -16.86,-1.3 -33.8,-0.58 -50.64,-1.75 -18.27,-1.27 -35.87,-6.29 -53.46,-11.11 -16.43,-4.51 -32.62,-9.74 -48.57,-15.74 -14.42,-5.43 -28.4,-11.83 -42.17,-18.68 -28.74,-14.29 -55.55,-31.72 -81.6,-50.39 -17.95,-12.86 -35.24,-26.52 -52.3,-40.55 -18.44,-15.17 -35.68,-31.6 -52.59,-48.37 -14.8,-14.68 -28.44,-30.47 -41.87,-46.42 -0.77,-0.92 -2.02,-1.91 -1.09,-3.17 0.97,-1.31 2.28,-0.27 3.32,0.22 12.54,5.98 25.02,12.1 37.61,17.97 21.62,10.09 43.95,18.45 66.29,26.78 17.54,6.54 35.77,11.07 53.18,17.81 17.71,6.86 35.64,12.85 54,17.51 6.41,1.63 13.24,1.45 19.65,3.5 0.86,0.28 2.01,0.58 2.55,-0.54 0.55,-1.13 -0.03,-2.23 -0.84,-2.95 -3.57,-3.13 -7.29,-6.1 -10.83,-9.26 -6.9,-6.15 -14.27,-11.75 -19.95,-19.26 -4.37,-5.78 -9.24,-10.95 -15.87,-14.81 -11.13,-6.47 -21.42,-14.46 -32.15,-21.54 -17.99,-11.88 -34.88,-25.21 -52.64,-37.37 -15.54,-10.65 -29.13,-23.8 -42.31,-37.23 -11.54,-11.76 -21.41,-25.08 -33.35,-36.49 -0.88,-0.85 -1.68,-1.79 -2.45,-2.75 -0.82,-1.03 -2.38,-2.05 -1.57,-3.46 0.9,-1.57 2.47,-0.37 3.68,-0.05 10.08,2.66 19.54,6.91 28.68,11.78 20.07,10.7 40.39,20.76 61.59,29.14 13.02,5.15 25.3,12.14 38.67,16.58 7.73,2.57 15.92,3.74 23.24,7.61 1,0.53 2.59,1.21 3.34,-0.13 1.01,-1.81 -1.07,-2.11 -1.99,-2.92 -10.54,-9.29 -22.53,-16.7 -33.42,-25.56 -24.13,-19.61 -47.15,-40.4 -68.45,-63.07 C 207.26,703.85 188.99,684.39 171.75,663.99 153.56,642.46 135.94,620.5 118.92,598.02 108.66,584.48 98.34,570.98 88.51,557.13 83.8,550.5 79.18,543.78 74.76,536.93 70.07,529.65 64.93,522.6 60.19,515.32 53.96,505.76 47.36,496.41 42.03,486.28 c -0.5,-0.95 -1.27,-2.06 -0.25,-2.98 1.04,-0.93 2.16,-0.02 2.94,0.6 7.06,5.56 14.07,11.18 21.07,16.81 20.83,16.72 41.64,33.46 63.02,49.49 25.31,18.98 51.57,36.58 77.61,54.5 10.21,7.02 20.84,13.44 31.43,19.88 17.34,10.56 34.51,21.46 52.31,31.2 15.64,8.56 30.64,18.24 46.65,26.15 6.46,3.19 12.45,7.31 18.69,10.95 12.82,7.48 25.65,14.97 38.51,22.39 24.79,14.3 49.49,28.76 73.64,44.1 13.45,8.55 26.14,18.27 39.41,27.09 9.29,6.17 18.83,11.92 28.82,17.03 15.52,7.95 31.47,14.92 47.27,22.25 5.8,2.62 11.93,4.5 17.89,6.75 z"
   id="path11" />
	<g
   id="g15"
   style="display:inline">
		
			<radialGradient
   id="SVGID_00000093861346841660678170000005878226037042014355_"
   cx="990.55353"
   cy="952.6488"
   r="701.11792"
   gradientUnits="userSpaceOnUse">
			<stop
   offset="0"
   style="stop-color:#000000;stop-opacity:0.60000002;"
   id="stop12" />
			<stop
   offset="0.30199999"
   style="stop-color:#000d0c;stop-opacity:0.60000002;"
   id="stop13" />
			<stop
   offset="0.85570002"
   style="stop-color:#002e2d;stop-opacity:0.60000002;"
   id="stop14" />
			<stop
   offset="1"
   style="stop-color:#003837;stop-opacity:0.60000002;"
   id="stop15" />
		</radialGradient>
		<path
   style="display:inline;fill:url(#SVGID_00000093861346841660678170000005878226037042014355_)"
   d="m 896.1,837.21 c 1.91,-5.04 1.36,-10.05 0.78,-15 -2.51,-21.3 -7.17,-42.2 -11.98,-63.08 -5.34,-23.17 -9.44,-46.59 -13.59,-70.01 -4.17,-23.56 -10,-46.83 -13.94,-70.45 -4.05,-24.28 -9.23,-48.45 -11.67,-72.89 -1.75,-17.52 -7.58,-34.21 -8.36,-51.77 -0.57,-12.9 -1.33,-25.79 -1.86,-38.69 -0.54,-13.11 -1.35,-26.22 -1.24,-39.33 0.14,-17.44 0.07,-34.87 1.28,-52.32 1.95,-28.03 3.97,-56.05 8.26,-83.81 1.92,-12.4 3.65,-24.88 6.21,-37.57 6.21,3.8 9.33,9.82 12.75,15.56 14.33,24.03 28.03,48.42 41.44,72.97 12.77,23.39 24.05,47.49 34.63,71.95 17.32,40.04 30.08,81.5 40.11,123.88 3.38,14.27 7.35,28.41 11.24,42.56 5.26,19.09 7.3,38.74 10.53,58.19 2.96,17.79 4.7,35.74 6.99,53.61 1.52,11.89 2.13,23.83 3.18,35.74 0.2,2.24 0.28,4.49 0.42,6.74 0.42,-0.01 0.84,-0.02 1.26,-0.03 0.39,-5.78 0.7,-11.57 1.18,-17.34 1.25,-15.11 1.57,-30.38 4.09,-45.28 4.68,-27.73 14.55,-54.01 25.35,-79.88 10.86,-26.03 24.01,-50.94 37.86,-75.49 17.87,-31.66 39.27,-60.84 62.09,-89.03 23.73,-29.33 51.03,-55.15 79.29,-80.01 25.44,-22.38 51.41,-44.18 75.66,-67.89 6.51,-6.36 13.19,-12.55 19.81,-18.8 0.96,-0.91 1.91,-2.29 3.39,-1.81 1.84,0.61 1.5,2.48 1.44,3.92 -0.47,11.69 -3,23.09 -5.67,34.4 -8.17,34.6 -21.18,67.62 -35.07,100.17 -15.88,37.2 -33.58,73.62 -50.01,110.59 -13.63,30.65 -25.05,62.17 -36.02,93.88 -6.21,17.97 -14.36,35.29 -21.84,52.81 -10.34,24.2 -20.91,48.29 -31.3,72.47 -2.14,4.99 -5.07,9.52 -7.62,14.26 -2.05,3.81 -4.69,7.42 -4.74,13.69 2.82,-3.57 5.51,-5.77 6.61,-8.6 3.98,-10.23 11.71,-17.73 18.63,-25.63 18.24,-20.83 38.6,-39.57 59.3,-57.94 27.11,-24.06 57.67,-43.31 87.58,-63.47 21.89,-14.76 45.49,-26.33 69.15,-37.85 9.39,-4.57 18.31,-10.08 27.53,-15.02 20.74,-11.1 42.86,-18.97 64.73,-27.41 5.41,-2.09 10.75,-4.37 16.37,-6.66 0.17,2.63 -1.31,3.72 -2.35,4.91 -22.77,26.04 -43.21,53.95 -64.84,80.9 -7.52,9.37 -16.86,16.93 -24.69,26.02 -28.4,32.95 -57.53,65.27 -84.58,99.36 -18.03,22.72 -35.02,46.22 -52.64,69.24 -17.52,22.88 -35.81,45.17 -53.58,67.86 -15.8,20.18 -31.39,40.54 -47.01,60.86 -8.84,11.5 -17.52,23.12 -26.34,34.63 -5.41,7.05 -9.39,15.22 -16.47,20.99 -1.17,0.95 -2.36,2.41 -2.55,4.59 3.37,0.35 5.93,-1.46 8.31,-3.09 19.61,-13.44 41.11,-22.77 63.19,-31.47 23.52,-9.27 47.15,-18.29 70.56,-27.84 16.74,-6.83 34.58,-10.26 51.63,-16.2 22.66,-7.9 45.95,-14.14 69.76,-16.65 22.96,-2.43 45.9,-5.13 68.83,-7.82 19.83,-2.32 39.63,-3.27 59.56,-2.92 23.74,0.42 47.62,-0.11 71.02,4.26 27.15,5.07 54.93,7.11 81.28,16.13 11.24,3.85 21.76,9.17 30.55,17.38 1.06,0.99 2.75,1.97 2.29,3.65 -0.51,1.89 -2.53,1.21 -3.93,1.48 -25.65,4.95 -51.23,10.38 -77,14.65 -28.05,4.65 -55.12,12.93 -82.42,20.45 -25.67,7.08 -51.34,14.16 -76.94,21.51 -21.54,6.19 -43.51,11.1 -64.4,19.25 -31.19,12.16 -63.79,19.6 -95.79,28.91 -50.38,14.64 -100.95,28.53 -150.51,45.86 -15.27,5.34 -30.37,11.22 -46.01,15.5 -6.82,1.87 -12.57,5.43 -17.65,11.05 6.38,-0.7 12.28,-1.42 18.2,-2.43 13.46,-2.29 27.06,-5.72 40.53,-5.46 24.72,0.49 49.41,-2.07 74.22,0.78 23.5,2.7 46.78,6.2 69.79,11.43 34.17,7.77 66.92,20.04 99.07,33.67 12.62,5.35 24.16,13.4 35.9,20.68 17.35,10.75 34.94,21.42 49.8,35.45 23.65,22.34 46.03,45.86 65.36,72.29 22,30.07 41.02,61.8 57.69,95.03 0.7,1.4 2.37,3.07 0.85,4.56 -1.48,1.45 -3.14,-0.19 -4.62,-0.8 -25.47,-10.47 -49.13,-24.7 -74.24,-35.83 -27.21,-12.06 -52.87,-26.87 -78.79,-41.32 -17.21,-9.6 -35.85,-16.4 -53.96,-24.23 -40.77,-17.64 -83.18,-30.74 -124.76,-46.12 -34.02,-12.58 -68.61,-23.49 -103.17,-34.49 -1.36,-0.43 -2.96,-1.64 -4.25,-0.31 -1.25,1.29 -0.14,2.88 0.28,4.28 1.98,6.59 5.37,12.02 10.95,16.49 23.39,18.73 43.18,41.18 63.73,62.82 22.88,24.09 40.44,52.23 59.27,79.38 0.58,0.83 1.3,1.68 1.52,2.62 3.28,14.14 11.48,26.12 17.54,38.99 10.36,22.02 18.51,44.9 28.02,67.24 13.22,31.03 26.6,61.99 39.41,93.18 9.69,23.57 18.11,47.61 23.82,72.51 0.49,2.14 1,4.28 1.34,6.44 0.8,4.96 -0.4,6.02 -5.15,3.97 -8.42,-3.62 -15.6,-9.28 -23.05,-14.52 -7.72,-5.43 -12.51,-13.1 -17.2,-20.92 -1.67,-2.79 -3.48,-5.54 -6.26,-7.18 -12.53,-7.41 -20.93,-18.89 -30,-29.76 -26.34,-31.58 -51.61,-64.04 -79.85,-94.04 -10.84,-11.52 -21.15,-23.59 -31.97,-35.17 -4.4,-4.7 -9.04,-9.31 -14.65,-12.35 -11.25,-6.1 -18.38,-16.29 -26.22,-25.62 -20.94,-24.9 -41.38,-50.23 -61.91,-75.48 -8.3,-10.2 -15.31,-21.69 -24.73,-30.67 -8.76,-8.35 -12.75,-18.93 -18.91,-28.54 -10.93,-17.07 -21.32,-34.39 -30.84,-52.26 -5.94,-11.14 -11.06,-22.65 -14.86,-35.7 -2.39,10.52 -2.02,20.31 -2.35,29.93 -1.22,35.59 -7.5,70.4 -15.08,105.01 -9.18,41.89 -20.9,83.08 -35.27,123.51 -4.69,13.19 -10.41,26.04 -14.94,39.17 -12.63,36.68 -30.66,70.84 -47.16,105.69 -14.86,31.38 -31.48,61.94 -47.27,92.88 -2.23,4.36 -4.2,8.83 -8.18,12 -2.28,1.82 -3.6,1.68 -3.79,-1.55 -1.07,-18.67 -3.36,-37.25 -4.1,-55.96 -0.51,-12.95 -2.23,-25.86 -3.41,-38.78 -0.06,-0.67 -0.29,-1.34 -0.26,-2 1.38,-27.4 -4.27,-54.43 -4.36,-81.76 -0.03,-8.96 0.35,-17.87 1.63,-26.73 0.81,-5.59 -0.07,-11.1 -0.5,-16.64 -1.69,-21.95 0.57,-43.79 2.8,-65.53 4.27,-41.59 13.73,-82.1 28.15,-121.38 4.19,-11.41 9.39,-22.46 15.78,-32.78 7.54,-12.18 14.1,-24.99 22.8,-36.43 5.3,-6.98 12.2,-12.6 17.3,-19.79 1.53,-2.16 3.29,-4.19 4.03,-6.82 -0.27,-0.11 -0.47,-0.26 -0.54,-0.22 -14.74,10.19 -31.48,16.81 -46.72,26.14 -8.44,5.16 -17.82,8.77 -26.66,13.32 -23.39,12.03 -46.35,24.78 -68.51,38.98 -13.19,8.46 -26.78,16.29 -39.99,24.72 -16.62,10.61 -33.03,21.55 -49.54,32.33 -19.34,12.63 -38.1,26.15 -57.34,38.9 -38.98,25.83 -76.18,53.97 -111.92,84.08 -17.29,14.57 -34.32,29.52 -49.7,46.04 -9.43,10.12 -19.19,19.79 -29.39,29.06 -3.74,3.4 -5.57,8.29 -9.73,12.33 3.16,-17.52 7.34,-33.94 12.61,-50.05 11.76,-35.93 24.94,-71.28 42.37,-104.96 13.66,-26.38 27.11,-52.86 46.19,-75.88 14.3,-17.25 28.3,-34.74 44.32,-50.55 23.93,-23.6 48.67,-46.1 76.51,-65.13 28.44,-19.44 58.73,-35.09 90.96,-47.09 4.36,-1.62 9.03,-2.41 14.59,-3.85 -5.84,-2.24 -11.03,-2.26 -16.06,-2.75 -32.07,-3.09 -64.23,-4.24 -96.45,-4.36 -18,-0.07 -36.02,0 -54,-1.54 -5.33,-0.45 -10.77,0.28 -16.15,0.61 -25.09,1.58 -50.18,-0.52 -75.27,0.09 -31.39,0.77 -62.62,3.27 -93.7,7.55 -24.57,3.39 -48.87,8.22 -72.75,15.03 -4.14,1.18 -8.25,1.11 -12.4,-0.42 -3.91,-1.43 -4.2,-3.01 -1.28,-5.93 11.93,-11.92 23.72,-23.98 35.61,-35.93 13.95,-14.01 29.56,-26.16 45.04,-38.32 8.12,-6.38 17.92,-10.67 27.13,-15.59 40.42,-21.6 83.93,-34.29 128.54,-43.22 20.03,-4.01 40.65,-3.41 61.05,-2.81 32.74,0.96 65.22,4.22 97.16,11.98 12.54,3.05 25.84,2.54 37.88,8.07 4.13,1.9 8.34,3.63 12.56,5.29 1.16,0.46 2.87,1.29 3.7,-0.13 0.89,-1.52 -0.78,-2.41 -1.82,-3.13 -24.84,-17.02 -46.87,-37.46 -69.48,-57.18 -16.12,-14.06 -31.73,-28.73 -47.22,-43.5 -18.81,-17.93 -37.04,-36.43 -55.62,-54.58 -13.04,-12.75 -24.59,-26.8 -36.84,-40.24 -38.62,-42.4 -77.2,-84.85 -122.25,-120.73 -4.88,-3.89 -10.11,-7.27 -13.76,-12.54 -2.07,-2.98 -1.79,-4.36 1.94,-5.08 5.11,-0.98 9.99,-0.69 14.91,1.06 54.19,19.32 108.49,38.39 159.86,64.62 30.94,15.8 62.09,31.46 90.86,50.97 22.86,15.5 45.05,32.11 66.36,49.78 8.05,6.67 16.07,13.37 24.12,20.05 0.59,0.49 1.13,1.29 2.58,0.62 -3.26,-4.12 -6.47,-8.13 -9.63,-12.19 -21.98,-28.23 -41.96,-57.89 -62.28,-87.32 -16.78,-24.32 -31.92,-49.67 -46.87,-75.09 -15.09,-25.67 -28.69,-52.21 -43.02,-78.32 -7.06,-12.86 -14.72,-25.45 -21.3,-38.49 -7.63,-15.12 -16.06,-29.92 -21.46,-46.23 -3.08,-9.33 -8.81,-17.8 -13.54,-26.55 -18.03,-33.4 -36.33,-66.63 -58.17,-97.77 -0.77,-1.1 -2.72,-2.52 -1.14,-3.85 1.55,-1.3 3.12,0.52 4.42,1.44 19.18,13.49 37.89,27.63 55.77,42.8 12.61,10.7 25.87,20.56 38.58,31.11 7.14,5.92 14.11,12.07 19.15,20.02 0.66,1.03 1.47,1.77 2.5,2.42 17.35,10.92 33.25,23.54 46.3,39.52 3.11,3.81 7.17,6.66 11.07,9.59 9.56,7.19 19.31,14.15 28.79,21.45 10.73,8.26 19.52,18.6 29.16,28.02 14.72,14.4 27.4,30.68 41.44,45.71 2.42,2.6 4.33,5.57 5.34,9.08 0.41,1.42 1.07,2.99 2.12,3.97 11.32,10.66 18.57,24.75 30.44,35.07 8.29,7.21 12.74,17.79 19.08,26.74 19.4,27.43 37.76,55.53 52.61,85.75 7.14,14.52 13.71,29.32 20.59,43.97 0.74,1.64 1.09,3.56 3.06,4.81 z"
   id="path15" />
	</g>
</g>

</svg>
