<?xml version="1.0" encoding="UTF-8" standalone="no"?>
<!-- Generator: Adobe Illustrator 27.3.0, SVG Export Plug-In . SVG Version: 6.00 Build 0)  -->

<svg
   version="1.1"
   id="Layer_1"
   x="0px"
   y="0px"
   viewBox="0 0 2000 2000"
   style="enable-background:new 0 0 2000 2000;"
   xml:space="preserve"
   sodipodi:docname="grass_bottom.svg"
   inkscape:version="1.4 (e7c3feb100, 2024-10-09)"
   xmlns:inkscape="http://www.inkscape.org/namespaces/inkscape"
   xmlns:sodipodi="http://sodipodi.sourceforge.net/DTD/sodipodi-0.dtd"
   xmlns:xlink="http://www.w3.org/1999/xlink"
   xmlns="http://www.w3.org/2000/svg"
   xmlns:svg="http://www.w3.org/2000/svg"><defs
   id="defs62"><style
     id="style1-6">
      .cls-1 {
        fill: url(#linear-gradient-2);
      }

      .cls-2 {
        fill: url(#New_Gradient_Swatch);
      }

      .cls-3 {
        fill: #24363f;
      }

      .cls-4 {
        fill: url(#New_Gradient_Swatch-3);
      }

      .cls-5 {
        fill: #56646c;
      }

      .cls-6 {
        fill: url(#linear-gradient);
      }

      .cls-7 {
        fill: url(#New_Gradient_Swatch-2);
      }
    </style><linearGradient
     id="linear-gradient"
     x1="49.26"
     y1="328.03"
     x2="323.96"
     y2="328.03"
     gradientTransform="translate(-0.46,-148.98)"
     gradientUnits="userSpaceOnUse"><stop
       offset=".45"
       stop-color="#008ae6"
       id="stop1-7" /><stop
       offset="1"
       stop-color="#5fb3ea"
       id="stop2-5" /></linearGradient><linearGradient
     id="New_Gradient_Swatch"
     data-name="New Gradient Swatch"
     x1="256.46"
     y1="328.03"
     x2="323.86"
     y2="328.03"
     gradientTransform="translate(-.46 -148.98)"
     gradientUnits="userSpaceOnUse"><stop
       offset="0"
       stop-color="#008ae6"
       id="stop3-3" /><stop
       offset="1"
       stop-color="#002c4a"
       id="stop4-5" /></linearGradient><linearGradient
     id="linear-gradient-2"
     x1="49.26"
     y1="327.98"
     x2="89.66"
     y2="327.98"
     gradientTransform="translate(-0.46,-148.98)"
     gradientUnits="userSpaceOnUse"><stop
       offset="0"
       stop-color="#008ae6"
       id="stop5-6" /><stop
       offset="1"
       stop-color="#002c4a"
       id="stop6-2" /></linearGradient><linearGradient
     id="New_Gradient_Swatch-2"
     data-name="New Gradient Swatch"
     x1="170.5"
     y1="83.3"
     x2="170.5"
     y2="123.7"
     xlink:href="#New_Gradient_Swatch" /><linearGradient
     id="New_Gradient_Swatch-3"
     data-name="New Gradient Swatch"
     x1="170.5"
     y1="274.8"
     x2="170.5"
     y2="234.3"
     xlink:href="#New_Gradient_Swatch" /></defs><sodipodi:namedview
   id="namedview62"
   pagecolor="#505050"
   bordercolor="#eeeeee"
   borderopacity="1"
   inkscape:showpageshadow="0"
   inkscape:pageopacity="0"
   inkscape:pagecheckerboard="0"
   inkscape:deskcolor="#505050"
   inkscape:zoom="0.12851409"
   inkscape:cx="1252.7809"
   inkscape:cy="922.07788"
   inkscape:window-width="1280"
   inkscape:window-height="728"
   inkscape:window-x="0"
   inkscape:window-y="0"
   inkscape:window-maximized="1"
   inkscape:current-layer="g16" />
<style
   type="text/css"
   id="style1">
	.st0{display:none;fill:#000A0A;}
	.st1{fill:url(#SVGID_1_);}
	.st2{fill:url(#SVGID_00000169537827978997709640000009224468500884241848_);}
	.st3{fill:url(#SVGID_00000177485757930491500180000005001437649714154161_);}
	.st4{display:none;}
	.st5{display:inline;}
	.st6{fill:url(#SVGID_00000039125957604897687340000010740138897545810351_);}
	.st7{display:inline;fill:url(#SVGID_00000173866525941712220510000006216242229897898889_);}
	.st8{display:inline;fill:url(#SVGID_00000018225561361075440670000005261524769023190669_);}
	.st9{display:inline;fill:url(#SVGID_00000106847758383438086680000006400958743264048535_);}
	.st10{display:inline;fill:url(#SVGID_00000099654504645296272700000012191273806564824198_);}
	.st11{display:inline;fill:url(#SVGID_00000165219847940514738900000014579350843934599832_);}
	.st12{display:inline;fill:url(#SVGID_00000149377834522776778870000003871717016590087060_);}
	.st13{display:inline;fill:url(#SVGID_00000020381677625094605850000001732838605908125350_);}
</style>

<g
   id="g16"
   style="display:inline">
	<radialGradient
   id="SVGID_1_"
   cx="996.16107"
   cy="997.2663"
   r="1133.7557"
   gradientUnits="userSpaceOnUse">
		<stop
   offset="0"
   style="stop-color:#000000"
   id="stop1" />
		<stop
   offset="0.3099"
   style="stop-color:#000303"
   id="stop2" />
		<stop
   offset="0.5521"
   style="stop-color:#000D0D"
   id="stop3" />
		<stop
   offset="0.7713"
   style="stop-color:#001E1D"
   id="stop4" />
		<stop
   offset="0.976"
   style="stop-color:#003534"
   id="stop5" />
		<stop
   offset="1"
   style="stop-color:#003837"
   id="stop6" />
	</radialGradient>
	<path
   class="st1"
   d="m 1442.22,1306.02 c 1.28,4.28 4.27,6.97 7.07,9.75 13.23,13.13 26.17,26.58 38.16,40.8 11.12,13.2 21.86,26.75 32.2,40.63 8.83,11.86 17.48,23.86 25.72,36.1 10.1,15 19.72,30.33 28.75,46.01 2.44,4.24 4.35,8.42 10.74,8.86 4.77,0.33 4.05,6.92 3.26,9.1 -2.55,7.05 2.23,11.2 5.24,15.46 6.39,9.05 11.67,18.87 19.05,27.24 12.02,13.62 20.08,30.45 33.73,42.67 10.27,9.2 19.3,19.48 28.53,29.62 4.63,5.08 8.45,10.46 10.27,17.36 2.07,7.83 7.53,14.04 12.01,20.58 12.13,17.72 23.22,36.06 34.37,54.38 16.35,26.84 30.57,54.85 45.64,82.39 4.14,7.57 7.75,15.43 11.56,23.18 0.77,1.57 2.35,3.59 0.43,4.9 -1.73,1.17 -3.41,-0.58 -4.66,-1.92 -6.8,-7.3 -13.63,-14.58 -20.31,-21.99 -8.01,-8.9 -16.65,-17.17 -24.87,-25.85 -10.76,-11.36 -21.93,-22.29 -32.73,-33.6 -9.98,-10.45 -19.87,-20.98 -29.74,-31.53 -1.88,-2.01 -3.49,-4.28 -5.76,-6.18 1.1,3.21 2.09,6.47 3.33,9.63 5.63,14.38 10.01,29.18 14.99,43.78 4.17,12.23 8.2,24.5 11.92,36.85 3.25,10.78 5.81,21.78 8.62,32.69 1.94,7.55 3.63,15.17 5.71,22.68 4.82,17.44 8.11,35.23 12.26,52.83 3.35,14.21 5.85,28.61 9.37,42.8 3.05,12.28 3.75,24.97 5.29,37.51 0.18,1.5 0.88,3.76 -1.32,4.25 -1.81,0.4 -2.9,-1.47 -3.75,-2.84 -5.77,-9.33 -11.49,-18.69 -17.16,-28.08 -13.5,-22.33 -26.89,-44.73 -40.47,-67.01 -12.28,-20.14 -24.67,-40.2 -37.16,-60.21 -8.71,-13.95 -17.66,-27.75 -26.51,-41.62 -10.02,-15.69 -19.88,-31.49 -30.11,-47.05 -12.97,-19.73 -25.21,-40.06 -39.68,-58.65 -13.87,-17.82 -28.62,-34.99 -42.31,-52.99 -1.4,-1.84 -3.1,-3.48 -4.79,-5.08 -1.37,-1.3 -3.15,-2.74 -4.3,0.02 -1.04,2.48 -4.42,-1.11 -4.69,2.01 -0.32,3.74 1.09,7.22 2.55,10.56 5.33,12.2 10.56,24.44 16.23,36.47 11.44,24.25 20.88,49.3 30.16,74.42 3.34,9.04 7.11,17.91 10.23,27.06 2.38,6.97 3.55,14.17 5.27,21.22 2.39,9.8 4.1,19.82 6,29.75 3.64,18.98 5.84,38.12 7.96,57.25 2.65,23.95 3.92,48.05 3.11,72.19 -0.08,2.49 0.01,4.99 -0.04,7.49 -0.03,1.47 0.21,3.22 -1.7,3.71 -1.75,0.45 -2.73,-0.85 -3.57,-2.14 -4.5,-6.99 -9.03,-13.96 -13.49,-20.98 -10.96,-17.26 -21.72,-34.64 -32.84,-51.79 -20.7,-31.93 -41.5,-63.8 -62.45,-95.57 -13.45,-20.39 -25.95,-41.38 -39.01,-62.01 -22.41,-35.38 -43.27,-71.68 -64.46,-107.79 -8.46,-14.41 -16.52,-29.06 -24.84,-43.74 -1.6,1.58 -0.59,3.03 -0.36,4.37 2.48,14.04 5.66,27.98 7.36,42.11 2.02,16.83 5.19,33.47 8.2,50.09 3.76,20.76 5.5,41.75 8.98,62.52 1.12,6.68 0.32,13.69 1.45,20.37 4.31,25.64 3.65,51.72 7.17,77.38 3.2,23.3 3.85,46.66 4.03,70.11 0.08,9.62 1.72,19.24 1.76,28.86 0.07,18.25 -0.49,36.5 -0.83,54.74 -0.03,1.56 0.52,3.68 -1.69,4.17 -1.88,0.42 -3.08,-1.16 -3.91,-2.58 -4.18,-7.18 -8.44,-14.33 -12.34,-21.67 -22.06,-41.54 -45.16,-82.49 -68.11,-123.54 -16.55,-29.6 -32.95,-59.28 -49.47,-88.9 -12.23,-21.93 -23.29,-44.47 -34.27,-67.05 -10.74,-22.1 -21.09,-44.4 -30.72,-67 -7.61,-17.86 -14.5,-36.05 -21.2,-54.28 -11.44,-31.12 -24.21,-61.82 -31.47,-94.35 -0.57,-2.56 -1.64,-4.77 -4.63,-3.59 -3.4,1.34 -6.01,0.56 -8.73,-1.52 -2.81,-2.15 -4.01,-1.29 -3.98,2.28 0.1,13.74 2.81,27.11 5.73,40.42 1.37,6.28 0.88,12.59 1.56,18.85 3.04,27.77 4.73,55.6 4.85,83.56 0.12,26.44 2.3,52.91 1.31,79.28 -0.79,21.05 -0.84,42.19 -3.08,63.21 -0.82,7.7 -0.77,15.55 -1.02,23.29 -0.36,10.98 -2.35,21.76 -2.63,32.73 -0.18,7.21 -1.99,14.39 -3.13,21.57 -0.85,5.39 -2.01,10.84 -2.36,16.16 -0.6,9.19 -3.78,17.82 -4.52,26.9 -0.12,1.42 -0.85,2.64 -2.41,2.77 -2.2,0.19 -3.24,-1.26 -3.94,-3.12 -3.73,-9.95 -7.37,-19.93 -11.25,-29.82 -11.1,-28.3 -20.65,-57.18 -31.99,-85.4 -12.33,-30.69 -23.11,-61.96 -34.12,-93.14 -0.99,-2.82 -1.76,-5.71 -2.72,-8.54 -0.66,-1.95 -1.68,-3.25 -3.16,-0.58 -2.47,4.46 -5.2,8.75 -5.17,14.25 0.06,10.64 -1.15,21.43 -0.39,31.87 1.09,14.95 0.77,29.91 1.89,44.81 0.56,7.41 -1.65,14.49 -1.42,21.84 0.42,13.68 -1.83,27.14 -3.96,40.61 -1.32,8.35 -1.58,16.88 -3.16,25.17 -1.3,6.81 -1.9,13.72 -3.73,20.49 -2.33,8.6 -3.4,17.53 -5.27,26.26 -1.74,8.11 -4.06,16.09 -5.67,24.22 -2.22,11.25 -5.98,22.09 -8.48,33.26 -0.11,0.49 -0.17,0.99 -0.33,1.46 -0.74,2.31 -0.67,5.64 -3.59,6 -3.4,0.41 -3.4,-3.29 -4.05,-5.37 -6.13,-19.45 -12.46,-38.83 -17.79,-58.53 -4.5,-16.62 -9.64,-33.07 -13.98,-49.73 -5.64,-21.66 -12.02,-43.12 -17.24,-64.91 -3.78,-15.77 -7.47,-31.57 -11.09,-47.38 -2.47,-10.8 -3.79,-21.86 -5.65,-32.8 -1.77,-10.45 -3.74,-20.87 -5.31,-31.35 -1.13,-7.55 -2.28,-15.16 -2.4,-22.76 -0.08,-5.23 -4.51,-6.32 -6.88,-9.24 -1.04,-1.28 -2.6,1.19 -3.32,2.68 -5.23,10.75 -10.38,21.55 -15.7,32.26 -16.4,33.03 -32.28,66.35 -49.5,98.95 -14.59,27.62 -28.24,55.71 -42.82,83.33 -11,20.85 -20.65,42.41 -31.76,63.2 -9.79,18.31 -18.77,37.02 -28.1,55.54 -2.52,5 -4.53,10.32 -6.93,15.43 -0.89,1.88 -2.24,3.74 -4.48,3.23 -2.07,-0.47 -1.34,-2.73 -1.5,-4.3 -1.56,-15.41 -3.29,-30.8 -4.61,-46.23 -1.03,-12.07 -1.56,-24.18 -2.3,-36.27 -0.92,-14.9 -2.24,-29.79 -2.61,-44.7 -0.23,-9.11 -1.25,-18.17 -0.79,-27.35 0.48,-9.58 -0.67,-19.24 -0.66,-28.86 0.01,-20.76 0,-41.53 0.62,-62.28 0.26,-8.65 0.52,-17.3 0.35,-25.93 -0.25,-12.72 2.63,-25.1 3.47,-37.72 1.16,-17.39 3.31,-34.73 5.59,-52.02 2,-15.12 5.03,-30.08 7.92,-45.07 1.97,-10.22 4.19,-20.43 6.41,-30.57 3.22,-14.7 7.16,-29.32 12.17,-43.57 7.27,-20.69 15.91,-40.79 26.17,-60.18 10.26,-19.39 19.89,-39.14 31.01,-58.02 5.4,-9.16 7.46,-18.43 8.35,-28.6 0.63,-7.23 2.64,-14.34 3.81,-21.54 1.22,-7.5 2.16,-15.05 2.33,-22.96 -3.05,4.56 -6.27,9.02 -9.11,13.7 -13.6,22.44 -27.26,44.84 -40.58,67.45 -24.29,41.22 -48.58,82.45 -72.41,123.94 -12.58,21.91 -25.35,43.71 -37.95,65.6 -9.61,16.71 -18.44,33.87 -28.2,50.49 -14.83,25.24 -27.82,51.46 -41.68,77.21 -15.05,27.94 -28.18,56.85 -41.88,85.46 -10.03,20.93 -19.02,42.35 -27.84,63.84 -4.09,9.97 -8.94,19.64 -13.61,29.37 -1.33,2.77 -1.34,5.83 -2.52,8.59 -0.48,1.11 -1.12,2.21 -2.54,1.88 -1.12,-0.26 -1.4,-1.37 -1.45,-2.38 -0.35,-7.59 -1.75,-15.01 -1.67,-22.75 0.1,-9.88 0.05,-19.9 0.17,-29.76 0.13,-10.71 -0.51,-21.62 1.44,-32.33 2.07,-11.35 0.33,-22.92 1.87,-34.34 3.94,-29.3 4.89,-58.96 11.51,-87.95 1.95,-8.53 2.91,-17.33 4.61,-25.97 1.58,-8.07 4.49,-15.62 6.98,-23.35 0.51,-1.58 1.13,-3.13 1.57,-4.73 0.27,-0.97 0.3,-2.05 -0.73,-2.66 -1.03,-0.6 -1.78,0.04 -2.65,0.65 -5.06,3.51 -7.35,9.3 -9.41,14.34 -2.4,5.86 -6.3,10.39 -9.59,15.39 -14.62,22.2 -29.34,44.36 -44.68,66.08 -20.99,29.72 -43.06,58.64 -65.79,87.08 -14.94,18.7 -30.19,37.14 -45.43,55.57 -12.49,15.11 -25.82,29.52 -38.77,44.25 -15.36,17.48 -30.66,35.01 -46.07,52.44 -3.74,4.23 -7.78,8.2 -11.73,12.25 -0.8,0.82 -1.83,1.75 -3.06,1 -1.28,-0.79 -0.67,-2.08 -0.35,-3.16 4.8,-16.07 8.79,-32.37 13.55,-48.47 2.96,-10.01 5.94,-20.05 8.87,-30.08 4.09,-14 8.65,-27.88 13.4,-41.67 4.57,-13.29 9.55,-26.44 14.52,-39.59 3.81,-10.06 7.67,-20.12 11.89,-30.01 7.89,-18.47 15.83,-36.92 24.66,-54.97 5.47,-11.18 11.04,-22.31 16.56,-33.47 1.92,-3.88 3.44,-7.8 3.71,-12.27 0.32,-5.36 3.91,-9.47 6.71,-13.72 4.91,-7.44 8.25,-15.42 10.67,-23.99 1.85,-6.52 4.34,-12.96 7.32,-19.05 4.22,-8.6 6.53,-17.99 11.91,-26.14 7.76,-11.76 12.77,-25.1 20.36,-37 0.98,-1.53 1.65,-3.26 2.37,-4.94 0.33,-0.79 0.29,-1.78 -0.62,-2.12 -0.48,-0.18 -1.31,0.09 -1.78,0.43 -0.93,0.69 -1.82,1.48 -2.54,2.38 -13.46,16.77 -31.77,28.19 -47.19,42.8 -11.58,10.97 -24.02,20.98 -35.62,31.97 -21.98,20.81 -44.53,41.03 -65.57,62.8 -18.02,18.65 -35.32,37.98 -52.79,57.15 -20.08,22.04 -38.33,45.54 -56.77,68.86 -18.03,22.8 -35.64,45.96 -52.36,69.77 -4.11,5.85 -8.48,11.51 -12.78,17.22 -0.95,1.26 -1.88,3.26 -3.86,2.29 -1.72,-0.84 -0.79,-2.67 -0.49,-4.06 6.35,-29.09 12.32,-58.27 19.23,-87.23 4.51,-18.88 10,-37.56 15.75,-56.11 5.84,-18.81 12.27,-37.45 18.95,-55.98 5.51,-15.28 12.05,-30.19 17.61,-45.46 9.84,-27.03 22.57,-52.79 34.4,-78.93 6.15,-13.6 13.68,-26.57 20.44,-39.9 10.61,-20.91 22.08,-41.34 33.89,-61.57 9.88,-16.93 20.4,-33.49 31.32,-49.78 2.36,-3.52 4.44,-7.24 6.32,-11.14 -7.15,7.87 -15.34,14.57 -22.84,22.01 -16.51,16.39 -32.71,33.15 -49.92,48.79 -24.46,22.24 -48.98,44.43 -74.15,65.9 -17.06,14.55 -33.3,30.07 -49.72,45.35 -5.97,5.56 -12.07,10.93 -18.35,16.13 -1.25,1.03 -2.75,2.55 -4.36,1.16 -1.61,-1.38 0.24,-2.64 0.84,-3.89 9.64,-19.88 18.98,-39.91 28.98,-59.6 11.59,-22.82 24.5,-44.91 38.18,-66.57 10.38,-16.43 21.11,-32.61 32.31,-48.47 10.25,-14.53 21.13,-28.66 33.37,-41.6 17.26,-18.25 34.73,-36.29 52.23,-54.31 12.61,-12.98 27.4,-23.13 42.9,-32.31 6.8,-4.02 12.62,-9.43 17.5,-15.44 3.97,-4.88 8.76,-8.02 14.06,-10.78 14.47,-7.52 28.94,-15.04 42.9,-23.47 7.74,-4.68 14.67,-10.63 22.88,-14.62 1.9,-0.92 4.37,-2.73 1.2,-5.19 -1.36,-1.05 -0.63,-1.69 0.28,-2.18 7,-3.75 13.25,-9.33 21.94,-9.03 3.29,0.11 6.48,-1.1 8.86,-2.94 5.01,-3.88 11.16,-5.66 16.08,-9.71 7.51,-6.19 18.1,-7.22 25.28,-13.74 15.03,-13.65 35.05,-16.07 52.42,-24.39 2.55,-1.22 5.15,-2.35 7.59,-3.77 1.52,-0.89 3.23,-1.87 1.29,-4.25 -1.82,-2.24 1.02,-3.21 2.04,-3.45 7.7,-1.8 13.91,-7.1 21.48,-9.03 8.94,-2.29 13.55,-9.76 19.54,-15.62 0.6,-0.59 1.05,-1.5 0.38,-2.21 -0.95,-1.02 -2.22,-0.55 -3.27,-0.12 -8.03,3.28 -16.48,5.22 -24.7,7.86 -29.29,9.39 -58.87,17.96 -87.82,28.32 -23.79,8.51 -48.18,15.38 -71.45,25.28 -6.24,2.66 -11.37,7.58 -17.74,10.48 -29.6,13.46 -59.43,26.49 -88.43,41.16 -31.1,15.73 -61.71,32.49 -91.15,51.27 -35.88,22.89 -71.14,46.64 -105.25,72.13 -13.07,9.76 -25.41,20.37 -38.2,30.45 -1.3,1.02 -2.63,2.54 -4.36,1.27 -1.73,-1.26 -0.88,-3 -0.05,-4.48 7.6,-13.65 13.77,-28.02 20.83,-41.94 12.34,-24.34 26.36,-47.7 41.31,-70.52 11.76,-17.95 24.07,-35.53 37.18,-52.49 11.79,-15.24 23.38,-30.76 36.96,-44.46 22.56,-22.75 44.88,-45.73 70.44,-65.38 23.25,-17.87 46.82,-35.19 72.83,-48.7 7.54,-3.92 15,-8.69 23.87,-10.33 4.72,-0.87 9,-4.14 13.45,-6.37 0.89,-0.45 1.8,-1.07 1.73,-2.23 -0.09,-1.5 -1.41,-1.71 -2.51,-1.99 -7.75,-1.96 -15.52,-4.1 -23.48,-4.57 -14.27,-0.85 -28.33,-2.9 -42.33,-5.67 -3.56,-0.7 -7.28,-0.59 -10.92,-0.97 -23.22,-2.41 -46.38,-5.8 -69.81,-5.3 -18.28,0.39 -36.61,0.58 -54.81,2.15 -13.35,1.15 -26.65,3.53 -39.85,6.21 -15.09,3.06 -30.18,5.97 -44.93,10.55 -6.62,2.05 -13.5,3.34 -20.12,5.52 -1.13,0.37 -2.45,0.5 -3.22,-0.58 -1.02,-1.41 0.04,-2.52 0.97,-3.47 13.66,-14.06 26.33,-29.04 40.87,-42.28 27.87,-25.37 59.39,-45.31 92.59,-62.7 20.59,-10.79 41.83,-20.11 64.27,-26.68 11.76,-3.45 23.72,-5.92 35.46,-9.23 9.78,-2.76 19.72,-4.66 29.64,-5.89 9.36,-1.16 18.57,-3.51 28.11,-3.66 17.76,-0.28 35.5,-1.21 53.28,-0.05 18.55,1.22 37.15,1.87 55.56,4.66 5.97,0.9 10.53,-2.53 15.36,-4.87 2.8,-1.36 0.73,-2.38 -1.02,-3.01 -9.5,-3.44 -18.98,-6.95 -28.48,-10.38 -28.23,-10.18 -56.38,-20.61 -84.75,-30.41 -20.52,-7.09 -41,-14.31 -61.95,-20.11 -16.25,-4.5 -32.38,-9.49 -48.68,-13.79 -15.5,-4.09 -31.15,-7.64 -46.82,-11.11 -11,-2.44 -22.11,-4.31 -33.14,-6.56 -8.57,-1.75 -17.36,-2.58 -26.03,-4 -11.61,-1.91 -23.25,-3.98 -35.14,-3.45 -2,0.09 -4.78,-0.01 -5.34,-2.67 -0.51,-2.42 1.58,-3.72 3.34,-5.07 17.66,-13.51 38.41,-20.96 58.4,-29.89 12.26,-5.48 24.62,-10.73 37.44,-14.75 11.07,-3.48 22.39,-6.09 33.78,-8.3 11.85,-2.31 23.71,-4.74 35.67,-6.29 5.87,-0.76 11.68,-2.03 17.68,-2.33 5.69,-0.29 11.31,-2.03 17.15,-2.52 15.07,-1.27 30.13,-2.42 45.26,-1.76 3.98,0.17 7.95,0.66 11.93,0.85 1.21,0.06 2.67,0.56 3.99,-1.22 -9.35,-3.91 -16.86,-10.48 -25.17,-15.83 -11.16,-7.2 -21.99,-14.92 -33.16,-22.11 -26.25,-16.91 -52.5,-33.81 -79.01,-50.32 -21.17,-13.18 -42.8,-25.5 -64.62,-37.52 -23.81,-13.11 -48.2,-25.08 -72.76,-36.71 -8.53,-4.04 -17.5,-6.94 -26.23,-10.48 -0.62,-0.25 -1.31,-0.35 -1.86,-0.7 -2.28,-1.43 -6.28,-1.75 -5.83,-5.22 0.4,-3.06 4.09,-2.92 6.59,-3.41 12.84,-2.54 25.78,-4.18 38.84,-5.45 15.82,-1.53 31.69,-2.71 47.5,-3.28 16.68,-0.6 33.46,0.18 50.2,1.73 15.61,1.45 30.97,4.3 46.21,7.38 19.13,3.87 38.2,8.33 56.74,14.84 14.25,5 28.57,9.74 42.51,15.57 15.76,6.59 31.29,13.65 46.69,21.05 20.99,10.1 41.36,21.32 61.14,33.6 17.53,10.89 34.21,22.91 49.48,36.93 11,10.1 22.38,19.89 35.12,27.84 7.58,4.73 9.86,3.93 10.88,-4.93 0.61,-5.32 0.79,-11.14 -3.88,-15.78 -5.54,-5.49 -10.54,-11.53 -15.79,-17.32 -0.33,-0.37 -0.65,-0.81 -1.07,-1.04 -18.53,-10.31 -31.95,-26.6 -47.32,-40.58 -19.91,-18.12 -39.37,-36.75 -58.99,-55.19 -12.6,-11.84 -24.98,-23.91 -37.74,-35.56 -19.64,-17.91 -38.72,-36.42 -59.45,-53.15 -11.75,-9.48 -22.7,-19.99 -34.58,-29.36 -18.53,-14.6 -37.11,-29.11 -56,-43.26 -17.02,-12.75 -34.11,-25.4 -51.41,-37.76 -20.82,-14.88 -42.13,-29.04 -63.61,-42.95 -12.82,-8.3 -26.09,-15.98 -37.86,-25.81 -2.15,-1.8 -6.21,-3.55 -4.78,-6.65 1.22,-2.65 4.81,-0.2 7.26,0.25 20.28,3.73 40.51,7.57 60.66,12.04 17.66,3.92 35.44,7.57 52.98,11.95 11.69,2.92 23.57,5.48 34.95,9.8 6.77,2.57 14.13,3.32 21.04,5.93 9.1,3.44 18.65,5.71 27.98,8.55 9.81,2.99 19.58,6.13 29.27,9.42 13.17,4.48 26.04,9.82 39.04,14.8 15.02,5.76 29.46,12.85 44.24,19.16 20.11,8.59 39.47,18.85 58.7,29.34 12.85,7.01 25.36,14.56 38.01,21.87 0.92,0.53 1.72,1.7 3.89,0.64 -5.1,-4.79 -8.97,-10.3 -13.34,-15.37 C 407.6,384.41 376,350.69 344.49,316.88 319.43,289.99 293.97,263.47 268,237.46 c -19.97,-20 -39.78,-40.17 -60.1,-59.81 -21.76,-21.03 -44.02,-41.53 -66.06,-62.27 -5.57,-5.24 -11.13,-10.49 -16.66,-15.77 -1.21,-1.15 -2.63,-2.45 -1.6,-4.28 1.13,-2 3.13,-1.66 4.9,-1.04 13.39,4.64 27.47,6.71 40.92,11.11 17.04,5.57 34.27,10.64 51.01,17.01 17.15,6.53 34.24,13.27 50.96,20.97 25.74,11.85 51.21,24.23 76.17,37.61 29.44,15.78 57.59,33.71 85.22,52.46 19.39,13.16 38.8,26.31 57.23,40.75 14.77,11.57 29.09,23.72 42.9,36.49 9.77,9.04 19.3,18.32 28.71,27.7 14.48,14.44 27.79,29.96 41.11,45.48 9.31,10.85 18.19,22.04 27.26,33.08 7.69,9.37 14.66,19.34 21.99,29 5.32,7.01 10.72,13.97 16.1,20.93 0.7,0.9 1.47,1.84 3.18,1.18 -5.66,-14.03 -12.18,-27.57 -20.33,-40.28 -12.92,-20.13 -25.44,-40.54 -39.02,-60.22 -12.73,-18.44 -25.88,-36.61 -39.38,-54.53 -13.6,-18.06 -26.47,-36.67 -39.62,-55.07 C 524.58,246.34 516.28,234.71 508.09,223 489.14,195.9 469.29,169.46 448.46,143.8 426.89,117.22 405.18,90.74 382.4,65.15 369.35,50.5 356.89,35.34 342.81,21.63 c -1.29,-1.26 -2.96,-2.81 -1.48,-4.7 1.35,-1.72 2.97,-0.2 4.47,0.39 9.55,3.77 19.15,7.41 28.68,11.23 16.31,6.54 32.5,13.4 48.14,21.44 11.94,6.14 24.15,11.7 36.05,17.94 15.46,8.11 30.44,16.95 45.21,26.22 29.45,18.51 57.29,39.22 84.48,60.88 26.04,20.74 51.34,42.35 74.04,66.7 16.88,18.11 32.43,37.4 46.07,58.2 9.75,14.87 18.83,30.15 28.41,45.12 0.09,0.14 0.21,0.27 0.26,0.43 5.55,17.45 18.93,29.35 30.18,42.79 4.15,4.97 7.83,10.34 11.56,15.64 2.71,3.86 5.91,7.26 9.62,10.06 2.57,1.94 4.96,3.79 6.33,6.8 1.44,3.15 4.38,2.93 6.9,2.16 2.92,-0.9 1.25,-3.35 0.88,-5.09 -0.66,-3.09 -1.56,-6.09 -3.81,-8.55 -5.01,-5.45 -4.5,-13.05 -7.31,-19.3 -7.77,-17.3 -13.73,-35.25 -19.86,-53.15 -4.62,-13.48 -9.29,-26.95 -13.74,-40.49 -7.51,-22.84 -14.75,-45.77 -22.32,-68.59 C 730.3,191.88 724.68,176.11 719.21,160.3 708.32,128.79 697.54,97.25 686.51,65.79 680.8,49.5 674.66,33.36 668.71,17.16 c -0.06,-0.16 -0.15,-0.3 -0.19,-0.46 -0.61,-2.68 -2.58,-5.84 0.13,-7.91 2.98,-2.28 5.25,0.87 7.23,2.58 24.55,21.15 49.41,41.95 73.05,64.12 17.73,16.62 34.1,34.55 50,52.92 12.31,14.22 23.87,29.01 34.83,44.27 24.05,33.46 43.95,69.24 60.5,106.98 10.75,24.52 19.54,49.72 27.81,75.12 2.76,8.47 4.54,17.26 6.86,25.88 0.51,1.88 1.44,3.64 2.21,5.54 0.58,-0.4 1.07,-0.58 1.06,-0.75 -0.39,-11.87 2.52,-23.41 3.45,-35.16 0.69,-8.74 2.58,-17.39 3.3,-26.13 0.67,-8.13 2.18,-16.11 3.48,-24.13 2.37,-14.53 5.73,-28.91 7.57,-43.5 1.69,-13.36 5.15,-26.29 7.81,-39.4 3.25,-16.04 7.89,-31.81 11.96,-47.68 3.01,-11.73 5.97,-23.46 9.61,-35.02 4.58,-14.54 8.8,-29.2 13.45,-43.71 5.81,-18.13 11.75,-36.23 18.58,-54.01 2.2,-5.72 4.94,-11.24 5.23,-17.53 0.06,-1.39 0.65,-2.68 2.21,-2.95 1.85,-0.32 2.88,0.93 3.25,2.43 1.15,4.66 2.24,9.33 3.13,14.05 3.69,19.55 7.74,39.05 10.79,58.71 2,12.9 4.71,25.67 6.71,38.58 2.58,16.66 4.89,33.39 8.32,49.94 2.31,11.17 3.08,22.66 4.51,34.01 1.49,11.85 3.02,23.7 4.39,35.57 0.96,8.38 2.26,16.78 2.31,25.18 0.05,7.53 2.2,14.66 2.49,23.53 3.8,-9.03 6.94,-16.75 10.28,-24.37 9.77,-22.31 22.45,-42.96 35.86,-63.23 18.2,-27.51 39.66,-52.39 61.12,-77.31 15.98,-18.56 33.91,-35.16 51.59,-52.03 15.4,-14.69 31,-29.14 47.4,-42.71 8.58,-7.1 17.83,-13.36 26.07,-20.88 1.22,-1.11 2.81,-2.12 4.52,-1.05 1.81,1.13 1.26,3.07 0.73,4.54 -2.39,6.7 -4.8,13.41 -7.51,19.98 -5.06,12.27 -9.71,24.68 -13.99,37.24 -3.16,9.26 -6.92,18.31 -10.26,27.51 -3.64,10.08 -7.09,20.08 -10.56,30.08 -4.35,12.52 -8.73,25.03 -12.94,37.6 -5.15,15.37 -10.09,30.82 -15.24,46.19 -4.78,14.3 -9.78,28.53 -14.57,42.83 -3.84,11.47 -7.45,23 -11.24,34.49 -4.92,14.93 -10.12,29.78 -14.76,44.8 -1.67,5.4 -3.44,10.72 -5.51,15.97 -0.41,1.03 -0.8,2.22 0.34,3.34 2.7,-0.74 3.42,-3.32 4.79,-5.29 14.52,-20.86 29.43,-41.45 45.09,-61.47 15.16,-19.38 32.08,-37.24 48.25,-55.75 12.84,-14.71 26.8,-28.2 40.9,-41.6 13.61,-12.94 27.92,-25.08 42.49,-36.96 13.14,-10.71 26.16,-21.54 39.9,-31.47 26.81,-19.38 54.02,-38.17 82.46,-55.08 16.84,-10.01 34.19,-19.15 51.69,-27.98 1.77,-0.89 3.36,-2.16 5.14,-3.02 1.33,-0.65 2.99,-1.18 4.05,0.41 0.85,1.28 0.13,2.67 -0.74,3.67 -3.05,3.51 -5.89,7.17 -8.76,10.83 -16.27,20.82 -32.12,41.94 -47.91,63.13 -18.47,24.78 -36.64,49.78 -54.12,75.26 -15.32,22.33 -29.95,45.14 -44.96,67.68 -22.67,34.05 -43.4,69.26 -63.54,104.84 -4.41,7.78 -9.06,15.41 -14.31,24.31 4.77,-2.12 7.06,-5.14 9.6,-7.68 18.14,-18.1 35.89,-36.59 54.34,-54.37 10.88,-10.48 22.99,-19.65 34.19,-29.81 11.7,-10.62 23.98,-20.53 36.22,-30.48 19.1,-15.52 39.01,-30.01 59.33,-43.91 13.86,-9.48 27.59,-19.17 41.76,-28.17 28.15,-17.88 56.58,-35.31 85.83,-51.4 18.3,-10.07 36.56,-20.21 55.36,-29.29 14.32,-6.92 28.78,-13.59 43.05,-20.6 13.85,-6.8 28.1,-12.64 42.11,-19 7.61,-3.45 15.52,-6.63 23.39,-9.7 11.62,-4.54 23.35,-8.65 35.23,-12.39 2.71,-0.85 6.57,-3.48 8.23,-0.84 1.83,2.92 -2.05,5.47 -4.18,7.61 -27.72,27.81 -55.18,55.9 -83.35,83.25 -40.7,39.51 -80.57,79.85 -120.68,119.95 -30.11,30.1 -58.48,61.85 -87.71,92.79 -14.39,15.23 -28.7,30.53 -43.01,45.83 -18.28,19.55 -36.51,39.15 -54.75,58.74 -0.76,0.81 -1.36,1.77 -2.75,3.6 5.12,-0.99 8.41,-3.48 12.03,-5.05 19.84,-8.61 36.46,-22.28 54.08,-34.42 22.17,-15.27 44.79,-29.88 67.48,-44.39 17.65,-11.29 35.59,-22.08 53.86,-32.29 13.01,-7.27 26.35,-13.97 39.64,-20.73 13.74,-6.98 27.43,-14.08 41.45,-20.46 13.56,-6.17 26.96,-12.66 40.62,-18.62 12.92,-5.63 26,-10.84 38.94,-16.41 11.54,-4.97 23.55,-8.83 35.12,-13.72 10.57,-4.46 21.49,-8.12 32.31,-11.57 17.71,-5.66 35.13,-12.35 53.28,-16.73 15.84,-3.82 31.47,-8.52 47.2,-12.82 1.12,-0.31 2.25,-0.62 3.39,-0.81 0.98,-0.17 2.15,-0.27 2.75,0.66 0.82,1.28 -0.31,2.13 -1.05,2.99 -3.7,4.36 -8.55,7.34 -12.96,10.86 -35.68,28.57 -70.97,57.61 -105.96,87.03 -25.32,21.28 -49.97,43.31 -74.41,65.58 -15.48,14.11 -30.8,28.4 -45.89,42.93 -13.54,13.03 -26.45,26.71 -40.03,39.69 -9.73,9.29 -19.36,18.72 -28.77,28.3 -16.79,17.09 -33.63,34.12 -50.53,51.1 -3.93,3.94 -8.44,7.33 -12.25,13.32 10.9,-5.51 20.51,-10.61 30.34,-15.27 15.28,-7.25 30.67,-14.26 46.32,-20.72 11.95,-4.94 24.18,-9.12 36.43,-13.1 13.04,-4.24 26.41,-7.47 39.87,-10.33 11.35,-2.41 22.24,-6.72 33.9,-8.05 18.63,-2.13 36.89,-6.95 55.88,-6.75 13.54,0.14 27.09,-1.51 40.64,-1.68 8.41,-0.1 16.86,0.62 25.28,1.05 9.77,0.5 19.38,1.69 28.98,3.3 15.11,2.53 30.45,4.1 44.82,10 1.56,0.64 3.24,1.31 3.16,3.36 -0.07,1.93 -1.8,2.15 -3.21,2.59 -11.32,3.45 -21.35,9.79 -32.17,14.4 -9.12,3.89 -17.94,8.51 -26.85,12.88 -15.35,7.51 -30.45,15.47 -45.24,24.06 -13.33,7.75 -27.08,14.76 -40.42,22.47 -33.66,19.44 -66.61,40.02 -99.05,61.46 -22.86,15.12 -46.32,29.32 -69.59,43.83 -4.61,2.87 -9.51,5.26 -14.14,7.8 0.24,1.36 0.99,1.42 1.61,1.4 12.8,-0.46 25.61,0.03 38.42,-0.38 10.87,-0.35 21.82,0.66 32.68,1.67 13.68,1.27 27.45,2.38 40.91,4.99 15.4,2.98 30.91,5.46 46.14,9.59 15.04,4.08 30.09,8.17 44.85,13.09 22.29,7.43 43.37,17.69 63.55,29.72 7.41,4.42 15.38,7.95 22.08,13.54 1.8,1.5 4.13,2.93 3.2,5.63 -1.01,2.91 -4.03,2.34 -6.07,1.89 -14.56,-3.2 -29.43,-2.41 -44.13,-3.32 -10.86,-0.68 -21.9,0.77 -32.81,1.75 -14.4,1.3 -28.78,2.83 -43.11,4.73 -14.63,1.94 -29.32,3.78 -43.72,6.89 -12.76,2.76 -25.5,5.74 -38.13,9.22 -9.03,2.48 -18.32,4.19 -27.43,6.57 -14.25,3.71 -28.45,7.57 -42.49,12.02 -15.46,4.9 -31.05,9.42 -46.42,14.59 -11.78,3.96 -23.57,7.89 -35.14,12.54 -17.82,7.16 -35.48,14.64 -54.19,23.27 4.53,0.98 7.71,0.32 10.9,0.23 12.44,-0.33 24.67,-2.78 37.22,-2.61 23.08,0.31 46.06,1.91 68.98,4.19 9.98,0.99 19.73,4.24 29.71,5.44 12.73,1.52 25.09,4.67 37.48,7.54 26.55,6.16 52.57,14.12 77.07,26.42 16.31,8.2 32.49,16.67 47.81,26.6 23.32,15.13 45.06,32.25 65.44,51.23 21.25,19.8 39.79,41.93 57.88,64.47 7.26,9.04 13.22,19.12 19.75,28.75 0.87,1.28 1.51,2.78 0.24,4.11 -1.16,1.21 -2.5,0.39 -3.66,-0.22 -16.19,-8.48 -32.87,-15.85 -50.17,-21.73 -20.98,-7.13 -41.73,-14.98 -63.43,-19.92 -8.36,-1.91 -16.68,-4.49 -25.05,-6.13 -12.98,-2.55 -25.73,-6.11 -38.83,-8.21 -12.74,-2.05 -25.35,-4.96 -38.15,-6.7 -8.04,-1.09 -16.11,-1.93 -24.17,-2.89 -12.02,-1.43 -24.03,-3.1 -36.08,-4.23 -12.57,-1.18 -25.18,-1.91 -37.77,-2.71 -7.63,-0.49 -15.27,-0.8 -22.91,-1.07 -3.53,-0.12 -5.85,0.67 -1.61,4.58 -2.56,0.54 -3.94,-0.2 -3.99,-2.13 -0.08,-3.46 -2.29,-3.63 -4.75,-3.5 -2.31,0.13 -4.74,0.05 -6.9,0.75 -6.07,1.96 -12.28,1.27 -18.45,1.57 -4.24,0.21 -8.29,1.72 -12.64,1.95 -8.75,0.47 -17.45,2.2 -26.2,2.52 -5.4,0.2 -10.82,-0.9 -16.36,2.17 2.02,2.73 5,2.76 7.48,3.67 19.38,7.06 39.53,11.77 58.94,18.67 21.06,7.49 40.09,19.15 59.17,30.59 17.83,10.68 35.13,22.15 51.91,34.43 15.17,11.11 29.49,23.22 43.43,35.79 29.09,26.22 54.87,55.5 79.36,85.98 16.87,21 32.71,42.73 48.15,64.81 16.69,23.87 31.57,48.84 45.94,74.1 12.57,22.1 23.43,45.13 33.97,68.28 0.61,1.33 1.74,2.91 0.24,4.08 -1.57,1.22 -2.76,-0.43 -3.82,-1.35 -12.78,-11.14 -25.43,-22.43 -38.3,-33.46 -22.1,-18.95 -45.59,-36.1 -69.11,-53.22 -18.46,-13.43 -38.4,-24.75 -56.64,-38.38 -18.57,-13.87 -37.66,-26.79 -57.71,-38.3 -7,-4.02 -15.09,-6.05 -21.94,-10.56 -0.92,-0.61 -2.17,-1.34 -3.17,-0.2 -1.01,1.15 -0.7,2.63 0.02,3.74 3.17,4.85 6.56,9.56 9.69,14.43 6.09,9.49 12.92,18.49 17.13,29.18 3.23,8.22 7.27,15.91 13.79,22.61 10.96,11.26 20.43,24.02 30.71,35.86 17.25,19.86 32.72,41.07 49.6,61.19 14.77,17.61 26.42,37.52 37.5,57.64 9.7,17.61 16.93,36.49 27.21,53.83 0.76,1.28 1.39,2.66 1.98,4.03 0.62,1.48 2.12,3.19 0.72,4.58 -1.57,1.55 -3.02,-0.37 -4.35,-1.15 -10.97,-6.44 -20.7,-14.53 -29.84,-23.26 -20.07,-19.16 -40.65,-37.65 -62.81,-54.45 -13.61,-10.32 -25.75,-22.57 -40,-32.17 -8.24,-5.56 -17.48,-9.62 -24.81,-16.56 -1,-0.95 -2.65,-2.27 -3.97,-0.95 -1.78,1.8 0.57,2.84 1.38,4.09 9.34,14.38 20.99,27.02 30.89,41 21.92,30.97 42.15,62.95 59.74,96.58 15.1,28.86 30.18,57.73 43.75,87.35 14.31,31.26 27.81,62.86 40.43,94.86 7.61,19.28 15.31,38.53 22.32,58.03 3.36,9.33 6.59,18.74 9.53,28.25 3.13,10.09 6.85,20.07 10.03,30.17 4.18,13.28 8.88,26.43 11.81,40.08 0.27,1.28 0.82,2.83 -0.69,3.58 -1.53,0.76 -2.55,-0.69 -3.26,-1.66 -6.47,-8.85 -12.86,-17.76 -19.25,-26.66 -18.99,-26.48 -37.95,-52.98 -57.82,-78.84 -23.52,-30.61 -48.6,-59.91 -73.32,-89.5 -9.69,-11.6 -20.08,-22.63 -30.41,-33.68 -16.92,-18.1 -33.52,-36.54 -51.24,-53.83 -15.57,-15.19 -30.02,-31.49 -46.24,-46.04 -6.54,-5.87 -12.24,-12.68 -18.37,-19 -12.61,-13 -25.23,-26 -37.91,-38.94 -24.44,-24.94 -48.73,-50.03 -72.07,-75.99 -13,-14.45 -24.72,-30.05 -37.43,-44.77 -8.89,-10.3 -18.22,-20.18 -28.28,-29.47 -15.63,-14.43 -32.09,-27.86 -48.25,-41.65 -5.87,-5.07 -12.45,-9.3 -18.71,-13.89 z"
   id="path6"
   style="display:inline" />
	
		<radialGradient
   id="SVGID_00000019647959356941040910000010543237782935087025_"
   cx="919.54401"
   cy="1526.2197"
   r="929.24042"
   gradientTransform="matrix(-0.9632,0.2689,-0.2689,-0.9632,2317.3013,2200.6438)"
   gradientUnits="userSpaceOnUse">
		<stop
   offset="0"
   style="stop-color:#000000;stop-opacity:0.5;"
   id="stop7" />
		<stop
   offset="0.25760001"
   style="stop-color:#000404;stop-opacity:0.5;"
   id="stop8" />
		<stop
   offset="0.5359"
   style="stop-color:#001111;stop-opacity:0.5;"
   id="stop9" />
		<stop
   offset="0.82300001"
   style="stop-color:#002726;stop-opacity:0.5;"
   id="stop10" />
		<stop
   offset="1"
   style="stop-color:#003837;stop-opacity:0.5;"
   id="stop11" />
	</radialGradient>
	
	
</g>

</svg>
