<?xml version="1.0" encoding="UTF-8" standalone="no"?>
<!-- Created with Inkscape (http://www.inkscape.org/) -->

<svg
   width="360"
   height="360"
   viewBox="0 0 360 360"
   version="1.1"
   id="svg1"
   xmlns="http://www.w3.org/2000/svg"
   xmlns:svg="http://www.w3.org/2000/svg">
  <defs
     id="defs1">
    <radialGradient
       id="SVGID_1_-9"
       cx="996.16107"
       cy="997.2663"
       r="1133.7557"
       gradientUnits="userSpaceOnUse"
       gradientTransform="scale(0.18)">
		<stop
   offset="0"
   style="stop-color:#000000"
   id="stop1-87" />

		<stop
   offset="0.3099"
   style="stop-color:#000303"
   id="stop2-65" />

		<stop
   offset="0.5521"
   style="stop-color:#000D0D"
   id="stop3-114" />

		<stop
   offset="0.7713"
   style="stop-color:#001E1D"
   id="stop4-85" />

		<stop
   offset="0.976"
   style="stop-color:#003534"
   id="stop5-76" />

		<stop
   offset="1"
   style="stop-color:#003837"
   id="stop6-69" />

	</radialGradient>
  </defs>
  <g
     id="layer1">
    <path
       class="st1"
       d="m 259.5996,235.0836 c 0.2304,0.7704 0.7686,1.2546 1.2726,1.755 2.3814,2.3634 4.7106,4.7844 6.8688,7.344 2.0016,2.376 3.9348,4.815 5.796,7.3134 1.5894,2.1348 3.1464,4.2948 4.6296,6.498 1.818,2.7 3.5496,5.4594 5.175,8.2818 0.4392,0.7632 0.783,1.5156 1.9332,1.5948 0.8586,0.0594 0.729,1.2456 0.5868,1.638 -0.459,1.269 0.4014,2.016 0.9432,2.7828 1.1502,1.629 2.1006,3.3966 3.429,4.9032 2.1636,2.4516 3.6144,5.481 6.0714,7.6806 1.8486,1.656 3.474,3.5064 5.1354,5.3316 0.8334,0.9144 1.521,1.8828 1.8486,3.1248 0.3726,1.4094 1.3554,2.5272 2.1618,3.7044 2.1834,3.1896 4.1796,6.4908 6.1866,9.7884 2.943,4.8312 5.5026,9.873 8.2152,14.8302 0.7452,1.3626 1.395,2.7774 2.0808,4.1724 0.1386,0.2826 0.423,0.6462 0.0774,0.882 -0.3114,0.2106 -0.6138,-0.1044 -0.8388,-0.3456 -1.224,-1.314 -2.4534,-2.6244 -3.6558,-3.9582 -1.4418,-1.602 -2.997,-3.0906 -4.4766,-4.653 -1.9368,-2.0448 -3.9474,-4.0122 -5.8914,-6.048 -1.7964,-1.881 -3.5766,-3.7764 -5.3532,-5.6754 -0.3384,-0.3618 -0.6282,-0.7704 -1.0368,-1.1124 0.198,0.5778 0.3762,1.1646 0.5994,1.7334 1.0134,2.5884 1.8018,5.2524 2.6982,7.8804 0.7506,2.2014 1.476,4.41 2.1456,6.633 0.585,1.9404 1.0458,3.9204 1.5516,5.8842 0.3492,1.359 0.6534,2.7306 1.0278,4.0824 0.8676,3.1392 1.4598,6.3414 2.2068,9.5094 0.603,2.5578 1.053,5.1498 1.6866,7.704 0.549,2.2104 0.675,4.4946 0.9522,6.7518 0.0324,0.27 0.1584,0.6768 -0.2376,0.765 -0.3258,0.072 -0.522,-0.2646 -0.675,-0.5112 -1.0386,-1.6794 -2.0682,-3.3642 -3.0888,-5.0544 -2.43,-4.0194 -4.8402,-8.0514 -7.2846,-12.0618 -2.2104,-3.6252 -4.4406,-7.236 -6.6888,-10.8378 -1.5678,-2.511 -3.1788,-4.995 -4.7718,-7.4916 -1.8036,-2.8242 -3.5784,-5.6682 -5.4198,-8.469 -2.3346,-3.5514 -4.5378,-7.2108 -7.1424,-10.557 -2.4966,-3.2076 -5.1516,-6.2982 -7.6158,-9.5382 -0.252,-0.3312 -0.558,-0.6264 -0.8622,-0.9144 -0.2466,-0.234 -0.567,-0.4932 -0.774,0.004 -0.1872,0.4464 -0.7956,-0.1998 -0.8442,0.3618 -0.0576,0.6732 0.1962,1.2996 0.459,1.9008 0.9594,2.196 1.9008,4.3992 2.9214,6.5646 2.0592,4.365 3.7584,8.874 5.4288,13.3956 0.6012,1.6272 1.2798,3.2238 1.8414,4.8708 0.4284,1.2546 0.639,2.5506 0.9486,3.8196 0.4302,1.764 0.738,3.5676 1.08,5.355 0.6552,3.4164 1.0512,6.8616 1.4328,10.305 0.477,4.311 0.7056,8.649 0.5598,12.9942 -0.0144,0.4482 0.002,0.8982 -0.007,1.3482 -0.005,0.2646 0.0378,0.5796 -0.306,0.6678 -0.315,0.081 -0.4914,-0.153 -0.6426,-0.3852 -0.81,-1.2582 -1.6254,-2.5128 -2.4282,-3.7764 -1.9728,-3.1068 -3.9096,-6.2352 -5.9112,-9.3222 -3.726,-5.7474 -7.47,-11.484 -11.241,-17.2026 -2.421,-3.6702 -4.671,-7.4484 -7.0218,-11.1618 -4.0338,-6.3684 -7.7886,-12.9024 -11.6028,-19.4022 -1.5228,-2.5938 -2.9736,-5.2308 -4.4712,-7.8732 -0.288,0.2844 -0.1062,0.5454 -0.0648,0.7866 0.4464,2.5272 1.0188,5.0364 1.3248,7.5798 0.3636,3.0294 0.9342,6.0246 1.476,9.0162 0.6768,3.7368 0.99,7.515 1.6164,11.2536 0.2016,1.2024 0.0576,2.4642 0.261,3.6666 0.7758,4.6152 0.657,9.3096 1.2906,13.9284 0.576,4.194 0.693,8.3988 0.7254,12.6198 0.0144,1.7316 0.3096,3.4632 0.3168,5.1948 0.0126,3.285 -0.0882,6.57 -0.1494,9.8532 -0.005,0.2808 0.0936,0.6624 -0.3042,0.7506 -0.3384,0.0756 -0.5544,-0.2088 -0.7038,-0.4644 -0.7524,-1.2924 -1.5192,-2.5794 -2.2212,-3.9006 -3.9708,-7.4772 -8.1288,-14.8482 -12.2598,-22.2372 -2.979,-5.328 -5.931,-10.6704 -8.9046,-16.002 -2.2014,-3.9474 -4.1922,-8.0046 -6.1686,-12.069 -1.9332,-3.978 -3.7962,-7.992 -5.5296,-12.06 -1.3698,-3.2148 -2.61,-6.489 -3.816,-9.7704 -2.0592,-5.6016 -4.3578,-11.1276 -5.6646,-16.983 -0.1026,-0.4608 -0.2952,-0.8586 -0.8334,-0.6462 -0.612,0.2412 -1.0818,0.1008 -1.5714,-0.2736 -0.5058,-0.387 -0.7218,-0.2322 -0.7164,0.4104 0.018,2.4732 0.5058,4.8798 1.0314,7.2756 0.2466,1.1304 0.1584,2.2662 0.2808,3.393 0.5472,4.9986 0.8514,10.008 0.873,15.0408 0.0216,4.7592 0.414,9.5238 0.2358,14.2704 -0.1422,3.789 -0.1512,7.5942 -0.5544,11.3778 -0.1476,1.386 -0.1386,2.799 -0.1836,4.1922 -0.0648,1.9764 -0.423,3.9168 -0.4734,5.8914 -0.0324,1.2978 -0.3582,2.5902 -0.5634,3.8826 -0.153,0.9702 -0.3618,1.9512 -0.4248,2.9088 -0.108,1.6542 -0.6804,3.2076 -0.8136,4.842 -0.0216,0.2556 -0.153,0.4752 -0.4338,0.4986 -0.396,0.0342 -0.5832,-0.2268 -0.7092,-0.5616 -0.6714,-1.791 -1.3266,-3.5874 -2.025,-5.3676 -1.998,-5.094 -3.717,-10.2924 -5.7582,-15.372 -2.2194,-5.5242 -4.1598,-11.1528 -6.1416,-16.7652 -0.1782,-0.5076 -0.3168,-1.0278 -0.4896,-1.5372 -0.1188,-0.351 -0.3024,-0.585 -0.5688,-0.1044 -0.4446,0.8028 -0.936,1.575 -0.9306,2.565 0.0108,1.9152 -0.207,3.8574 -0.0702,5.7366 0.1962,2.691 0.1386,5.3838 0.3402,8.0658 0.1008,1.3338 -0.297,2.6082 -0.2556,3.9312 0.0756,2.4624 -0.3294,4.8852 -0.7128,7.3098 -0.2376,1.503 -0.2844,3.0384 -0.5688,4.5306 -0.234,1.2258 -0.342,2.4696 -0.6714,3.6882 -0.4194,1.548 -0.612,3.1554 -0.9486,4.7268 -0.3132,1.4598 -0.7308,2.8962 -1.0206,4.3596 -0.3996,2.025 -1.0764,3.9762 -1.5264,5.9868 -0.0198,0.0882 -0.0306,0.1782 -0.0594,0.2628 -0.1332,0.4158 -0.1206,1.0152 -0.6462,1.08 -0.612,0.0738 -0.612,-0.5922 -0.729,-0.9666 -1.1034,-3.501 -2.2428,-6.9894 -3.2022,-10.5354 -0.81,-2.9916 -1.7352,-5.9526 -2.5164,-8.9514 -1.0152,-3.8988 -2.1636,-7.7616 -3.1032,-11.6838 -0.6804,-2.8386 -1.3446,-5.6826 -1.9962,-8.5284 -0.4446,-1.944 -0.6822,-3.9348 -1.017,-5.904 -0.3186,-1.881 -0.6732,-3.7566 -0.9558,-5.643 -0.2034,-1.359 -0.4104,-2.7288 -0.432,-4.0968 -0.0144,-0.9414 -0.8118,-1.1376 -1.2384,-1.6632 -0.1872,-0.2304 -0.468,0.2142 -0.5976,0.4824 -0.9414,1.935 -1.8684,3.879 -2.826,5.8068 -2.952,5.9454 -5.8104,11.943 -8.91,17.811 -2.6262,4.9716 -5.0832,10.0278 -7.7076,14.9994 -1.98,3.753 -3.717,7.6338 -5.7168,11.376 -1.7622,3.2958 -3.3786,6.6636 -5.058,9.9972 -0.4536,0.9 -0.8154,1.8576 -1.2474,2.7774 -0.1602,0.3384 -0.4032,0.6732 -0.8064,0.5814 -0.3726,-0.0846 -0.2412,-0.4914 -0.27,-0.774 -0.2808,-2.7738 -0.5922,-5.544 -0.8298,-8.3214 -0.1854,-2.1726 -0.2808,-4.3524 -0.414,-6.5286 -0.1656,-2.682 -0.4032,-5.3622 -0.4698,-8.046 -0.0414,-1.6398 -0.225,-3.2706 -0.1422,-4.923 0.0864,-1.7244 -0.1206,-3.4632 -0.1188,-5.1948 0.002,-3.7368 0,-7.4754 0.1116,-11.2104 0.0468,-1.557 0.0936,-3.114 0.063,-4.6674 -0.045,-2.2896 0.4734,-4.518 0.6246,-6.7896 0.2088,-3.1302 0.5958,-6.2514 1.0062,-9.3636 0.36,-2.7216 0.9054,-5.4144 1.4256,-8.1126 0.3546,-1.8396 0.7542,-3.6774 1.1538,-5.5026 0.5796,-2.646 1.2888,-5.2776 2.1906,-7.8426 1.3086,-3.7242 2.8638,-7.3422 4.7106,-10.8324 1.8468,-3.4902 3.5802,-7.0452 5.5818,-10.4436 0.972,-1.6488 1.3428,-3.3174 1.503,-5.148 0.1134,-1.3014 0.4752,-2.5812 0.6858,-3.8772 0.2196,-1.35 0.3888,-2.709 0.4194,-4.1328 -0.549,0.8208 -1.1286,1.6236 -1.6398,2.466 -2.448,4.0392 -4.9068,8.0712 -7.3044,12.141 -4.3722,7.4196 -8.7444,14.841 -13.0338,22.3092 -2.2644,3.9438 -4.563,7.8678 -6.831,11.808 -1.7298,3.0078 -3.3192,6.0966 -5.076,9.0882 -2.6694,4.5432 -5.0076,9.2628 -7.5024,13.8978 -2.709,5.0292 -5.0724,10.233 -7.5384,15.3828 -1.8054,3.7674 -3.4236,7.623 -5.0112,11.4912 -0.7362,1.7946 -1.6092,3.5352 -2.4498,5.2866 -0.2394,0.4986 -0.2412,1.0494 -0.4536,1.5462 -0.0864,0.1998 -0.2016,0.3978 -0.4572,0.3384 -0.2016,-0.0468 -0.252,-0.2466 -0.261,-0.4284 -0.063,-1.3662 -0.315,-2.7018 -0.3006,-4.095 0.018,-1.7784 0.009,-3.582 0.0306,-5.3568 0.0234,-1.9278 -0.0918,-3.8916 0.2592,-5.8194 0.3726,-2.043 0.0594,-4.1256 0.3366,-6.1812 0.7092,-5.274 0.8802,-10.6128 2.0718,-15.831 0.351,-1.5354 0.5238,-3.1194 0.8298,-4.6746 0.2844,-1.4526 0.8082,-2.8116 1.2564,-4.203 0.0918,-0.2844 0.2034,-0.5634 0.2826,-0.8514 0.0486,-0.1746 0.054,-0.369 -0.1314,-0.4788 -0.1854,-0.108 -0.3204,0.007 -0.477,0.117 -0.9108,0.6318 -1.323,1.674 -1.6938,2.5812 -0.432,1.0548 -1.134,1.8702 -1.7262,2.7702 -2.6316,3.996 -5.2812,7.9848 -8.0424,11.8944 -3.7782,5.3496 -7.7508,10.5552 -11.8422,15.6744 -2.6892,3.366 -5.4342,6.6852 -8.1774,10.0026 -2.2482,2.7198 -4.6476,5.3136 -6.9786,7.965 -2.7648,3.1464 -5.5188,6.3018 -8.2926,9.4392 -0.6732,0.7614 -1.4004,1.476 -2.1114,2.205 -0.144,0.1476 -0.3294,0.315 -0.5508,0.18 -0.2304,-0.1422 -0.1206,-0.3744 -0.063,-0.5688 0.864,-2.8926 1.5822,-5.8266 2.439,-8.7246 0.5328,-1.8018 1.0692,-3.609 1.5966,-5.4144 0.7362,-2.52 1.557,-5.0184 2.412,-7.5006 0.8226,-2.3922 1.719,-4.7592 2.6136,-7.1262 0.6858,-1.8108 1.3806,-3.6216 2.1402,-5.4018 1.4202,-3.3246 2.8494,-6.6456 4.4388,-9.8946 0.9846,-2.0124 1.9872,-4.0158 2.9808,-6.0246 0.3456,-0.6984 0.6192,-1.404 0.6678,-2.2086 0.0576,-0.9648 0.7038,-1.7046 1.2078,-2.4696 0.8838,-1.3392 1.485,-2.7756 1.9206,-4.3182 0.333,-1.1736 0.7812,-2.3328 1.3176,-3.429 0.7596,-1.548 1.1754,-3.2382 2.1438,-4.7052 1.3968,-2.1168 2.2986,-4.518 3.6648,-6.66 0.1764,-0.2754 0.297,-0.5868 0.4266,-0.8892 0.0594,-0.1422 0.0522,-0.3204 -0.1116,-0.3816 -0.0864,-0.0324 -0.2358,0.0162 -0.3204,0.0774 -0.1674,0.1242 -0.3276,0.2664 -0.4572,0.4284 -2.4228,3.0186 -5.7186,5.0742 -8.4942,7.704 -2.0844,1.9746 -4.3236,3.7764 -6.4116,5.7546 -3.9564,3.7458 -8.0154,7.3854 -11.8026,11.304 -3.2436,3.357 -6.3576,6.8364 -9.5022,10.287 -3.6144,3.9672 -6.8994,8.1972 -10.2186,12.3948 -3.2454,4.104 -6.4152,8.2728 -9.4248,12.5586 -0.7398,1.053 -1.5264,2.0718 -2.3004,3.0996 -0.171,0.2268 -0.3384,0.5868 -0.6948,0.4122 -0.3096,-0.1512 -0.1422,-0.4806 -0.0882,-0.7308 1.143,-5.2362 2.2176,-10.4886 3.4614,-15.7014 0.8118,-3.3984 1.8,-6.7608 2.835,-10.0998 1.0512,-3.3858 2.2086,-6.741 3.411,-10.0764 0.9918,-2.7504 2.169,-5.4342 3.1698,-8.1828 1.7712,-4.8654 4.0626,-9.5022 6.192,-14.2074 1.107,-2.448 2.4624,-4.7826 3.6792,-7.182 1.9098,-3.7638 3.9744,-7.4412 6.1002,-11.0826 1.7784,-3.0474 3.672,-6.0282 5.6376,-8.9604 0.4248,-0.6336 0.7992,-1.3032 1.1376,-2.0052 -1.287,1.4166 -2.7612,2.6226 -4.1112,3.9618 -2.9718,2.9502 -5.8878,5.967 -8.9856,8.7822 -4.4028,4.0032 -8.8164,7.9974 -13.347,11.862 -3.0708,2.619 -5.994,5.4126 -8.9496,8.163 -1.0746,1.0008 -2.1726,1.9674 -3.303,2.9034 -0.225,0.1854 -0.495,0.459 -0.7848,0.2088 -0.2898,-0.2484 0.0432,-0.4752 0.1512,-0.7002 1.7352,-3.5784 3.4164,-7.1838 5.2164,-10.728 2.0862,-4.1076 4.41,-8.0838 6.8724,-11.9826 1.8684,-2.9574 3.7998,-5.8698 5.8158,-8.7246 1.845,-2.6154 3.8034,-5.1588 6.0066,-7.488 3.1068,-3.285 6.2514,-6.5322 9.4014,-9.7758 2.2698,-2.3364 4.932,-4.1634 7.722,-5.8158 1.224,-0.7236 2.2716,-1.6974 3.15,-2.7792 0.7146,-0.8784 1.5768,-1.4436 2.5308,-1.9404 2.6046,-1.3536 5.2092,-2.7072 7.722,-4.2246 1.3932,-0.8424 2.6406,-1.9134 4.1184,-2.6316 0.342,-0.1656 0.7866,-0.4914 0.216,-0.9342 -0.2448,-0.189 -0.1134,-0.3042 0.0504,-0.3924 1.26,-0.675 2.385,-1.6794 3.9492,-1.6254 0.5922,0.0198 1.1664,-0.198 1.5948,-0.5292 0.9018,-0.6984 2.0088,-1.0188 2.8944,-1.7478 1.3518,-1.1142 3.258,-1.2996 4.5504,-2.4732 2.7054,-2.457 6.309,-2.8926 9.4356,-4.3902 0.459,-0.2196 0.927,-0.423 1.3662,-0.6786 0.2736,-0.1602 0.5814,-0.3366 0.2322,-0.765 -0.3276,-0.4032 0.1836,-0.5778 0.3672,-0.621 1.386,-0.324 2.5038,-1.278 3.8664,-1.6254 1.6092,-0.4122 2.439,-1.7568 3.5172,-2.8116 0.108,-0.1062 0.189,-0.27 0.0684,-0.3978 -0.171,-0.1836 -0.3996,-0.099 -0.5886,-0.0216 -1.4454,0.5904 -2.9664,0.9396 -4.446,1.4148 -5.2722,1.6902 -10.5966,3.2328 -15.8076,5.0976 -4.2822,1.5318 -8.6724,2.7684 -12.861,4.5504 -1.1232,0.4788 -2.0466,1.3644 -3.1932,1.8864 -5.328,2.4228 -10.6974,4.7682 -15.9174,7.4088 -5.598,2.8314 -11.1078,5.8482 -16.407,9.2286 -6.4584,4.1202 -12.8052,8.3952 -18.945,12.9834 -2.3526,1.7568 -4.5738,3.6666 -6.876,5.481 -0.234,0.1836 -0.4734,0.4572 -0.7848,0.2286 -0.3114,-0.2268 -0.1584,-0.54 -0.009,-0.8064 1.368,-2.457 2.4786,-5.0436 3.7494,-7.5492 2.2212,-4.3812 4.7448,-8.586 7.4358,-12.6936 2.1168,-3.231 4.3326,-6.3954 6.6924,-9.4482 2.1222,-2.7432 4.2084,-5.5368 6.6528,-8.0028 4.0608,-4.095 8.0784,-8.2314 12.6792,-11.7684 4.185,-3.2166 8.4276,-6.3342 13.1094,-8.766 1.3572,-0.7056 2.7,-1.5642 4.2966,-1.8594 0.8496,-0.1566 1.62,-0.7452 2.421,-1.1466 0.1602,-0.081 0.324,-0.1926 0.3114,-0.4014 -0.0162,-0.27 -0.2538,-0.3078 -0.4518,-0.3582 -1.395,-0.3528 -2.7936,-0.738 -4.2264,-0.8226 -2.5686,-0.153 -5.0994,-0.522 -7.6194,-1.0206 -0.6408,-0.126 -1.3104,-0.1062 -1.9656,-0.1746 -4.1796,-0.4338 -8.3484,-1.044 -12.5658,-0.954 -3.2904,0.0702 -6.5898,0.1044 -9.8658,0.387 -2.403,0.207 -4.797,0.6354 -7.173,1.1178 -2.7162,0.5508 -5.4324,1.0746 -8.0874,1.899 -1.1916,0.369 -2.43,0.6012 -3.6216,0.9936 -0.2034,0.0666 -0.441,0.09 -0.5796,-0.1044 -0.1836,-0.2538 0.0072,-0.4536 0.1746,-0.6246 2.4588,-2.5308 4.7394,-5.2272 7.3566,-7.6104 5.0166,-4.5666 10.6902,-8.1558 16.6662,-11.286 3.7062,-1.9422 7.5294,-3.6198 11.5686,-4.8024 2.1168,-0.621 4.2696,-1.0656 6.3828,-1.6614 1.7604,-0.4968 3.5496,-0.8388 5.3352,-1.0602 1.6848,-0.2088 3.3426,-0.6318 5.0598,-0.6588 3.1968,-0.0504 6.39,-0.2178 9.5904,-0.009 3.339,0.2196 6.687,0.3366 10.0008,0.8388 1.0746,0.162 1.8954,-0.4554 2.7648,-0.8766 0.504,-0.2448 0.1314,-0.4284 -0.1836,-0.5418 -1.71,-0.6192 -3.4164,-1.251 -5.1264,-1.8684 -5.0814,-1.8324 -10.1484,-3.7098 -15.255,-5.4738 -3.6936,-1.2762 -7.38,-2.5758 -11.151,-3.6198 -2.925,-0.81 -5.8284,-1.7082 -8.7624,-2.4822 -2.79,-0.7362 -5.607,-1.3752 -8.4276,-1.9998 -1.98,-0.4392 -3.9798,-0.7758 -5.9652,-1.1808 -1.5426,-0.315 -3.1248,-0.4644 -4.6854,-0.72 -2.0898,-0.3438 -4.185,-0.7164 -6.3252,-0.621 -0.36,0.0162 -0.8604,-0.002 -0.9612,-0.4806 -0.0918,-0.4356 0.2844,-0.6696 0.6012,-0.9126 3.1788,-2.4318 6.9138,-3.7728 10.512,-5.3802 2.2068,-0.9864 4.4316,-1.9314 6.7392,-2.655 1.9926,-0.6264 4.0302,-1.0962 6.0804,-1.494 2.133,-0.4158 4.2678,-0.8532 6.4206,-1.1322 1.0566,-0.1368 2.1024,-0.3654 3.1824,-0.4194 1.0242,-0.0522 2.0358,-0.3654 3.087,-0.4536 2.7126,-0.2286 5.4234,-0.4356 8.1468,-0.3168 0.7164,0.0306 1.431,0.1188 2.1474,0.153 0.2178,0.0108 0.4806,0.1008 0.7182,-0.2196 -1.683,-0.7038 -3.0348,-1.8864 -4.5306,-2.8494 -2.0088,-1.296 -3.9582,-2.6856 -5.9688,-3.9798 -4.725,-3.0438 -9.45,-6.0858 -14.2218,-9.0576 -3.8106,-2.3724 -7.704,-4.59 -11.6316,-6.7536 -4.2858,-2.3598 -8.676,-4.5144 -13.0968,-6.6078 -1.5354,-0.7272 -3.15,-1.2492 -4.7214,-1.8864 -0.1116,-0.045 -0.2358,-0.063 -0.3348,-0.126 -0.4104,-0.2574 -1.1304,-0.315 -1.0494,-0.9396 0.072,-0.5508 0.7362,-0.5256 1.1862,-0.6138 2.3112,-0.4572 4.6404,-0.7524 6.9912,-0.981 2.8476,-0.2754 5.7042,-0.4878 8.55,-0.5904 3.0024,-0.108 6.0228,0.0324 9.036,0.3114 2.8098,0.261 5.5746,0.774 8.3178,1.3284 3.4434,0.6966 6.876,1.4994 10.2132,2.6712 2.565,0.9 5.1426,1.7532 7.6518,2.8026 2.8368,1.1862 5.6322,2.457 8.4042,3.789 3.7782,1.818 7.4448,3.8376 11.0052,6.048 3.1554,1.9602 6.1578,4.1238 8.9064,6.6474 1.98,1.818 4.0284,3.5802 6.3216,5.0112 1.3644,0.8514 1.7748,0.7074 1.9584,-0.8874 0.1098,-0.9576 0.1422,-2.0052 -0.6984,-2.8404 -0.9972,-0.9882 -1.8972,-2.0754 -2.8422,-3.1176 -0.0594,-0.0666 -0.117,-0.1458 -0.1926,-0.1872 -3.3354,-1.8558 -5.751,-4.788 -8.5176,-7.3044 -3.5838,-3.2616 -7.0866,-6.615 -10.6182,-9.9342 -2.268,-2.1312 -4.4964,-4.3038 -6.7932,-6.4008 -3.5352,-3.2238 -6.9696,-6.5556 -10.701,-9.567 -2.115,-1.7064 -4.086,-3.5982 -6.2244,-5.2848 C 41.0816,77.9188 37.7372,75.307 34.337,72.76 31.2732,70.4646 28.197,68.1876 25.083,65.9628 21.3354,63.2844 17.4996,60.7356 13.6332,58.2318 11.3256,56.7378 8.937,55.3554 6.8184,53.586 6.4314,53.262 5.7006,52.947 5.958,52.389 c 0.2196,-0.477 0.8658,-0.036 1.3068,0.045 3.6504,0.6714 7.2918,1.3626 10.9188,2.1672 3.1788,0.7056 6.3792,1.3626 9.5364,2.151 2.1042,0.5256 4.2426,0.9864 6.291,1.764 1.2186,0.4626 2.5434,0.5976 3.7872,1.0674 1.638,0.6192 3.357,1.0278 5.0364,1.539 1.7658,0.5382 3.5244,1.1034 5.2686,1.6956 2.3706,0.8064 4.6872,1.7676 7.0272,2.664 2.7036,1.0368 5.3028,2.313 7.9632,3.4488 3.6198,1.5462 7.1046,3.393 10.566,5.2812 2.313,1.2618 4.5648,2.6208 6.8418,3.9366 0.1656,0.0954 0.3096,0.306 0.7002,0.1152 C 80.2836,77.4018 79.587,76.41 78.8004,75.4974 73.368,69.1938 67.68,63.1242 62.0082,57.0384 57.4974,52.1982 52.9146,47.4246 48.24,42.7428 44.6454,39.1428 41.0796,35.5122 37.422,31.977 33.5052,28.1916 29.4984,24.5016 25.5312,20.7684 c -1.0026,-0.9432 -2.0034,-1.8882 -2.9988,-2.8386 -0.2178,-0.207 -0.4734,-0.441 -0.288,-0.7704 0.2034,-0.36 0.5634,-0.2988 0.882,-0.1872 2.4102,0.8352 4.9446,1.2078 7.3656,1.9998 3.0672,1.0026 6.1686,1.9152 9.1818,3.0618 3.087,1.1754 6.1632,2.3886 9.1728,3.7746 4.6332,2.133 9.2178,4.3614 13.7106,6.7698 5.2992,2.8404 10.3662,6.0678 15.3396,9.4428 3.4902,2.3688 6.984,4.7358 10.3014,7.335 2.6586,2.0826 5.2362,4.2696 7.722,6.5682 1.7586,1.6272 3.474,3.2976 5.1678,4.986 2.6064,2.5992 5.0022,5.3928 7.3998,8.1864 1.6758,1.953 3.2742,3.9672 4.9068,5.9544 1.3842,1.6866 2.6388,3.4812 3.9582,5.22 0.9576,1.2618 1.9296,2.5146 2.898,3.7674 0.126,0.162 0.2646,0.3312 0.5724,0.2124 -1.0188,-2.5254 -2.1924,-4.9626 -3.6594,-7.2504 -2.3256,-3.6234 -4.5792,-7.2972 -7.0236,-10.8396 -2.2914,-3.3192 -4.6584,-6.5898 -7.0884,-9.8154 -2.448,-3.2508 -4.7646,-6.6006 -7.1316,-9.9126 C 94.4244,44.3412 92.9304,42.2478 91.4562,40.14 88.0452,35.262 84.4722,30.5028 80.7228,25.884 76.8402,21.0996 72.9324,16.3332 68.832,11.727 66.483,9.09 64.2402,6.3612 61.7058,3.8934 61.4736,3.6666 61.173,3.3876 61.4394,3.0474 c 0.243,-0.3096 0.5346,-0.036 0.8046,0.0702 1.719,0.6786 3.447,1.3338 5.1624,2.0214 2.9358,1.1772 5.85,2.412 8.6652,3.8592 2.1492,1.1052 4.347,2.106 6.489,3.2292 2.7828,1.4598 5.4792,3.051 8.1378,4.7196 5.301,3.3318 10.3122,7.0596 15.2064,10.9584 4.6872,3.7332 9.2412,7.623 13.3272,12.006 3.0384,3.2598 5.8374,6.732 8.2926,10.476 1.755,2.6766 3.3894,5.427 5.1138,8.1216 0.0162,0.0252 0.0378,0.0486 0.0468,0.0774 0.999,3.141 3.4074,5.283 5.4324,7.7022 0.747,0.8946 1.4094,1.8612 2.0808,2.8152 0.4878,0.6948 1.0638,1.3068 1.7316,1.8108 0.4626,0.3492 0.8928,0.6822 1.1394,1.224 0.2592,0.567 0.7884,0.5274 1.242,0.3888 0.5256,-0.162 0.225,-0.603 0.1584,-0.9162 -0.1188,-0.5562 -0.2808,-1.0962 -0.6858,-1.539 -0.9018,-0.981 -0.81,-2.349 -1.3158,-3.474 -1.3986,-3.114 -2.4714,-6.345 -3.5748,-9.567 -0.8316,-2.4264 -1.6722,-4.851 -2.4732,-7.2882 -1.3518,-4.1112 -2.655,-8.2386 -4.0176,-12.3462 -0.9486,-2.8584 -1.9602,-5.697 -2.9448,-8.5428 -1.9602,-5.6718 -3.9006,-11.349 -5.886,-17.0118 -1.0278,-2.9322 -2.133,-5.8374 -3.204,-8.7534 -0.0108,-0.0288 -0.027,-0.054 -0.0342,-0.0828 -0.1098,-0.4824 -0.4644,-1.0512 0.0234,-1.4238 0.5364,-0.4104 0.945,0.1566 1.3014,0.4644 4.419,3.807 8.8938,7.551 13.149,11.5416 3.1914,2.9916 6.138,6.219 9,9.5256 2.2158,2.5596 4.2966,5.2218 6.2694,7.9686 4.329,6.0228 7.911,12.4632 10.89,19.2564 1.935,4.4136 3.5172,8.9496 5.0058,13.5216 0.4968,1.5246 0.8172,3.1068 1.2348,4.6584 0.0918,0.3384 0.2592,0.6552 0.3978,0.9972 0.1044,-0.072 0.1926,-0.1044 0.1908,-0.135 -0.0702,-2.1366 0.4536,-4.2138 0.621,-6.3288 0.1242,-1.5732 0.4644,-3.1302 0.594,-4.7034 0.1206,-1.4634 0.3924,-2.8998 0.6264,-4.3434 0.4266,-2.6154 1.0314,-5.2038 1.3626,-7.83 0.3042,-2.4048 0.927,-4.7322 1.4058,-7.092 0.585,-2.8872 1.4202,-5.7258 2.1528,-8.5824 0.5418,-2.1114 1.0746,-4.2228 1.7298,-6.3036 0.8244,-2.6172 1.584,-5.256 2.421,-7.8678 1.0458,-3.2634 2.115,-6.5214 3.3444,-9.7218 0.396,-1.0296 0.8892,-2.0232 0.9414,-3.1554 0.0108,-0.2502 0.117,-0.4824 0.3978,-0.531 0.333,-0.0576 0.5184,0.1674 0.585,0.4374 0.207,0.8388 0.4032,1.6794 0.5634,2.529 0.6642,3.519 1.3932,7.029 1.9422,10.5678 0.36,2.322 0.8478,4.6206 1.2078,6.9444 0.4644,2.9988 0.8802,6.0102 1.4976,8.9892 0.4158,2.0106 0.5544,4.0788 0.8118,6.1218 0.2682,2.133 0.5436,4.266 0.7902,6.4026 0.1728,1.5084 0.4068,3.0204 0.4158,4.5324 0.009,1.3554 0.396,2.6388 0.4482,4.2354 0.684,-1.6254 1.2492,-3.015 1.8504,-4.3866 1.7586,-4.0158 4.041,-7.7328 6.4548,-11.3814 3.276,-4.9518 7.1388,-9.4302 11.0016,-13.9158 2.8764,-3.3408 6.1038,-6.3288 9.2862,-9.3654 2.772,-2.6442 5.58,-5.2452 8.532,-7.6878 1.5444,-1.278 3.2094,-2.4048 4.6926,-3.7584 0.2196,-0.1998 0.5058,-0.3816 0.8136,-0.189 0.3258,0.2034 0.2268,0.5526 0.1314,0.8172 -0.4302,1.206 -0.864,2.4138 -1.3518,3.5964 -0.9108,2.2086 -1.7478,4.4424 -2.5182,6.7032 -0.5688,1.6668 -1.2456,3.2958 -1.8468,4.9518 -0.6552,1.8144 -1.2762,3.6144 -1.9008,5.4144 -0.783,2.2536 -1.5714,4.5054 -2.3292,6.768 -0.927,2.7666 -1.8162,5.5476 -2.7432,8.3142 -0.8604,2.574 -1.7604,5.1354 -2.6226,7.7094 -0.6912,2.0646 -1.341,4.14 -2.0232,6.2082 -0.8856,2.6874 -1.8216,5.3604 -2.6568,8.064 -0.3006,0.972 -0.6192,1.9296 -0.9918,2.8746 -0.0738,0.1854 -0.144,0.3996 0.0612,0.6012 0.486,-0.1332 0.6156,-0.5976 0.8622,-0.9522 2.6136,-3.7548 5.2974,-7.461 8.1162,-11.0646 2.7288,-3.4884 5.7744,-6.7032 8.685,-10.035 2.3112,-2.6478 4.824,-5.076 7.362,-7.488 2.4498,-2.3292 5.0256,-4.5144 7.6482,-6.6528 2.3652,-1.9278 4.7088,-3.8772 7.182,-5.6646 4.8258,-3.4884 9.7236,-6.8706 14.8428,-9.9144 3.0312,-1.8018 6.1542,-3.447 9.3042,-5.0364 0.3186,-0.1602 0.6048,-0.3888 0.9252,-0.5436 0.2394,-0.117 0.5382,-0.2124 0.729,0.0738 0.153,0.2304 0.0234,0.4806 -0.1332,0.6606 -0.549,0.6318 -1.0602,1.2906 -1.5768,1.9494 -2.9286,3.7476 -5.7816,7.5492 -8.6238,11.3634 -3.3246,4.4604 -6.5952,8.9604 -9.7416,13.5468 -2.7576,4.0194 -5.391,8.1252 -8.0928,12.1824 -4.0806,6.129 -7.812,12.4668 -11.4372,18.8712 -0.7938,1.4004 -1.6308,2.7738 -2.5758,4.3758 0.8586,-0.3816 1.2708,-0.9252 1.728,-1.3824 3.2652,-3.258 6.4602,-6.5862 9.7812,-9.7866 1.9584,-1.8864 4.1382,-3.537 6.1542,-5.3658 2.106,-1.9116 4.3164,-3.6954 6.5196,-5.4864 3.438,-2.7936 7.0218,-5.4018 10.6794,-7.9038 2.4948,-1.7064 4.9662,-3.4506 7.5168,-5.0706 5.067,-3.2184 10.1844,-6.3558 15.4494,-9.252 3.294,-1.8126 6.5808,-3.6378 9.9648,-5.2722 2.5776,-1.2456 5.1804,-2.4462 7.749,-3.708 2.493,-1.224 5.058,-2.2752 7.5798,-3.42 1.3698,-0.621 2.7936,-1.1934 4.2102,-1.746 2.0916,-0.8172 4.203,-1.557 6.3414,-2.2302 0.4878,-0.153 1.1826,-0.6264 1.4814,-0.1512 0.3294,0.5256 -0.369,0.9846 -0.7524,1.3698 -4.9896,5.0058 -9.9324,10.062 -15.003,14.985 -7.326,7.1118 -14.5026,14.373 -21.7224,21.591 -5.4198,5.418 -10.5264,11.133 -15.7878,16.7022 -2.5902,2.7414 -5.166,5.4954 -7.7418,8.2494 -3.2904,3.519 -6.5718,7.047 -9.855,10.5732 -0.1368,0.1458 -0.2448,0.3186 -0.495,0.648 0.9216,-0.1782 1.5138,-0.6264 2.1654,-0.909 3.5712,-1.5498 6.5628,-4.0104 9.7344,-6.1956 3.9906,-2.7486 8.0622,-5.3784 12.1464,-7.9902 3.177,-2.0322 6.4062,-3.9744 9.6948,-5.8122 2.3418,-1.3086 4.743,-2.5146 7.1352,-3.7314 2.4732,-1.2564 4.9374,-2.5344 7.461,-3.6828 2.4408,-1.1106 4.8528,-2.2788 7.3116,-3.3516 2.3256,-1.0134 4.68,-1.9512 7.0092,-2.9538 2.0772,-0.8946 4.239,-1.5894 6.3216,-2.4696 1.9026,-0.8028 3.8682,-1.4616 5.8158,-2.0826 3.1878,-1.0188 6.3234,-2.223 9.5904,-3.0114 2.8512,-0.6876 5.6646,-1.5336 8.496,-2.3076 0.2016,-0.0558 0.405,-0.1116 0.6102,-0.1458 0.1764,-0.0306 0.387,-0.0486 0.495,0.1188 0.1476,0.2304 -0.0558,0.3834 -0.189,0.5382 -0.666,0.7848 -1.539,1.3212 -2.3328,1.9548 -6.4224,5.1426 -12.7746,10.3698 -19.0728,15.6654 -4.5576,3.8304 -8.9946,7.7958 -13.3938,11.8044 -2.7864,2.5398 -5.544,5.112 -8.2602,7.7274 -2.4372,2.3454 -4.761,4.8078 -7.2054,7.1442 -1.7514,1.6722 -3.4848,3.3696 -5.1786,5.094 -3.0222,3.0762 -6.0534,6.1416 -9.0954,9.198 -0.7074,0.7092 -1.5192,1.3194 -2.205,2.3976 1.962,-0.9918 3.6918,-1.9098 5.4612,-2.7486 2.7504,-1.305 5.5206,-2.5668 8.3376,-3.7296 2.151,-0.8892 4.3524,-1.6416 6.5574,-2.358 2.3472,-0.7632 4.7538,-1.3446 7.1766,-1.8594 2.043,-0.4338 4.0032,-1.2096 6.102,-1.449 3.3534,-0.3834 6.6402,-1.251 10.0584,-1.215 2.4372,0.0252 4.8762,-0.2718 7.3152,-0.3024 1.5138,-0.018 3.0348,0.1116 4.5504,0.189 1.7586,0.09 3.4884,0.3042 5.2164,0.594 2.7198,0.4554 5.481,0.738 8.0676,1.8 0.2808,0.1152 0.5832,0.2358 0.5688,0.6048 -0.0126,0.3474 -0.324,0.387 -0.5778,0.4662 -2.0376,0.621 -3.843,1.7622 -5.7906,2.592 -1.6416,0.7002 -3.2292,1.5318 -4.833,2.3184 -2.763,1.3518 -5.481,2.7846 -8.1432,4.3308 -2.3994,1.395 -4.8744,2.6568 -7.2756,4.0446 -6.0588,3.4992 -11.9898,7.2036 -17.829,11.0628 -4.1148,2.7216 -8.3376,5.2776 -12.5262,7.8894 -0.8298,0.5166 -1.7118,0.9468 -2.5452,1.404 0.0432,0.2448 0.1782,0.2556 0.2898,0.252 2.304,-0.0828 4.6098,0.005 6.9156,-0.0684 1.9566,-0.063 3.9276,0.1188 5.8824,0.3006 2.4624,0.2286 4.941,0.4284 7.3638,0.8982 2.772,0.5364 5.5638,0.9828 8.3052,1.7262 2.7072,0.7344 5.4162,1.4706 8.073,2.3562 4.0122,1.3374 7.8066,3.1842 11.439,5.3496 1.3338,0.7956 2.7684,1.431 3.9744,2.4372 0.324,0.27 0.7434,0.5274 0.576,1.0134 -0.1818,0.5238 -0.7254,0.4212 -1.0926,0.3402 -2.6208,-0.576 -5.2974,-0.4338 -7.9434,-0.5976 -1.9548,-0.1224 -3.942,0.1386 -5.9058,0.315 -2.592,0.234 -5.1804,0.5094 -7.7598,0.8514 -2.6334,0.3492 -5.2776,0.6804 -7.8696,1.2402 -2.2968,0.4968 -4.59,1.0332 -6.8634,1.6596 -1.6254,0.4464 -3.2976,0.7542 -4.9374,1.1826 -2.565,0.6678 -5.121,1.3626 -7.6482,2.1636 -2.7828,0.882 -5.589,1.6956 -8.3556,2.6262 -2.1204,0.7128 -4.2426,1.4202 -6.3252,2.2572 -3.2076,1.2888 -6.3864,2.6352 -9.7542,4.1886 0.8154,0.1764 1.3878,0.0576 1.962,0.0414 2.2392,-0.0594 4.4406,-0.5004 6.6996,-0.4698 4.1544,0.0558 8.2908,0.3438 12.4164,0.7542 1.7964,0.1782 3.5514,0.7632 5.3478,0.9792 2.2914,0.2736 4.5162,0.8406 6.7464,1.3572 4.779,1.1088 9.4626,2.5416 13.8726,4.7556 2.9358,1.476 5.8482,3.0006 8.6058,4.788 4.1976,2.7234 8.1108,5.805 11.7792,9.2214 3.825,3.564 7.1622,7.5474 10.4184,11.6046 1.3068,1.6272 2.3796,3.4416 3.555,5.175 0.1566,0.2304 0.2718,0.5004 0.0432,0.7398 -0.2088,0.2178 -0.45,0.0702 -0.6588,-0.0396 -2.9142,-1.5264 -5.9166,-2.853 -9.0306,-3.9114 -3.7764,-1.2834 -7.5114,-2.6964 -11.4174,-3.5856 -1.5048,-0.3438 -3.0024,-0.8082 -4.509,-1.1034 -2.3364,-0.459 -4.6314,-1.0998 -6.9894,-1.4778 -2.2932,-0.369 -4.563,-0.8928 -6.867,-1.206 -1.4472,-0.1962 -2.8998,-0.3474 -4.3506,-0.5202 -2.1636,-0.2574 -4.3254,-0.558 -6.4944,-0.7614 -2.2626,-0.2124 -4.5324,-0.3438 -6.7986,-0.4878 -1.3734,-0.0882 -2.7486,-0.144 -4.1238,-0.1926 -0.6354,-0.0216 -1.053,0.1206 -0.2898,0.8244 -0.4608,0.0972 -0.7092,-0.036 -0.7182,-0.3834 -0.0144,-0.6228 -0.4122,-0.6534 -0.855,-0.63 -0.4158,0.0234 -0.8532,0.009 -1.242,0.135 -1.0926,0.3528 -2.2104,0.2286 -3.321,0.2826 -0.7632,0.0378 -1.4922,0.3096 -2.2752,0.351 -1.575,0.0846 -3.141,0.396 -4.716,0.4536 -0.972,0.036 -1.9476,-0.162 -2.9448,0.3906 0.3636,0.4914 0.9,0.4968 1.3464,0.6606 3.4884,1.2708 7.1154,2.1186 10.6092,3.3606 3.7908,1.3482 7.2162,3.447 10.6506,5.5062 3.2094,1.9224 6.3234,3.987 9.3438,6.1974 2.7306,1.9998 5.3082,4.1796 7.8174,6.4422 5.2362,4.7196 9.8766,9.99 14.2848,15.4764 3.0366,3.78 5.8878,7.6914 8.667,11.6658 3.0042,4.2966 5.6826,8.7912 8.2692,13.338 2.2626,3.978 4.2174,8.1234 6.1146,12.2904 0.1098,0.2394 0.3132,0.5238 0.0432,0.7344 -0.2826,0.2196 -0.4968,-0.0774 -0.6876,-0.243 -2.3004,-2.0052 -4.5774,-4.0374 -6.894,-6.0228 -3.978,-3.411 -8.2062,-6.498 -12.4398,-9.5796 -3.3228,-2.4174 -6.912,-4.455 -10.1952,-6.9084 -3.3426,-2.4966 -6.7788,-4.8222 -10.3878,-6.894 -1.26,-0.7236 -2.7162,-1.089 -3.9492,-1.9008 -0.1656,-0.1098 -0.3906,-0.2412 -0.5706,-0.036 -0.1818,0.207 -0.126,0.4734 0.004,0.6732 0.5706,0.873 1.1808,1.7208 1.7442,2.5974 1.0962,1.7082 2.3256,3.3282 3.0834,5.2524 0.5814,1.4796 1.3086,2.8638 2.4822,4.0698 1.9728,2.0268 3.6774,4.3236 5.5278,6.4548 3.105,3.5748 5.8896,7.3926 8.928,11.0142 2.6586,3.1698 4.7556,6.7536 6.75,10.3752 1.746,3.1698 3.0474,6.5682 4.8978,9.6894 0.1368,0.2304 0.2502,0.4788 0.3564,0.7254 0.1116,0.2664 0.3816,0.5742 0.1296,0.8244 -0.2826,0.279 -0.5436,-0.0666 -0.783,-0.207 -1.9746,-1.1592 -3.726,-2.6154 -5.3712,-4.1868 -3.6126,-3.4488 -7.317,-6.777 -11.3058,-9.801 -2.4498,-1.8576 -4.635,-4.0626 -7.2,-5.7906 -1.4832,-1.0008 -3.1464,-1.7316 -4.4658,-2.9808 -0.18,-0.171 -0.477,-0.4086 -0.7146,-0.171 -0.3204,0.324 0.1026,0.5112 0.2484,0.7362 1.6812,2.5884 3.7782,4.8636 5.5602,7.38 3.9456,5.5746 7.587,11.331 10.7532,17.3844 2.718,5.1948 5.4324,10.3914 7.875,15.723 2.5758,5.6268 5.0058,11.3148 7.2774,17.0748 1.3698,3.4704 2.7558,6.9354 4.0176,10.4454 0.6048,1.6794 1.1862,3.3732 1.7154,5.085 0.5634,1.8162 1.233,3.6126 1.8054,5.4306 0.7524,2.3904 1.5984,4.7574 2.1258,7.2144 0.0486,0.2304 0.1476,0.5094 -0.1242,0.6444 -0.2754,0.1368 -0.459,-0.1242 -0.5868,-0.2988 -1.1646,-1.593 -2.3148,-3.1968 -3.465,-4.7988 -3.4182,-4.7664 -6.831,-9.5364 -10.4076,-14.1912 -4.2336,-5.5098 -8.748,-10.7838 -13.1976,-16.11 -1.7442,-2.088 -3.6144,-4.0734 -5.4738,-6.0624 -3.0456,-3.258 -6.0336,-6.5772 -9.2232,-9.6894 -2.8026,-2.7342 -5.4036,-5.6682 -8.3232,-8.2872 -1.1772,-1.0566 -2.2032,-2.2824 -3.3066,-3.42 -2.2698,-2.34 -4.5414,-4.68 -6.8238,-7.0092 -4.3992,-4.4892 -8.7714,-9.0054 -12.9726,-13.6782 -2.34,-2.601 -4.4496,-5.409 -6.7374,-8.0586 -1.6002,-1.854 -3.2796,-3.6324 -5.0904,-5.3046 -2.8134,-2.5974 -5.7762,-5.0148 -8.685,-7.497 -1.0566,-0.9126 -2.241,-1.674 -3.3678,-2.5002 z"
       id="path6"
       style="display:inline;fill:url(#SVGID_1_-9);stroke-width:0.18" />
  </g>
</svg>
