<?xml version="1.0" encoding="UTF-8" standalone="no"?>
<!-- Generator: Adobe Illustrator 27.3.0, SVG Export Plug-In . SVG Version: 6.00 Build 0)  -->

<svg
   version="1.1"
   id="Layer_1"
   x="0px"
   y="0px"
   viewBox="0 0 2000 2000"
   style="enable-background:new 0 0 2000 2000;"
   xml:space="preserve"
   sodipodi:docname="Grass Top-01.svg"
   inkscape:version="1.4 (e7c3feb100, 2024-10-09)"
   xmlns:inkscape="http://www.inkscape.org/namespaces/inkscape"
   xmlns:sodipodi="http://sodipodi.sourceforge.net/DTD/sodipodi-0.dtd"
   xmlns="http://www.w3.org/2000/svg"
   xmlns:svg="http://www.w3.org/2000/svg"><defs
   id="defs62" /><sodipodi:namedview
   id="namedview62"
   pagecolor="#505050"
   bordercolor="#eeeeee"
   borderopacity="1"
   inkscape:showpageshadow="0"
   inkscape:pageopacity="0"
   inkscape:pagecheckerboard="0"
   inkscape:deskcolor="#505050"
   inkscape:zoom="0.2495"
   inkscape:cx="997.99599"
   inkscape:cy="1000"
   inkscape:window-width="1280"
   inkscape:window-height="728"
   inkscape:window-x="0"
   inkscape:window-y="0"
   inkscape:window-maximized="1"
   inkscape:current-layer="g62" />
<style
   type="text/css"
   id="style1">
	.st0{display:none;fill:#000A0A;}
	.st1{display:none;}
	.st2{display:inline;fill:url(#SVGID_1_);}
	.st3{display:inline;fill:url(#SVGID_00000124156603309162849310000004720081371836968849_);}
	.st4{display:inline;}
	.st5{fill:url(#SVGID_00000049936459944016339160000016645389746637045888_);}
	.st6{fill:url(#SVGID_00000093149244632789195880000009727315205160675470_);}
	.st7{fill:url(#SVGID_00000033341753731869848690000016400453588631707537_);}
	.st8{fill:url(#SVGID_00000127763087795743996720000016383947152746991247_);}
	.st9{fill:url(#SVGID_00000103238150440165498420000001831637100400530311_);}
	.st10{fill:url(#SVGID_00000129894329384703765590000014844496319280725933_);}
	.st11{fill:url(#SVGID_00000121979182695327619220000013085903671636164229_);}
	.st12{fill:url(#SVGID_00000082364941609346331220000014896464758462567100_);}
	.st13{fill:url(#SVGID_00000127736557335232274290000009814948478594503600_);}
</style>


<g
   id="g62"
   style="display:inline">
	<g
   id="g20"
   style="display:inline">
		
			<radialGradient
   id="SVGID_00000169549751772237347750000004562559212780339631_"
   cx="982.5069"
   cy="1204.9683"
   r="479.12659"
   gradientTransform="matrix(0.0249,0.9997,-0.9997,0.0249,2109.4094,-12.2439)"
   gradientUnits="userSpaceOnUse">
			<stop
   offset="0"
   style="stop-color:#000000"
   id="stop16" />
			<stop
   offset="0.2188"
   style="stop-color:#001817"
   id="stop17" />
			<stop
   offset="0.4601"
   style="stop-color:#002A29"
   id="stop18" />
			<stop
   offset="0.7143"
   style="stop-color:#003434"
   id="stop19" />
			<stop
   offset="1"
   style="stop-color:#003837"
   id="stop20" />
		</radialGradient>
		<path
   style="display:inline;fill:url(#SVGID_00000169549751772237347750000004562559212780339631_)"
   d="m 1065.24,968.69 c 3.48,1.22 6.89,0.76 10.26,0.28 14.51,-2.08 28.71,-5.61 42.89,-9.26 15.74,-4.04 31.67,-7.24 47.59,-10.48 16.02,-3.25 31.82,-7.63 47.89,-10.72 16.52,-3.18 32.94,-7.13 49.6,-9.21 11.94,-1.49 23.24,-5.76 35.23,-6.6 8.8,-0.61 17.6,-1.35 26.4,-1.93 8.94,-0.59 17.89,-1.37 26.85,-1.52 11.91,-0.2 23.82,-0.55 35.76,-0.02 19.18,0.86 38.36,1.76 57.39,4.22 8.51,1.1 17.06,2.07 25.78,3.6 -2.49,4.31 -6.55,6.54 -10.41,8.97 -16.17,10.2 -32.6,19.97 -49.15,29.55 -15.76,9.12 -32.03,17.24 -48.57,24.88 -27.06,12.51 -55.16,21.94 -83.95,29.51 -9.69,2.55 -19.28,5.5 -28.88,8.41 -12.95,3.91 -26.34,5.65 -39.57,8.19 -12.1,2.32 -24.33,3.82 -36.51,5.69 -8.1,1.24 -16.24,1.86 -24.36,2.78 -1.53,0.17 -3.07,0.27 -4.6,0.4 0.01,0.29 0.03,0.57 0.04,0.86 3.96,0.17 7.92,0.28 11.87,0.51 10.34,0.6 20.78,0.56 31,2.02 19.02,2.72 37.15,9.02 55,15.96 17.97,6.98 35.21,15.53 52.22,24.58 21.93,11.67 42.23,25.8 61.88,40.9 20.44,15.71 38.54,33.92 56.01,52.81 15.72,17 31.06,34.37 47.67,50.53 4.46,4.34 8.8,8.8 13.18,13.21 0.64,0.64 1.6,1.27 1.29,2.28 -0.38,1.27 -1.67,1.06 -2.66,1.05 -8,-0.12 -15.82,-1.65 -23.59,-3.29 -23.78,-4.99 -46.55,-13.32 -69.03,-22.25 -25.68,-10.21 -50.86,-21.69 -76.4,-32.28 -21.17,-8.79 -42.9,-16.05 -64.75,-23.01 -12.38,-3.94 -24.35,-9.21 -36.45,-14.02 -16.71,-6.65 -33.35,-13.46 -50.04,-20.15 -3.44,-1.38 -6.59,-3.3 -9.87,-4.97 -2.63,-1.33 -5.15,-3.08 -9.43,-3 2.49,1.86 4.04,3.67 5.99,4.37 7.06,2.55 12.31,7.7 17.82,12.29 14.54,12.11 27.69,25.7 40.59,39.53 16.9,18.11 30.57,38.66 44.85,58.75 10.45,14.7 18.76,30.63 27.03,46.6 3.28,6.34 7.2,12.34 10.73,18.55 7.94,13.98 13.69,28.95 19.82,43.75 1.52,3.66 3.17,7.27 4.83,11.07 -1.79,0.16 -2.56,-0.83 -3.39,-1.52 -18.18,-15.11 -37.6,-28.6 -56.37,-42.92 -6.53,-4.98 -11.85,-11.23 -18.2,-16.43 -22.99,-18.84 -45.57,-38.19 -69.32,-56.09 -15.82,-11.93 -32.17,-23.13 -48.2,-34.78 -15.93,-11.58 -31.47,-23.7 -47.27,-35.45 -14.06,-10.45 -28.23,-20.75 -42.38,-31.08 -8.01,-5.84 -16.09,-11.57 -24.1,-17.41 -4.91,-3.57 -10.56,-6.15 -14.62,-10.9 -0.67,-0.78 -1.68,-1.57 -3.18,-1.66 -0.18,2.31 1.1,4.03 2.25,5.62 9.52,13.17 16.26,27.7 22.57,42.63 6.73,15.91 13.3,31.9 20.22,47.73 4.95,11.32 7.59,23.45 11.95,35 5.78,15.35 10.44,31.15 12.56,47.37 2.05,15.65 4.29,31.27 6.51,46.89 1.92,13.5 2.91,27.02 3.01,40.64 0.12,16.23 0.89,32.53 -1.7,48.59 -3,18.63 -3.92,37.65 -9.64,55.8 -2.44,7.74 -5.89,15.02 -11.36,21.17 -0.66,0.74 -1.3,1.91 -2.46,1.63 -1.3,-0.32 -0.87,-1.71 -1.08,-2.66 -3.82,-17.44 -7.97,-34.82 -11.32,-52.35 -3.65,-19.09 -9.77,-37.44 -15.37,-55.96 -5.27,-17.42 -10.55,-34.83 -16.01,-52.19 -4.59,-14.61 -8.32,-29.54 -14.24,-43.67 -8.84,-21.1 -14.48,-43.24 -21.38,-64.95 -10.86,-34.17 -21.21,-68.48 -33.89,-102.04 -3.91,-10.34 -8.18,-20.56 -11.37,-31.17 -1.39,-4.63 -3.92,-8.49 -7.85,-11.87 0.59,4.34 1.18,8.36 1.97,12.39 1.79,9.15 4.37,18.39 4.42,27.6 0.09,16.9 2.25,33.72 0.73,50.72 -1.44,16.1 -3.44,32.07 -6.62,47.87 -4.72,23.47 -12.55,46.06 -21.31,68.25 -3.44,8.72 -8.75,16.73 -13.52,24.88 -7.05,12.04 -14.04,24.23 -23.37,34.62 -14.86,16.54 -30.55,32.22 -48.28,45.88 -20.17,15.54 -41.52,29.08 -63.94,41.03 -0.95,0.51 -2.06,1.67 -3.1,0.66 -1.01,-0.98 0.08,-2.15 0.47,-3.17 6.72,-17.58 16.04,-33.98 23.22,-51.33 7.77,-18.8 17.45,-36.58 26.89,-54.53 6.27,-11.92 10.59,-24.77 15.64,-37.27 11.35,-28.15 19.59,-57.35 29.39,-86.02 8.01,-23.45 14.88,-47.27 21.8,-71.07 0.27,-0.94 1.07,-2.05 0.14,-2.91 -0.9,-0.83 -1.97,-0.04 -2.92,0.27 -4.47,1.47 -8.12,3.87 -11.08,7.76 -12.4,16.29 -27.4,30.2 -41.83,44.61 -16.07,16.04 -34.99,28.51 -53.22,41.84 -0.56,0.41 -1.12,0.91 -1.76,1.08 -9.61,2.48 -17.65,8.29 -26.34,12.64 -14.87,7.45 -30.36,13.41 -45.46,20.29 -20.97,9.56 -41.9,19.22 -62.99,28.51 -15.94,7.02 -32.22,13.18 -49.13,17.5 -1.45,0.37 -2.9,0.75 -4.38,1.03 -3.38,0.63 -4.12,-0.17 -2.8,-3.45 2.33,-5.82 6.08,-10.82 9.53,-16 3.58,-5.37 8.74,-8.77 14,-12.1 1.88,-1.19 3.72,-2.47 4.8,-4.4 4.85,-8.68 12.55,-14.62 19.82,-21 21.12,-18.53 42.87,-36.35 62.88,-56.15 7.69,-7.6 15.76,-14.85 23.48,-22.44 3.14,-3.08 6.21,-6.34 8.19,-10.22 3.97,-7.79 10.82,-12.83 17.05,-18.35 16.65,-14.73 33.61,-29.13 50.51,-43.58 6.83,-5.84 14.56,-10.83 20.53,-17.42 5.56,-6.13 12.71,-9.04 19.18,-13.4 11.47,-7.75 23.13,-15.15 35.18,-21.96 7.51,-4.25 15.29,-7.94 24.13,-10.76 -7.23,-1.46 -13.91,-1.04 -20.48,-1.1 -24.33,-0.23 -48.22,-3.93 -72,-8.52 -28.77,-5.56 -57.11,-12.86 -84.98,-22 -9.09,-2.98 -17.96,-6.67 -27.02,-9.54 -25.27,-8 -48.92,-19.74 -73.01,-30.42 -21.69,-9.62 -42.85,-20.45 -64.26,-30.71 -3.02,-1.45 -6.11,-2.72 -8.34,-5.38 -1.28,-1.53 -1.21,-2.43 0.99,-2.61 12.74,-1.05 25.39,-2.93 38.16,-3.75 8.84,-0.57 17.63,-1.96 26.43,-2.99 0.46,-0.05 0.91,-0.22 1.37,-0.21 18.74,0.47 37.11,-3.84 55.78,-4.37 6.12,-0.17 12.21,-0.06 18.29,0.66 3.83,0.46 7.58,-0.24 11.36,-0.63 14.97,-1.53 29.93,-0.36 44.81,0.8 28.48,2.21 56.32,7.98 83.4,17.16 7.87,2.67 15.5,6.03 22.66,10.22 8.45,4.94 17.32,9.21 25.28,14.96 4.86,3.51 8.82,8.12 13.82,11.48 1.5,1.01 2.92,2.18 4.73,2.64 0.07,-0.18 0.17,-0.33 0.14,-0.37 -7.21,-9.9 -12.02,-21.22 -18.65,-31.47 -3.67,-5.68 -6.3,-12.03 -9.55,-17.99 -8.61,-15.77 -17.72,-31.25 -27.8,-46.14 -6,-8.87 -11.58,-18.02 -17.57,-26.9 -7.53,-11.17 -15.29,-22.19 -22.93,-33.29 -8.96,-13 -18.51,-25.58 -27.55,-38.51 C 705.52,756.78 685.66,731.84 664.48,707.94 654.23,696.38 643.73,685 632.18,674.77 625.1,668.5 618.34,662 611.83,655.19 c -2.39,-2.5 -5.76,-3.67 -8.59,-6.44 12.02,1.86 23.31,4.44 34.41,7.76 24.75,7.42 49.12,15.82 72.42,27.16 18.26,8.88 36.57,17.62 52.62,30.27 12.03,9.47 24.22,18.74 35.29,29.42 16.53,15.95 32.32,32.46 45.8,51.16 13.76,19.1 24.97,39.53 33.72,61.34 1.18,2.95 1.8,6.13 2.88,9.9 1.43,-4.03 1.36,-7.57 1.6,-11.02 1.57,-21.96 1.8,-43.95 1.34,-65.97 -0.26,-12.3 -0.61,-24.61 0.13,-36.92 0.22,-3.65 -0.37,-7.35 -0.69,-11.02 -1.51,-17.11 -0.5,-34.29 -1.34,-51.42 -1.06,-21.43 -3.3,-42.72 -6.76,-63.89 -2.73,-16.73 -6.45,-33.25 -11.51,-49.44 -0.88,-2.81 -0.9,-5.62 0.07,-8.48 0.91,-2.69 1.98,-2.92 4.03,-0.97 8.34,7.95 16.78,15.79 25.15,23.72 9.81,9.29 18.37,19.75 26.95,30.12 4.5,5.44 7.6,12.06 11.12,18.27 15.44,27.24 24.85,56.75 31.72,87.08 3.08,13.61 3.02,27.71 2.96,41.66 -0.1,22.38 -1.77,44.63 -6.53,66.58 -1.87,8.62 -1.3,17.7 -4.87,26.02 -1.22,2.85 -2.34,5.76 -3.4,8.67 -0.29,0.8 -0.83,1.98 0.15,2.53 1.05,0.59 1.63,-0.57 2.1,-1.3 11.2,-17.26 24.79,-32.66 37.88,-48.44 9.33,-11.25 19.08,-22.16 28.91,-33 11.93,-13.15 24.26,-25.92 36.34,-38.92 8.49,-9.13 17.89,-17.26 26.86,-25.85 28.31,-27.1 56.65,-54.18 80.4,-85.57 2.57,-3.4 4.8,-7.03 8.33,-9.62 2,-1.46 2.95,-1.3 3.5,1.24 0.76,3.47 0.64,6.81 -0.47,10.2 -12.28,37.35 -24.38,74.77 -41.42,110.31 -10.27,21.41 -20.43,42.95 -33.27,62.94 -10.2,15.88 -21.17,31.32 -32.88,46.18 -4.42,5.61 -8.86,11.21 -13.28,16.82 -0.33,0.41 -0.86,0.79 -0.38,1.77 2.76,-2.3 5.45,-4.56 8.16,-6.78 18.91,-15.5 38.84,-29.65 58.6,-44.03 16.33,-11.88 33.39,-22.65 50.5,-33.3 17.28,-10.75 35.18,-20.49 52.78,-30.72 8.67,-5.04 17.13,-10.49 25.93,-15.21 10.2,-5.47 20.17,-11.48 31.22,-15.44 6.32,-2.27 12.01,-6.32 17.91,-9.7 22.51,-12.89 44.9,-25.96 65.8,-41.4 0.74,-0.54 1.68,-1.9 2.61,-0.84 0.91,1.04 -0.31,2.14 -0.91,3.04 -8.89,13.34 -18.23,26.36 -28.29,38.83 -7.09,8.8 -13.61,18.02 -20.6,26.89 -3.92,4.98 -8.01,9.85 -13.35,13.43 -0.69,0.47 -1.18,1.03 -1.61,1.75 -7.17,12.04 -15.51,23.12 -26.21,32.3 -2.55,2.19 -4.43,5.01 -6.37,7.73 -4.75,6.66 -9.34,13.43 -14.16,20.03 -5.46,7.47 -12.37,13.65 -18.65,20.39 -9.59,10.3 -20.49,19.24 -30.52,29.09 -1.73,1.7 -3.73,3.05 -6.11,3.8 -0.96,0.3 -2.02,0.78 -2.68,1.51 -7.09,7.91 -16.59,13.1 -23.44,21.4 -4.78,5.79 -11.93,9.01 -17.95,13.49 -18.41,13.72 -37.29,26.74 -57.68,37.4 -9.8,5.12 -19.8,9.87 -29.69,14.81 -1.05,0.54 -2.35,0.82 -3.17,2.18 z"
   id="path20" />
	</g>
	
		<linearGradient
   id="SVGID_00000137821406170478836140000014066396110575977369_"
   gradientUnits="userSpaceOnUse"
   x1="913.03583"
   y1="998.60248"
   x2="913.03583"
   y2="1401.3976">
		<stop
   offset="0"
   style="stop-color:#000000"
   id="stop21" />
		<stop
   offset="0.0624"
   style="stop-color:#000A0A"
   id="stop22" />
		<stop
   offset="0.2282"
   style="stop-color:#001E1E"
   id="stop23" />
		<stop
   offset="0.4154"
   style="stop-color:#002D2C"
   id="stop24" />
		<stop
   offset="0.6398"
   style="stop-color:#003534"
   id="stop25" />
		<stop
   offset="1"
   style="stop-color:#003837"
   id="stop26" />
	</linearGradient>
	<path
   style="fill:url(#SVGID_00000137821406170478836140000014066396110575977369_)"
   d="m 913.02,998.6 c 0,0 -88.48,222.86 -17.17,402.8 0,0 74.29,-244.65 60.42,-302.1 -13.86,-57.45 -43.25,-100.7 -43.25,-100.7 z"
   id="path26" />
	
		<linearGradient
   id="SVGID_00000091700700098201883650000012821601592851315374_"
   gradientUnits="userSpaceOnUse"
   x1="910.98138"
   y1="964.05823"
   x2="1232.0789"
   y2="964.05823">
		<stop
   offset="0"
   style="stop-color:#000000"
   id="stop27" />
		<stop
   offset="0.0624"
   style="stop-color:#000A0A"
   id="stop28" />
		<stop
   offset="0.2282"
   style="stop-color:#001E1E"
   id="stop29" />
		<stop
   offset="0.4154"
   style="stop-color:#002D2C"
   id="stop30" />
		<stop
   offset="0.6398"
   style="stop-color:#003534"
   id="stop31" />
		<stop
   offset="1"
   style="stop-color:#003837"
   id="stop32" />
	</linearGradient>
	<path
   style="fill:url(#SVGID_00000091700700098201883650000012821601592851315374_)"
   d="m 910.98,1013.14 c 0,0 196.91,1.07 321.1,-98.16 0,0 -210.6,14.85 -252.41,40.28 -41.82,25.44 -68.69,57.88 -68.69,57.88 z"
   id="path32" />
	
		<linearGradient
   id="SVGID_00000072246848097626876320000004036214011805461423_"
   gradientUnits="userSpaceOnUse"
   x1="910.06671"
   y1="1068.8304"
   x2="1222.3795"
   y2="1068.8304">
		<stop
   offset="0"
   style="stop-color:#000000"
   id="stop33" />
		<stop
   offset="0.0624"
   style="stop-color:#000A0A"
   id="stop34" />
		<stop
   offset="0.2282"
   style="stop-color:#001E1E"
   id="stop35" />
		<stop
   offset="0.4154"
   style="stop-color:#002D2C"
   id="stop36" />
		<stop
   offset="0.6398"
   style="stop-color:#003534"
   id="stop37" />
		<stop
   offset="1"
   style="stop-color:#003837"
   id="stop38" />
	</linearGradient>
	<path
   style="fill:url(#SVGID_00000072246848097626876320000004036214011805461423_)"
   d="m 910.07,1009.53 c 0,0 153.35,123.53 312.31,123.29 0,0 -173.97,-119.6 -222.53,-125.76 -48.56,-6.16 -89.78,2.47 -89.78,2.47 z"
   id="path38" />
	
		<linearGradient
   id="SVGID_00000035532305558852466800000017912102438122811275_"
   gradientUnits="userSpaceOnUse"
   x1="853.28198"
   y1="1009.567"
   x2="853.28198"
   y2="702.60828">
		<stop
   offset="0"
   style="stop-color:#000000"
   id="stop39" />
		<stop
   offset="0.0624"
   style="stop-color:#000A0A"
   id="stop40" />
		<stop
   offset="0.2282"
   style="stop-color:#001E1E"
   id="stop41" />
		<stop
   offset="0.4154"
   style="stop-color:#002D2C"
   id="stop42" />
		<stop
   offset="0.6398"
   style="stop-color:#003534"
   id="stop43" />
		<stop
   offset="1"
   style="stop-color:#003837"
   id="stop44" />
	</linearGradient>
	<path
   style="fill:url(#SVGID_00000035532305558852466800000017912102438122811275_)"
   d="m 921.32,1009.57 c 0,0 -22.62,-195.61 -136.07,-306.96 0,0 40.07,207.28 70.35,245.74 30.29,38.45 65.72,61.22 65.72,61.22 z"
   id="path44" />
	
		<linearGradient
   id="SVGID_00000078742457572308303300000000463506555721358248_"
   gradientUnits="userSpaceOnUse"
   x1="952.86981"
   y1="1015.394"
   x2="952.86981"
   y2="688.01129">
		<stop
   offset="0"
   style="stop-color:#000000"
   id="stop45" />
		<stop
   offset="0.0624"
   style="stop-color:#000A0A"
   id="stop46" />
		<stop
   offset="0.2282"
   style="stop-color:#001E1E"
   id="stop47" />
		<stop
   offset="0.4154"
   style="stop-color:#002D2C"
   id="stop48" />
		<stop
   offset="0.6398"
   style="stop-color:#003534"
   id="stop49" />
		<stop
   offset="1"
   style="stop-color:#003837"
   id="stop50" />
	</linearGradient>
	<path
   style="fill:url(#SVGID_00000078742457572308303300000000463506555721358248_)"
   d="m 921.69,1015.39 c 0,0 98.87,-170.29 74.56,-327.38 0,0 -91.87,190.08 -90.6,239.01 1.27,48.93 16.04,88.37 16.04,88.37 z"
   id="path50" />
	
		<linearGradient
   id="SVGID_00000076582079787769336150000017090618866660108439_"
   gradientUnits="userSpaceOnUse"
   x1="915.82037"
   y1="999.4436"
   x2="580.05957"
   y2="999.4436">
		<stop
   offset="0"
   style="stop-color:#000000"
   id="stop51" />
		<stop
   offset="0.0624"
   style="stop-color:#000A0A"
   id="stop52" />
		<stop
   offset="0.2282"
   style="stop-color:#001E1E"
   id="stop53" />
		<stop
   offset="0.4154"
   style="stop-color:#002D2C"
   id="stop54" />
		<stop
   offset="0.6398"
   style="stop-color:#003534"
   id="stop55" />
		<stop
   offset="1"
   style="stop-color:#003837"
   id="stop56" />
	</linearGradient>
	<path
   style="fill:url(#SVGID_00000076582079787769336150000017090618866660108439_)"
   d="m 580.06,1005.82 c 0,0 188.31,57.57 335.76,-1.82 0,0 -205.99,-46.26 -253.35,-33.9 -47.36,12.37 -82.41,35.72 -82.41,35.72 z"
   id="path56" />
	
		<linearGradient
   id="SVGID_00000180344673640876680060000002617248956721159839_"
   gradientUnits="userSpaceOnUse"
   x1="917.89423"
   y1="1073.7852"
   x2="609.90881"
   y2="1073.7852">
		<stop
   offset="0"
   style="stop-color:#000000"
   id="stop57" />
		<stop
   offset="0.0624"
   style="stop-color:#000A0A"
   id="stop58" />
		<stop
   offset="0.2282"
   style="stop-color:#001E1E"
   id="stop59" />
		<stop
   offset="0.4154"
   style="stop-color:#002D2C"
   id="stop60" />
		<stop
   offset="0.6398"
   style="stop-color:#003534"
   id="stop61" />
		<stop
   offset="1"
   style="stop-color:#003837"
   id="stop62" />
	</linearGradient>
	<path
   style="fill:url(#SVGID_00000180344673640876680060000002617248956721159839_)"
   d="m 917.89,1006.92 c 0,0 -195.78,21.13 -307.99,133.73 0,0 207.58,-38.49 246.26,-68.48 38.7,-29.99 61.73,-65.25 61.73,-65.25 z"
   id="path62" />
</g>
</svg>
