<?xml version="1.0" encoding="UTF-8" standalone="no"?>
<!-- Created with Inkscape (http://www.inkscape.org/) -->

<svg
   width="360"
   height="360"
   viewBox="0 0 360 360"
   version="1.1"
   id="svg1"
   xmlns="http://www.w3.org/2000/svg"
   xmlns:svg="http://www.w3.org/2000/svg">
  <defs
     id="defs1">
    <radialGradient
       id="SVGID_00000019647959356941040910000010543237782935087025_-0"
       cx="919.54401"
       cy="1526.2197"
       r="929.24042"
       gradientTransform="matrix(-0.173376,0.048402,-0.048402,-0.173376,417.11423,396.11588)"
       gradientUnits="userSpaceOnUse">
		<stop
   offset="0"
   style="stop-color:#000000;stop-opacity:0.60000002;"
   id="stop7-69" />

		<stop
   offset="0.25760001"
   style="stop-color:#000404;stop-opacity:0.60000002;"
   id="stop8-79" />

		<stop
   offset="0.5359"
   style="stop-color:#001111;stop-opacity:0.60000002;"
   id="stop9-28" />

		<stop
   offset="0.82300001"
   style="stop-color:#002726;stop-opacity:0.60000002;"
   id="stop10-998" />

		<stop
   offset="1"
   style="stop-color:#003837;stop-opacity:0.60000002;"
   id="stop11-93" />

	</radialGradient>
    <radialGradient
       id="SVGID_00000093861346841660678170000005878226037042014355_-6"
       cx="990.55353"
       cy="952.6488"
       r="701.11792"
       gradientUnits="userSpaceOnUse">
			<stop
   offset="0"
   style="stop-color:#000000;stop-opacity:0.60000002;"
   id="stop12-36" />

			<stop
   offset="0.30199999"
   style="stop-color:#000d0c;stop-opacity:0.60000002;"
   id="stop13-04" />

			<stop
   offset="0.85570002"
   style="stop-color:#002e2d;stop-opacity:0.60000002;"
   id="stop14-49" />

			<stop
   offset="1"
   style="stop-color:#003837;stop-opacity:0.60000002;"
   id="stop15-66" />

		</radialGradient>
  </defs>
  <g
     id="layer1">
    <path
       style="display:inline;fill:url(#SVGID_00000019647959356941040910000010543237782935087025_-0);stroke-width:0.18"
       d="m 108.1872,149.8482 c -0.3528,-0.558 -0.8838,-0.8208 -1.3914,-1.1052 -2.4012,-1.341 -4.7736,-2.7378 -7.0398,-4.284 -2.1042,-1.4346 -4.1688,-2.934 -6.1866,-4.4964 -1.7262,-1.3356 -3.4308,-2.6964 -5.0868,-4.1094 -2.0286,-1.7298 -4.005,-3.528 -5.9112,-5.3982 -0.5148,-0.5058 -0.9522,-1.0242 -1.8774,-0.8334 -0.6912,0.1422 -0.8496,-0.8226 -0.8244,-1.1646 0.0828,-1.1034 -0.7614,-1.503 -1.3572,-1.989 -1.2672,-1.0314 -2.4066,-2.2194 -3.7872,-3.114 -2.2482,-1.458 -4.0608,-3.5298 -6.4854,-4.725 -1.8252,-0.9 -3.5154,-2.0034 -5.229,-3.078 -0.8586,-0.5382 -1.6146,-1.1502 -2.1492,-2.0592 -0.6048,-1.0296 -1.6272,-1.6956 -2.5236,-2.448 -2.4264,-2.0358 -4.7304,-4.203 -7.0416,-6.363 -3.3876,-3.1644 -6.5196,-6.5808 -9.7542,-9.8964 -0.8892,-0.9108 -1.7136,-1.8846 -2.5614,-2.835 -0.1728,-0.1926 -0.477,-0.4176 -0.2556,-0.6786 0.198,-0.2358 0.5076,-0.0522 0.738,0.0882 1.2564,0.7686 2.5146,1.53 3.7584,2.3202 1.4904,0.9468 3.0474,1.7802 4.5594,2.6856 1.9782,1.1862 4.0014,2.2968 5.9832,3.4758 1.8324,1.089 3.6558,2.1924 5.4774,3.2994 0.3474,0.2106 0.666,0.4698 1.0638,0.6498 -0.2844,-0.4122 -0.5544,-0.8352 -0.855,-1.2348 -1.3698,-1.8198 -2.5794,-3.7494 -3.8664,-5.625 -1.0782,-1.5714 -2.1366,-3.1554 -3.1554,-4.7646 -0.8892,-1.404 -1.6902,-2.8638 -2.5218,-4.3038 -0.576,-0.9954 -1.1178,-2.0106 -1.7118,-2.997 -1.377,-2.2878 -2.5506,-4.6854 -3.8376,-7.02 -1.0404,-1.8864 -1.9656,-3.834 -3.0294,-5.7114 -0.9198,-1.6236 -1.5246,-3.4002 -2.2392,-5.121 -0.0864,-0.2052 -0.2736,-0.4986 0.0198,-0.6552 0.2412,-0.1296 0.4698,0.0936 0.6444,0.2556 1.1898,1.0962 2.3742,2.2014 3.5532,3.3102 2.8044,2.637 5.5944,5.2884 8.4078,7.9164 2.5434,2.3742 5.1012,4.734 7.668,7.0812 1.791,1.638 3.6108,3.2436 5.418,4.8618 2.0466,1.8324 4.0734,3.6864 6.1452,5.4918 2.6262,2.2896 5.1714,4.6926 7.965,6.759 2.6766,1.9818 5.454,3.8358 8.1144,5.8518 0.2718,0.207 0.5796,0.3708 0.882,0.531 0.2466,0.1314 0.5562,0.2646 0.6102,-0.1728 0.0486,-0.3942 0.6732,-0.018 0.5868,-0.4716 -0.1026,-0.5454 -0.4428,-0.9828 -0.7812,-1.4004 -1.2402,-1.521 -2.4696,-3.0546 -3.753,-4.5396 -2.5884,-2.9934 -4.923,-6.1758 -7.2378,-9.378 -0.8334,-1.152 -1.7208,-2.2626 -2.5272,-3.438 -0.6138,-0.8964 -1.0656,-1.872 -1.5912,-2.8062 -0.729,-1.2978 -1.368,-2.6532 -2.0322,-3.9906 -1.269,-2.5524 -2.3436,-5.1858 -3.402,-7.8192 -1.3266,-3.2976 -2.4624,-6.6726 -3.3048,-10.1358 -0.0864,-0.3582 -0.1998,-0.7092 -0.2916,-1.0656 -0.054,-0.2106 -0.1584,-0.4482 0.0936,-0.594 0.2322,-0.1332 0.423,0.0126 0.5922,0.1638 0.9162,0.8136 1.8378,1.6254 2.7486,2.4462 2.241,2.0178 4.4604,4.0608 6.7212,6.057 4.2084,3.7152 8.4276,7.4196 12.6648,11.1024 2.7198,2.3634 5.328,4.851 8.0028,7.263 4.5882,4.1382 8.9928,8.469 13.4352,12.7584 1.7748,1.7118 3.501,3.474 5.265,5.229 0.1656,-0.288 -0.036,-0.4554 -0.1224,-0.6354 -0.909,-1.8954 -1.9152,-3.7512 -2.7162,-5.6916 -0.954,-2.3112 -2.0646,-4.5504 -3.1518,-6.7914 -1.3572,-2.8008 -2.4372,-5.715 -3.7566,-8.5284 -0.4248,-0.9054 -0.5886,-1.9314 -1.0134,-2.8368 -1.6308,-3.4722 -2.5704,-7.2036 -4.0896,-10.7118 -1.3788,-3.1842 -2.3976,-6.4782 -3.3534,-9.8028 -0.3924,-1.3644 -1.008,-2.6658 -1.395,-4.0302 -0.7344,-2.5902 -1.377,-5.2056 -2.0538,-7.812 -0.0576,-0.2232 -0.2196,-0.5022 0.0738,-0.6588 0.252,-0.1332 0.4842,0.0432 0.6588,0.2124 0.8784,0.855 1.7676,1.701 2.6136,2.5884 4.7826,5.0274 9.6894,9.9306 14.5782,14.8518 3.5262,3.5496 7.0344,7.1172 10.557,10.6686 2.6082,2.6316 5.0742,5.3946 7.5294,8.1666 2.403,2.7144 4.7592,5.472 7.0236,8.3016 1.7892,2.2374 3.4902,4.5486 5.166,6.8724 2.8602,3.969 5.8932,7.8246 8.2152,12.1572 0.1836,0.342 0.4212,0.6138 0.801,0.3258 0.4302,-0.3258 0.8316,-0.3186 1.3014,-0.1314 0.4842,0.1944 0.621,0.0252 0.4752,-0.4824 -0.5598,-1.9476 -1.476,-3.7404 -2.4174,-5.517 -0.4446,-0.8388 -0.6246,-1.755 -0.9702,-2.6172 -1.5336,-3.8268 -2.8782,-7.713 -4.005,-11.6802 -1.0656,-3.7512 -2.4246,-7.4268 -3.3318,-11.214 -0.7218,-3.0222 -1.5534,-6.0282 -2.07,-9.1044 -0.189,-1.1268 -0.5076,-2.241 -0.7776,-3.3498 -0.3852,-1.575 -0.5292,-3.186 -0.9252,-4.7538 -0.261,-1.0314 -0.288,-2.124 -0.4104,-3.1896 -0.0918,-0.7992 -0.144,-1.62 -0.306,-2.3904 -0.279,-1.3302 -0.171,-2.682 -0.4248,-4.0014 -0.0396,-0.207 0.0162,-0.4086 0.2322,-0.4896 0.306,-0.1152 0.5094,0.0504 0.684,0.288 0.9252,1.2654 1.8378,2.5398 2.781,3.7908 2.7,3.582 5.202,7.3062 7.9344,10.8666 2.97,3.8718 5.742,7.8876 8.5428,11.8818 0.2538,0.36 0.477,0.7416 0.7254,1.1052 0.171,0.2502 0.3672,0.3942 0.4716,-0.0414 0.1746,-0.7326 0.3924,-1.4508 0.1692,-2.2302 -0.4302,-1.5084 -0.6876,-3.0906 -1.2096,-4.5432 -0.7488,-2.0808 -1.296,-4.2192 -2.0466,-6.2928 -0.3726,-1.0314 -0.3402,-2.124 -0.6642,-3.159 -0.603,-1.9278 -0.8172,-3.9294 -1.0494,-5.9274 -0.144,-1.2384 -0.4464,-2.4606 -0.549,-3.7026 -0.0846,-1.0188 -0.2754,-2.025 -0.2826,-3.06 -0.0108,-1.314 -0.2124,-2.6262 -0.2934,-3.9402 -0.0756,-1.2204 -0.0612,-2.448 -0.1548,-3.6666 -0.1314,-1.6866 -0.027,-3.3768 -0.1152,-5.0616 -0.004,-0.0738 -0.0144,-0.1476 -0.0108,-0.2214 0.0144,-0.3582 -0.1296,-0.828 0.2718,-0.9954 0.4662,-0.1944 0.6138,0.333 0.7884,0.6012 1.6434,2.52 3.3102,5.0238 4.8492,7.6104 1.2978,2.1834 2.682,4.3164 3.9582,6.5124 1.6614,2.8548 3.4182,5.6502 5.0256,8.5392 1.1628,2.0916 2.3148,4.1904 3.456,6.2928 0.7794,1.4364 1.4058,2.9556 2.1042,4.437 0.666,1.4148 1.359,2.817 1.998,4.2444 0.459,1.0278 0.9252,2.0646 1.2438,3.1392 0.2196,0.7416 0.891,0.72 1.3446,1.0404 0.198,0.1404 0.3222,-0.2718 0.3654,-0.5112 0.3168,-1.7352 0.621,-3.474 0.9504,-5.2056 1.0206,-5.3442 1.9548,-10.7082 3.1086,-16.0236 0.9774,-4.5036 1.8036,-9.036 2.7774,-13.5396 0.7362,-3.3984 1.2528,-6.8454 2.0052,-10.2402 0.6642,-2.9898 1.1988,-6.0048 1.7892,-9.0072 0.1602,-0.81 0.234,-1.647 0.3726,-2.4678 0.0522,-0.3024 0.171,-0.621 0.5094,-0.6372 0.3132,-0.0144 0.2988,0.3348 0.3834,0.5508 0.8334,2.1276 1.6902,4.2462 2.4894,6.3864 0.6246,1.674 1.1808,3.3732 1.7658,5.0634 0.7218,2.0808 1.4994,4.1436 2.1438,6.2478 0.3942,1.2852 0.8982,2.5326 1.197,3.8556 0.3114,1.3806 0.8586,2.7072 1.2402,4.0752 0.8226,2.9502 1.647,5.9022 2.3832,8.874 0.306,1.2384 0.612,2.4786 0.9792,3.699 0.54,1.7982 0.621,3.672 1.0026,5.4972 0.5256,2.5164 0.9072,5.067 1.269,7.614 0.3168,2.2284 0.4788,4.4748 0.6624,6.7176 0.126,1.53 0.216,3.069 0.3024,4.5972 0.126,2.2158 0.1458,4.4496 -0.002,6.6744 -0.2124,3.2274 -0.6426,6.4278 -1.332,9.5904 -0.6894,3.1608 -1.2726,6.3504 -2.106,9.4752 -0.4032,1.5156 -0.3276,2.9142 -0.0504,4.3956 0.1962,1.053 0.1944,2.142 0.3132,3.2112 0.1242,1.1142 0.2898,2.2248 0.5814,3.3552 0.252,-0.7686 0.5328,-1.53 0.7506,-2.3094 1.0422,-3.7278 2.0952,-7.4538 3.0906,-11.1942 1.8162,-6.822 3.6324,-13.6422 5.373,-20.484 0.9198,-3.6126 1.8684,-7.2162 2.79,-10.827 0.7038,-2.7558 1.2762,-5.544 2.0034,-8.2926 1.1052,-4.1742 1.9116,-8.415 2.8602,-12.6234 1.0296,-4.5666 1.7478,-9.1962 2.5614,-13.8042 0.594,-3.3732 1.0224,-6.7734 1.4238,-10.1754 0.1854,-1.5786 0.4914,-3.1446 0.7686,-4.7124 0.0792,-0.4464 -0.0414,-0.882 0.018,-1.3212 0.0234,-0.1764 0.072,-0.3582 0.2862,-0.369 0.1692,-0.0072 0.2538,0.1386 0.3006,0.2808 0.351,1.0638 0.8442,2.0628 1.1394,3.1662 0.378,1.4076 0.783,2.8296 1.1574,4.2354 0.4068,1.5282 0.9306,3.0528 1.0782,4.6512 0.1566,1.6956 0.8622,3.2706 1.098,4.9536 0.6012,4.32 1.6452,8.5716 1.8522,12.9546 0.0612,1.2888 0.2736,2.5776 0.3762,3.8736 0.0954,1.2096 -0.018,2.3976 -0.0648,3.5946 -0.009,0.2448 -0.036,0.4896 -0.036,0.7344 0,0.1476 0.0396,0.3042 0.2106,0.3492 0.171,0.045 0.2502,-0.0774 0.351,-0.198 0.5796,-0.7002 0.675,-1.6128 0.7686,-2.412 0.108,-0.927 0.4842,-1.7262 0.7524,-2.5668 1.197,-3.735 2.4102,-7.4682 3.7278,-11.1618 1.8036,-5.0562 3.7926,-10.0404 5.8932,-14.985 1.3806,-3.2508 2.817,-6.4746 4.2516,-9.7002 1.1754,-2.6424 2.4984,-5.2182 3.753,-7.8264 1.4886,-3.0924 2.9682,-6.1902 4.4658,-9.279 0.3636,-0.7506 0.7812,-1.4742 1.1808,-2.205 0.081,-0.1494 0.1908,-0.3222 0.3942,-0.2628 0.2142,0.0612 0.1782,0.27 0.1746,0.4356 -0.045,2.475 0.0342,4.9482 -0.004,7.425 -0.0234,1.5408 -0.0504,3.0834 -0.0684,4.626 -0.0252,2.1528 -0.1242,4.3038 -0.2502,6.453 -0.1224,2.07 -0.3078,4.1364 -0.4932,6.201 -0.1422,1.5804 -0.2916,3.1626 -0.4986,4.7358 -0.387,2.9376 -0.7848,5.8752 -1.323,8.7894 -0.333,1.8054 -0.6822,3.609 -1.0242,5.4126 -0.1188,0.6282 -0.18,1.2438 -0.0396,1.8918 0.1674,0.774 -0.18,1.5012 -0.4104,2.2158 -0.4032,1.251 -0.5598,2.5182 -0.5652,3.8322 -0.004,1.0008 -0.1026,2.0124 -0.2844,2.997 -0.2592,1.3896 -0.2142,2.8152 -0.6552,4.1868 -0.6354,1.98 -0.819,4.0734 -1.4256,6.0642 -0.0774,0.2556 -0.1062,0.5292 -0.1404,0.7956 -0.0162,0.126 0.0288,0.2646 0.1728,0.2772 0.0756,0.0072 0.1836,-0.0648 0.2358,-0.1314 0.1044,-0.135 0.1998,-0.2826 0.2664,-0.4392 1.2474,-2.916 3.3948,-5.2668 5.0076,-7.9542 1.2096,-2.0178 2.5812,-3.933 3.7944,-5.9562 2.2968,-3.8286 4.6998,-7.5978 6.8256,-11.5254 1.8198,-3.3642 3.5118,-6.7968 5.2344,-10.215 1.98,-3.9294 3.6396,-7.992 5.3352,-12.0366 1.6578,-3.9546 3.24,-7.9452 4.6728,-11.9916 0.351,-0.9936 0.7488,-1.9728 1.1322,-2.9538 0.0846,-0.2178 0.1368,-0.5382 0.4572,-0.4788 0.2772,0.0504 0.2178,0.3474 0.2304,0.558 0.252,4.3848 0.5616,8.7696 0.729,13.158 0.108,2.862 0.0702,5.733 -0.0126,8.5968 -0.0828,2.9052 -0.2592,5.8086 -0.4716,8.7066 -0.1764,2.3904 -0.5148,4.7682 -0.6984,7.1568 -0.3258,4.2318 -1.1124,8.397 -1.7568,12.5802 -0.3348,2.1762 -0.8892,4.3182 -1.3212,6.48 -0.6768,3.3912 -1.4976,6.75 -2.3724,10.0926 -0.7326,2.7972 -1.5696,5.5674 -2.475,8.316 -0.1962,0.594 -0.3438,1.2042 -0.4554,1.8342 0.7038,-1.4022 1.602,-2.6784 2.3724,-4.0338 1.6956,-2.9844 3.3336,-6.0084 5.157,-8.9136 2.5938,-4.131 5.1966,-8.2566 7.9218,-12.3048 1.8468,-2.745 3.5388,-5.5944 5.2668,-8.4168 0.6282,-1.026 1.2816,-2.0322 1.9674,-3.0204 0.1368,-0.1962 0.288,-0.4716 0.5742,-0.3384 0.2826,0.1332 0.0702,0.3852 0.0342,0.5868 -0.5814,3.2076 -1.1142,6.4242 -1.755,9.6192 -0.7416,3.7026 -1.6992,7.3548 -2.7846,10.9746 -0.8226,2.7468 -1.7064,5.472 -2.6676,8.1702 -0.8802,2.4714 -1.8666,4.9104 -3.0924,7.236 -1.728,3.2778 -3.4956,6.534 -5.2668,9.7884 -1.2762,2.3454 -2.9754,4.374 -4.815,6.2928 -0.8064,0.8424 -1.4184,1.8396 -1.8756,2.8872 -0.3708,0.8514 -0.927,1.4886 -1.5714,2.0898 -1.7586,1.6416 -3.5154,3.285 -5.1642,5.0382 -0.9144,0.972 -1.6632,2.0934 -2.6712,2.9862 -0.234,0.207 -0.513,0.5616 0.036,0.7848 0.234,0.0954 0.1566,0.216 0.0468,0.3204 -0.846,0.8118 -1.512,1.8522 -2.7594,2.1528 -0.4716,0.1152 -0.8766,0.4122 -1.143,0.7686 -0.558,0.7506 -1.3626,1.2474 -1.899,2.0178 -0.8226,1.179 -2.286,1.7442 -3.0474,2.9556 -1.5948,2.5362 -4.3434,3.6738 -6.48,5.5458 -0.3132,0.2754 -0.639,0.5382 -0.9288,0.837 -0.18,0.1854 -0.3852,0.3942 -0.0144,0.6552 0.3474,0.2466 -0.018,0.4968 -0.153,0.5706 -1.0224,0.5616 -1.6956,1.5606 -2.6928,2.1348 -1.1808,0.6804 -1.539,1.9242 -2.1564,2.9952 -0.0612,0.108 -0.09,0.2538 0.0342,0.3294 0.1764,0.108 0.3366,-0.0108 0.4698,-0.1134 1.0098,-0.7848 2.1348,-1.395 3.1986,-2.097 3.7908,-2.4966 7.6536,-4.8888 11.3544,-7.5078 3.0438,-2.1528 6.237,-4.0968 9.1494,-6.4278 0.7812,-0.6246 1.3158,-1.5282 2.106,-2.1924 3.672,-3.087 7.3926,-6.1218 10.9314,-9.3564 3.7944,-3.4686 7.479,-7.065 10.9188,-10.9008 4.1904,-4.6764 8.2584,-9.45 12.0942,-14.4252 1.4688,-1.9062 2.8026,-3.9024 4.2192,-5.8428 0.144,-0.1962 0.2736,-0.4644 0.5706,-0.3546 0.297,0.1116 0.243,0.3906 0.1854,0.6354 -0.5382,2.241 -0.8442,4.527 -1.296,6.786 -0.7884,3.9474 -1.8522,7.8246 -3.0708,11.6604 -0.9594,3.0168 -2.0106,6.003 -3.2022,8.9334 -1.071,2.6334 -2.1006,5.2974 -3.4884,7.7832 -2.304,4.1274 -4.563,8.2782 -7.416,12.0834 -2.5938,3.4614 -5.2578,6.858 -8.4168,9.81 -0.9162,0.855 -1.7874,1.8306 -2.9808,2.4138 -0.6354,0.3114 -1.1142,0.945 -1.6578,1.4382 -0.108,0.099 -0.2142,0.2232 -0.1584,0.3852 0.072,0.2088 0.2682,0.1872 0.4356,0.1818 1.179,-0.0288 2.367,-0.0324 3.519,-0.2808 2.061,-0.4446 4.14,-0.711 6.2388,-0.873 0.5346,-0.0414 1.0584,-0.2052 1.5894,-0.2952 3.3948,-0.5778 6.822,-1.0152 10.1304,-2.016 2.583,-0.7812 5.1786,-1.5354 7.704,-2.4786 1.8522,-0.693 3.6468,-1.5588 5.4162,-2.4642 2.0214,-1.0332 4.0518,-2.0448 5.9652,-3.2814 0.8586,-0.5544 1.7856,-1.0098 2.6388,-1.5822 0.1458,-0.0972 0.3276,-0.1674 0.4806,-0.045 0.1998,0.1602 0.0936,0.36 0,0.5328 -1.3824,2.5398 -2.5902,5.1714 -4.131,7.6302 -2.9538,4.7106 -6.642,8.7948 -10.6686,12.5838 -2.4966,2.349 -5.1462,4.5162 -8.0748,6.3414 -1.5336,0.9558 -3.1356,1.782 -4.6728,2.718 -1.2798,0.7794 -2.6172,1.4436 -3.978,2.0124 -1.2852,0.5364 -2.4984,1.2348 -3.8484,1.6344 -2.5128,0.7434 -4.9968,1.5804 -7.569,2.1204 -2.6856,0.5634 -5.3532,1.2078 -8.0802,1.5426 -0.8838,0.108 -1.3968,0.7776 -1.989,1.3014 -0.3438,0.3042 -0.009,0.3672 0.2646,0.387 1.4868,0.1116 2.9718,0.234 4.4586,0.3438 4.4154,0.3276 8.829,0.6912 13.248,0.9594 3.1968,0.1926 6.3936,0.4068 9.6012,0.3996 2.4876,-0.005 4.977,0.063 7.4646,0.0288 2.3652,-0.0342 4.7286,-0.1512 7.0938,-0.279 1.6596,-0.09 3.312,-0.2646 4.968,-0.3834 1.287,-0.0918 2.5686,-0.3222 3.8574,-0.4644 1.7262,-0.189 3.4614,-0.3564 5.13,-0.9036 0.2808,-0.0918 0.6786,-0.189 0.864,0.1674 0.1692,0.324 -0.0756,0.5922 -0.2736,0.8532 -1.9728,2.6208 -4.626,4.5018 -7.1136,6.5646 -1.5246,1.2654 -3.0744,2.5002 -4.734,3.582 -1.4346,0.9342 -2.9394,1.7532 -4.4712,2.52 -1.593,0.7974 -3.1806,1.6146 -4.8186,2.3094 -0.8046,0.342 -1.5786,0.7524 -2.421,1.0332 -0.7974,0.2664 -1.5264,0.738 -2.3364,1.0386 -2.0916,0.7794 -4.185,1.539 -6.3612,2.0448 -0.5724,0.1332 -1.1556,0.2214 -1.7298,0.3528 -0.1746,0.0396 -0.4014,0.027 -0.5184,0.333 1.4832,0.1836 2.8116,0.819 4.2048,1.251 1.872,0.5796 3.717,1.2474 5.589,1.827 4.401,1.3608 8.802,2.7216 13.2228,4.0158 3.5316,1.0332 7.0938,1.9242 10.6704,2.7666 3.9042,0.918 7.8444,1.6524 11.7954,2.331 1.3734,0.2358 2.763,0.2916 4.1418,0.4482 0.0972,0.0108 0.2016,-0.002 0.2934,0.0252 0.3798,0.1134 0.963,-0.002 1.035,0.5094 0.0648,0.45 -0.4662,0.5778 -0.801,0.747 -1.7244,0.8712 -3.4974,1.6164 -5.3028,2.3148 -2.187,0.846 -4.3956,1.6434 -6.6186,2.3508 -2.3454,0.747 -4.761,1.3014 -7.2018,1.7442 -2.2752,0.4122 -4.572,0.6174 -6.8598,0.7848 -2.8728,0.2106 -5.7582,0.3312 -8.6508,0.1422 -2.223,-0.1458 -4.446,-0.2502 -6.6582,-0.5256 -2.5002,-0.3114 -4.9878,-0.6984 -7.47,-1.1394 -3.384,-0.603 -6.723,-1.3896 -10.0206,-2.349 -2.9232,-0.8514 -5.769,-1.899 -8.496,-3.285 -1.9638,-0.999 -3.969,-1.9386 -6.0948,-2.5632 -1.2654,-0.3708 -1.557,-0.1674 -1.35,1.1322 0.1242,0.7812 0.3294,1.6146 1.1772,2.088 1.0044,0.5598 1.9548,1.2186 2.9304,1.8342 0.063,0.0396 0.1242,0.09 0.1926,0.1062 3.042,0.7308 5.5962,2.5128 8.334,3.8898 3.5496,1.7856 7.0524,3.6612 10.5714,5.5026 2.259,1.1826 4.4982,2.4066 6.7734,3.555 3.501,1.7658 6.9462,3.6396 10.5552,5.1948 2.0466,0.882 4.0176,1.9404 6.0786,2.799 3.2112,1.3392 6.4278,2.664 9.6732,3.9258 2.925,1.1376 5.8554,2.2554 8.802,3.3264 3.5478,1.2888 7.1388,2.4552 10.7424,3.5784 2.151,0.6714 4.3416,1.2366 6.4044,2.1654 0.378,0.171 1.0242,0.2574 0.9432,0.756 -0.0684,0.4248 -0.675,0.2196 -1.0404,0.2538 -3.0294,0.2736 -6.057,0.531 -9.0972,0.6948 -2.6658,0.144 -5.337,0.3312 -8.0028,0.4032 -1.7766,0.0486 -3.5658,0.1566 -5.355,-0.005 -1.0638,-0.0954 -2.1384,0.0882 -3.2238,-0.007 -1.4292,-0.1278 -2.8764,-0.0702 -4.3146,-0.1044 -1.512,-0.036 -3.0258,-0.0936 -4.5324,-0.1782 -2.0484,-0.1134 -4.0896,-0.3618 -6.1344,-0.5544 -2.3616,-0.2214 -4.6962,-0.657 -7.047,-0.9684 -3.1986,-0.423 -6.3576,-1.1124 -9.5058,-1.8396 -2.1042,-0.486 -4.1796,-1.062 -6.2694,-1.5984 -0.1512,-0.0396 -0.3114,-0.1728 -0.5796,0.063 0.9144,0.4788 1.683,1.107 2.5056,1.6542 5.6772,3.7782 11.5056,7.317 17.325,10.8702 4.6278,2.826 9.297,5.5854 14.0202,8.2512 3.6306,2.0502 7.2468,4.1292 10.9134,6.1146 3.9258,2.1258 7.9038,4.1544 11.8584,6.228 0.999,0.5238 1.998,1.0494 2.9934,1.5786 0.2178,0.1152 0.4716,0.243 0.3978,0.5454 -0.081,0.3276 -0.378,0.36 -0.6552,0.342 -2.0862,-0.1296 -4.1706,0.1368 -6.255,0.045 -2.6424,-0.1152 -5.292,-0.153 -7.9236,-0.3942 -2.6964,-0.2484 -5.391,-0.5274 -8.073,-0.9576 -4.1274,-0.6624 -8.2386,-1.4112 -12.3156,-2.322 -4.8096,-1.0746 -9.5202,-2.5056 -14.1912,-4.0734 -3.276,-1.0998 -6.5574,-2.1996 -9.7488,-3.5208 -2.5578,-1.0584 -5.0742,-2.2158 -7.5438,-3.483 -1.7478,-0.8964 -3.4686,-1.8378 -5.1786,-2.7972 -2.6298,-1.476 -5.1372,-3.1554 -7.6464,-4.8312 -1.7532,-1.1718 -3.4596,-2.4102 -5.1858,-3.618 -1.4652,-1.026 -2.8494,-2.1672 -4.275,-3.249 -1.035,-0.7848 -2.0772,-1.5588 -3.1176,-2.3346 -0.135,-0.1008 -0.2808,-0.2034 -0.4986,-0.0414 1.3608,1.7694 2.8242,3.4344 4.4874,4.9158 2.6334,2.3472 5.2236,4.752 7.9344,7.0092 2.5398,2.115 5.13,4.176 7.758,6.1866 2.6496,2.0268 5.2164,4.1598 7.8138,6.2532 1.6416,1.3212 3.2832,2.6442 4.9104,3.9834 3.7674,3.0996 7.6374,6.0678 11.6154,8.8884 4.1202,2.9214 8.2548,5.823 12.5082,8.5554 2.4354,1.5642 4.8078,3.2238 7.3512,4.6134 0.234,0.1278 0.531,0.2808 0.396,0.6084 -0.1224,0.2988 -0.414,0.1458 -0.6516,0.1206 -1.5066,-0.1566 -3.015,-0.2934 -4.5216,-0.459 -2.5776,-0.2826 -5.1498,-0.6138 -7.6914,-1.1376 -1.9404,-0.3978 -3.8952,-0.7038 -5.8338,-1.1196 -2.5182,-0.5382 -4.9986,-1.2006 -7.4646,-1.9332 -4.9194,-1.4616 -9.6966,-3.3012 -14.4198,-5.2992 -4.5234,-1.9134 -8.9766,-3.9816 -13.167,-6.5412 -3.1176,-1.9044 -6.0912,-4.0284 -8.856,-6.4422 -1.9764,-1.7262 -3.8718,-3.537 -5.8266,-5.2848 -0.018,-0.0162 -0.0414,-0.0306 -0.054,-0.0504 -1.4814,-2.2608 -3.8556,-3.42 -5.985,-4.8834 -0.7866,-0.54 -1.5228,-1.1592 -2.2644,-1.764 -0.5382,-0.441 -1.1286,-0.7974 -1.7658,-1.0476 -0.4428,-0.1728 -0.855,-0.342 -1.17,-0.7146 -0.3294,-0.3906 -0.7398,-0.243 -1.0674,-0.0324 -0.3798,0.243 -0.045,0.5256 0.0774,0.7578 0.216,0.4122 0.4626,0.8046 0.8802,1.0638 0.9288,0.576 1.1574,1.6758 1.8036,2.4534 1.791,2.151 3.3498,4.464 4.932,6.7644 1.1916,1.7334 2.3886,3.4614 3.5586,5.2092 1.9728,2.9484 3.9114,5.9184 5.8932,8.8614 1.3788,2.0484 2.8026,4.0644 4.2066,6.0948 2.7972,4.0446 5.5818,8.1 8.3952,12.132 1.458,2.088 2.97,4.1382 4.4586,6.2046 0.0144,0.0198 0.0342,0.0378 0.045,0.0576 0.1944,0.3564 0.5976,0.7272 0.2952,1.1286 -0.333,0.441 -0.7794,0.0846 -1.1304,-0.0792 -4.3272,-2.0304 -8.685,-4.0014 -12.924,-6.2118 -3.1788,-1.6578 -6.2154,-3.5568 -9.2052,-5.5368 -2.313,-1.5318 -4.5414,-3.1752 -6.705,-4.9086 -4.7448,-3.7998 -8.991,-8.0946 -12.8412,-12.8016 -2.5002,-3.0564 -4.7502,-6.2892 -6.9318,-9.5706 -0.7272,-1.0944 -1.3302,-2.2734 -2.0016,-3.4056 -0.1458,-0.2466 -0.3492,-0.4608 -0.5328,-0.7002 -0.0666,0.0792 -0.1278,0.1242 -0.1206,0.1476 0.5256,1.6704 0.5706,3.4272 0.9036,5.1318 0.2484,1.269 0.324,2.574 0.567,3.8448 0.2268,1.1826 0.3294,2.376 0.4626,3.5658 0.2394,2.1582 0.333,4.3362 0.6498,6.4818 0.2898,1.9638 0.3114,3.9402 0.4536,5.9094 0.1746,2.4084 0.1404,4.833 0.1908,7.2504 0.0378,1.7856 0.0828,3.5712 0.0234,5.3568 -0.0738,2.2482 -0.0918,4.4982 -0.1764,6.7446 -0.1062,2.8062 -0.2322,5.6142 -0.4968,8.4114 -0.0846,0.9 -0.2556,1.7928 -0.0486,2.6982 0.0468,0.1998 0.0144,0.4068 -0.1962,0.5076 -0.2502,0.1188 -0.4446,-0.018 -0.558,-0.216 -0.3474,-0.6156 -0.6876,-1.2384 -1.0008,-1.872 -1.2996,-2.6316 -2.6496,-5.2416 -3.8628,-7.9146 -0.7956,-1.755 -1.6866,-3.4614 -2.484,-5.2164 -1.0278,-2.2662 -2.0196,-4.5504 -3.1626,-6.7662 -0.7722,-1.4958 -1.3356,-3.0978 -1.989,-4.653 -0.6822,-1.6254 -1.3698,-3.2472 -2.034,-4.8798 -0.468,-1.152 -0.9864,-2.295 -1.3266,-3.4866 -0.306,-1.0692 -0.8946,-1.9944 -1.287,-3.2454 -0.1818,1.4328 -0.3204,2.655 -0.4932,3.8718 -0.504,3.5568 -1.485,6.9948 -2.5866,10.4076 -1.494,4.6314 -3.5568,9.018 -5.6178,13.41 -1.5354,3.2724 -3.4236,6.3414 -5.2668,9.4392 -1.6056,2.6982 -3.249,5.3712 -5.04,7.9488 -0.9378,1.3482 -2.0034,2.6046 -2.8764,4.0014 -0.1296,0.207 -0.315,0.4122 -0.6012,0.3294 -0.3024,-0.0882 -0.3006,-0.387 -0.2844,-0.6174 0.0738,-1.0476 0.1494,-2.0952 0.2754,-3.1374 0.2322,-1.944 0.3996,-3.8916 0.5112,-5.8464 0.081,-1.4418 0.2574,-2.8764 0.3672,-4.3164 0.117,-1.557 0.2106,-3.114 0.3078,-4.671 0.1206,-1.9512 0.2466,-3.9024 0.3474,-5.8554 0.1224,-2.3886 0.2106,-4.779 0.333,-7.1676 0.1134,-2.2212 0.2574,-4.4424 0.3708,-6.6636 0.09,-1.782 0.1458,-3.564 0.2286,-5.346 0.1062,-2.3166 0.2574,-4.6332 0.3204,-6.9516 0.0234,-0.8334 0.063,-1.6596 0.1494,-2.4876 0.0162,-0.162 0.0252,-0.3474 -0.1818,-0.4608 -0.3546,0.2124 -0.3528,0.6084 -0.4698,0.9414 -1.2348,3.5406 -2.538,7.056 -3.969,10.5228 -1.386,3.3552 -3.0816,6.5646 -4.644,9.837 -1.2402,2.5992 -2.6892,5.0706 -4.1616,7.533 -1.4202,2.3778 -2.9718,4.6728 -4.5702,6.9372 -1.4418,2.043 -2.8638,4.0986 -4.4226,6.0552 -3.0402,3.8178 -6.1614,7.5672 -9.5328,11.0988 -1.9962,2.0898 -4.0986,4.077 -6.2352,6.0264 -0.216,0.198 -0.3924,0.4392 -0.6102,0.6336 -0.1638,0.1458 -0.378,0.2862 -0.5922,0.1026 -0.1728,-0.1494 -0.1242,-0.3744 -0.0414,-0.5508 0.2934,-0.6192 0.5526,-1.2528 0.8136,-1.8864 1.485,-3.6036 2.8998,-7.2342 4.3038,-10.8702 1.6416,-4.2534 3.231,-8.5266 4.7052,-12.8412 1.2906,-3.7818 2.4642,-7.6014 3.7026,-11.4012 1.8702,-5.7366 3.4182,-11.5632 4.8708,-17.4168 0.3168,-1.2798 0.6768,-2.5506 1.0692,-4.023 -0.594,0.4896 -0.7992,1.0098 -1.0602,1.4724 -1.8594,3.2922 -3.6486,6.624 -5.5656,9.882 -1.1304,1.9206 -2.4876,3.7044 -3.6756,5.5926 -1.242,1.9728 -2.5938,3.8682 -3.9366,5.7672 -2.0988,2.9628 -4.3524,5.8122 -6.6888,8.5932 -1.593,1.8972 -3.1608,3.8178 -4.8168,5.6592 -3.2904,3.6576 -6.6384,7.263 -10.1574,10.7082 -2.2014,2.1564 -4.3938,4.3218 -6.705,6.3594 -1.7604,1.5516 -3.5514,3.0726 -5.2992,4.635 -1.6974,1.5156 -3.492,2.9106 -5.2308,4.3704 -0.945,0.792 -1.9422,1.557 -2.9394,2.3058 -1.4706,1.1052 -2.9754,2.1546 -4.5144,3.1572 -0.351,0.2286 -0.7956,0.7542 -1.1358,0.4464 -0.3762,-0.342 0.0738,-0.8586 0.2916,-1.2474 2.835,-5.0526 5.6232,-10.1322 8.541,-15.1362 4.2156,-7.2288 8.28,-14.5422 12.3894,-21.8322 3.0834,-5.472 5.8572,-11.1096 8.7822,-16.6662 1.44,-2.7342 2.8674,-5.4756 4.293,-8.2188 1.8216,-3.5028 3.636,-7.011 5.4504,-10.5174 0.0756,-0.1458 0.1224,-0.306 0.2484,-0.621 -0.6876,0.3438 -1.0566,0.828 -1.5102,1.1952 -2.4786,2.0106 -4.2966,4.6116 -6.3198,7.0362 -2.5452,3.0492 -5.1786,6.0228 -7.8282,8.9856 -2.061,2.304 -4.1814,4.5486 -6.372,6.7248 -1.5606,1.5498 -3.1896,3.0312 -4.8114,4.518 -1.6758,1.5372 -3.339,3.0888 -5.0778,4.5522 -1.6812,1.4148 -3.3282,2.8692 -5.0328,4.257 -1.611,1.3122 -3.2652,2.5722 -4.8816,3.8772 -1.4418,1.1628 -2.9952,2.1888 -4.446,3.3426 -1.3248,1.053 -2.7324,2.0052 -4.131,2.9268 -2.2914,1.5066 -4.5018,3.1482 -6.9066,4.491 -2.0988,1.1718 -4.1346,2.4588 -6.1974,3.6936 -0.1476,0.0882 -0.2952,0.1764 -0.45,0.2502 -0.1332,0.063 -0.2952,0.1242 -0.4176,0.0162 -0.1674,-0.1494 -0.0414,-0.315 0.0306,-0.4662 0.3528,-0.7668 0.9252,-1.3824 1.4094,-2.0574 3.9366,-5.4756 7.7994,-11.0016 11.6046,-16.5708 2.754,-4.0284 5.382,-8.1378 7.9722,-12.2706 1.6398,-2.619 3.2508,-5.2578 4.8186,-7.92 1.4058,-2.3886 2.6982,-4.8456 4.1148,-7.227 1.0134,-1.7064 2.0088,-3.429 2.9646,-5.1624 1.7082,-3.0942 3.4254,-6.183 5.1534,-9.2646 0.4014,-0.7164 0.9072,-1.377 1.2114,-2.3778 -1.3302,1.215 -2.4948,2.322 -3.7044,3.3732 -1.8846,1.6362 -3.7926,3.2436 -5.76,4.7826 -1.503,1.1754 -3.0744,2.2554 -4.6566,3.3066 -1.6848,1.1196 -3.456,2.1096 -5.256,3.0492 -1.5174,0.792 -2.8944,1.836 -4.4982,2.4894 -2.5632,1.0422 -4.9662,2.4498 -7.6734,3.1752 -1.9296,0.5166 -3.789,1.2888 -5.7078,1.8504 -1.1898,0.3492 -2.4192,0.5814 -3.6342,0.8532 -1.4076,0.3168 -2.8206,0.5292 -4.248,0.6804 -2.2482,0.2394 -4.4892,0.6264 -6.7662,0.3582 -0.2466,-0.0288 -0.513,-0.0576 -0.5832,-0.3528 -0.0666,-0.2772 0.1692,-0.378 0.3546,-0.495 1.4724,-0.9396 2.646,-2.2392 3.9996,-3.3228 1.143,-0.9144 2.2104,-1.9206 3.3048,-2.8944 1.8828,-1.6758 3.7134,-3.4056 5.4738,-5.2128 1.5858,-1.629 3.2616,-3.1716 4.8528,-4.797 4.0122,-4.0986 7.8786,-8.3286 11.6352,-12.663 2.6496,-3.0546 5.4198,-6.0048 8.1486,-8.9874 0.54,-0.5904 1.143,-1.125 1.6992,-1.6686 -0.0882,-0.1836 -0.198,-0.162 -0.2844,-0.135 -1.8,0.5742 -3.6396,1.0116 -5.445,1.5786 -1.53,0.4806 -3.1266,0.7722 -4.7106,1.0602 -1.9944,0.3618 -3.996,0.7506 -6.0102,0.9144 -2.3076,0.1872 -4.6098,0.4518 -6.9372,0.468 -2.3004,0.0162 -4.599,0.0324 -6.8922,-0.081 -3.4632,-0.1728 -6.8634,-0.7938 -10.2078,-1.7028 -1.2294,-0.3348 -2.502,-0.5184 -3.6756,-1.0476 -0.315,-0.1422 -0.7038,-0.252 -0.6768,-0.6732 0.0288,-0.4536 0.4788,-0.4914 0.7884,-0.5094 2.196,-0.1224 4.2768,-0.8244 6.4026,-1.278 1.5696,-0.3348 3.0816,-0.9774 4.5936,-1.5516 1.9944,-0.756 3.978,-1.5444 5.9382,-2.3832 2.0016,-0.855 4.0158,-1.6992 5.9382,-2.7144 1.7028,-0.8982 3.3966,-1.8288 5.0526,-2.8224 1.1844,-0.711 2.4372,-1.323 3.636,-2.0214 1.8774,-1.0926 3.7422,-2.205 5.5602,-3.393 2.0034,-1.3104 4.0392,-2.5704 6.0174,-3.915 1.5156,-1.0314 3.0366,-2.0574 4.4946,-3.1752 2.2482,-1.7244 4.4604,-3.4884 6.777,-5.4576 -0.6822,0.0396 -1.1088,0.261 -1.5588,0.3996 -1.755,0.54 -3.3948,1.3734 -5.1858,1.8468 -3.2922,0.8712 -6.6204,1.5552 -9.9684,2.1402 -1.458,0.2556 -2.9718,0.18 -4.437,0.4068 -1.8684,0.288 -3.7512,0.3312 -5.625,0.4158 -4.0176,0.1782 -8.0316,0.0792 -11.9988,-0.6966 -2.6442,-0.5184 -5.2776,-1.0782 -7.8498,-1.8828 -3.9132,-1.224 -7.6824,-2.7954 -11.331,-4.6836 -3.8052,-1.9692 -7.3188,-4.3794 -10.782,-6.8652 -1.3896,-0.9972 -2.637,-2.1924 -3.9474,-3.3012 -0.1746,-0.1476 -0.324,-0.3348 -0.1962,-0.5742 0.117,-0.2178 0.3402,-0.1548 0.5292,-0.1134 2.637,0.5616 5.2992,0.9486 7.992,1.098 3.2652,0.18 6.5232,0.4734 9.8028,0.315 1.2636,-0.0612 2.5488,-0.0252 3.8034,-0.1224 1.9458,-0.153 3.8988,-0.153 5.8428,-0.3744 1.8918,-0.2142 3.798,-0.3006 5.6862,-0.5616 1.1862,-0.1638 2.367,-0.3636 3.5496,-0.5472 1.7658,-0.2736 3.537,-0.513 5.2938,-0.8298 1.8324,-0.3312 3.654,-0.7272 5.4756,-1.1142 1.1034,-0.234 2.2014,-0.4914 3.2976,-0.7578 0.5058,-0.1224 0.8046,-0.3276 0.0468,-0.7146 0.342,-0.1782 0.5688,-0.1278 0.6516,0.144 0.1494,0.4878 0.4698,0.4248 0.8136,0.3078 0.324,-0.1098 0.6714,-0.1962 0.9504,-0.3798 0.7848,-0.5202 1.6938,-0.6678 2.5596,-0.9558 0.594,-0.198 1.1088,-0.5724 1.719,-0.7794 1.2258,-0.414 2.3922,-1.0044 3.6216,-1.3986 0.7596,-0.243 1.5732,-0.3024 2.2374,-0.9576 -0.396,-0.3078 -0.8208,-0.1944 -1.2078,-0.225 -3.0348,-0.234 -6.084,-0.1044 -9.1152,-0.315 -3.2886,-0.2286 -6.4566,-1.1322 -9.6228,-1.9998 -2.9574,-0.8118 -5.8716,-1.7532 -8.7426,-2.8332 -2.5956,-0.9774 -5.112,-2.1294 -7.5906,-3.3624 -5.1732,-2.5722 -9.999,-5.7096 -14.688,-9.0702 -3.231,-2.3148 -6.3432,-4.7736 -9.414,-7.299 -3.3192,-2.7306 -6.4224,-5.688 -9.4662,-8.7066 -2.664,-2.6424 -5.1192,-5.4846 -7.5366,-8.3556 -0.1386,-0.1656 -0.3636,-0.3438 -0.1962,-0.5706 0.1746,-0.2358 0.4104,-0.0486 0.5976,0.0396 2.2572,1.0764 4.5036,2.178 6.7698,3.2346 3.8916,1.8162 7.911,3.321 11.9322,4.8204 3.1572,1.1772 6.4386,1.9926 9.5724,3.2058 3.1878,1.2348 6.4152,2.313 9.72,3.1518 1.1538,0.2934 2.3832,0.261 3.537,0.63 0.1548,0.0504 0.3618,0.1044 0.459,-0.0972 0.099,-0.2034 -0.0054,-0.4014 -0.1512,-0.531 -0.6426,-0.5634 -1.3122,-1.098 -1.9494,-1.6668 -1.242,-1.107 -2.5686,-2.115 -3.591,-3.4668 -0.7866,-1.0404 -1.6632,-1.971 -2.8566,-2.6658 -2.0034,-1.1646 -3.8556,-2.6028 -5.787,-3.8772 -3.2382,-2.1384 -6.2784,-4.5378 -9.4752,-6.7266 -2.7972,-1.917 -5.2434,-4.284 -7.6158,-6.7014 -2.0772,-2.1168 -3.8538,-4.5144 -6.003,-6.5682 -0.1584,-0.153 -0.3024,-0.3222 -0.441,-0.495 -0.1476,-0.1854 -0.4284,-0.369 -0.2826,-0.6228 0.162,-0.2826 0.4446,-0.0666 0.6624,-0.009 1.8144,0.4788 3.5172,1.2438 5.1624,2.1204 3.6126,1.926 7.2702,3.7368 11.0862,5.2452 2.3436,0.927 4.554,2.1852 6.9606,2.9844 1.3914,0.4626 2.8656,0.6732 4.1832,1.3698 0.18,0.0954 0.4662,0.2178 0.6012,-0.0234 0.1818,-0.3258 -0.1926,-0.3798 -0.3582,-0.5256 -1.8972,-1.6722 -4.0554,-3.006 -6.0156,-4.6008 -4.3434,-3.5298 -8.487,-7.272 -12.321,-11.3526 -3.2904,-3.5028 -6.579,-7.0056 -9.6822,-10.6776 -3.2742,-3.8754 -6.4458,-7.8282 -9.5094,-11.8746 C 19.5582,105.207 17.7006,102.777 15.9312,100.284 15.084,99.09 14.2524,97.8804 13.4568,96.6474 12.6126,95.337 11.6874,94.068 10.8342,92.7576 9.7128,91.0368 8.5248,89.3538 7.5654,87.5304 c -0.09,-0.171 -0.2286,-0.3708 -0.045,-0.5364 0.1872,-0.1674 0.3888,-0.0036 0.5292,0.108 1.2708,1.0008 2.5326,2.0124 3.7926,3.0258 3.7494,3.0096 7.4952,6.0228 11.3436,8.9082 4.5558,3.4164 9.2826,6.5844 13.9698,9.81 1.8378,1.2636 3.7512,2.4192 5.6574,3.5784 3.1212,1.9008 6.2118,3.8628 9.4158,5.616 2.8152,1.5408 5.5152,3.2832 8.397,4.707 1.1628,0.5742 2.241,1.3158 3.3642,1.971 2.3076,1.3464 4.617,2.6946 6.9318,4.0302 4.4622,2.574 8.9082,5.1768 13.2552,7.938 2.421,1.539 4.7052,3.2886 7.0938,4.8762 1.6722,1.1106 3.3894,2.1456 5.1876,3.0654 2.7936,1.431 5.6646,2.6856 8.5086,4.005 1.044,0.4716 2.1474,0.81 3.2202,1.215 z"
       id="path11" />
    <g
       id="g15"
       style="display:inline"
       transform="scale(0.18)">
		
			<radialGradient
   id="radialGradient4"
   cx="990.55353"
   cy="952.6488"
   r="701.11792"
   gradientUnits="userSpaceOnUse">
			<stop
   offset="0"
   style="stop-color:#000000;stop-opacity:0.60000002;"
   id="stop1-19" />

			<stop
   offset="0.30199999"
   style="stop-color:#000d0c;stop-opacity:0.60000002;"
   id="stop2-80" />

			<stop
   offset="0.85570002"
   style="stop-color:#002e2d;stop-opacity:0.60000002;"
   id="stop3-49" />

			<stop
   offset="1"
   style="stop-color:#003837;stop-opacity:0.60000002;"
   id="stop4-05" />

		</radialGradient>

		<path
   style="display:inline;fill:url(#SVGID_00000093861346841660678170000005878226037042014355_-6)"
   d="m 896.1,837.21 c 1.91,-5.04 1.36,-10.05 0.78,-15 -2.51,-21.3 -7.17,-42.2 -11.98,-63.08 -5.34,-23.17 -9.44,-46.59 -13.59,-70.01 -4.17,-23.56 -10,-46.83 -13.94,-70.45 -4.05,-24.28 -9.23,-48.45 -11.67,-72.89 -1.75,-17.52 -7.58,-34.21 -8.36,-51.77 -0.57,-12.9 -1.33,-25.79 -1.86,-38.69 -0.54,-13.11 -1.35,-26.22 -1.24,-39.33 0.14,-17.44 0.07,-34.87 1.28,-52.32 1.95,-28.03 3.97,-56.05 8.26,-83.81 1.92,-12.4 3.65,-24.88 6.21,-37.57 6.21,3.8 9.33,9.82 12.75,15.56 14.33,24.03 28.03,48.42 41.44,72.97 12.77,23.39 24.05,47.49 34.63,71.95 17.32,40.04 30.08,81.5 40.11,123.88 3.38,14.27 7.35,28.41 11.24,42.56 5.26,19.09 7.3,38.74 10.53,58.19 2.96,17.79 4.7,35.74 6.99,53.61 1.52,11.89 2.13,23.83 3.18,35.74 0.2,2.24 0.28,4.49 0.42,6.74 0.42,-0.01 0.84,-0.02 1.26,-0.03 0.39,-5.78 0.7,-11.57 1.18,-17.34 1.25,-15.11 1.57,-30.38 4.09,-45.28 4.68,-27.73 14.55,-54.01 25.35,-79.88 10.86,-26.03 24.01,-50.94 37.86,-75.49 17.87,-31.66 39.27,-60.84 62.09,-89.03 23.73,-29.33 51.03,-55.15 79.29,-80.01 25.44,-22.38 51.41,-44.18 75.66,-67.89 6.51,-6.36 13.19,-12.55 19.81,-18.8 0.96,-0.91 1.91,-2.29 3.39,-1.81 1.84,0.61 1.5,2.48 1.44,3.92 -0.47,11.69 -3,23.09 -5.67,34.4 -8.17,34.6 -21.18,67.62 -35.07,100.17 -15.88,37.2 -33.58,73.62 -50.01,110.59 -13.63,30.65 -25.05,62.17 -36.02,93.88 -6.21,17.97 -14.36,35.29 -21.84,52.81 -10.34,24.2 -20.91,48.29 -31.3,72.47 -2.14,4.99 -5.07,9.52 -7.62,14.26 -2.05,3.81 -4.69,7.42 -4.74,13.69 2.82,-3.57 5.51,-5.77 6.61,-8.6 3.98,-10.23 11.71,-17.73 18.63,-25.63 18.24,-20.83 38.6,-39.57 59.3,-57.94 27.11,-24.06 57.67,-43.31 87.58,-63.47 21.89,-14.76 45.49,-26.33 69.15,-37.85 9.39,-4.57 18.31,-10.08 27.53,-15.02 20.74,-11.1 42.86,-18.97 64.73,-27.41 5.41,-2.09 10.75,-4.37 16.37,-6.66 0.17,2.63 -1.31,3.72 -2.35,4.91 -22.77,26.04 -43.21,53.95 -64.84,80.9 -7.52,9.37 -16.86,16.93 -24.69,26.02 -28.4,32.95 -57.53,65.27 -84.58,99.36 -18.03,22.72 -35.02,46.22 -52.64,69.24 -17.52,22.88 -35.81,45.17 -53.58,67.86 -15.8,20.18 -31.39,40.54 -47.01,60.86 -8.84,11.5 -17.52,23.12 -26.34,34.63 -5.41,7.05 -9.39,15.22 -16.47,20.99 -1.17,0.95 -2.36,2.41 -2.55,4.59 3.37,0.35 5.93,-1.46 8.31,-3.09 19.61,-13.44 41.11,-22.77 63.19,-31.47 23.52,-9.27 47.15,-18.29 70.56,-27.84 16.74,-6.83 34.58,-10.26 51.63,-16.2 22.66,-7.9 45.95,-14.14 69.76,-16.65 22.96,-2.43 45.9,-5.13 68.83,-7.82 19.83,-2.32 39.63,-3.27 59.56,-2.92 23.74,0.42 47.62,-0.11 71.02,4.26 27.15,5.07 54.93,7.11 81.28,16.13 11.24,3.85 21.76,9.17 30.55,17.38 1.06,0.99 2.75,1.97 2.29,3.65 -0.51,1.89 -2.53,1.21 -3.93,1.48 -25.65,4.95 -51.23,10.38 -77,14.65 -28.05,4.65 -55.12,12.93 -82.42,20.45 -25.67,7.08 -51.34,14.16 -76.94,21.51 -21.54,6.19 -43.51,11.1 -64.4,19.25 -31.19,12.16 -63.79,19.6 -95.79,28.91 -50.38,14.64 -100.95,28.53 -150.51,45.86 -15.27,5.34 -30.37,11.22 -46.01,15.5 -6.82,1.87 -12.57,5.43 -17.65,11.05 6.38,-0.7 12.28,-1.42 18.2,-2.43 13.46,-2.29 27.06,-5.72 40.53,-5.46 24.72,0.49 49.41,-2.07 74.22,0.78 23.5,2.7 46.78,6.2 69.79,11.43 34.17,7.77 66.92,20.04 99.07,33.67 12.62,5.35 24.16,13.4 35.9,20.68 17.35,10.75 34.94,21.42 49.8,35.45 23.65,22.34 46.03,45.86 65.36,72.29 22,30.07 41.02,61.8 57.69,95.03 0.7,1.4 2.37,3.07 0.85,4.56 -1.48,1.45 -3.14,-0.19 -4.62,-0.8 -25.47,-10.47 -49.13,-24.7 -74.24,-35.83 -27.21,-12.06 -52.87,-26.87 -78.79,-41.32 -17.21,-9.6 -35.85,-16.4 -53.96,-24.23 -40.77,-17.64 -83.18,-30.74 -124.76,-46.12 -34.02,-12.58 -68.61,-23.49 -103.17,-34.49 -1.36,-0.43 -2.96,-1.64 -4.25,-0.31 -1.25,1.29 -0.14,2.88 0.28,4.28 1.98,6.59 5.37,12.02 10.95,16.49 23.39,18.73 43.18,41.18 63.73,62.82 22.88,24.09 40.44,52.23 59.27,79.38 0.58,0.83 1.3,1.68 1.52,2.62 3.28,14.14 11.48,26.12 17.54,38.99 10.36,22.02 18.51,44.9 28.02,67.24 13.22,31.03 26.6,61.99 39.41,93.18 9.69,23.57 18.11,47.61 23.82,72.51 0.49,2.14 1,4.28 1.34,6.44 0.8,4.96 -0.4,6.02 -5.15,3.97 -8.42,-3.62 -15.6,-9.28 -23.05,-14.52 -7.72,-5.43 -12.51,-13.1 -17.2,-20.92 -1.67,-2.79 -3.48,-5.54 -6.26,-7.18 -12.53,-7.41 -20.93,-18.89 -30,-29.76 -26.34,-31.58 -51.61,-64.04 -79.85,-94.04 -10.84,-11.52 -21.15,-23.59 -31.97,-35.17 -4.4,-4.7 -9.04,-9.31 -14.65,-12.35 -11.25,-6.1 -18.38,-16.29 -26.22,-25.62 -20.94,-24.9 -41.38,-50.23 -61.91,-75.48 -8.3,-10.2 -15.31,-21.69 -24.73,-30.67 -8.76,-8.35 -12.75,-18.93 -18.91,-28.54 -10.93,-17.07 -21.32,-34.39 -30.84,-52.26 -5.94,-11.14 -11.06,-22.65 -14.86,-35.7 -2.39,10.52 -2.02,20.31 -2.35,29.93 -1.22,35.59 -7.5,70.4 -15.08,105.01 -9.18,41.89 -20.9,83.08 -35.27,123.51 -4.69,13.19 -10.41,26.04 -14.94,39.17 -12.63,36.68 -30.66,70.84 -47.16,105.69 -14.86,31.38 -31.48,61.94 -47.27,92.88 -2.23,4.36 -4.2,8.83 -8.18,12 -2.28,1.82 -3.6,1.68 -3.79,-1.55 -1.07,-18.67 -3.36,-37.25 -4.1,-55.96 -0.51,-12.95 -2.23,-25.86 -3.41,-38.78 -0.06,-0.67 -0.29,-1.34 -0.26,-2 1.38,-27.4 -4.27,-54.43 -4.36,-81.76 -0.03,-8.96 0.35,-17.87 1.63,-26.73 0.81,-5.59 -0.07,-11.1 -0.5,-16.64 -1.69,-21.95 0.57,-43.79 2.8,-65.53 4.27,-41.59 13.73,-82.1 28.15,-121.38 4.19,-11.41 9.39,-22.46 15.78,-32.78 7.54,-12.18 14.1,-24.99 22.8,-36.43 5.3,-6.98 12.2,-12.6 17.3,-19.79 1.53,-2.16 3.29,-4.19 4.03,-6.82 -0.27,-0.11 -0.47,-0.26 -0.54,-0.22 -14.74,10.19 -31.48,16.81 -46.72,26.14 -8.44,5.16 -17.82,8.77 -26.66,13.32 -23.39,12.03 -46.35,24.78 -68.51,38.98 -13.19,8.46 -26.78,16.29 -39.99,24.72 -16.62,10.61 -33.03,21.55 -49.54,32.33 -19.34,12.63 -38.1,26.15 -57.34,38.9 -38.98,25.83 -76.18,53.97 -111.92,84.08 -17.29,14.57 -34.32,29.52 -49.7,46.04 -9.43,10.12 -19.19,19.79 -29.39,29.06 -3.74,3.4 -5.57,8.29 -9.73,12.33 3.16,-17.52 7.34,-33.94 12.61,-50.05 11.76,-35.93 24.94,-71.28 42.37,-104.96 13.66,-26.38 27.11,-52.86 46.19,-75.88 14.3,-17.25 28.3,-34.74 44.32,-50.55 23.93,-23.6 48.67,-46.1 76.51,-65.13 28.44,-19.44 58.73,-35.09 90.96,-47.09 4.36,-1.62 9.03,-2.41 14.59,-3.85 -5.84,-2.24 -11.03,-2.26 -16.06,-2.75 -32.07,-3.09 -64.23,-4.24 -96.45,-4.36 -18,-0.07 -36.02,0 -54,-1.54 -5.33,-0.45 -10.77,0.28 -16.15,0.61 -25.09,1.58 -50.18,-0.52 -75.27,0.09 -31.39,0.77 -62.62,3.27 -93.7,7.55 -24.57,3.39 -48.87,8.22 -72.75,15.03 -4.14,1.18 -8.25,1.11 -12.4,-0.42 -3.91,-1.43 -4.2,-3.01 -1.28,-5.93 11.93,-11.92 23.72,-23.98 35.61,-35.93 13.95,-14.01 29.56,-26.16 45.04,-38.32 8.12,-6.38 17.92,-10.67 27.13,-15.59 40.42,-21.6 83.93,-34.29 128.54,-43.22 20.03,-4.01 40.65,-3.41 61.05,-2.81 32.74,0.96 65.22,4.22 97.16,11.98 12.54,3.05 25.84,2.54 37.88,8.07 4.13,1.9 8.34,3.63 12.56,5.29 1.16,0.46 2.87,1.29 3.7,-0.13 0.89,-1.52 -0.78,-2.41 -1.82,-3.13 -24.84,-17.02 -46.87,-37.46 -69.48,-57.18 -16.12,-14.06 -31.73,-28.73 -47.22,-43.5 -18.81,-17.93 -37.04,-36.43 -55.62,-54.58 -13.04,-12.75 -24.59,-26.8 -36.84,-40.24 -38.62,-42.4 -77.2,-84.85 -122.25,-120.73 -4.88,-3.89 -10.11,-7.27 -13.76,-12.54 -2.07,-2.98 -1.79,-4.36 1.94,-5.08 5.11,-0.98 9.99,-0.69 14.91,1.06 54.19,19.32 108.49,38.39 159.86,64.62 30.94,15.8 62.09,31.46 90.86,50.97 22.86,15.5 45.05,32.11 66.36,49.78 8.05,6.67 16.07,13.37 24.12,20.05 0.59,0.49 1.13,1.29 2.58,0.62 -3.26,-4.12 -6.47,-8.13 -9.63,-12.19 -21.98,-28.23 -41.96,-57.89 -62.28,-87.32 -16.78,-24.32 -31.92,-49.67 -46.87,-75.09 -15.09,-25.67 -28.69,-52.21 -43.02,-78.32 -7.06,-12.86 -14.72,-25.45 -21.3,-38.49 -7.63,-15.12 -16.06,-29.92 -21.46,-46.23 -3.08,-9.33 -8.81,-17.8 -13.54,-26.55 -18.03,-33.4 -36.33,-66.63 -58.17,-97.77 -0.77,-1.1 -2.72,-2.52 -1.14,-3.85 1.55,-1.3 3.12,0.52 4.42,1.44 19.18,13.49 37.89,27.63 55.77,42.8 12.61,10.7 25.87,20.56 38.58,31.11 7.14,5.92 14.11,12.07 19.15,20.02 0.66,1.03 1.47,1.77 2.5,2.42 17.35,10.92 33.25,23.54 46.3,39.52 3.11,3.81 7.17,6.66 11.07,9.59 9.56,7.19 19.31,14.15 28.79,21.45 10.73,8.26 19.52,18.6 29.16,28.02 14.72,14.4 27.4,30.68 41.44,45.71 2.42,2.6 4.33,5.57 5.34,9.08 0.41,1.42 1.07,2.99 2.12,3.97 11.32,10.66 18.57,24.75 30.44,35.07 8.29,7.21 12.74,17.79 19.08,26.74 19.4,27.43 37.76,55.53 52.61,85.75 7.14,14.52 13.71,29.32 20.59,43.97 0.74,1.64 1.09,3.56 3.06,4.81 z"
   id="path15" />

	</g>
  </g>
</svg>
