<?xml version="1.0" encoding="UTF-8" standalone="no"?>
<!-- Created with Inkscape (http://www.inkscape.org/) -->

<svg
   width="320"
   height="320"
   viewBox="0 0 84.666667 84.666667"
   version="1.1"
   id="svg1"
   xmlns="http://www.w3.org/2000/svg"
   xmlns:svg="http://www.w3.org/2000/svg">
  <defs
     id="defs1">
    <radialGradient
       id="SVGID_00000093861346841660678170000005878226037042014355_"
       cx="990.55353"
       cy="952.6488"
       r="701.11792"
       gradientUnits="userSpaceOnUse"
       gradientTransform="matrix(0.04272615,0,0,0.04272615,0.00986697,1.6311342)">
			<stop
   offset="0"
   style="stop-color:#000000"
   id="stop12" />

			<stop
   offset="0.302"
   style="stop-color:#000D0C"
   id="stop13" />

			<stop
   offset="0.8557"
   style="stop-color:#002E2D"
   id="stop14" />

			<stop
   offset="1"
   style="stop-color:#003837"
   id="stop15" />

		</radialGradient>
    <radialGradient
       id="SVGID_00000019647959356941040910000010543237782935087025_"
       cx="919.54401"
       cy="1526.2197"
       r="929.24042"
       gradientTransform="matrix(-0.04115383,0.01148906,-0.01148906,-0.04115383,99.07691,94.716101)"
       gradientUnits="userSpaceOnUse">
		<stop
   offset="0"
   style="stop-color:#000000"
   id="stop7" />

		<stop
   offset="0.2576"
   style="stop-color:#000404"
   id="stop8" />

		<stop
   offset="0.5359"
   style="stop-color:#001111"
   id="stop9" />

		<stop
   offset="0.823"
   style="stop-color:#002726"
   id="stop10" />

		<stop
   offset="1"
   style="stop-color:#003837"
   id="stop11" />

	</radialGradient>
    <radialGradient
       id="SVGID_1_"
       cx="996.16107"
       cy="997.2663"
       r="1133.7557"
       gradientUnits="userSpaceOnUse"
       gradientTransform="matrix(0.04272615,0,0,0.04272615,-0.22848318,-0.27295621)">
		<stop
   offset="0"
   style="stop-color:#000000"
   id="stop1" />

		<stop
   offset="0.3099"
   style="stop-color:#000303"
   id="stop2" />

		<stop
   offset="0.5521"
   style="stop-color:#000D0D"
   id="stop3" />

		<stop
   offset="0.7713"
   style="stop-color:#001E1D"
   id="stop4" />

		<stop
   offset="0.976"
   style="stop-color:#003534"
   id="stop5" />

		<stop
   offset="1"
   style="stop-color:#003837"
   id="stop6" />

	</radialGradient>
  </defs>
  <g
     id="layer1">
    <path
       class="st1"
       d="m 61.392027,55.528244 c 0.0547,0.18287 0.18244,0.2978 0.30207,0.41658 0.56527,0.561 1.11814,1.13566 1.63043,1.74323 0.47512,0.56398 0.934,1.14292 1.37578,1.73596 0.37728,0.50673 0.74686,1.01945 1.09892,1.54242 0.43153,0.64089 0.84256,1.29588 1.22838,1.96583 0.10425,0.18115 0.18586,0.35975 0.45888,0.37855 0.2038,0.0141 0.17304,0.29566 0.13928,0.38881 -0.10895,0.30122 0.0953,0.47853 0.22389,0.66054 0.27302,0.38668 0.49861,0.80625 0.81393,1.16386 0.51357,0.58193 0.85794,1.30101 1.44115,1.82313 0.4388,0.39308 0.82462,0.8323 1.21898,1.26555 0.19782,0.21705 0.36104,0.44691 0.4388,0.74172 0.0884,0.33455 0.32173,0.59988 0.51314,0.87931 0.51827,0.7571 0.9921,1.5407 1.4685,2.32344 0.69857,1.14678 1.30614,2.34353 1.95002,3.52021 0.17689,0.32344 0.33113,0.65927 0.49391,0.99039 0.0329,0.0671 0.10041,0.15339 0.0184,0.20936 -0.0739,0.05 -0.1457,-0.0248 -0.19911,-0.082 -0.29054,-0.3119 -0.58236,-0.62295 -0.86777,-0.93955 -0.34223,-0.38026 -0.71139,-0.73361 -1.0626,-1.10447 -0.45973,-0.48537 -0.93698,-0.95237 -1.39842,-1.4356 -0.42641,-0.44649 -0.84897,-0.89639 -1.27068,-1.34716 -0.0803,-0.0859 -0.14911,-0.18286 -0.2461,-0.26404 0.047,0.13715 0.0893,0.27644 0.14228,0.41145 0.24054,0.6144 0.42769,1.24675 0.64046,1.87055 0.17817,0.52254 0.35036,1.04679 0.5093,1.57446 0.13886,0.46059 0.24824,0.93058 0.3683,1.39672 0.0829,0.32258 0.15509,0.64815 0.24396,0.96903 0.20594,0.74514 0.34651,1.50524 0.52383,2.25722 0.14313,0.60714 0.24994,1.2224 0.40034,1.82868 0.13031,0.52468 0.16022,1.06687 0.22602,1.60266 0.008,0.0641 0.0376,0.16065 -0.0564,0.18158 -0.0773,0.0171 -0.1239,-0.0628 -0.16022,-0.12134 -0.24653,-0.39864 -0.49092,-0.79855 -0.73318,-1.19975 -0.5768,-0.95407 -1.14891,-1.91114 -1.72913,-2.86308 -0.52468,-0.8605 -1.05405,-1.71759 -1.5877,-2.57254 -0.37215,-0.59603 -0.75455,-1.18565 -1.13267,-1.77826 -0.42812,-0.67038 -0.8494,-1.34545 -1.28649,-2.01027 -0.55416,-0.84299 -1.07712,-1.71161 -1.69537,-2.50589 -0.59261,-0.76138 -1.22282,-1.49498 -1.80774,-2.26406 -0.0598,-0.0786 -0.13245,-0.14868 -0.20466,-0.21704 -0.0585,-0.0556 -0.13459,-0.11707 -0.18372,8e-4 -0.0444,0.10596 -0.18885,-0.0474 -0.20039,0.0859 -0.0137,0.1598 0.0466,0.30849 0.10895,0.45119 0.22773,0.52126 0.45119,1.04423 0.69345,1.55822 0.48878,1.03611 0.89212,2.1064 1.28862,3.17968 0.1427,0.38625 0.30378,0.76523 0.43709,1.15617 0.10169,0.29781 0.15167,0.60543 0.22516,0.90665 0.10212,0.41872 0.17518,0.84683 0.25636,1.2711 0.15552,0.81095 0.24952,1.62873 0.3401,2.44608 0.11322,1.02329 0.16749,2.05299 0.13288,3.0844 -0.003,0.10639 4.8e-4,0.2132 -0.002,0.32002 -10e-4,0.0628 0.009,0.13758 -0.0726,0.15851 -0.0748,0.0192 -0.11664,-0.0363 -0.15253,-0.0914 -0.19227,-0.29866 -0.38582,-0.59646 -0.57638,-0.8964 -0.46827,-0.73745 -0.92801,-1.48003 -1.40312,-2.21279 -0.88443,-1.36424 -1.77314,-2.72592 -2.66825,-4.08333 -0.57467,-0.87119 -1.10874,-1.76801 -1.66675,-2.64945 -0.95749,-1.51165 -1.84876,-3.06261 -2.75413,-4.60545 -0.36146,-0.61569 -0.70583,-1.24163 -1.06131,-1.86885 -0.0684,0.0675 -0.0252,0.12947 -0.0154,0.18672 0.10596,0.59987 0.24183,1.19548 0.31447,1.7992 0.0863,0.71908 0.22175,1.43004 0.35035,2.14015 0.16065,0.88699 0.235,1.78382 0.38368,2.67124 0.0479,0.28541 0.0137,0.58492 0.062,0.87033 0.18414,1.0955 0.15595,2.2098 0.30634,3.30615 0.13673,0.99552 0.1645,1.9936 0.17219,2.99553 0.003,0.41102 0.0735,0.82205 0.0752,1.23308 0.003,0.77975 -0.0209,1.5595 -0.0355,2.33883 -0.001,0.0667 0.0222,0.15723 -0.0722,0.17816 -0.0803,0.018 -0.1316,-0.0496 -0.16706,-0.11023 -0.1786,-0.30677 -0.36061,-0.61226 -0.52724,-0.92588 -0.94254,-1.77484 -1.92952,-3.52447 -2.91008,-5.27838 -0.70712,-1.2647 -1.40783,-2.53281 -2.11366,-3.79836 -0.52254,-0.93698 -0.9951,-1.90003 -1.46423,-2.86479 -0.45888,-0.94424 -0.90109,-1.89704 -1.31255,-2.86265 -0.32514,-0.76309 -0.61953,-1.54028 -0.90579,-2.31917 -0.48879,-1.32964 -1.0344,-2.64134 -1.34459,-4.03122 -0.0244,-0.10938 -0.0701,-0.2038 -0.19782,-0.15338 -0.14527,0.0572 -0.25679,0.0239 -0.373,-0.065 -0.12006,-0.0919 -0.17134,-0.0551 -0.17005,0.0974 0.004,0.58706 0.12006,1.1583 0.24482,1.72699 0.0585,0.26832 0.0376,0.53792 0.0667,0.80539 0.12989,1.1865 0.20209,2.37557 0.20722,3.57019 0.005,1.12968 0.0983,2.26065 0.056,3.38733 -0.0337,0.89939 -0.0359,1.80262 -0.13159,2.70072 -0.035,0.32899 -0.0329,0.66439 -0.0436,0.9951 -0.0154,0.46913 -0.10041,0.92972 -0.11237,1.39842 -0.008,0.30806 -0.085,0.61483 -0.13374,0.92161 -0.0363,0.23029 -0.0859,0.46315 -0.10083,0.69045 -0.0256,0.39265 -0.16151,0.76138 -0.19312,1.14933 -0.005,0.0607 -0.0363,0.1128 -0.10297,0.11836 -0.094,0.008 -0.13844,-0.0538 -0.16834,-0.13331 -0.15937,-0.42513 -0.3149,-0.85153 -0.48067,-1.27409 -0.47426,-1.20915 -0.8823,-2.44309 -1.36681,-3.64882 -0.52682,-1.31126 -0.9874,-2.64731 -1.45782,-3.97951 -0.0423,-0.12049 -0.0752,-0.24397 -0.11621,-0.36488 -0.0282,-0.0833 -0.0718,-0.13886 -0.13502,-0.0248 -0.10553,0.19055 -0.22217,0.37385 -0.22089,0.60884 0.003,0.45461 -0.0491,0.91563 -0.0167,1.36169 0.0466,0.63875 0.0329,1.27793 0.0808,1.91456 0.0239,0.3166 -0.0705,0.6191 -0.0607,0.93313 0.0179,0.5845 -0.0782,1.15959 -0.1692,1.73511 -0.0564,0.35677 -0.0675,0.72122 -0.13501,1.07542 -0.0556,0.29097 -0.0812,0.5862 -0.15937,0.87546 -0.0996,0.36744 -0.14527,0.74899 -0.22517,1.12199 -0.0743,0.34651 -0.17347,0.68746 -0.24226,1.03483 -0.0949,0.48066 -0.2555,0.94382 -0.36232,1.42107 -0.005,0.0209 -0.007,0.0423 -0.0141,0.0624 -0.0316,0.0987 -0.0286,0.24097 -0.15339,0.25635 -0.14527,0.0175 -0.14527,-0.14056 -0.17304,-0.22943 -0.26191,-0.83103 -0.53237,-1.65906 -0.7601,-2.50077 -0.19227,-0.71011 -0.41188,-1.41295 -0.59731,-2.12477 -0.24098,-0.92545 -0.51357,-1.84235 -0.7366,-2.77335 -0.16151,-0.67379 -0.31917,-1.34887 -0.47383,-2.02437 -0.10554,-0.46144 -0.16194,-0.93399 -0.24141,-1.40142 -0.0756,-0.44648 -0.15979,-0.89169 -0.22687,-1.33946 -0.0483,-0.32258 -0.0974,-0.64773 -0.10255,-0.97245 -0.003,-0.22346 -0.19269,-0.27003 -0.29395,-0.39479 -0.0444,-0.0547 -0.11109,0.0508 -0.14185,0.11451 -0.22346,0.45931 -0.4435,0.92075 -0.6708,1.37835 -0.70071,1.41124 -1.3792,2.83487 -2.11495,4.22775 -0.62337,1.18009 -1.20658,2.38027 -1.82953,3.56037 -0.46999,0.89084 -0.8823,1.81201 -1.35698,2.70029 -0.41829,0.78232 -0.80197,1.58172 -1.20061,2.37301 -0.10767,0.21363 -0.19355,0.44093 -0.29609,0.65926 -0.038,0.0803 -0.0957,0.1598 -0.19141,0.13801 -0.0885,-0.0201 -0.0573,-0.11664 -0.0641,-0.18372 -0.0667,-0.65841 -0.14057,-1.31597 -0.19697,-1.97523 -0.044,-0.51571 -0.0666,-1.03312 -0.0983,-1.54968 -0.0393,-0.63662 -0.0957,-1.27281 -0.11152,-1.90986 -0.01,-0.38923 -0.0534,-0.77633 -0.0337,-1.16856 0.0205,-0.40931 -0.0286,-0.82205 -0.0282,-1.23308 4.2e-4,-0.88699 0,-1.77441 0.0265,-2.66098 0.0111,-0.36958 0.0222,-0.73916 0.015,-1.10789 -0.0107,-0.54348 0.11237,-1.07243 0.14825,-1.61163 0.0496,-0.74301 0.14143,-1.48388 0.23884,-2.22261 0.0855,-0.64602 0.21492,-1.28521 0.3384,-1.92567 0.0842,-0.43666 0.17902,-0.8729 0.27387,-1.30614 0.13758,-0.62807 0.30592,-1.25273 0.51998,-1.86158 0.31062,-0.884 0.67977,-1.7428 1.11814,-2.57126 0.43837,-0.82846 0.84982,-1.6723 1.32494,-2.47897 0.23072,-0.39137 0.31874,-0.78744 0.35676,-1.22197 0.0269,-0.30891 0.1128,-0.61269 0.16279,-0.92032 0.0521,-0.32044 0.0923,-0.64303 0.0996,-0.98099 -0.13031,0.19483 -0.26789,0.38539 -0.38924,0.58535 -0.58107,0.95877 -1.16471,1.91584 -1.73382,2.88188 -1.03782,1.76117 -2.07564,3.52277 -3.0938,5.29548 -0.5375,0.93613 -1.08311,1.86756 -1.62146,2.80283 -0.4106,0.71395 -0.78787,1.44713 -1.20488,2.15724 -0.63363,1.07841 -1.18864,2.19869 -1.78082,3.29889 -0.64303,1.19377 -1.20403,2.42898 -1.78937,3.65138 -0.42855,0.89426 -0.81266,1.80945 -1.1895,2.72763 -0.17475,0.42598 -0.38197,0.83915 -0.5815,1.25487 -0.0568,0.11835 -0.0573,0.24909 -0.10767,0.36702 -0.0205,0.0474 -0.0479,0.0944 -0.10853,0.0803 -0.0479,-0.0111 -0.0598,-0.0585 -0.0619,-0.10168 -0.015,-0.3243 -0.0748,-0.64132 -0.0713,-0.97202 0.004,-0.42214 0.002,-0.85025 0.007,-1.27153 0.006,-0.4576 -0.0218,-0.92374 0.0615,-1.38134 0.0884,-0.48494 0.0141,-0.97928 0.0799,-1.46722 0.16834,-1.25187 0.20893,-2.51913 0.49178,-3.75776 0.0833,-0.36446 0.12433,-0.74045 0.19697,-1.1096 0.0675,-0.3448 0.19184,-0.66738 0.29823,-0.99765 0.0218,-0.0675 0.0483,-0.13374 0.0671,-0.2021 0.0115,-0.0414 0.0128,-0.0876 -0.0312,-0.11365 -0.044,-0.0256 -0.0761,0.002 -0.11323,0.0278 -0.21619,0.14997 -0.31403,0.39735 -0.40205,0.61269 -0.10254,0.25038 -0.26917,0.44393 -0.40974,0.65756 -0.62466,0.94852 -1.25359,1.89533 -1.90901,2.82334 -0.89682,1.26982 -1.83979,2.50546 -2.81095,3.7206 -0.63833,0.79898 -1.2899,1.58684 -1.94105,2.37429 -0.53365,0.64559 -1.10319,1.26127 -1.65649,1.89063 -0.65628,0.74685 -1.30999,1.49584 -1.9684002,2.24056 -0.15979,0.18073 -0.33241,0.35035 -0.50117,0.52339 -0.0342,0.035 -0.0782,0.0748 -0.13075,0.0427 -0.0547,-0.0337 -0.0286,-0.0889 -0.0149,-0.13501 0.20509,-0.68661 0.37556,-1.38305 0.57894,-2.07094 0.12647,-0.42769 0.2537902,-0.85666 0.3789802,-1.2852 0.17475,-0.59817 0.36958,-1.19121 0.57253,-1.7804 0.19526,-0.56783 0.40804,-1.12968 0.62039,-1.69153 0.16278,-0.42982 0.32771,-0.85965 0.50801,-1.28221 0.33711,-0.78915 0.67636,-1.57745 1.05363,-2.34866 0.23371,-0.47768 0.47169,-0.95322 0.70754,-1.43004 0.082,-0.16578 0.14698,-0.33327 0.15852,-0.52425 0.0137,-0.22901 0.16705,-0.40462 0.28669,-0.5862 0.20978,-0.31789 0.35249,-0.65884 0.45589,-1.025 0.079,-0.27858 0.18543,-0.55374 0.31275,-0.81394 0.18031,-0.36744 0.279,-0.76864 0.50887,-1.11686 0.33155,-0.50246 0.54561,-1.07243 0.8699,-1.58087 0.0419,-0.0654 0.0705,-0.13928 0.10127,-0.21106 0.0141,-0.0338 0.0124,-0.0761 -0.0265,-0.0906 -0.0205,-0.008 -0.056,0.004 -0.076,0.0184 -0.0397,0.0295 -0.0778,0.0632 -0.10852,0.10169 -0.5751,0.71651 -1.35741,1.20445 -2.01625,1.82868 -0.49477,0.4687 -1.02628,0.89639 -1.5219,1.36595 -0.93912,0.88913 -1.9026,1.75306 -2.8015602,2.6832 -0.76992,0.79685 -1.50909,1.62274 -2.25551,2.4418 -0.85794,0.94169 -1.63769,1.94575 -2.42557,2.94212 -0.77035,0.97416 -1.52275,1.9637 -2.23714,2.98101 -0.1756,0.24995 -0.36231,0.49178 -0.54604,0.73574 -0.0406,0.0538 -0.0803,0.13929 -0.16492,0.0978 -0.0735,-0.0359 -0.0337,-0.11408 -0.0209,-0.17347 0.27132,-1.24291 0.52639,-2.48966 0.82163,-3.727 0.19269,-0.80667 0.42726,-1.6048 0.67294,-2.39737 0.24952,-0.80368 0.52425,-1.60009 0.80966,-2.39181 0.23542,-0.65285 0.51485,-1.2899 0.7524,-1.94233 0.42043,-1.15489 0.96433,-2.25551 1.46978,-3.37237 0.26277,-0.58108 0.5845,-1.13524 0.87333,-1.70478 0.45332,-0.8934 0.94339,-1.7663 1.44799,-2.63065 0.42213,-0.72335 0.87161,-1.43089 1.3381802,-2.1269 0.10083,-0.1504 0.1897,-0.30934 0.27003,-0.47597 -0.30549,0.33625 -0.6554202,0.62252 -0.9758702,0.9404 -0.70541,0.70028 -1.39757,1.41637 -2.13289,2.08461 -1.04508,0.95023 -2.09272,1.89832 -3.16814,2.81565 -0.72891,0.62167 -1.42278,1.28478 -2.12435,1.93763 -0.25507,0.23756 -0.5157,0.467 -0.78402,0.68917 -0.0534,0.044 -0.1175,0.10896 -0.18629,0.0496 -0.0688,-0.059 0.0103,-0.1128 0.0359,-0.16621 0.41188,-0.84939 0.81095,-1.7052 1.23821,-2.54648 0.49519,-0.97501 1.04679,-1.91883 1.63128,-2.84428 0.4435,-0.70199 0.90195,-1.3933 1.38048,-2.07093 0.43795,-0.62081 0.90281,-1.22453 1.42577,-1.77741 0.73746,-0.77975 1.48388,-1.55053 2.23159,-2.32046 0.53878,-0.55458 1.1707002,-0.98825 1.8329502,-1.38048 0.29054,-0.17176 0.53921,-0.40291 0.74771,-0.65969 0.16962,-0.2085 0.37428,-0.34266 0.60073,-0.46059 0.61825,-0.3213 1.2365,-0.6426 1.83295,-1.00278 0.3307,-0.19996 0.6268,-0.45418 0.97758,-0.62466 0.0812,-0.0393 0.18671,-0.11664 0.0513,-0.22175 -0.0581,-0.0449 -0.0269,-0.0722 0.012,-0.0931 0.29908,-0.16022 0.56612,-0.39863 0.93741,-0.38582 0.14057,0.005 0.27686,-0.047 0.37855,-0.12561 0.21406,-0.16578 0.47682,-0.24183 0.68704,-0.41487 0.32087,-0.26448 0.77334,-0.30849 1.08011,-0.58706 0.64218,-0.58321 1.49756,-0.68661 2.23971,-1.04209 0.10895,-0.0521 0.22004,-0.10041 0.32429,-0.16108 0.0649,-0.038 0.13801,-0.0799 0.0551,-0.18158 -0.0778,-0.0957 0.0436,-0.13716 0.0872,-0.14741 0.32899,-0.0769 0.59432,-0.30336 0.91776,-0.38582 0.38197,-0.0978 0.57894,-0.417 0.83486,-0.66738 0.0256,-0.0252 0.0449,-0.0641 0.0162,-0.0944 -0.0406,-0.0436 -0.0948,-0.0235 -0.13971,-0.005 -0.34309,0.14014 -0.70413,0.22303 -1.05534,0.33583 -1.25145,0.4012 -2.51529,0.76736 -3.75221,1.21 -1.01645,0.3636 -2.05855,0.65713 -3.05278,1.08012 -0.26661,0.11365 -0.4858,0.32386 -0.75797,0.44777 -1.26469,0.57509 -2.53921,1.13181 -3.77827,1.75861 -1.3287802,0.67208 -2.6366302,1.38817 -3.8944902,2.19057 -1.53301,0.978 -3.03954,1.99274 -4.49692,3.08183 -0.55843,0.41701 -1.08567998,0.87033 -1.63213998,1.30101 -0.0556,0.0436 -0.11237,0.10853 -0.18629,0.0543 -0.0739,-0.0538 -0.0376,-0.12818 -0.002,-0.19142 0.32472,-0.58321 0.58834,-1.19718 0.88999,-1.79193 0.52723998,-1.03996 1.12625998,-2.03804 1.76500998,-3.01305 0.50246,-0.76693 1.02842,-1.51806 1.58856,-2.24269 0.50374,-0.65115 0.99894,-1.31426 1.57916,-1.89961 0.9639,-0.97202 1.91755,-1.95387 3.00963,-2.79343 0.99338,-0.76352 2.0004402,-1.50354 3.1117402,-2.08077 0.32216,-0.16748 0.6409,-0.37129 1.01988,-0.44136 0.20166,-0.0372 0.38453,-0.17689 0.57466,-0.27217 0.038,-0.0192 0.0769,-0.0457 0.0739,-0.0953 -0.004,-0.0641 -0.0602,-0.0731 -0.10724,-0.085 -0.33113,-0.0837 -0.66311,-0.17518 -1.00321,-0.19526 -0.6097,-0.0363 -1.21043,-0.1239 -1.8086,-0.24226 -0.15211,-0.0299 -0.31105,-0.0252 -0.46657,-0.0414 -0.9921002,-0.10297 -1.9816402,-0.24781 -2.9827102,-0.22645 -0.78104,0.0167 -1.56421,0.0248 -2.34182,0.0919 -0.5704,0.0491 -1.13865,0.15083 -1.70264,0.26533 -0.64474,0.13074 -1.28947,0.25508 -1.91969,0.45076 -0.28284,0.0876 -0.57679998,0.14271 -0.85964998,0.23585 -0.0483,0.0158 -0.10467,0.0214 -0.13757,-0.0248 -0.0436,-0.0602 0.002,-0.10767 0.0414,-0.14826 0.58364,-0.60073 1.12497998,-1.24077 1.74621998,-1.80646 1.19078,-1.08396 2.53751,-1.93592 3.95601,-2.67893 0.87973,-0.46102 1.78724,-0.85922 2.74601,-1.13993 0.50246,-0.14741 1.01347,-0.25294 1.5150702,-0.39437 0.41786,-0.11792 0.84256,-0.1991 1.2664,-0.25165 0.39992,-0.0496 0.79343,-0.14997 1.20104,-0.15638 0.75881,-0.012 1.51677,-0.0517 2.27645,-0.002 0.79257,0.0521 1.58727,0.0799 2.37386,0.19911 0.25508,0.0385 0.44991,-0.1081 0.65627,-0.20808 0.11964,-0.0581 0.0312,-0.10169 -0.0436,-0.12861 -0.40589,-0.14697 -0.81094,-0.29694 -1.21684,-0.44349 -1.20616,-0.43496 -2.4089,-0.88059 -3.62104,-1.29931 -0.87674,-0.30292 -1.75177,-0.61141 -2.64688,-0.85922 -0.6943002,-0.19227 -1.3834702,-0.40547 -2.0799102,-0.58919 -0.66226,-0.17475 -1.33092,-0.32643 -2.00044,-0.47469 -0.46999,-0.10425 -0.94468,-0.18415 -1.41595,-0.28028 -0.36616,-0.0748 -0.74172,-0.11024 -1.11216,-0.17091 -0.49605,-0.0816 -0.99338,-0.17005 -1.50139,-0.1474 -0.0855,0.004 -0.20423,-4.3e-4 -0.22816,-0.11408 -0.0218,-0.1034 0.0675,-0.15894 0.1427,-0.21662 0.75455,-0.57723 1.64112,-0.89554 2.49521,-1.27709 0.52382,-0.23414 1.05192,-0.45845 1.59967,-0.63021 0.47298,-0.14869 0.95664,-0.2602 1.44329,-0.35463 0.5063,-0.0987 1.01304,-0.20252 1.52404,-0.26874 0.2508,-0.0325 0.49904,-0.0867 0.7554002,-0.0996 0.24311,-0.0124 0.48323,-0.0867 0.73275,-0.10767 0.64388,-0.0543 1.28734,-0.10339 1.93379,-0.0752 0.17005,0.007 0.33967,0.0282 0.50972,0.0363 0.0517,0.003 0.11408,0.0239 0.17048,-0.0521 -0.39949,-0.16706 -0.72037,-0.44777 -1.07542,-0.67636 -0.47682,-0.30763 -0.93955,-0.63747 -1.4168,-0.94467 -1.1215602,-0.7225 -2.2431202,-1.44457 -3.3757902,-2.14998 -0.90451,-0.56313 -1.82868,-1.08952 -2.76097,-1.60309 -1.01731,-0.56014 -2.0594,-1.07157 -3.10875,-1.56847 -0.36445,-0.17262 -0.74771,-0.29652 -1.12070998,-0.44777 -0.0265,-0.0107 -0.056,-0.015 -0.0795,-0.0299 -0.0974,-0.0611 -0.26832,-0.0748 -0.24909,-0.22303 0.0171,-0.13074 0.17475,-0.12476 0.28156,-0.1457 0.54860998,-0.10852 1.10147998,-0.17859 1.65948998,-0.23286 0.67593,-0.0654 1.35399,-0.11578 2.02949,-0.14014 0.71267,-0.0256 1.42962,0.008 2.14485,0.0739 0.66696,0.0619 1.32323,0.18372 1.97438,0.31532 0.81735,0.16535 1.6321402,0.35591 2.4242802,0.63405 0.60885,0.21363 1.22069,0.41616 1.81629,0.66525 0.67336,0.28156 1.3369,0.58321 1.99488,0.89938 0.89682,0.43154 1.76716,0.91093 2.61228,1.4356 0.74899,0.46529 1.46166,0.97886 2.11409,1.57788 0.46999,0.43153 0.95621,0.84982 1.50054,1.1895 0.32386,0.20209 0.42128,0.16791 0.46486,-0.21064 0.0261,-0.22731 0.0337,-0.47597 -0.16578,-0.67422 -0.2367,-0.23457 -0.45033,-0.49263 -0.67464,-0.74002 -0.0141,-0.0158 -0.0278,-0.0346 -0.0457,-0.0444 -0.79171,-0.44051 -1.3651,-1.13652 -2.0218,-1.73383 -0.85068,-0.7742 -1.68213,-1.57019 -2.52042,-2.35806 -0.53835,-0.50588 -1.06729,-1.02158 -1.61248,-1.51934 -0.83914,-0.76523 -1.65436,-1.55609 -2.54007,-2.27089 -0.50203,-0.40505 -0.96988,-0.8541 -1.47747,-1.25444 -0.7917202,-0.62381 -1.5855702,-1.24376 -2.3926602,-1.84834 -0.7272,-0.54476 -1.45739,-1.08524 -2.19656,-1.61334 -0.88956,-0.63576 -1.80005,-1.24076 -2.71781,-1.83509 -0.54775,-0.35462 -1.11472,-0.68276 -1.61761,-1.10276 -0.0919,-0.0769 -0.26533,-0.15167 -0.20423,-0.28413 0.0521,-0.11322 0.20551,-0.009 0.31019,0.0107 0.86649,0.15937 1.73084,0.32344 2.59177,0.51442 0.75454,0.16749 1.51421,0.32344 2.26363,0.51058 0.49947,0.12476 1.00706,0.23414 1.49328,0.41872 0.28926,0.1098 0.60372,0.14185 0.89896,0.25336 0.38881,0.14698 0.79684,0.24397 1.19548,0.36531 0.4191402,0.12775 0.8365702,0.26191 1.2505902,0.40248 0.5627,0.19141 1.11259,0.41957 1.66803,0.63235 0.64175,0.2461 1.25871,0.54903 1.8902,0.81863 0.85923,0.36702 1.68641,0.80539 2.50803,1.25359 0.54903,0.29951 1.08353,0.62209 1.62402,0.93442 0.0393,0.0226 0.0735,0.0726 0.1662,0.0273 -0.2179,-0.20466 -0.38325,-0.44008 -0.56996,-0.6567 -1.28948,-1.49627 -2.63962,-2.93699 -3.98592,-4.38157 -1.07072,-1.1489 -2.15853,-2.282 -3.26813,-3.3933102 -0.85324,-0.85452 -1.6996402,-1.71631 -2.5678402,-2.55545 -0.92972,-0.89853 -1.8808,-1.77442 -2.82249,-2.66056 -0.23798,-0.22388 -0.47554,-0.44819 -0.71182,-0.67379 -0.0517,-0.0491 -0.11237,-0.10467 -0.0684,-0.18286 0.0483,-0.0855 0.13373,-0.0709 0.20936,-0.0444 0.5721,0.19825 1.17369,0.28669 1.74835,0.47469 0.72806,0.23798 1.46423,0.4546 2.17946,0.72677 0.73276,0.279 1.4629502,0.56698 2.1773302,0.89597 1.09977,0.5063 2.18801,1.03525 3.25445,1.60693 1.25786,0.67422 2.4606,1.4403 3.64112,2.24141 0.82846,0.5622802 1.65778,1.1241302 2.44522,1.7410902 0.63107,0.49434 1.2429,1.01347 1.83295,1.55908 0.41744,0.38624 0.82462,0.78274 1.22667,1.18351 0.61867,0.61697 1.18736,1.28008 1.75647,1.94319 0.39778,0.46358 0.77719,0.94168 1.16472,1.41338 0.32856,0.40034 0.62636,0.82632 0.93954,1.23906 0.22731,0.29951 0.45803,0.59688 0.6879,0.89426 0.0299,0.0384 0.0628,0.0786 0.13586,0.0504 -0.24183,-0.59944 -0.5204,-1.17796 -0.86862,-1.72101 -0.55202,-0.86007 -1.08695,-1.73211 -1.66717,-2.57296 -0.54391,-0.78788 -1.10575,-1.56421 -1.68256,-2.32986 -0.58107,-0.77164 -1.13096,-1.56677 -1.69281,-2.35293 -0.35505,-0.49648 -0.70968,-0.9933802 -1.05961,-1.4937102 -0.80966,-1.15788 -1.65777,-2.28755 -2.54776,-3.38391 -0.9216,-1.13566 -1.84918,-2.26705 -2.82249,-3.36041 -0.55757,-0.62594 -1.08994,-1.27367 -1.69152,-1.85944001 -0.0551,-0.0538 -0.12647,-0.12006 -0.0632,-0.20081 0.0577,-0.0735 0.1269,-0.009 0.19099,0.0167 0.40803,0.16108 0.8182,0.3166 1.22538,0.47981 0.69687,0.27943001 1.3886,0.57253001 2.05684,0.91605001 0.51015,0.26234 1.03184,0.4999 1.54028,0.76651 0.66054,0.34651 1.30058,0.72421 1.93165,1.12028 1.25828,0.79086 2.44778,1.67572 3.6095,2.60117 1.11259,0.88614 2.19356,1.80945 3.16345,2.84983 0.72121,0.77377 1.3856,1.5979602 1.96839,2.4866602 0.41658,0.63534 0.80453,1.2882 1.21385,1.92781 0.004,0.006 0.009,0.0115 0.0111,0.0184 0.23713,0.74557 0.8088,1.25401 1.28947,1.82825 0.17732,0.21235 0.33455,0.44179 0.49392,0.66824 0.11579,0.16492 0.25251,0.31019 0.41102,0.42982 0.10981,0.0829 0.21192,0.16194 0.27046,0.29054 0.0615,0.13459 0.18714,0.12519 0.29481,0.0923 0.12476,-0.0385 0.0534,-0.14313 0.0376,-0.21748 -0.0282,-0.13202 -0.0667,-0.2602 -0.16279,-0.36531 -0.21406,-0.23285 -0.19227,-0.55757 -0.31233,-0.82461 -0.33198,-0.73916 -0.58663,-1.5061 -0.84854,-2.2709 -0.19739,-0.57594 -0.39692,-1.15146 -0.58705,-1.72998 -0.32088,-0.97586 -0.63022,-1.9555702 -0.95365,-2.9305802 -0.22517,-0.67849 -0.46529,-1.35229 -0.699,-2.02779 -0.46529,-1.3463 -0.92588,-2.69388 -1.39715,-4.03804 -0.24396,-0.69601 -0.5063,-1.38561 -0.76052,-2.07778001 -0.003,-0.007 -0.006,-0.0128 -0.008,-0.0197 -0.0261,-0.11451 -0.11023,-0.24952 0.006,-0.33796 0.12733,-0.0974 0.22432,0.0372 0.30891,0.11023 1.04893,0.90366001 2.1111,1.79236001 3.12115,2.73960001 0.75753,0.71011 1.45696,1.47619 2.13631,2.26107 0.52596,0.60756 1.01987,1.23948 1.48815,1.89148 1.02756,1.42962 1.87781,2.9583602 2.58493,4.5708502 0.45931,1.04764 0.83487,2.12434 1.18822,3.20958 0.11792,0.3619 0.19397,0.73746 0.2931,1.10576 0.0218,0.0803 0.0615,0.15552 0.0944,0.2367 0.0248,-0.0171 0.0457,-0.0248 0.0453,-0.032 -0.0167,-0.50716 0.10767,-1.00022 0.14741,-1.50226 0.0295,-0.37342 0.11023,-0.743 0.14099,-1.11643 0.0286,-0.34736 0.0932,-0.68832 0.14869,-1.03098 0.10126,-0.62081 0.24482,-1.23521 0.32344,-1.85859 0.0722,-0.57082 0.22004,-1.1232702 0.33369,-1.6834102 0.13886,-0.68533 0.33711,-1.35912 0.511,-2.03718 0.12861,-0.50118 0.25508,-1.00236 0.4106,-1.49627 0.19569,-0.62124 0.37599,-1.24761 0.57467,-1.86756 0.24824,-0.77463 0.50203,-1.54797 0.79385,-2.30764 0.094,-0.24439 0.21107,-0.48024001 0.22346,-0.74899001 0.003,-0.0594 0.0278,-0.11451 0.0944,-0.12604 0.079,-0.0137 0.12305,0.0397 0.13886,0.10382 0.0491,0.19911 0.0957,0.39864 0.13373,0.60030001 0.15766,0.8353 0.33071,1.66846 0.46102,2.50846 0.0855,0.55116 0.20124,1.09678 0.28669,1.64837 0.11024,0.71182 0.20893,1.42663 0.35548,2.13374 0.0987,0.47726 0.1316,0.96818 0.1927,1.45312 0.0637,0.50631 0.12903,1.01261 0.18757,1.5197702 0.041,0.35805 0.0966,0.71695 0.0987,1.07585 0.002,0.32172 0.094,0.62636 0.10639,1.00534 0.16236,-0.38582 0.29652,-0.71566 0.43923,-1.04123 0.41743,-0.95322 0.9592,-1.8355202 1.53216,-2.7015802 0.77761,-1.1754 1.69452,-2.23842 2.61142,-3.30316 0.68276,-0.793 1.44884,-1.50225 2.20424,-2.22304 0.65798,-0.62765 1.32451,-1.24504 2.02522,-1.82483 0.36659,-0.30336 0.76181,-0.57082001 1.11387,-0.89213001 0.0521,-0.0474 0.12006,-0.0906 0.19312,-0.0449 0.0773,0.0483 0.0538,0.13117 0.0312,0.19398 -0.10211,0.28626 -0.20508,0.57296001 -0.32087,0.85367001 -0.21619,0.52425 -0.41487,1.05448 -0.59774,1.59112 -0.13501,0.39564 -0.29566,0.78232 -0.43837,1.1754 -0.15552,0.43068 -0.30293,0.85794 -0.45119,1.2852 -0.18586,0.53493 -0.373,1.06943 -0.55287,1.6065 -0.22004,0.6567 -0.43111,1.31682 -0.65115,1.97352 -0.20423,0.61099 -0.41786,1.2189802 -0.62252,1.8299602 -0.16407,0.49007 -0.31831,0.9827 -0.48024,1.47363 -0.21021,0.6379 -0.43239,1.27238 -0.63064,1.91413 -0.0713,0.23072 -0.14698,0.45802 -0.23542,0.68234 -0.0175,0.044 -0.0342,0.0949 0.0145,0.1427 0.11536,-0.0316 0.14613,-0.14185 0.20466,-0.22602 0.62038,-0.89127 1.25743,-1.771 1.92652,-2.62638 0.64773,-0.82803 1.37066,-1.59112 2.06154,-2.3819802 0.5486,-0.6285 1.14506,-1.20488 1.7475,-1.77741 0.5815,-0.55287 1.19291,-1.07157 1.81543,-1.57916 0.56143,-0.45759 1.11772,-0.92032 1.70478,-1.34459 1.14549,-0.82803 2.30806,-1.63085 3.5232,-2.35335 0.7195,-0.42769 1.4608,-0.81821 2.20851,-1.19548 0.0756,-0.038 0.14356,-0.0923 0.21961,-0.12903 0.0568,-0.0278 0.12775,-0.0504 0.17304,0.0175 0.0363,0.0547 0.006,0.11408 -0.0316,0.15681 -0.13032,0.14997 -0.25166,0.30634 -0.37429,0.46272 -0.69515,0.88956 -1.37236,1.79194 -2.04701,2.6973 -0.78915,1.05876 -1.56548,2.12691 -2.31234,3.21557 -0.65456,0.95408 -1.27964,1.9286602 -1.92096,2.8917102 -0.9686,1.45483 -1.85432,2.95921 -2.71482,4.47941 -0.18842,0.33241 -0.3871,0.65841 -0.61141,1.03867 0.2038,-0.0906 0.30164,-0.21961 0.41017,-0.32813 0.77505,-0.77335 1.53344,-1.56335 2.32174,-2.32302 0.46486,-0.44778 0.98227,-0.83957 1.4608,-1.27367 0.4999,-0.45375 1.02458,-0.87717 1.54754,-1.30229 0.81608,-0.66311 1.66675,-1.2822202 2.53495,-1.8761102 0.59218,-0.40504 1.17881,-0.81906 1.78424,-1.2036 1.20274,-0.76394 2.41745,-1.50866 3.66719,-2.19612 0.78189,-0.43025 1.56207,-0.86349 2.36532,-1.25145 0.61184,-0.29566 1.22965,-0.58065 1.83936,-0.88016 0.59175,-0.29053 1.2006,-0.54006 1.7992,-0.81179 0.32514,-0.14741 0.6631,-0.28328 0.99936,-0.41445 0.49648,-0.19397 0.99765,-0.36958 1.50524,-0.52937 0.11579,-0.0363 0.28071,-0.14869 0.35164,-0.0359 0.0782,0.12476 -0.0876,0.23371 -0.1786,0.32514 -1.18437,1.18822 -2.35763,2.38839 -3.56122,3.55695 -1.73895,1.68811 -3.44245,3.41169 -5.15619,5.1250102 -1.28649,1.28605 -2.49863,2.64261 -3.74751,3.96455 -0.61483,0.65072 -1.22624,1.30443 -1.83765,1.95814 -0.78104,0.8353 -1.55994,1.67273 -2.33926,2.50974 -0.0325,0.0346 -0.0581,0.0756 -0.1175,0.15381 0.21876,-0.0423 0.35933,-0.14869 0.514,-0.21577 0.84768,-0.36787 1.55779,-0.95193 2.31063,-1.47063 0.94724,-0.65243 1.9137,-1.27666 2.88316,-1.89661 0.75411,-0.48238 1.52062,-0.9434 2.30123,-1.37963 0.55587,-0.31062 1.12583,-0.59688 1.69366,-0.88571 0.58706,-0.29823 1.17198,-0.60159 1.771,-0.87418 0.57937,-0.26362 1.1519,-0.54091 1.73554,-0.79556 0.55202,-0.24055 1.11088,-0.46315 1.66375,-0.70114 0.49306,-0.21235 1.0062,-0.37727 1.50055,-0.5862 0.45161,-0.19056 0.91818,-0.34694 1.38048,-0.49434 0.75668,-0.24183 1.50097,-0.5276702 2.27645,-0.7148102 0.67678,-0.16321 1.34459,-0.36403 2.01667,-0.54775 0.0478,-0.0132 0.0961,-0.0265 0.14484,-0.0346 0.0419,-0.007 0.0919,-0.0115 0.1175,0.0282 0.035,0.0547 -0.0132,0.091 -0.0449,0.12775 -0.15809,0.18629 -0.36531,0.31361 -0.55373,0.46401 -1.52447,1.2206902 -3.03228,2.4614502 -4.52727,3.7184602 -1.08182,0.90921 -2.13502,1.85047 -3.17925,2.80198 -0.6614,0.60286 -1.31596,1.21342 -1.9607,1.83423 -0.57851,0.55672 -1.13011,1.14122 -1.71033,1.6958 -0.41572,0.39693 -0.82718,0.79983 -1.22923,1.20915 -0.71737,0.73019 -1.43688,1.45782 -2.15895,2.18331 -0.16792,0.16834 -0.36061,0.31318 -0.5234,0.56911 0.46572,-0.23542 0.87631,-0.45332 1.29631,-0.65243 0.65286,-0.30976 1.31041,-0.60927 1.97908,-0.88528 0.51058,-0.21107 1.03312,-0.38967 1.55651,-0.55972 0.55715,-0.18116 1.1284,-0.31916 1.70349,-0.44136 0.48495,-0.10297 0.95023,-0.28712 1.44842,-0.34394 0.79599,-0.091 1.57617,-0.29695 2.38754,-0.28841 0.57851,0.006 1.15745,-0.0645 1.73639,-0.0718 0.35932,-0.004 0.72036,0.0265 1.08011,0.0449 0.41744,0.0214 0.82804,0.0722 1.23821,0.14099 0.64559,0.1081 1.30101,0.17518 1.91498,0.42727 0.0667,0.0273 0.13844,0.056 0.13502,0.14355 -0.003,0.0825 -0.0769,0.0919 -0.13715,0.11067 -0.48366,0.1474 -0.9122,0.41828 -1.3745,0.61525 -0.38966,0.16621 -0.76651,0.3636 -1.1472,0.55031 -0.65585,0.32088 -1.30101,0.66098 -1.93293,1.028 -0.56954,0.33112 -1.15702,0.63063 -1.72699,0.96005 -1.43816,0.8306 -2.84599,1.7099 -4.23203,2.62595 -0.97672,0.64602 -1.97907,1.25273 -2.97331,1.87269 -0.19697,0.12262 -0.40632,0.22474 -0.60415,0.33326 0.0103,0.0581 0.0423,0.0607 0.0688,0.0598 0.5469,-0.0197 1.09422,0.001 1.64154,-0.0162 0.46444,-0.0149 0.93229,0.0282 1.39629,0.0714 0.5845,0.0543 1.17283,0.10168 1.74793,0.2132 0.65798,0.12732 1.32066,0.23328 1.97138,0.40974 0.6426,0.17433 1.28563,0.34908 1.91627,0.55929 0.95237,0.31745 1.85303,0.75582 2.71525,1.26982 0.3166,0.18885 0.65713,0.33967 0.94339,0.57851 0.0769,0.0641 0.17646,0.12519 0.13673,0.24055 -0.0432,0.12433 -0.17219,0.1 -0.25935,0.0807 -0.6221,-0.13672 -1.25743,-0.10297 -1.88551,-0.14185 -0.464,-0.0291 -0.9357,0.0329 -1.40184,0.0748 -0.61526,0.0556 -1.22966,0.12092 -1.84193,0.2021 -0.62508,0.0829 -1.25273,0.1615 -1.86799,0.29438 -0.54518,0.11792 -1.08951,0.24525 -1.62914,0.39394 -0.38582,0.10596 -0.78274,0.17902 -1.17198,0.28071 -0.60885,0.15851 -1.21556,0.32343 -1.81543,0.51356 -0.66055,0.20936 -1.32665,0.40249 -1.98335,0.62338 -0.50332,0.16919 -1.00706,0.33711 -1.5014,0.53579 -0.76138,0.30591 -1.51592,0.62551 -2.31533,0.99423 0.19355,0.0419 0.32942,0.0137 0.46572,0.01 0.53151,-0.0141 1.05405,-0.11878 1.59026,-0.11151 0.98612,0.0132 1.96797,0.0816 2.94725,0.17902 0.42641,0.0423 0.84299,0.18116 1.2694,0.23243 0.5439,0.0649 1.07199,0.19953 1.60137,0.32215 1.13438,0.2632 2.24612,0.6033 3.29291,1.12883 0.69686,0.35035 1.38817,0.71224 2.04273,1.13651 0.99638,0.64645 1.92524,1.37792 2.796,2.18886 0.90793,0.84598 1.70008,1.79151 2.47299,2.75456 0.31019,0.38624 0.56484,0.81692 0.84384,1.22838 0.0372,0.0547 0.0645,0.11877 0.0103,0.1756 -0.0496,0.0517 -0.10682,0.0167 -0.15638,-0.009 -0.69174,-0.36232 -1.40441,-0.67721 -2.14357,-0.92844 -0.8964,-0.30464 -1.78296,-0.64004 -2.71012,-0.8511 -0.35719,-0.0816 -0.71267,-0.19184 -1.07029,-0.26191 -0.55459,-0.10896 -1.09934,-0.26106 -1.65906,-0.35079 -0.54433,-0.0876 -1.0831,-0.21192 -1.63,-0.28626 -0.34352,-0.0466 -0.68832,-0.0825 -1.03269,-0.12348 -0.51357,-0.0611 -1.02671,-0.13245 -1.54156,-0.18073 -0.53707,-0.0504 -1.07584,-0.0816 -1.61377,-0.11579 -0.326,-0.0209 -0.65242,-0.0342 -0.97885,-0.0457 -0.15083,-0.005 -0.24995,0.0286 -0.0688,0.19569 -0.10938,0.0231 -0.16834,-0.009 -0.17048,-0.091 -0.003,-0.14783 -0.0978,-0.15509 -0.20295,-0.14954 -0.0987,0.006 -0.20252,0.002 -0.29481,0.032 -0.25935,0.0837 -0.52468,0.0543 -0.7883,0.0671 -0.18116,0.009 -0.3542,0.0735 -0.54006,0.0833 -0.37385,0.0201 -0.74556,0.094 -1.11942,0.10767 -0.23072,0.009 -0.4623,-0.0384 -0.699,0.0927 0.0863,0.11664 0.21363,0.11792 0.31959,0.1568 0.82804,0.30165 1.68897,0.50289 2.51828,0.7977 0.89981,0.32002 1.71289,0.8182 2.52811,1.30699 0.76181,0.45632 1.50097,0.94639 2.21791,1.47106 0.64816,0.47469 1.26,0.9921 1.8556,1.52917 1.2429,1.12028 2.34438,2.3713 3.39075,3.6736 0.72079,0.89725 1.39757,1.82568 2.05726,2.76908 0.7131,1.01987 1.34886,2.08674 1.96284,3.16601 0.53707,0.94424 1.00107,1.92823 1.45141,2.91734 0.0261,0.0568 0.0743,0.12433 0.0102,0.17432 -0.0671,0.0521 -0.11792,-0.0184 -0.16321,-0.0577 -0.54604,-0.47597 -1.08653,-0.95835 -1.63641,-1.42962 -0.94425,-0.80966 -1.94789,-1.54241 -2.95281,-2.27388 -0.78872,-0.57382 -1.64068,-1.05747 -2.42001,-1.63983 -0.79342,-0.59261 -1.60906,-1.14464 -2.46572,-1.63641 -0.29909,-0.17176 -0.64474,-0.2585 -0.93742,-0.45119 -0.0393,-0.0261 -0.0927,-0.0573 -0.13544,-0.009 -0.0431,0.0491 -0.0299,0.11236 8.1e-4,0.15979 0.13544,0.20722 0.28028,0.40846 0.41402,0.61654 0.2602,0.40547 0.55202,0.79001 0.7319,1.24675 0.138,0.35121 0.31061,0.67977 0.58919,0.96604 0.46828,0.48109 0.87289,1.02628 1.31212,1.53216 0.73703,0.84854 1.398,1.75476 2.11922,2.61441 0.63106,0.75241 1.12882,1.60309 1.60223,2.46273 0.41444,0.75241 0.72335,1.55908 1.16258,2.29995 0.0325,0.0547 0.0594,0.11366 0.0846,0.17219 0.0265,0.0632 0.0906,0.1363 0.0308,0.19569 -0.0671,0.0662 -0.12904,-0.0158 -0.18586,-0.0491 -0.46871,-0.27516 -0.88443,-0.62081 -1.27495,-0.99381 -0.85751,-0.81863 -1.73682,-1.60864 -2.68363,-2.32644 -0.5815,-0.44093 -1.1002,-0.96433 -1.70905,-1.3745 -0.35206,-0.23756 -0.74685,-0.41102 -1.06003,-0.70754 -0.0427,-0.0406 -0.11323,-0.097 -0.16962,-0.0406 -0.0761,0.0769 0.0243,0.12134 0.059,0.17475 0.39906,0.6144 0.89682,1.15446 1.31981,1.75177 0.93656,1.32323 1.80091,2.68961 2.55246,4.12649 0.64516,1.23308 1.28947,2.46658 1.86927,3.73213 0.61141,1.33562 1.18821,2.68577 1.72742,4.053 0.32514,0.82376 0.65413,1.64624 0.95364,2.4794 0.14356,0.39864 0.28157,0.80069 0.40718,1.20701 0.13374,0.43111 0.29268,0.85752 0.42855,1.28905 0.17859,0.56741 0.37941,1.12925 0.50459,1.71247 0.0115,0.0547 0.035,0.12091 -0.0295,0.15296 -0.0654,0.0325 -0.10895,-0.0295 -0.13929,-0.0709 -0.27643,-0.37813 -0.54945,-0.75882 -0.82247,-1.13908 -0.81137,-1.13139 -1.62146,-2.26363 -2.47043,-3.36853 -1.00492,-1.30785 -2.07649,-2.55972 -3.13268,-3.82399 -0.41402,-0.49562 -0.85794,-0.96689 -1.2993,-1.43902 -0.72293,-0.77334 -1.43218,-1.56121 -2.18929,-2.29994 -0.66525,-0.64901 -1.28264,-1.34545 -1.97566,-1.96712 -0.27943,-0.2508 -0.52297,-0.54176 -0.78488,-0.81179 -0.53877,-0.55544 -1.07798,-1.11088 -1.61975,-1.66376 -1.04422,-1.06559 -2.08204,-2.13759 -3.07927,-3.24676 -0.55544,-0.61739 -1.05619,-1.28392 -1.59924,-1.91285 -0.37984,-0.44008 -0.77847,-0.86221 -1.2083,-1.25914 -0.66781,-0.61654 -1.37108,-1.19035 -2.06153,-1.77954 -0.2508,-0.21662 -0.53194,-0.39736 -0.79941,-0.59347 z"
       id="path6"
       style="display:inline;fill:url(#SVGID_1_);stroke-width:0.0427261" />
    <path
       style="display:none;fill:url(#SVGID_00000019647959356941040910000010543237782935087025_);stroke-width:0.0427261"
       d="m 25.74768,36.260161 c -0.0837,-0.13245 -0.20979,-0.19483 -0.33028,-0.26234 -0.56996,-0.31831 -1.1331,-0.64987 -1.67102,-1.01688 -0.49947,-0.34053 -0.98954,-0.69644 -1.4685,-1.0673 -0.40974,-0.31703 -0.81436,-0.64004 -1.20744,-0.97544 -0.48152,-0.4106 -0.95065,-0.83743 -1.40312,-1.28136 -0.1222,-0.12006 -0.22602,-0.24311 -0.44564,-0.19782 -0.16407,0.0337 -0.20166,-0.19526 -0.19568,-0.27644 0.0197,-0.26191 -0.18073,-0.35676 -0.32216,-0.47212 -0.30079,-0.24482 -0.57125,-0.52682 -0.89896,-0.73916 -0.53365,-0.34609 -0.9639,-0.83786 -1.53942,-1.12157 -0.43324,-0.21363 -0.83444,-0.47554 -1.24119,-0.73061 -0.20381,-0.12775 -0.38326,-0.27302 -0.51015,-0.48879 -0.14356,-0.24439 -0.38625,-0.40248 -0.59902,-0.58108 -0.57595,-0.48323 -1.12285,-0.99765 -1.67145,-1.51037 -0.80411,-0.75112 -1.54754,-1.56206 -2.3153303,-2.34908 -0.21107,-0.21619 -0.40676,-0.44734 -0.60799,-0.67294 -0.041,-0.0457 -0.11323,-0.0991 -0.0607,-0.16107 0.047,-0.056 0.12049,-0.0124 0.17518,0.0209 0.29823,0.18244 0.5968903,0.36317 0.8921203,0.55074 0.35378,0.22474 0.72336,0.42256 1.08226,0.63748 0.46956,0.28156 0.9498,0.54518 1.42021,0.82504 0.43496,0.25849 0.86777,0.5204 1.30016,0.78317 0.0825,0.05 0.15809,0.11151 0.25251,0.15424 -0.0675,-0.0978 -0.13159,-0.19825 -0.20295,-0.2931 -0.32514,-0.43196 -0.61226,-0.88999 -0.91776,-1.33519 -0.25592,-0.373 -0.50715,-0.74899 -0.74898,-1.13096 -0.21107,-0.33327 -0.4012,-0.67978 -0.5986,-1.02159 -0.13672,-0.23627 -0.26533,-0.47725 -0.40632,-0.71139 -0.32686,-0.54305 -0.60543,-1.11216 -0.91092,-1.66632 -0.24696,-0.44777 -0.46657,-0.91006 -0.7190903,-1.3557 -0.21833,-0.38539 -0.36189,-0.8071 -0.53151,-1.21556 -0.0205,-0.0487 -0.0649,-0.11835 0.005,-0.15552 0.0573,-0.0308 0.11152,0.0222 0.15296,0.0607 0.28242,0.2602 0.5635603,0.52254 0.8434103,0.78574 0.66568,0.62593 1.32793,1.25529 1.99574,1.87909 0.60372,0.56356 1.21086,1.1237 1.82014,1.68085 0.42512,0.38881 0.85708,0.76992 1.28605,1.15403 0.4858,0.43495 0.9669,0.87503 1.45867,1.30358 0.62338,0.54347 1.22753,1.11387 1.89064,1.60436 0.63533,0.47042 1.2946,0.9105 1.92609,1.38903 0.0645,0.0491 0.13758,0.088 0.20936,0.12604 0.0585,0.0312 0.13202,0.0628 0.14484,-0.041 0.0115,-0.0936 0.1598,-0.004 0.13929,-0.11195 -0.0244,-0.12946 -0.10511,-0.23328 -0.18543,-0.33241 -0.29439,-0.36103 -0.58621,-0.72506 -0.89084,-1.07755 -0.61441,-0.71054 -1.16856,-1.46593 -1.71802,-2.22603 -0.19782,-0.27345 -0.40846,-0.53707 -0.59988,-0.81607 -0.14569,-0.21278 -0.25294,-0.44435 -0.3777,-0.6661 -0.17304,-0.30806 -0.32471,-0.62979 -0.48237,-0.94724 -0.30122,-0.60586 -0.5563,-1.23094 -0.80753,-1.85602 -0.31489,-0.78275 -0.58449,-1.58386 -0.78445,-2.40591 -0.0205,-0.085 -0.0474,-0.16835 -0.0692,-0.25294 -0.0128,-0.05 -0.0376,-0.10639 0.0222,-0.141 0.0551,-0.0316 0.10041,0.003 0.14057,0.0389 0.21748,0.19312 0.43623,0.38582 0.65243,0.58065 0.53194,0.47896 1.05875,0.9639 1.59539,1.43773 0.99894,0.88187 2.00044,1.76118 3.00621,2.63535 0.6456,0.561 1.2647,1.15147 1.89961,1.724 1.08909,0.98228 2.1346,2.01027 3.18908,3.02843 0.42128,0.40633 0.83102,0.82462 1.24974,1.2412 0.0393,-0.0684 -0.009,-0.1081 -0.0291,-0.15083 -0.21576,-0.4499 -0.4546,-0.89041 -0.64473,-1.351 -0.22645,-0.5486 -0.49007,-1.08011 -0.74814,-1.61205 -0.32215,-0.66482 -0.57851,-1.35656 -0.89169,-2.02437 -0.10084,-0.21491 -0.13972,-0.45845 -0.24055,-0.67336 -0.3871,-0.82419 -0.61013,-1.7099 -0.97074,-2.54264 -0.32728,-0.75582 -0.56911,-1.53771 -0.79599,-2.32686 -0.0931,-0.32387 -0.23926,-0.63278 -0.33112,-0.95664 -0.17433,-0.61483 -0.32686,-1.23564 -0.48751,-1.85432 -0.0137,-0.053 -0.0521,-0.1192 0.0175,-0.15637 0.0598,-0.0316 0.11493,0.0102 0.15638,0.0504 0.2085,0.20295 0.41957,0.40376 0.62038,0.61441 1.13523,1.19334 2.29995,2.3572 3.46039,3.52533 0.83701,0.84256 1.66974,1.68939 2.50589,2.53238 0.6191,0.62465 1.20445,1.2805 1.78723,1.93848 0.5704,0.64431 1.12968,1.29888 1.66718,1.97053 0.4247,0.53109 0.82846,1.07969 1.22624,1.63129 0.67892,0.94211 1.39885,1.8573 1.95002,2.88572 0.0436,0.0812 0.1,0.1457 0.19013,0.0773 0.10212,-0.0773 0.1974,-0.0756 0.30891,-0.0312 0.11493,0.0461 0.14741,0.006 0.1128,-0.11451 -0.13288,-0.4623 -0.35036,-0.88785 -0.57381,-1.30956 -0.10554,-0.1991 -0.14826,-0.41658 -0.2303,-0.62123 -0.36402,-0.90836 -0.68319,-1.83082 -0.95065,-2.7725 -0.25294,-0.89042 -0.57553,-1.76288 -0.79087,-2.66184 -0.17133,-0.71738 -0.36872,-1.4309 -0.49135,-2.16109 -0.0449,-0.26747 -0.12048,-0.53194 -0.18457,-0.79514 -0.0914,-0.37385 -0.12562,-0.75625 -0.21962,-1.12839 -0.062,-0.24482 -0.0684,-0.50417 -0.0974,-0.75711 -0.0218,-0.1897 -0.0342,-0.38454 -0.0726,-0.5674 -0.0662,-0.31575 -0.0406,-0.63662 -0.10083,-0.94981 -0.009,-0.0491 0.004,-0.097 0.0551,-0.11621 0.0726,-0.0274 0.12091,0.012 0.16236,0.0684 0.21961,0.30037 0.43623,0.60287 0.66012,0.89981 0.64089,0.85025 1.23478,1.73426 1.88336,2.57938 0.70499,0.91904 1.36297,1.87226 2.02779,2.82035 0.0602,0.0855 0.11322,0.17604 0.17218,0.26234 0.0406,0.0594 0.0872,0.0936 0.11195,-0.01 0.0414,-0.1739 0.0931,-0.34438 0.0402,-0.52938 -0.10212,-0.35805 -0.16322,-0.73361 -0.28712,-1.07841 -0.17774,-0.49391 -0.30763,-1.0015 -0.4858,-1.49371 -0.0884,-0.24482 -0.0807,-0.50416 -0.15766,-0.74984 -0.14313,-0.4576 -0.19397,-0.93271 -0.24909,-1.40697 -0.0342,-0.29396 -0.10596,-0.58407 -0.13031,-0.87888 -0.0201,-0.24183 -0.0654,-0.48067 -0.0671,-0.72634 -0.003,-0.3119 -0.0504,-0.62338 -0.0696,-0.93528 -0.0179,-0.28968 -0.0145,-0.58107 -0.0367,-0.87033 -0.0312,-0.40034 -0.006,-0.80154 -0.0273,-1.20146 -8.5e-4,-0.0175 -0.003,-0.035 -0.003,-0.0526 0.003,-0.085 -0.0308,-0.19654 0.0645,-0.23628 0.11067,-0.0461 0.1457,0.079 0.18714,0.14271 0.39009,0.59816 0.78574,1.19248 1.15105,1.80646 0.30805,0.51827 0.63662,1.02457 0.93955,1.54583 0.39436,0.67764 0.81136,1.34118 1.19291,2.02693 0.27601,0.49648 0.54946,0.99466 0.82034,1.49371 0.18501,0.34095 0.33369,0.70156 0.49947,1.05319 0.15809,0.33583 0.32258,0.66867 0.47426,1.00749 0.10895,0.24396 0.21961,0.49007 0.29524,0.74514 0.0521,0.17603 0.21149,0.17091 0.31916,0.24696 0.047,0.0333 0.0765,-0.0645 0.0867,-0.12134 0.0752,-0.41188 0.1474,-0.82462 0.22559,-1.23564 0.24226,-1.26854 0.46401,-2.54178 0.73788,-3.80348 0.232,-1.06901 0.42812,-2.14486 0.65927,-3.21387 0.17475,-0.80667 0.29737,-1.62487 0.47597,-2.4306896 0.15765,-0.70968 0.28455,-1.42534 0.42469,-2.13801 0.038,-0.19227 0.0556,-0.39095 0.0884,-0.58578 0.0124,-0.0718 0.0406,-0.1474 0.12091,-0.15125 0.0743,-0.003 0.0709,0.0795 0.091,0.13074 0.19782,0.50503 0.4012,1.00791 0.5909,1.51593 0.14826,0.39735 0.28028,0.80069 0.41914,1.20188 0.17134,0.4939196 0.35591,0.9835596 0.50887,1.4830296 0.0936,0.30506 0.21321,0.60115 0.28413,0.91519 0.0739,0.32771 0.20381,0.6426 0.29438,0.96732 0.19526,0.70028 0.39095,1.40099 0.5657,2.1064 0.0726,0.29396 0.14527,0.58834 0.23243,0.87802 0.12818,0.42684 0.1474,0.87162 0.23798,1.30486 0.12476,0.59731 0.21534,1.20274 0.30122,1.80732 0.0752,0.52895 0.11365,1.06217 0.15724,1.59454 0.0299,0.36317 0.0513,0.72848 0.0718,1.09122 0.0299,0.52596 0.0346,1.05619 -4.2e-4,1.58429 -0.0504,0.76608 -0.15254,1.52575 -0.31618,2.27645 -0.16364,0.75027 -0.30207,1.50738 -0.49989,2.2491 -0.0957,0.35976 -0.0778,0.69174 -0.012,1.04337 0.0466,0.24995 0.0461,0.50845 0.0743,0.76224 0.0295,0.26447 0.0688,0.52809 0.138,0.79641 0.0598,-0.18244 0.12647,-0.36317 0.17817,-0.54817 0.24738,-0.88486 0.49733,-1.76929 0.73361,-2.65714 0.43111,-1.61932 0.86221,-3.23822 1.27537,-4.86224 0.21833,-0.85751 0.4435,-1.71289 0.66226,-2.56998 0.16706,-0.65413 0.30293,-1.31596 0.47554,-1.96839 0.26234,-0.99082 0.45375,-1.99745 0.67892,-2.99638 0.24439,-1.08397 0.41487,-2.18288 0.60799,-3.27667 0.141,-0.80069 0.24269,-1.6077896 0.33797,-2.4153096 0.044,-0.37471 0.11664,-0.74643 0.18244,-1.11857 0.0188,-0.10596 -0.01,-0.20936 0.004,-0.31361 0.006,-0.0419 0.0171,-0.085 0.0679,-0.0876 0.0402,-0.002 0.0602,0.0329 0.0713,0.0667 0.0833,0.25251 0.20039,0.48964 0.27046,0.75155 0.0897,0.33412 0.18586,0.67166 0.27473,1.00535 0.0966,0.36275 0.22089,0.7246396 0.25593,1.1040396 0.0372,0.40249 0.20466,0.77634 0.26063,1.17583 0.1427,1.02543 0.39052,2.03462 0.43965,3.075 0.0145,0.30592 0.0649,0.61184 0.0893,0.91947 0.0226,0.28712 -0.004,0.56911 -0.0154,0.85324 -0.002,0.0581 -0.009,0.11621 -0.009,0.17432 0,0.035 0.009,0.0722 0.05,0.0829 0.0406,0.0107 0.0594,-0.0184 0.0833,-0.047 0.13758,-0.1662 0.16022,-0.38283 0.18244,-0.57253 0.0256,-0.22004 0.11493,-0.40974 0.17859,-0.60928 0.28413,-0.88656 0.57211,-1.7727 0.88486,-2.64944 0.42812,-1.20018 0.90024,-2.38327 1.39886,-3.5569596 0.32771,-0.77163 0.66866,-1.53686 1.00919,-2.30251 0.279,-0.62722 0.59304,-1.23863 0.89084,-1.85773 0.35334,-0.73404 0.70455,-1.46935 1.06004,-2.20253 0.0863,-0.17817 0.18543,-0.34993 0.28028,-0.5234 0.0192,-0.0355 0.0453,-0.0765 0.0936,-0.0624 0.0508,0.0145 0.0423,0.0641 0.0414,0.1034 -0.0107,0.58748 0.008,1.17454 -8e-4,1.76245 -0.006,0.36574 -0.012,0.7319 -0.0162,1.09806 -0.006,0.51101 -0.0295,1.02159 -0.0594,1.53174 -0.029,0.49135 -0.0731,0.98184 -0.11707,1.47191 -0.0338,0.37514 -0.0692,0.7507 -0.11835,1.12413 -0.0919,0.6972896 -0.18629,1.3945796 -0.31404,2.0863096 -0.079,0.42855 -0.16193,0.85666 -0.24311,1.28478 -0.0282,0.14911 -0.0427,0.29524 -0.009,0.44905 0.0397,0.18372 -0.0427,0.35634 -0.0974,0.52596 -0.0957,0.29695 -0.13288,0.59774 -0.13416,0.90964 -8.1e-4,0.23756 -0.0244,0.47768 -0.0675,0.71139 -0.0615,0.32985 -0.0508,0.66824 -0.15552,0.99381 -0.15083,0.46999 -0.19441,0.96689 -0.3384,1.43944 -0.0184,0.0607 -0.0252,0.12562 -0.0333,0.18885 -0.004,0.0299 0.007,0.0628 0.041,0.0658 0.0179,0.002 0.0436,-0.0154 0.056,-0.0312 0.0248,-0.032 0.0474,-0.0671 0.0632,-0.10425 0.29609,-0.69216 0.80582,-1.25017 1.18864,-1.88807 0.28712,-0.47896 0.6127,-0.93356 0.90067,-1.41381 0.54519,-0.90878 1.11558,-1.80347 1.62018,-2.73575 0.43196,-0.79855 0.83358,-1.61334 1.24247,-2.4247096 0.46999,-0.93271 0.86393,-1.89704 1.26641,-2.8571 0.3935,-0.93869 0.76906,-1.88593 1.10917,-2.84641 0.0833,-0.23585 0.17774,-0.46828 0.26874,-0.70114 0.0201,-0.0517 0.0325,-0.12775 0.10853,-0.11365 0.0658,0.012 0.0517,0.0825 0.0547,0.13245 0.0598,1.04081 0.1333,2.08162 0.17304,3.12328 0.0256,0.67935 0.0167,1.36083 -0.003,2.0406 -0.0196,0.6896 -0.0615,1.37878 -0.11194,2.0666696 -0.0419,0.5674 -0.1222,1.13181 -0.16578,1.69879 -0.0773,1.00449 -0.26405,1.99317 -0.41701,2.98613 -0.0795,0.51656 -0.21106,1.025 -0.31361,1.53814 -0.16065,0.80496 -0.35548,1.60223 -0.56313,2.39566 -0.17389,0.66396 -0.37257,1.32152 -0.58748,1.97394 -0.0466,0.141 -0.0816,0.28584 -0.1081,0.43538 0.16706,-0.33283 0.38026,-0.63576 0.56313,-0.95749 0.40248,-0.7084 0.79129,-1.4262 1.22411,-2.1158 0.61568,-0.98057 1.2335,-1.95985 1.88038,-2.92076 0.43836,-0.65157 0.83999,-1.32793 1.25016,-1.99787 0.14912,-0.24354 0.30421,-0.48238 0.467,-0.71695 0.0325,-0.0466 0.0684,-0.11194 0.13629,-0.0803 0.0671,0.0316 0.0167,0.0914 0.008,0.13928 -0.13801,0.76138 -0.26448,1.5249 -0.41658,2.28329 -0.17603,0.87888 -0.40334,1.74579 -0.66098,2.60501 -0.19526,0.652 -0.40504,1.29888 -0.6332,1.93934 -0.20893,0.58663 -0.44307,1.16557 -0.73403,1.71759 -0.41017,0.77805 -0.82975,1.55096 -1.25017,2.32345 -0.30293,0.55672 -0.70626,1.03825 -1.14292,1.49371 -0.19142,0.19996 -0.33669,0.43666 -0.44521,0.68533 -0.088,0.20209 -0.22004,0.35334 -0.373,0.49605 -0.41743,0.38966 -0.83444,0.77975 -1.22581,1.1959 -0.21705,0.23072 -0.39479,0.49691 -0.63406,0.70883 -0.0555,0.0491 -0.12177,0.1333 0.009,0.18628 0.0556,0.0226 0.0372,0.0513 0.0111,0.0761 -0.20081,0.19269 -0.3589,0.43965 -0.65499,0.511 -0.11194,0.0273 -0.20808,0.0978 -0.27131,0.18244 -0.13245,0.17817 -0.32344,0.29609 -0.45076,0.47896 -0.19526,0.27986 -0.54262,0.41402 -0.72335,0.70157 -0.37856,0.60201 -1.03099,0.87204 -1.53815,1.31639 -0.0743,0.0654 -0.15167,0.12775 -0.22046,0.19867 -0.0427,0.044 -0.0914,0.0936 -0.003,0.15553 0.0825,0.0585 -0.004,0.11792 -0.0363,0.13544 -0.24269,0.13331 -0.40248,0.37044 -0.63919,0.50673 -0.28028,0.16151 -0.36531,0.45674 -0.51186,0.71096 -0.0145,0.0256 -0.0214,0.0602 0.008,0.0782 0.0419,0.0256 0.0799,-0.003 0.11151,-0.0269 0.2397,-0.18629 0.50673,-0.33113 0.75925,-0.49776 0.89981,-0.59262 1.81671,-1.16045 2.69516,-1.78211 0.7225,-0.51101 1.48046,-0.97245 2.17177,-1.52575 0.18543,-0.14826 0.31233,-0.36275 0.4999,-0.52041 0.87161,-0.73275 1.75476,-1.45311 2.59476,-2.2209 0.90066,-0.82333 1.77527,-1.677 2.59176,-2.5875 0.99467,-1.11002 1.96028,-2.24312 2.87078,-3.42407 0.34864,-0.45247 0.66524,-0.9263 1.0015,-1.38689 0.0342,-0.0466 0.0649,-0.11024 0.13544,-0.0842 0.0705,0.0265 0.0577,0.0927 0.044,0.15082 -0.12775,0.53194 -0.20039,1.07456 -0.30763,1.61078 -0.18714,0.93698 -0.43965,1.8573 -0.72891,2.7678 -0.22773,0.71609 -0.47725,1.42491 -0.7601,2.1205 -0.25422,0.62508 -0.49861,1.25743 -0.82803,1.84747 -0.5469,0.97971 -1.08311,1.96498 -1.76032,2.86821 -0.61568,0.82162 -1.24803,1.62787 -1.99787,2.32858 -0.21748,0.20295 -0.42428,0.43452 -0.70755,0.57295 -0.15082,0.0739 -0.26447,0.22432 -0.39351,0.34139 -0.0256,0.0235 -0.0508,0.053 -0.0376,0.0914 0.0171,0.0496 0.0637,0.0444 0.1034,0.0431 0.27986,-0.007 0.56185,-0.008 0.8353,-0.0667 0.48921,-0.10553 0.9827,-0.16877 1.48089,-0.20722 0.12689,-0.01 0.25123,-0.0487 0.37727,-0.0701 0.80581,-0.13715 1.61932,-0.24098 2.40462,-0.47854 0.61313,-0.18543 1.22924,-0.36445 1.82868,-0.58833 0.43966,-0.1645 0.86564,-0.37001 1.28563,-0.58493 0.47982,-0.24524 0.96177,-0.48536 1.41595,-0.77889 0.2038,-0.1316 0.42384,-0.2397 0.62636,-0.37557 0.0346,-0.0231 0.0778,-0.0397 0.11408,-0.0107 0.0474,0.038 0.0222,0.0855 0,0.12647 -0.32813,0.60287 -0.61483,1.22752 -0.98056,1.81116 -0.70114,1.11815 -1.5766,2.0876 -2.53238,2.98699 -0.59261,0.55757 -1.22154,1.072 -1.9167,1.50524 -0.36402,0.22688 -0.74429,0.42299 -1.10917,0.64516 -0.30378,0.18501 -0.62124,0.34267 -0.94425,0.47768 -0.30506,0.12733 -0.59304,0.2931 -0.91348,0.38796 -0.59646,0.17646 -1.18608,0.37513 -1.79664,0.50331 -0.63747,0.13373 -1.27067,0.28669 -1.91797,0.36616 -0.20979,0.0256 -0.33156,0.18458 -0.47213,0.30891 -0.0816,0.0722 -0.002,0.0872 0.0628,0.0919 0.35292,0.0265 0.70541,0.0556 1.05833,0.0816 1.04807,0.0778 2.09572,0.16407 3.14464,0.22773 0.75882,0.0457 1.51764,0.0966 2.27901,0.0949 0.59048,-0.001 1.18138,0.015 1.77186,0.007 0.56142,-0.008 1.12242,-0.0359 1.68384,-0.0662 0.39393,-0.0214 0.78616,-0.0628 1.17924,-0.091 0.30549,-0.0218 0.6097,-0.0765 0.91562,-0.11024 0.40974,-0.0449 0.82162,-0.0846 1.21769,-0.21448 0.0667,-0.0218 0.16108,-0.0449 0.20509,0.0397 0.0402,0.0769 -0.0179,0.14057 -0.0649,0.20253 -0.46828,0.62209 -1.09807,1.06858 -1.68854,1.55822 -0.36189,0.30036 -0.72976,0.59347 -1.1237,0.85025 -0.34053,0.22175 -0.69772,0.41615 -1.06132,0.59817 -0.37812,0.18927 -0.75497,0.38325 -1.14378,0.54817 -0.19098,0.0812 -0.3747,0.1786 -0.57466,0.24525 -0.18928,0.0632 -0.36232,0.17518 -0.55459,0.24653 -0.49647,0.185 -0.99338,0.36531 -1.50994,0.48537 -0.13587,0.0316 -0.2743,0.0525 -0.4106,0.0837 -0.0414,0.009 -0.0953,0.006 -0.12305,0.0791 0.35206,0.0436 0.66738,0.1944 0.99808,0.29694 0.44436,0.13758 0.8823,0.29609 1.32665,0.43367 1.04466,0.32301 2.08931,0.64602 3.13866,0.95322 0.83829,0.24525 1.68384,0.45675 2.53281,0.6567 0.92673,0.21791 1.86201,0.39223 2.79984,0.55331 0.326,0.056 0.65585,0.0692 0.98313,0.10639 0.0231,0.003 0.0479,-4.2e-4 0.0697,0.006 0.0901,0.0269 0.22858,-4.2e-4 0.24567,0.12091 0.0154,0.10682 -0.11066,0.13715 -0.19013,0.17732 -0.40932,0.20679 -0.83017,0.38368 -1.25871,0.54945 -0.51912,0.20082 -1.04337,0.39009 -1.57104,0.55801 -0.55672,0.17731 -1.13011,0.30891 -1.70948,0.41401 -0.54005,0.0978 -1.08524,0.14655 -1.62829,0.18629 -0.68191,0.05 -1.36681,0.0786 -2.05342,0.0337 -0.52767,-0.0346 -1.05533,-0.0594 -1.58044,-0.12476 -0.59346,-0.0739 -1.18394,-0.16577 -1.77313,-0.27045 -0.80325,-0.14314 -1.59582,-0.32985 -2.37857,-0.55758 -0.69387,-0.20209 -1.36937,-0.45076 -2.01667,-0.77975 -0.46614,-0.23713 -0.94211,-0.46016 -1.44671,-0.60842 -0.30036,-0.088 -0.36958,-0.0397 -0.32045,0.26875 0.0295,0.18543 0.0782,0.38325 0.27943,0.49562 0.23841,0.13288 0.46401,0.28925 0.69559,0.43538 0.0149,0.009 0.0295,0.0214 0.0457,0.0252 0.72207,0.17346 1.32836,0.59645 1.97822,0.92331 0.84256,0.42384 1.67401,0.86905 2.50931,1.30614 0.53621,0.28071 1.06773,0.57125 1.60778,0.84384 0.83103,0.41914 1.64881,0.86392 2.50547,1.23308 0.48579,0.20935 0.95364,0.46058 1.44286,0.66439 0.76223,0.31788 1.52575,0.63234 2.2961,0.93186 0.6943,0.27002 1.38988,0.53535 2.08931,0.78957 0.84213,0.30592 1.69452,0.58279 2.5499,0.8494 0.51057,0.15937 1.03055,0.29353 1.52019,0.514 0.0897,0.0406 0.24311,0.0611 0.22389,0.17945 -0.0162,0.10083 -0.16023,0.0521 -0.24696,0.0602 -0.71908,0.0649 -1.43773,0.12604 -2.15938,0.16492 -0.63277,0.0342 -1.26683,0.0786 -1.8996,0.0957 -0.42171,0.0115 -0.84641,0.0372 -1.27111,-10e-4 -0.25251,-0.0226 -0.50758,0.0209 -0.76522,-0.002 -0.33925,-0.0303 -0.68277,-0.0167 -1.02415,-0.0248 -0.3589,-0.009 -0.71822,-0.0222 -1.07584,-0.0423 -0.48623,-0.0269 -0.97074,-0.0859 -1.45611,-0.1316 -0.56057,-0.0525 -1.11472,-0.15595 -1.67273,-0.22987 -0.75924,-0.1004 -1.50909,-0.26405 -2.25637,-0.43666 -0.49946,-0.11536 -0.9921,-0.25208 -1.48815,-0.37941 -0.0359,-0.009 -0.0739,-0.041 -0.13758,0.015 0.21705,0.11365 0.39949,0.26276 0.59475,0.39265 1.34759,0.89682 2.73106,1.73682 4.11239,2.58023 1.09849,0.6708 2.20681,1.32579 3.32794,1.95857 0.86179,0.48665 1.72016,0.98014 2.59049,1.45141 0.93186,0.50459 1.8761,0.98612 2.8148,1.47832 0.23713,0.12433 0.47426,0.24909 0.71053,0.37471 0.0517,0.0273 0.11195,0.0577 0.0944,0.12946 -0.0192,0.0778 -0.0897,0.0854 -0.15552,0.0812 -0.4952,-0.0308 -0.98997,0.0325 -1.48474,0.0107 -0.62722,-0.0273 -1.25615,-0.0363 -1.8808,-0.0936 -0.64004,-0.059 -1.27965,-0.12519 -1.91627,-0.2273 -0.97971,-0.15723 -1.95558,-0.33497 -2.92332,-0.55117 -1.14165,-0.25507 -2.25979,-0.59475 -3.36853,-0.96689 -0.77762,-0.26106 -1.55652,-0.52211 -2.31405,-0.83572 -0.60714,-0.25123 -1.20445,-0.52596 -1.79065,-0.82676 -0.41487,-0.21277 -0.82334,-0.43623 -1.22924,-0.66396 -0.62422,-0.35035 -1.2194,-0.74899 -1.815,-1.14677 -0.41615,-0.27815 -0.8212,-0.5721 -1.23094,-0.85879 -0.34779,-0.24354 -0.67636,-0.51443 -1.01475,-0.77121 -0.24567,-0.18629 -0.49306,-0.37001 -0.74002,-0.55416 -0.032,-0.0239 -0.0667,-0.0483 -0.11835,-0.01 0.32301,0.42 0.67038,0.81522 1.06517,1.16685 0.62508,0.55715 1.23991,1.12797 1.88337,1.66376 0.60286,0.50203 1.21769,0.99125 1.84149,1.4685 0.62893,0.48109 1.2382,0.9874 1.85474,1.4843 0.38967,0.31361 0.77933,0.62765 1.16557,0.94553 0.89426,0.73575 1.81287,1.4403 2.75712,2.10982 0.978,0.69344 1.95942,1.38219 2.96904,2.03077 0.57809,0.37129 1.14122,0.76523 1.74494,1.09507 0.0555,0.0303 0.12604,0.0667 0.094,0.14442 -0.0291,0.0709 -0.0983,0.0346 -0.15467,0.0286 -0.35762,-0.0372 -0.71567,-0.0696 -1.07328,-0.10896 -0.61184,-0.0671 -1.2224,-0.14569 -1.82569,-0.27003 -0.46059,-0.0944 -0.9246,-0.16705 -1.38476,-0.26575 -0.59774,-0.12775 -1.1865,-0.28499 -1.77185,-0.45888 -1.16771,-0.34694 -2.30166,-0.7836 -3.42279,-1.25786 -1.07371,-0.45418 -2.13076,-0.9451 -3.12542,-1.55267 -0.74002,-0.45204 -1.44585,-0.95621 -2.10213,-1.52917 -0.46913,-0.40974 -0.91904,-0.83957 -1.38304,-1.25444 -0.004,-0.004 -0.01,-0.007 -0.0128,-0.012 -0.35164,-0.53664 -0.9152,-0.8118 -1.42065,-1.15916 -0.18671,-0.12818 -0.36146,-0.27516 -0.53749,-0.41872 -0.12775,-0.10468 -0.2679,-0.18927 -0.41915,-0.24866 -0.1051,-0.041 -0.20294,-0.0812 -0.27772,-0.16963 -0.0782,-0.0927 -0.1756,-0.0577 -0.25336,-0.008 -0.0901,0.0577 -0.0107,0.12476 0.0184,0.17987 0.0513,0.0979 0.10981,0.19099 0.20893,0.25251 0.22047,0.13673 0.27473,0.39778 0.42812,0.58236 0.42512,0.51058 0.79513,1.05961 1.17069,1.60565 0.28285,0.41145 0.56698,0.82162 0.8447,1.23649 0.46828,0.69986 0.92844,1.40484 1.39885,2.10341 0.32729,0.48623 0.66525,0.96476 0.99851,1.44671 0.66397,0.96006 1.32494,1.92268 1.99275,2.87974 0.34608,0.49563 0.70498,0.98228 1.05833,1.47277 0.003,0.005 0.008,0.009 0.0107,0.0137 0.0462,0.0846 0.14185,0.17262 0.0701,0.2679 -0.079,0.10467 -0.185,0.0201 -0.26832,-0.0188 -1.02713,-0.48196 -2.06153,-0.94981 -3.06773,-1.47448 -0.75455,-0.39351 -1.47534,-0.84427 -2.18502,-1.31426 -0.54903,-0.3636 -1.07798,-0.75369 -1.59155,-1.16514 -1.12626,-0.90195 -2.13417,-1.9214 -3.04808,-3.03868 -0.59347,-0.7255 -1.12755,-1.49286 -1.64539,-2.27175 -0.17261,-0.25978 -0.31574,-0.53964 -0.47511,-0.80838 -0.0346,-0.0585 -0.0829,-0.10938 -0.12647,-0.16621 -0.0158,0.0188 -0.0303,0.0295 -0.0286,0.035 0.12476,0.3965 0.13545,0.8135 0.21449,1.21812 0.059,0.30122 0.0769,0.61098 0.13459,0.91263 0.0538,0.28071 0.0782,0.56399 0.1098,0.84641 0.0568,0.51228 0.079,1.02927 0.15424,1.53856 0.0688,0.46615 0.0739,0.93528 0.10767,1.4027 0.0414,0.57168 0.0333,1.1472 0.0453,1.72101 0.009,0.42385 0.0197,0.84769 0.006,1.27153 -0.0175,0.53365 -0.0218,1.06773 -0.0419,1.60095 -0.0252,0.6661 -0.0551,1.33263 -0.11793,1.9966 -0.0201,0.21363 -0.0607,0.42555 -0.0115,0.64046 0.0111,0.0474 0.003,0.0966 -0.0466,0.12049 -0.0594,0.0282 -0.10553,-0.004 -0.13245,-0.0513 -0.0825,-0.14613 -0.16321,-0.29396 -0.23756,-0.44436 -0.30848,-0.62465 -0.62893,-1.24418 -0.9169,-1.87866 -0.18885,-0.41659 -0.40035,-0.82163 -0.58962,-1.23821 -0.24397,-0.53792 -0.47939,-1.08012 -0.7507,-1.60607 -0.18329,-0.35506 -0.31703,-0.73532 -0.47212,-1.10448 -0.16194,-0.38581 -0.32515,-0.77077 -0.48281,-1.1583 -0.11109,-0.27345 -0.23414,-0.54476 -0.31489,-0.82761 -0.0726,-0.25379 -0.21235,-0.4734 -0.30549,-0.77035 -0.0432,0.3401 -0.076,0.63021 -0.11707,0.91904 -0.11964,0.84427 -0.35249,1.66034 -0.61398,2.47043 -0.35462,1.09934 -0.84427,2.14058 -1.33348,3.18309 -0.36445,0.77677 -0.81265,1.50525 -1.25017,2.24056 -0.38111,0.64047 -0.7712,1.27495 -1.19633,1.88679 -0.2226,0.32002 -0.47554,0.61825 -0.68276,0.9498 -0.0308,0.0491 -0.0748,0.0979 -0.14271,0.0782 -0.0718,-0.0209 -0.0713,-0.0919 -0.0675,-0.14655 0.0175,-0.24867 0.0355,-0.49733 0.0654,-0.74472 0.0551,-0.46144 0.0949,-0.92373 0.12134,-1.38774 0.0192,-0.34224 0.0611,-0.68277 0.0872,-1.02457 0.0278,-0.36959 0.05,-0.73917 0.0731,-1.10875 0.0286,-0.46315 0.0585,-0.9263 0.0825,-1.38988 0.0291,-0.56698 0.05,-1.13438 0.079,-1.70136 0.0269,-0.52723 0.0611,-1.05448 0.088,-1.58172 0.0214,-0.42299 0.0346,-0.84597 0.0543,-1.26896 0.0252,-0.54989 0.0611,-1.09977 0.0761,-1.65009 0.006,-0.19782 0.0149,-0.39393 0.0355,-0.59047 0.004,-0.0385 0.006,-0.0825 -0.0432,-0.10938 -0.0842,0.0504 -0.0837,0.14441 -0.11152,0.22346 -0.2931,0.84042 -0.60244,1.67486 -0.94211,2.49777 -0.32899,0.79641 -0.73147,1.55822 -1.10234,2.33498 -0.29438,0.61697 -0.63832,1.2036 -0.98782,1.78809 -0.33711,0.56441 -0.70541,1.10917 -1.08482,1.64667 -0.34224,0.48494 -0.67977,0.97287 -1.04978,1.4373 -0.72165,0.90623 -1.46252,1.79621 -2.26278,2.6345 -0.47383,0.49605 -0.97287,0.96775 -1.48003,1.43047 -0.0513,0.047 -0.0931,0.10425 -0.14485,0.1504 -0.0389,0.0346 -0.0897,0.0679 -0.14056,0.0243 -0.041,-0.0355 -0.0295,-0.0889 -0.01,-0.13074 0.0696,-0.14698 0.13117,-0.29738 0.19312,-0.44777 0.35249,-0.85538 0.68832,-1.71717 1.02158,-2.58023 0.38967,-1.00962 0.76694,-2.02394 1.11686,-3.04809 0.30635,-0.89767 0.58493,-1.80432 0.87888,-2.70627 0.44393,-1.36169 0.81137,-2.74473 1.15617,-4.13419 0.0752,-0.30378 0.16065,-0.60542 0.25379,-0.95492 -0.14099,0.11621 -0.1897,0.23969 -0.25165,0.3495 -0.44136,0.78146 -0.86606,1.57232 -1.3211,2.34566 -0.26832,0.45589 -0.59047,0.87931 -0.87246,1.3275 -0.29481,0.46828 -0.61569,0.91819 -0.93442,1.36895 -0.49819,0.70327 -1.03312,1.37963 -1.58771,2.03974 -0.37812,0.45034 -0.75027,0.90623 -1.14335,1.34331 -0.78103,0.8682 -1.57574,1.72401 -2.41104,2.54178 -0.52254,0.51186 -1.04294,1.02586 -1.59155,1.50952 -0.41786,0.3683 -0.84298,0.72933 -1.25785,1.1002 -0.40291,0.35975 -0.82889,0.69088 -1.24163,1.03739 -0.22431,0.18799 -0.46101,0.36958 -0.69771,0.54732 -0.34908,0.26234 -0.70627,0.51143 -1.07158,0.74942 -0.0833,0.0543 -0.18884,0.17902 -0.2696,0.10596 -0.0893,-0.0812 0.0175,-0.20381 0.0692,-0.29609 0.67294,-1.19933 1.33476,-2.40506 2.02736,-3.59285 1.00064,-1.71588 1.9654,-3.45184 2.94084,-5.18225 0.73189,-1.29888 1.3903,-2.63706 2.0846,-3.95602 0.34181,-0.64901 0.68063,-1.29972 1.01902,-1.95087 0.43239,-0.83145 0.86307,-1.66418 1.29375,-2.49649 0.0179,-0.0346 0.0291,-0.0726 0.059,-0.14741 -0.16321,0.0816 -0.2508,0.19654 -0.35847,0.28371 -0.58834,0.47725 -1.01987,1.09464 -1.50011,1.67016 -0.60415,0.72378 -1.22924,1.42962 -1.85816,2.13289 -0.48922,0.54689 -0.99253,1.07969 -1.51251,1.59625 -0.37044,0.36787 -0.75711,0.71951 -1.14207,1.07243 -0.39778,0.36488 -0.79257,0.73318 -1.2053,1.08054 -0.39907,0.33583 -0.79001,0.68105 -1.19463,1.01047 -0.3824,0.31148 -0.77505,0.61056 -1.15873,0.92032 -0.34224,0.27602 -0.71096,0.51956 -1.05534,0.79343 -0.31446,0.24995 -0.64858,0.47597 -0.98056,0.69473 -0.54391,0.35761 -1.06858,0.74728 -1.6394,1.06601 -0.49819,0.27815 -0.98142,0.58364 -1.47107,0.87674 -0.035,0.0209 -0.0701,0.0419 -0.10681,0.0594 -0.0316,0.015 -0.0701,0.0295 -0.0991,0.004 -0.0397,-0.0355 -0.01,-0.0748 0.007,-0.11066 0.0837,-0.18202 0.21961,-0.32814 0.33454,-0.48836 0.93442,-1.29973 1.85133,-2.61142 2.75456,-3.93337 0.65371,-0.95621 1.27751,-1.93165 1.89234,-2.91264 0.38923,-0.62167 0.77163,-1.24804 1.14378,-1.87995 0.33369,-0.56698 0.64046,-1.15019 0.97672,-1.71546 0.24055,-0.40504 0.47682,-0.81393 0.7037,-1.22538 0.40547,-0.73447 0.81308,-1.46765 1.22325,-2.19912 0.0953,-0.17005 0.21534,-0.32686 0.28754,-0.56441 -0.31574,0.2884 -0.59218,0.55116 -0.8793,0.80069 -0.44734,0.38838 -0.90024,0.76992 -1.36724,1.13523 -0.35676,0.279 -0.72976,0.53536 -1.10532,0.78488 -0.39992,0.26575 -0.82034,0.50075 -1.24761,0.72378 -0.36018,0.18799 -0.68703,0.43581 -1.06772,0.5909 -0.60842,0.24739 -1.17882,0.5815 -1.82142,0.75369 -0.45802,0.12263 -0.89938,0.30592 -1.35484,0.43923 -0.28242,0.0829 -0.57424,0.138 -0.86264,0.20252 -0.33412,0.0752 -0.66952,0.12561 -1.00834,0.1615 -0.53365,0.0568 -1.06559,0.14869 -1.60608,0.085 -0.0585,-0.007 -0.12177,-0.0137 -0.13843,-0.0837 -0.0158,-0.0658 0.0402,-0.0897 0.0842,-0.1175 0.3495,-0.22303 0.62807,-0.53152 0.94938,-0.78873 0.27131,-0.21705 0.52467,-0.45588 0.78445,-0.68703 0.44691,-0.39778 0.88144,-0.80838 1.2993,-1.23735 0.37642,-0.38667 0.7742,-0.75284 1.1519,-1.13866 0.95236,-0.97287 1.87012,-1.97693 2.76181,-3.00578 0.62893,-0.72506 1.28649,-1.42534 1.93422,-2.13332 0.12818,-0.14014 0.27131,-0.26703 0.40333,-0.39607 -0.0209,-0.0436 -0.047,-0.0385 -0.0675,-0.032 -0.42726,0.1363 -0.86392,0.24012 -1.29246,0.37471 -0.36317,0.11408 -0.74215,0.18329 -1.11814,0.25165 -0.47341,0.0859 -0.94852,0.17817 -1.42663,0.21705 -0.54775,0.0444 -1.09422,0.10725 -1.64667,0.11109 -0.54604,0.004 -1.09165,0.008 -1.63598,-0.0192 -0.82205,-0.041 -1.62915,-0.18842 -2.423,-0.40419 -0.29182,-0.0795 -0.59389,-0.12305 -0.87247,-0.24866 -0.0748,-0.0338 -0.16706,-0.0598 -0.16065,-0.1598 0.007,-0.10767 0.11365,-0.11664 0.18714,-0.12091 0.52126,-0.0291 1.01518,-0.19569 1.51977,-0.30336 0.37257,-0.0795 0.73147,-0.232 1.09037,-0.3683 0.47341,-0.17945 0.94425,-0.36659 1.40954,-0.56569 0.47511,-0.20295 0.95322,-0.40334 1.40953,-0.64431 0.40419,-0.21321 0.80625,-0.4341 1.19933,-0.66995 0.28113,-0.16877 0.57851,-0.31403 0.86306,-0.47981 0.44564,-0.25935 0.88828,-0.5234 1.31982,-0.80539 0.47554,-0.31105 0.95877,-0.61013 1.42833,-0.92929 0.35975,-0.24483 0.72079,-0.48836 1.06687,-0.75369 0.53365,-0.40932 1.05876,-0.82804 1.60864,-1.29546 -0.16193,0.009 -0.26319,0.062 -0.37001,0.0949 -0.41658,0.12818 -0.80581,0.326 -1.23094,0.43837 -0.78146,0.2068 -1.57146,0.36915 -2.36617,0.50802 -0.34608,0.0607 -0.70541,0.0427 -1.0532,0.0966 -0.4435,0.0684 -0.89041,0.0786 -1.33519,0.0987 -0.95365,0.0423 -1.90644,0.0188 -2.84813,-0.16535 -0.62764,-0.12305 -1.25273,-0.25593 -1.86328,-0.44691 -0.92887,-0.29054 -1.82356,-0.66354 -2.68962,-1.11174 -0.90323,-0.46742 -1.73724,-1.03952 -2.55929,-1.62957 -0.32985,-0.23671 -0.6259403,-0.52041 -0.9369903,-0.7836 -0.0414,-0.035 -0.0769,-0.0795 -0.0466,-0.1363 0.0278,-0.0517 0.0807,-0.0367 0.12562,-0.0269 0.6259303,0.1333 1.2578603,0.22516 1.8970403,0.26063 0.77505,0.0427 1.54839,0.11237 2.32686,0.0748 0.29994,-0.0145 0.60501,-0.006 0.90281,-0.0291 0.46187,-0.0363 0.92545,-0.0363 1.38689,-0.0889 0.44905,-0.0508 0.90152,-0.0713 1.34972,-0.1333 0.28156,-0.0389 0.56185,-0.0863 0.84256,-0.12989 0.41914,-0.0649 0.83957,-0.12177 1.25657,-0.19697 0.43495,-0.0786 0.86734,-0.17261 1.29973,-0.26447 0.26191,-0.0556 0.52254,-0.11665 0.78275,-0.17988 0.12006,-0.0291 0.19098,-0.0778 0.0111,-0.16962 0.0812,-0.0423 0.13502,-0.0303 0.15467,0.0342 0.0355,0.11579 0.11152,0.10083 0.19312,0.0731 0.0769,-0.0261 0.15937,-0.0466 0.2256,-0.0901 0.18628,-0.12348 0.40205,-0.15852 0.60756,-0.22688 0.141,-0.047 0.2632,-0.13587 0.40804,-0.185 0.29096,-0.0983 0.56783,-0.23841 0.85965,-0.33198 0.1803,-0.0577 0.37343,-0.0718 0.53109,-0.22731 -0.094,-0.0731 -0.19484,-0.0461 -0.2867,-0.0534 -0.72036,-0.0555 -1.44414,-0.0248 -2.16365,-0.0748 -0.78061,-0.0543 -1.53259,-0.26874 -2.28414,-0.47468 -0.70199,-0.1927 -1.39373,-0.41616 -2.07521,-0.67251 -0.61611,-0.23201 -1.21342,-0.50545 -1.80176,-0.79813 -1.22795,-0.61055 -2.37344,-1.35527 -3.48646,-2.15297 -0.76693,-0.54946 -1.50566,-1.1331 -2.23457,-1.73254 -0.7878703,-0.64816 -1.5244703,-1.35015 -2.2469703,-2.06667 -0.63235,-0.62722 -1.21513,-1.30186 -1.78894,-1.98335 -0.0329,-0.0393 -0.0863,-0.0816 -0.0466,-0.13544 0.0414,-0.056 0.0974,-0.0115 0.14186,0.009 0.53578,0.2555 1.069,0.51699 1.60693,0.76779 0.92374,0.43111 1.87781,0.7883 2.8323103,1.14421 0.74942,0.27943 1.52832,0.47298 2.27218,0.76095 0.75668,0.2931 1.52276,0.54903 2.30721,0.74813 0.27387,0.0696 0.5657,0.062 0.83957,0.14955 0.0367,0.012 0.0859,0.0248 0.10895,-0.0231 0.0235,-0.0483 -0.001,-0.0953 -0.0359,-0.12604 -0.15253,-0.13373 -0.31147,-0.26063 -0.46272,-0.39564 -0.29481,-0.26277 -0.60971,-0.50203 -0.85239,-0.82291 -0.18671,-0.24695 -0.39479,-0.46785 -0.67806,-0.63277 -0.47555,-0.27644 -0.9152,-0.61782 -1.37365,-0.92032 -0.76864,-0.50759 -1.49029,-1.07713 -2.2491,-1.59668 -0.66397,-0.45503 -1.2446203,-1.01688 -1.8077503,-1.59069 -0.49306,-0.50246 -0.91476,-1.07158 -1.42491,-1.55908 -0.0376,-0.0363 -0.0718,-0.0765 -0.10468,-0.1175 -0.035,-0.044 -0.10169,-0.0876 -0.0671,-0.14783 0.0384,-0.0671 0.10553,-0.0158 0.15723,-0.002 0.43068,0.11365 0.83487,0.29524 1.22538,0.50332 0.85752,0.45717 1.7257103,0.88699 2.6315103,1.24504 0.55629,0.22004 1.08097,0.51869 1.65222,0.7084 0.33027,0.1098 0.6802,0.15979 0.99295,0.32514 0.0427,0.0226 0.11066,0.0517 0.14271,-0.006 0.0431,-0.0773 -0.0457,-0.0901 -0.085,-0.12476 -0.45033,-0.39693 -0.96261,-0.71353 -1.4279,-1.09208 -1.03098,-0.83786 -2.01454,-1.72614 -2.9246103,-2.69474 -0.78103,-0.83145 -1.56164,-1.6629 -2.29824,-2.53452 -0.77719,-0.91989 -1.53002,-1.85816 -2.25722,-2.81864 -0.43837,-0.57851 -0.87931,-1.15532 -1.2993,-1.74707 -0.20124,-0.28328 -0.39864,-0.5704 -0.58749,-0.86307 -0.20038,-0.31105 -0.41999,-0.61227 -0.62252,-0.92331 -0.26618,-0.40846 -0.54817,-0.80795 -0.7759,-1.24077 -0.0214,-0.0406 -0.0543,-0.088 -0.0107,-0.12732 0.0444,-0.0397 0.0923,-8.6e-4 0.12562,0.0256 0.30164,0.23756 0.60115,0.47768 0.90024,0.71823 0.88998,0.71438 1.77911,1.42962 2.6926,2.11452 1.0814,0.81094 2.20339,1.56292 3.31598,2.32857 0.43623,0.29994 0.89041,0.57424 1.3428803,0.8494 0.74087,0.45118 1.47448,0.9169 2.235,1.33305 0.66824,0.36574 1.30913,0.77933 1.99318,1.11729 0.27601,0.1363 0.53194,0.31233 0.79855,0.46785 0.54775,0.31959 1.09593,0.63961 1.64538,0.95664 1.05919,0.61098 2.11452,1.2288 3.14636,1.88422 0.57467,0.36531 1.11686,0.78061 1.68384,1.15746 0.39692,0.26362 0.80453,0.50929 1.23136,0.72762 0.66311,0.33967 1.3446,0.63748 2.01967,0.95066 0.24781,0.11194 0.50972,0.19227 0.76437,0.2884 z"
       id="path11" />
    <path
       style="fill:url(#SVGID_00000093861346841660678170000005878226037042014355_);stroke-width:0.0427261"
       d="m 38.296767,37.401884 c 0.0816,-0.21533 0.0581,-0.42939 0.0333,-0.64089 -0.10724,-0.91006 -0.30635,-1.80304 -0.51186,-2.69516 -0.22816,-0.98997 -0.40334,-1.99061 -0.58065,-2.99126 -0.17817,-1.00663 -0.42726,-2.00087 -0.5956,-3.01006 -0.17304,-1.03739 -0.39436,-2.07008 -0.49862,-3.11431 -0.0748,-0.74856 -0.32386,-1.46166 -0.35719,-2.21193 -0.0243,-0.55117 -0.0568,-1.10191 -0.0795,-1.65307 -0.0231,-0.56014 -0.0577,-1.12028 -0.053,-1.68042 0.006,-0.74515 0.003,-1.48986 0.0547,-2.23544 0.0833,-1.19761 0.16963,-2.3948 0.35292,-3.58087 0.082,-0.52981 0.15595,-1.06303 0.26533,-1.60523 0.26533,0.16236 0.39863,0.41957 0.54476,0.66482 0.61226,1.02671 1.19761,2.0688 1.77057,3.11773 0.54561,0.99936 1.02756,2.02906 1.47961,3.07415 0.74001,1.71075 1.2852,3.48218 1.71374,5.29291 0.14442,0.6097 0.31404,1.21385 0.48024,1.81843 0.22474,0.81564 0.31191,1.65521 0.44991,2.48623 0.12647,0.7601 0.20081,1.52703 0.29866,2.29055 0.0649,0.50801 0.091,1.01816 0.13587,1.52703 0.009,0.0957 0.012,0.19184 0.0179,0.28798 0.018,-4.2e-4 0.0359,-8.6e-4 0.0538,-10e-4 0.0167,-0.24696 0.0299,-0.49434 0.0504,-0.74087 0.0534,-0.64559 0.0671,-1.29802 0.17475,-1.93464 0.19996,-1.1848 0.62167,-2.30764 1.08311,-3.41296 0.46401,-1.11217 1.02586,-2.17647 1.61761,-3.2254 0.76352,-1.35271 1.67786,-2.59946 2.65287,-3.80391 1.01389,-1.25316 2.18031,-2.35635 3.38775,-3.41852 1.08696,-0.95621 2.19656,-1.88764 3.23267,-2.90068 0.27814,-0.27174 0.56355,-0.53621 0.8464,-0.80325 0.041,-0.0389 0.0816,-0.0978 0.14484,-0.0773 0.0786,0.0261 0.0641,0.10596 0.0615,0.16748 -0.0201,0.49947 -0.12818,0.98655 -0.24226,1.46978 -0.34907,1.47833 -0.90494,2.88914 -1.4984,4.27988 -0.6785,1.58941 -1.43475,3.1455 -2.13674,4.72508 -0.58236,1.30956 -1.07029,2.65629 -1.539,4.01114 -0.26533,0.76778 -0.61354,1.5078 -0.93314,2.25636 -0.44178,1.03398 -0.8934,2.06325 -1.33732,3.09637 -0.0914,0.2132 -0.21663,0.40675 -0.32558,0.60927 -0.0876,0.16279 -0.20038,0.31703 -0.20252,0.58492 0.12049,-0.15253 0.23542,-0.24653 0.28242,-0.36744 0.17005,-0.43709 0.50032,-0.75754 0.79599,-1.09507 0.77932,-0.88999 1.64923,-1.69068 2.53366,-2.47556 1.15831,-1.02799 2.46402,-1.85047 3.74196,-2.71182 0.93527,-0.63064 1.94361,-1.12498 2.95451,-1.61719 0.4012,-0.19526 0.78231,-0.43068 1.17625,-0.64175 0.88614,-0.47426 1.83124,-0.81051 2.76566,-1.17112 0.23115,-0.0893 0.45931,-0.18671 0.69943,-0.28456 0.007,0.11237 -0.056,0.15895 -0.10041,0.20979 -0.97287,1.11259 -1.84619,2.30508 -2.77036,3.45655 -0.3213,0.40034 -0.72036,0.72335 -1.05491,1.11173 -1.21342,1.40783 -2.45803,2.78874 -3.61377,4.24527 -0.77036,0.97074 -1.49627,1.9748 -2.24911,2.95836 -0.74856,0.97757 -1.53002,1.92994 -2.28927,2.89939 -0.67507,0.86222 -1.34117,1.73212 -2.00855,2.60032 -0.3777,0.49135 -0.74857,0.98783 -1.12541,1.47961 -0.23115,0.30121 -0.4012,0.65029 -0.7037,0.89682 -0.05,0.0406 -0.10083,0.10297 -0.10895,0.19611 0.14399,0.0149 0.25336,-0.0624 0.35505,-0.13202 0.83786,-0.57424 1.75647,-0.97288 2.69987,-1.3446 1.00492,-0.39607 2.01454,-0.78146 3.01476,-1.18949 0.71523,-0.29182 1.47747,-0.43837 2.20595,-0.69217 0.96817,-0.33753 1.96326,-0.60414 2.98057,-0.71139 0.98099,-0.10382 1.96113,-0.21918 2.94084,-0.33411 0.84726,-0.0991 1.69324,-0.13972 2.54477,-0.12476 1.01432,0.0179 2.03462,-0.005 3.03441,0.18201 1.16002,0.21662 2.34695,0.30378 3.47279,0.68917 0.48024,0.1645 0.92972,0.3918 1.30528,0.74258 0.0453,0.0423 0.1175,0.0842 0.0978,0.15595 -0.0218,0.0807 -0.10809,0.0517 -0.16791,0.0632 -1.09593,0.21149 -2.18886,0.44349 -3.28992,0.62594 -1.19846,0.19867 -2.35506,0.55244 -3.52148,0.87374 -1.09678,0.30251 -2.19356,0.60501 -3.28735,0.91904 -0.92033,0.26448 -1.85902,0.47426 -2.75157,0.82248 -1.33263,0.51955 -2.7255,0.83744 -4.09274,1.23522 -2.15254,0.62551 -4.3132,1.21897 -6.43071,1.95942 -0.65243,0.22815 -1.29759,0.47938 -1.96583,0.66225 -0.29139,0.0799 -0.53707,0.23201 -0.75412,0.47213 0.2726,-0.0299 0.52468,-0.0607 0.77762,-0.10383 0.57509,-0.0978 1.15617,-0.24439 1.73169,-0.23328 1.05619,0.0209 2.1111,-0.0884 3.17114,0.0333 1.00406,0.11536 1.99873,0.26491 2.98185,0.48836 1.45996,0.33199 2.85924,0.85624 4.23288,1.43859 0.53921,0.22859 1.03227,0.57253 1.53387,0.88358 0.7413,0.45931 1.49285,0.91519 2.12777,1.51464 1.01047,0.9545 1.96668,1.95942 2.79258,3.08868 0.93997,1.28477 1.75262,2.64047 2.46487,4.06026 0.0299,0.0598 0.10126,0.13117 0.0363,0.19483 -0.0632,0.062 -0.13416,-0.008 -0.19739,-0.0342 -1.08823,-0.44734 -2.09914,-1.05533 -3.17199,-1.53088 -1.16258,-0.51527 -2.25893,-1.14805 -3.36639,-1.76544 -0.73532,-0.41017 -1.53173,-0.70071 -2.30551,-1.03526 -1.74194,-0.75368 -3.55396,-1.3134 -5.33051,-1.97052 -1.45354,-0.5375 -2.93144,-1.00364 -4.40806,-1.47363 -0.0581,-0.0184 -0.12647,-0.0701 -0.18158,-0.0132 -0.0534,0.0551 -0.006,0.12306 0.012,0.18287 0.0846,0.28157 0.22944,0.51357 0.46785,0.70456 0.99937,0.80026 1.84492,1.75946 2.72294,2.68405 0.97757,1.02928 1.72784,2.23159 2.53238,3.39161 0.0248,0.0355 0.0555,0.0718 0.0649,0.11194 0.14014,0.60415 0.4905,1.11601 0.74942,1.66589 0.44264,0.94083 0.79086,1.9184 1.19719,2.87291 0.56483,1.32579 1.13651,2.64859 1.68383,3.98122 0.41402,1.00705 0.77377,2.03419 1.01774,3.09807 0.0209,0.0914 0.0427,0.18287 0.0573,0.27516 0.0342,0.21192 -0.0171,0.25721 -0.22004,0.16962 -0.35975,-0.15467 -0.66652,-0.3965 -0.98484,-0.62038 -0.32984,-0.23201 -0.5345,-0.55971 -0.73488,-0.89383 -0.0714,-0.11921 -0.14869,-0.23671 -0.26747,-0.30678 -0.53536,-0.3166 -0.89426,-0.80709 -1.28178,-1.27153 -1.12541,-1.34929 -2.2051,-2.73618 -3.41169,-4.01796 -0.46315,-0.49221 -0.90366,-1.00791 -1.36595,-1.50268 -0.188,-0.20082 -0.38625,-0.39778 -0.62594,-0.52767 -0.48067,-0.26063 -0.78531,-0.69601 -1.12028,-1.09464 -0.89469,-1.06389 -1.76801,-2.14614 -2.64518,-3.22497 -0.35462,-0.43581 -0.65413,-0.92673 -1.05661,-1.31042 -0.37429,-0.35676 -0.54476,-0.8088 -0.80796,-1.2194 -0.46699,-0.72934 -0.91092,-1.46935 -1.31767,-2.23287 -0.25379,-0.47597 -0.47255,-0.96775 -0.63491,-1.52532 -0.10212,0.44948 -0.0863,0.86777 -0.10041,1.27879 -0.0521,1.52063 -0.32044,3.00792 -0.64431,4.48667 -0.39222,1.7898 -0.89297,3.54969 -1.50695,5.27711 -0.20038,0.56356 -0.44478,1.11259 -0.63833,1.67358 -0.53963,1.5672 -1.30998,3.02672 -2.01496,4.51573 -0.63491,1.34075 -1.34502,2.64646 -2.01967,3.96841 -0.0953,0.18628 -0.17945,0.37727 -0.3495,0.51271 -0.0974,0.0778 -0.15381,0.0718 -0.16193,-0.0662 -0.0457,-0.79769 -0.14356,-1.59154 -0.17518,-2.39095 -0.0218,-0.5533 -0.0953,-1.1049 -0.14569,-1.65692 -0.003,-0.0286 -0.0124,-0.0572 -0.0111,-0.0854 0.059,-1.1707 -0.18244,-2.32559 -0.18629,-3.49329 -10e-4,-0.38283 0.015,-0.76352 0.0696,-1.14207 0.0346,-0.23884 -0.003,-0.47426 -0.0214,-0.71097 -0.0722,-0.93784 0.0244,-1.87097 0.11964,-2.79984 0.18244,-1.77698 0.58663,-3.50782 1.20274,-5.1861 0.17902,-0.48751 0.40119,-0.95963 0.67421,-1.40056 0.32216,-0.52041 0.60244,-1.06773 0.97416,-1.55652 0.22645,-0.29823 0.52126,-0.53835 0.73916,-0.84555 0.0654,-0.0923 0.14057,-0.17902 0.17219,-0.29139 -0.0115,-0.005 -0.0201,-0.0111 -0.0231,-0.009 -0.62979,0.43538 -1.34502,0.71823 -1.99617,1.11686 -0.36061,0.22047 -0.76138,0.37471 -1.13908,0.56911 -0.99936,0.514 -1.98035,1.05876 -2.92717,1.66547 -0.56355,0.36146 -1.1442,0.69601 -1.70861,1.05619 -0.71011,0.45332 -1.41125,0.92075 -2.11666,1.38134 -0.82632,0.53963 -1.62786,1.11728 -2.44992,1.66204 -1.66546,1.10362 -3.25487,2.30593 -4.78191,3.59242 -0.73873,0.62252 -1.46636,1.26127 -2.12349,1.96711 -0.4029,0.43239 -0.81991,0.84555 -1.25572,1.24162 -0.15979,0.14527 -0.23798,0.3542 -0.41572,0.52681 0.13501,-0.74856 0.31361,-1.45012 0.53877,-2.13844 0.50246,-1.53515 1.06559,-3.04552 1.81031,-4.48454 0.58364,-1.12711 1.15831,-2.2585 1.97352,-3.24206 0.61099,-0.73702 1.20915,-1.4843 1.89363,-2.1598 1.02243,-1.00834 2.07948,-1.96968 3.26897,-2.78276 1.21513,-0.83059 2.50931,-1.49926 3.88637,-2.01197 0.18629,-0.0692 0.38582,-0.10297 0.62338,-0.1645 -0.24952,-0.0957 -0.47127,-0.0966 -0.68618,-0.11749 -1.37023,-0.13203 -2.7443,-0.18116 -4.12094,-0.18629 -0.76907,-0.003 -1.539,0 -2.30721,-0.0658 -0.22773,-0.0192 -0.46016,0.012 -0.69003,0.0261 -1.072,0.0675 -2.144,-0.0222 -3.216,0.004 -1.34117,0.0329 -2.67551,0.13971 -4.00344,0.32258 -1.04978,0.14484 -2.08803,0.35121 -3.10833,0.64218 -0.17688,0.0504 -0.35249,0.0474 -0.5298,-0.018 -0.16706,-0.0611 -0.17945,-0.12861 -0.0547,-0.25337 0.50972,-0.50929 1.01347,-1.02457 1.52148,-1.53515 0.59603,-0.59859 1.26298,-1.11771 1.92439,-1.63726 0.34693,-0.27259 0.76565,-0.45589 1.15916,-0.6661 1.72699,-0.92289 3.586,-1.46508 5.49201,-1.84663 0.85581,-0.17133 1.73682,-0.14569 2.60844,-0.12006 1.39885,0.041 2.7866,0.18031 4.15127,0.51186 0.53578,0.13032 1.10404,0.10853 1.61847,0.3448 0.17645,0.0812 0.35633,0.1551 0.53664,0.22602 0.0496,0.0197 0.12262,0.0551 0.15808,-0.006 0.038,-0.0649 -0.0333,-0.10297 -0.0778,-0.13373 -1.06132,-0.7272 -2.00257,-1.60053 -2.96861,-2.44309 -0.68875,-0.60073 -1.3557,-1.22752 -2.01753,-1.85858 -0.80368,-0.76608 -1.58258,-1.55652 -2.37643,-2.332 -0.55715,-0.54476 -1.05064,-1.14506 -1.57403,-1.7193 -1.65008,-1.81159 -3.29846,-3.62531 -5.22327,-5.15833 -0.20851,-0.1662 -0.43196,-0.31061 -0.58791,-0.53578 -0.0884,-0.12732 -0.0765,-0.18629 0.0829,-0.21705 0.21833,-0.0419 0.42683,-0.0295 0.63704,0.0453 2.31533,0.82547 4.63536,1.64026 6.8302,2.76096 1.32195,0.67508 2.65287,1.34417 3.8821,2.17776 0.97672,0.66225 1.92481,1.37193 2.83531,2.1269 0.34394,0.28499 0.68661,0.57125 1.03055,0.85666 0.0252,0.0209 0.0483,0.0551 0.11024,0.0265 -0.13929,-0.17603 -0.27644,-0.34737 -0.41146,-0.52083 -0.93912,-1.20616 -1.79278,-2.47342 -2.66098,-3.73085 -0.71694,-1.0391 -1.36382,-2.12221 -2.00257,-3.20831 -0.64474,-1.09678 -1.22582,-2.23073 -1.83808,-3.34631 -0.30165,-0.54946 -0.62893,-1.08738 -0.91007,-1.64453 -0.326,-0.64602 -0.68618,-1.27837 -0.9169,-1.97523 -0.1316,-0.39863 -0.37642,-0.76052 -0.57852,-1.13438 -0.77035,-1.42705 -1.55224,-2.84684 -2.48538,-4.17733 -0.0329,-0.047 -0.11621,-0.10767 -0.0487,-0.1645 0.0662,-0.0555 0.1333,0.0222 0.18885,0.0615 0.81948,0.57637 1.61889,1.18052 2.38283,1.82867 0.53878,0.45717 1.10533,0.87845 1.64838,1.32922 0.30506,0.25293 0.60286,0.5157 0.8182,0.85537 0.0282,0.044 0.0628,0.0756 0.10682,0.1034 0.7413,0.46657 1.42064,1.00577 1.97822,1.68854 0.13288,0.16278 0.30635,0.28455 0.47298,0.40974 0.40846,0.3072 0.82504,0.60458 1.23008,0.91648 0.45846,0.35292 0.83402,0.7947 1.2459,1.19718 0.62893,0.61526 1.1707,1.31084 1.77057,1.95302 0.1034,0.11108 0.185,0.23798 0.22816,0.38795 0.0175,0.0607 0.0457,0.12775 0.0906,0.16962 0.48366,0.45546 0.79342,1.05747 1.30058,1.49841 0.3542,0.30805 0.54433,0.7601 0.81522,1.1425 0.82888,1.17197 1.61334,2.37258 2.24782,3.66376 0.30506,0.62039 0.58577,1.25273 0.87973,1.87867 0.0316,0.0701 0.0466,0.15211 0.13074,0.20551 z"
       id="path15" />
  </g>
</svg>
