<?xml version="1.0" encoding="UTF-8"?>
<svg xmlns="http://www.w3.org/2000/svg" xmlns:xlink="http://www.w3.org/1999/xlink" viewBox="0 0 360 360">
  <defs>
    <style>
      .cls-1 {
        fill: url(#linear-gradient-2);
      }

      .cls-2, .cls-3 {
        fill: #032000;
      }

      .cls-4 {
        fill: #24363f;
      }

      .cls-5 {
        fill: url(#linear-gradient-5);
      }

      .cls-6 {
        opacity: .49;
      }

      .cls-7 {
        fill: #56646c;
      }

      .cls-8 {
        fill: url(#linear-gradient-3);
      }

      .cls-9 {
        fill: url(#linear-gradient);
      }

      .cls-3 {
        opacity: .69;
      }

      .cls-10 {
        fill: url(#linear-gradient-4);
      }
    </style>
    <linearGradient id="linear-gradient" x1="180.35" y1="266.22" x2="180.35" y2="229.19" gradientTransform="translate(362.9 -4.9) rotate(90)" gradientUnits="userSpaceOnUse">
      <stop offset="0" stop-color="#225e00"/>
      <stop offset="1" stop-color="#4c9619"/>
    </linearGradient>
    <linearGradient id="linear-gradient-2" x1="180.35" y1="93.77" x2="180.35" y2="130.8" gradientTransform="translate(362.9 -4.9) rotate(90)" gradientUnits="userSpaceOnUse">
      <stop offset="0" stop-color="#225e00"/>
      <stop offset="1" stop-color="#4c9619"/>
    </linearGradient>
    <linearGradient id="linear-gradient-3" x1="300.52" y1="180" x2="320.2" y2="180" gradientTransform="translate(362.9 -4.9) rotate(90)" gradientUnits="userSpaceOnUse">
      <stop offset="0" stop-color="#4c9619"/>
      <stop offset="1" stop-color="#0f3800"/>
    </linearGradient>
    <linearGradient id="linear-gradient-4" x1="60.68" y1="180" x2="300.58" y2="180" gradientTransform="translate(362.9 -4.9) rotate(90)" gradientUnits="userSpaceOnUse">
      <stop offset="0" stop-color="#8ce13c"/>
      <stop offset="0" stop-color="#88de39"/>
      <stop offset=".07" stop-color="#77d22e"/>
      <stop offset=".14" stop-color="#6bca26"/>
      <stop offset=".23" stop-color="#64c522"/>
      <stop offset=".5" stop-color="#63c421"/>
      <stop offset=".77" stop-color="#64c522"/>
      <stop offset=".87" stop-color="#6bca26"/>
      <stop offset=".94" stop-color="#77d22e"/>
      <stop offset=".99" stop-color="#88de39"/>
      <stop offset="1" stop-color="#8ce13c"/>
    </linearGradient>
    <linearGradient id="linear-gradient-5" x1="40.51" y1="180" x2="60.72" y2="180" gradientTransform="translate(362.9 -4.9) rotate(90)" gradientUnits="userSpaceOnUse">
      <stop offset="0" stop-color="#225e00"/>
      <stop offset="1" stop-color="#63c421"/>
    </linearGradient>
  </defs>
  <g id="Treads">
    <g>
      <g>
        <rect class="cls-4" x="115.13" y="160.54" width="282.48" height="37.74" rx=".36" ry=".36" transform="translate(435.78 -76.96) rotate(90)"/>
        <g>
          <rect class="cls-7" x="236.11" y="42.57" width="40.52" height="12.67" rx="1.74" ry="1.74"/>
          <rect class="cls-7" x="236.11" y="68.58" width="40.52" height="12.67" rx="1.74" ry="1.74"/>
          <rect class="cls-7" x="236.11" y="120.59" width="40.52" height="12.67" rx="1.74" ry="1.74"/>
          <rect class="cls-7" x="236.11" y="94.58" width="40.52" height="12.67" rx="1.74" ry="1.74"/>
          <rect class="cls-7" x="236.11" y="146.6" width="40.52" height="12.67" rx="1.74" ry="1.74"/>
          <rect class="cls-7" x="236.11" y="172.6" width="40.52" height="12.67" rx="1.74" ry="1.74"/>
          <rect class="cls-7" x="236.11" y="224.61" width="40.52" height="12.67" rx="1.74" ry="1.74"/>
          <rect class="cls-7" x="236.11" y="198.61" width="40.52" height="12.67" rx="1.74" ry="1.74"/>
          <rect class="cls-7" x="236.11" y="250.62" width="40.52" height="12.67" rx="1.74" ry="1.74"/>
          <rect class="cls-7" x="236.11" y="276.63" width="40.52" height="12.67" rx="1.74" ry="1.74"/>
          <rect class="cls-7" x="236.11" y="302.63" width="40.52" height="12.67" rx="1.74" ry="1.74"/>
        </g>
      </g>
      <g>
        <rect class="cls-4" x="-31.73" y="160.54" width="282.48" height="37.74" rx=".36" ry=".36" transform="translate(288.92 69.89) rotate(90)"/>
        <g>
          <rect class="cls-7" x="89.25" y="42.57" width="40.52" height="12.67" rx="1.74" ry="1.74"/>
          <rect class="cls-7" x="89.25" y="68.58" width="40.52" height="12.67" rx="1.74" ry="1.74"/>
          <rect class="cls-7" x="89.25" y="120.59" width="40.52" height="12.67" rx="1.74" ry="1.74"/>
          <rect class="cls-7" x="89.25" y="94.58" width="40.52" height="12.67" rx="1.74" ry="1.74"/>
          <rect class="cls-7" x="89.25" y="146.6" width="40.52" height="12.67" rx="1.74" ry="1.74"/>
          <rect class="cls-7" x="89.25" y="172.6" width="40.52" height="12.67" rx="1.74" ry="1.74"/>
          <rect class="cls-7" x="89.25" y="224.61" width="40.52" height="12.67" rx="1.74" ry="1.74"/>
          <rect class="cls-7" x="89.25" y="198.61" width="40.52" height="12.67" rx="1.74" ry="1.74"/>
          <rect class="cls-7" x="89.25" y="250.62" width="40.52" height="12.67" rx="1.74" ry="1.74"/>
          <rect class="cls-7" x="89.25" y="276.63" width="40.52" height="12.67" rx="1.74" ry="1.74"/>
          <rect class="cls-7" x="89.25" y="302.63" width="40.52" height="12.67" rx="1.74" ry="1.74"/>
        </g>
      </g>
    </g>
  </g>
  <g id="M4_Sherman" data-name="M4 Sherman">
    <g>
      <g>
        <polygon class="cls-9" points="96.68 35.58 104.51 56.19 133.71 295.66 104.22 315.34 96.68 35.58"/>
        <polygon class="cls-1" points="269.13 35.58 261.3 56.19 232.1 295.66 261.59 315.33 269.13 35.58"/>
        <polygon class="cls-8" points="183.83 315.3 261.59 315.3 232.66 295.62 182.43 295.62 181.98 295.62 181.98 295.63 133.15 295.63 104.22 315.3 183.38 315.3 183.83 315.3 183.83 315.3"/>
        <polygon class="cls-10" points="183.09 295.68 183.13 295.68 232.74 295.68 262.2 55.79 183.13 55.79 182.72 55.79 182.72 55.79 182.68 55.79 103.61 55.79 133.07 295.68 182.68 295.68 183.09 295.68 183.09 295.68"/>
        <polygon class="cls-5" points="103.54 55.83 183.09 55.79 183.09 55.79 262.27 55.83 269.15 35.61 182.82 35.61 182.82 35.61 96.67 35.61 103.54 55.83"/>
      </g>
      <g class="cls-6">
        <circle class="cls-2" cx="237.44" cy="79.08" r="18.33"/>
        <path class="cls-2" d="m128.37,97.41c-10.12,0-18.33-8.21-18.33-18.33s8.21-18.33,18.33-18.33,18.33,8.21,18.33,18.33c0,10.12-8.21,18.33-18.33,18.33Z"/>
      </g>
      <rect class="cls-3" x="180.52" y="37.57" width="4.85" height="63.43" transform="translate(252.23 -113.66) rotate(90)"/>
      <rect class="cls-3" x="180.52" y="45.63" width="4.85" height="63.43" transform="translate(260.3 -105.6) rotate(90)"/>
      <rect class="cls-3" x="180.52" y="53.7" width="4.85" height="63.43" transform="translate(268.36 -97.53) rotate(90)"/>
      <rect class="cls-3" x="180.52" y="61.76" width="4.85" height="63.43" transform="translate(276.42 -89.47) rotate(90)"/>
      <rect class="cls-3" x="180.52" y="69.83" width="4.85" height="63.43" transform="translate(284.49 -81.41) rotate(90)"/>
    </g>
  </g>
</svg>