<?xml version="1.0" encoding="UTF-8"?>
<svg xmlns="http://www.w3.org/2000/svg" xmlns:xlink="http://www.w3.org/1999/xlink" viewBox="0 0 360 360">
  <defs>
    <style>
      .cls-1 {
        opacity: .83;
      }

      .cls-2 {
        fill: url(#linear-gradient);
      }

      .cls-2, .cls-3, .cls-4 {
        stroke: #24363f;
        stroke-miterlimit: 10;
      }

      .cls-2, .cls-4 {
        stroke-width: .05px;
      }

      .cls-3 {
        fill: url(#linear-gradient-3);
        stroke-width: .05px;
      }

      .cls-5 {
        fill: #24363f;
      }

      .cls-6 {
        fill: #851014;
      }

      .cls-7 {
        fill: #8a1216;
      }

      .cls-4 {
        fill: url(#linear-gradient-2);
      }

      .cls-8 {
        fill: #56646c;
      }
    </style>
    <linearGradient id="linear-gradient" x1="317.44" y1="245.41" x2="180.14" y2="245.41" gradientTransform="translate(-131.3 -1.51)" gradientUnits="userSpaceOnUse">
      <stop offset="0" stop-color="#520000"/>
      <stop offset=".23" stop-color="#b8161c"/>
      <stop offset=".25" stop-color="#b8171d"/>
      <stop offset=".26" stop-color="#ba1e23"/>
      <stop offset=".26" stop-color="#be2a2e"/>
      <stop offset=".26" stop-color="#c33b3d"/>
      <stop offset=".26" stop-color="#c94b4b"/>
      <stop offset=".32" stop-color="#c33b3d"/>
      <stop offset=".39" stop-color="#be2a2e"/>
      <stop offset=".49" stop-color="#ba1e23"/>
      <stop offset=".62" stop-color="#b8171d"/>
      <stop offset="1" stop-color="#b8161c"/>
    </linearGradient>
    <linearGradient id="linear-gradient-2" y1="117.78" y2="117.78" gradientTransform="translate(-3.67 126.11)" xlink:href="#linear-gradient"/>
    <linearGradient id="linear-gradient-3" x1="46.38" y1="181.91" x2="304.68" y2="181.91" gradientTransform="translate(362.9 -4.9) rotate(90)" gradientUnits="userSpaceOnUse">
      <stop offset="0" stop-color="#b8161c"/>
      <stop offset=".29" stop-color="#b8171d"/>
      <stop offset=".4" stop-color="#ba1e23"/>
      <stop offset=".48" stop-color="#be2a2e"/>
      <stop offset=".54" stop-color="#c33b3d"/>
      <stop offset=".58" stop-color="#c94b4b"/>
      <stop offset=".58" stop-color="#b8161c"/>
      <stop offset="1" stop-color="#520000"/>
    </linearGradient>
  </defs>
  <g id="Treads">
    <g>
      <g>
        <rect class="cls-5" x="115.13" y="160.54" width="282.48" height="37.74" rx=".36" ry=".36" transform="translate(435.78 -76.96) rotate(90)"/>
        <g>
          <rect class="cls-8" x="236.11" y="42.57" width="40.52" height="12.67" rx="1.74" ry="1.74"/>
          <rect class="cls-8" x="236.11" y="68.58" width="40.52" height="12.67" rx="1.74" ry="1.74"/>
          <rect class="cls-8" x="236.11" y="120.59" width="40.52" height="12.67" rx="1.74" ry="1.74"/>
          <rect class="cls-8" x="236.11" y="94.58" width="40.52" height="12.67" rx="1.74" ry="1.74"/>
          <rect class="cls-8" x="236.11" y="146.6" width="40.52" height="12.67" rx="1.74" ry="1.74"/>
          <rect class="cls-8" x="236.11" y="172.6" width="40.52" height="12.67" rx="1.74" ry="1.74"/>
          <rect class="cls-8" x="236.11" y="224.61" width="40.52" height="12.67" rx="1.74" ry="1.74"/>
          <rect class="cls-8" x="236.11" y="198.61" width="40.52" height="12.67" rx="1.74" ry="1.74"/>
          <rect class="cls-8" x="236.11" y="250.62" width="40.52" height="12.67" rx="1.74" ry="1.74"/>
          <rect class="cls-8" x="236.11" y="276.63" width="40.52" height="12.67" rx="1.74" ry="1.74"/>
          <rect class="cls-8" x="236.11" y="302.63" width="40.52" height="12.67" rx="1.74" ry="1.74"/>
        </g>
      </g>
      <g>
        <rect class="cls-5" x="-31.73" y="160.54" width="282.48" height="37.74" rx=".36" ry=".36" transform="translate(288.92 69.89) rotate(90)"/>
        <g>
          <rect class="cls-8" x="89.25" y="42.57" width="40.52" height="12.67" rx="1.74" ry="1.74"/>
          <rect class="cls-8" x="89.25" y="68.58" width="40.52" height="12.67" rx="1.74" ry="1.74"/>
          <rect class="cls-8" x="89.25" y="120.59" width="40.52" height="12.67" rx="1.74" ry="1.74"/>
          <rect class="cls-8" x="89.25" y="94.58" width="40.52" height="12.67" rx="1.74" ry="1.74"/>
          <rect class="cls-8" x="89.25" y="146.6" width="40.52" height="12.67" rx="1.74" ry="1.74"/>
          <rect class="cls-8" x="89.25" y="172.6" width="40.52" height="12.67" rx="1.74" ry="1.74"/>
          <rect class="cls-8" x="89.25" y="224.61" width="40.52" height="12.67" rx="1.74" ry="1.74"/>
          <rect class="cls-8" x="89.25" y="198.61" width="40.52" height="12.67" rx="1.74" ry="1.74"/>
          <rect class="cls-8" x="89.25" y="250.62" width="40.52" height="12.67" rx="1.74" ry="1.74"/>
          <rect class="cls-8" x="89.25" y="276.63" width="40.52" height="12.67" rx="1.74" ry="1.74"/>
          <rect class="cls-8" x="89.25" y="302.63" width="40.52" height="12.67" rx="1.74" ry="1.74"/>
        </g>
      </g>
    </g>
  </g>
  <g id="Ram_Tank" data-name="Ram Tank">
    <g>
      <g>
        <rect class="cls-2" x="48.84" y="222.43" width="137.3" height="42.93" transform="translate(361.39 126.41) rotate(90)"/>
        <rect class="cls-4" x="176.47" y="222.43" width="137.3" height="42.93" transform="translate(489.02 -1.22) rotate(90)"/>
      </g>
      <path class="cls-3" d="m138.48,299.78h85.71l42.85-108.23-.19-115.71c-.07-19-15.49-34.36-34.49-34.36h-102.95c-19.22,0-34.73,15.72-34.48,34.94l.69,115.14,42.85,108.23Z"/>
      <circle class="cls-6" cx="243.59" cy="192.51" r="17.06"/>
      <g class="cls-1">
        <rect class="cls-7" x="179" y="43.5" width="3.97" height="46.7" transform="translate(247.84 -114.14) rotate(90)"/>
        <rect class="cls-7" x="179" y="49.33" width="3.97" height="46.7" transform="translate(253.67 -108.31) rotate(90)"/>
        <rect class="cls-7" x="179" y="55.16" width="3.97" height="46.7" transform="translate(259.5 -102.48) rotate(90)"/>
        <rect class="cls-7" x="179" y="60.99" width="3.97" height="46.7" transform="translate(265.33 -96.65) rotate(90)"/>
        <rect class="cls-7" x="179" y="66.82" width="3.97" height="46.7" transform="translate(271.16 -90.82) rotate(90)"/>
        <rect class="cls-7" x="179" y="72.64" width="3.97" height="46.7" transform="translate(276.98 -84.99) rotate(90)"/>
        <rect class="cls-7" x="179" y="78.47" width="3.97" height="46.7" transform="translate(282.81 -79.16) rotate(90)"/>
        <rect class="cls-7" x="179" y="84.3" width="3.97" height="46.7" transform="translate(288.64 -73.33) rotate(90)"/>
      </g>
    </g>
    <g>
      <rect class="cls-7" x="188.54" y="74.89" width="58.22" height="16.89" transform="translate(300.98 -134.31) rotate(90)"/>
      <rect class="cls-7" x="115.22" y="74.89" width="58.22" height="16.89" transform="translate(227.66 -61) rotate(90)"/>
    </g>
  </g>
</svg>