<?xml version="1.0" encoding="UTF-8"?>
<svg xmlns="http://www.w3.org/2000/svg" xmlns:xlink="http://www.w3.org/1999/xlink" viewBox="0 0 360 360">
  <defs>
    <style>
      .cls-1 {
        fill: url(#linear-gradient-2);
      }

      .cls-2, .cls-3 {
        fill: #032000;
      }

      .cls-4 {
        fill: #24363f;
      }

      .cls-5 {
        fill: url(#linear-gradient-5);
      }

      .cls-6 {
        opacity: .49;
      }

      .cls-7 {
        fill: #56646c;
      }

      .cls-8 {
        fill: url(#linear-gradient-3);
      }

      .cls-9 {
        fill: url(#linear-gradient);
      }

      .cls-3 {
        opacity: .69;
      }

      .cls-10 {
        fill: url(#linear-gradient-4);
      }
    </style>
    <linearGradient id="linear-gradient" x1="180.35" y1="266.22" x2="180.35" y2="229.19" gradientTransform="translate(185.59 436.09) rotate(-135)" gradientUnits="userSpaceOnUse">
      <stop offset="0" stop-color="#225e00"/>
      <stop offset="1" stop-color="#4c9619"/>
    </linearGradient>
    <linearGradient id="linear-gradient-2" x1="180.35" y1="93.77" x2="180.35" y2="130.8" gradientTransform="translate(185.59 436.09) rotate(-135)" gradientUnits="userSpaceOnUse">
      <stop offset="0" stop-color="#225e00"/>
      <stop offset="1" stop-color="#4c9619"/>
    </linearGradient>
    <linearGradient id="linear-gradient-3" x1="300.52" y1="180" x2="320.2" y2="180" gradientTransform="translate(185.59 436.09) rotate(-135)" gradientUnits="userSpaceOnUse">
      <stop offset="0" stop-color="#4c9619"/>
      <stop offset="1" stop-color="#0f3800"/>
    </linearGradient>
    <linearGradient id="linear-gradient-4" x1="60.68" y1="180" x2="300.58" y2="180" gradientTransform="translate(185.59 436.09) rotate(-135)" gradientUnits="userSpaceOnUse">
      <stop offset="0" stop-color="#8ce13c"/>
      <stop offset="0" stop-color="#88de39"/>
      <stop offset=".07" stop-color="#77d22e"/>
      <stop offset=".14" stop-color="#6bca26"/>
      <stop offset=".23" stop-color="#64c522"/>
      <stop offset=".5" stop-color="#63c421"/>
      <stop offset=".77" stop-color="#64c522"/>
      <stop offset=".87" stop-color="#6bca26"/>
      <stop offset=".94" stop-color="#77d22e"/>
      <stop offset=".99" stop-color="#88de39"/>
      <stop offset="1" stop-color="#8ce13c"/>
    </linearGradient>
    <linearGradient id="linear-gradient-5" x1="40.51" y1="180" x2="60.72" y2="180" gradientTransform="translate(185.59 436.09) rotate(-135)" gradientUnits="userSpaceOnUse">
      <stop offset="0" stop-color="#225e00"/>
      <stop offset="1" stop-color="#63c421"/>
    </linearGradient>
  </defs>
  <g id="Treads">
    <g>
      <g>
        <rect class="cls-4" x="-10.65" y="211.57" width="282.48" height="37.74" rx=".36" ry=".36" transform="translate(60 485.72) rotate(-135)"/>
        <g>
          <rect class="cls-7" x="202.61" y="316.38" width="40.52" height="12.67" rx="1.74" ry="1.74" transform="translate(-162.91 252.12) rotate(-45)"/>
          <rect class="cls-7" x="184.23" y="297.99" width="40.52" height="12.67" rx="1.74" ry="1.74" transform="translate(-155.3 233.73) rotate(-45)"/>
          <rect class="cls-7" x="147.45" y="261.21" width="40.52" height="12.67" rx="1.74" ry="1.74" transform="translate(-140.06 196.95) rotate(-45)"/>
          <rect class="cls-7" x="165.84" y="279.6" width="40.52" height="12.67" rx="1.74" ry="1.74" transform="translate(-147.68 215.34) rotate(-45)"/>
          <rect class="cls-7" x="129.06" y="242.82" width="40.52" height="12.67" rx="1.74" ry="1.74" transform="translate(-132.45 178.56) rotate(-45)"/>
          <rect class="cls-7" x="110.67" y="224.43" width="40.52" height="12.67" rx="1.74" ry="1.74" transform="translate(-124.83 160.17) rotate(-45)"/>
          <rect class="cls-7" x="73.89" y="187.66" width="40.52" height="12.67" rx="1.74" ry="1.74" transform="translate(-109.6 123.39) rotate(-45)"/>
          <rect class="cls-7" x="92.28" y="206.04" width="40.52" height="12.67" rx="1.74" ry="1.74" transform="translate(-117.21 141.78) rotate(-45)"/>
          <rect class="cls-7" x="55.5" y="169.27" width="40.52" height="12.67" rx="1.74" ry="1.74" transform="translate(-101.98 105) rotate(-45)"/>
          <rect class="cls-7" x="37.11" y="150.88" width="40.52" height="12.67" rx="1.74" ry="1.74" transform="translate(-94.36 86.61) rotate(-45)"/>
          <rect class="cls-7" x="18.72" y="132.49" width="40.52" height="12.67" rx="1.74" ry="1.74" transform="translate(-86.74 68.23) rotate(-45)"/>
        </g>
      </g>
      <g>
        <rect class="cls-4" x="93.2" y="107.72" width="282.48" height="37.74" rx=".36" ry=".36" transform="translate(310.7 381.88) rotate(-135)"/>
        <g>
          <rect class="cls-7" x="306.46" y="212.54" width="40.52" height="12.67" rx="1.74" ry="1.74" transform="translate(-59.07 295.13) rotate(-45)"/>
          <rect class="cls-7" x="288.07" y="194.15" width="40.52" height="12.67" rx="1.74" ry="1.74" transform="translate(-51.45 276.74) rotate(-45)"/>
          <rect class="cls-7" x="251.29" y="157.37" width="40.52" height="12.67" rx="1.74" ry="1.74" transform="translate(-36.22 239.96) rotate(-45)"/>
          <rect class="cls-7" x="269.68" y="175.76" width="40.52" height="12.67" rx="1.74" ry="1.74" transform="translate(-43.84 258.35) rotate(-45)"/>
          <rect class="cls-7" x="232.9" y="138.98" width="40.52" height="12.67" rx="1.74" ry="1.74" transform="translate(-28.6 221.57) rotate(-45)"/>
          <rect class="cls-7" x="214.51" y="120.59" width="40.52" height="12.67" rx="1.74" ry="1.74" transform="translate(-20.99 203.18) rotate(-45)"/>
          <rect class="cls-7" x="177.73" y="83.81" width="40.52" height="12.67" rx="1.74" ry="1.74" transform="translate(-5.75 166.41) rotate(-45)"/>
          <rect class="cls-7" x="196.12" y="102.2" width="40.52" height="12.67" rx="1.74" ry="1.74" transform="translate(-13.37 184.8) rotate(-45)"/>
          <rect class="cls-7" x="159.34" y="65.42" width="40.52" height="12.67" rx="1.74" ry="1.74" transform="translate(1.86 148.02) rotate(-45)"/>
          <rect class="cls-7" x="140.95" y="47.03" width="40.52" height="12.67" rx="1.74" ry="1.74" transform="translate(9.48 129.63) rotate(-45)"/>
          <rect class="cls-7" x="122.57" y="28.64" width="40.52" height="12.67" rx="1.74" ry="1.74" transform="translate(17.1 111.24) rotate(-45)"/>
        </g>
      </g>
    </g>
  </g>
  <g id="M4_Sherman" data-name="M4 Sherman">
    <g>
      <g>
        <polygon class="cls-9" points="345.22 219.22 325.11 210.18 135.13 61.5 142.07 26.73 345.22 219.22"/>
        <polygon class="cls-1" points="223.28 341.16 214.24 321.05 65.56 131.07 30.79 138.01 223.28 341.16"/>
        <polygon class="cls-8" points="85.8 83.05 30.81 138.04 65.19 131.49 100.7 95.97 101.02 95.66 101.02 95.66 135.54 61.13 142.09 26.75 86.11 82.73 85.8 83.05 85.8 83.05"/>
        <polygon class="cls-10" points="100.2 96.4 100.17 96.43 65.09 131.51 213.89 321.97 269.8 266.06 270.09 265.77 270.08 265.77 270.11 265.74 326.02 209.83 135.56 61.03 100.48 96.11 100.2 96.4 100.2 96.4"/>
        <polygon class="cls-5" points="326.05 209.75 269.83 266.03 269.83 266.03 213.81 321.99 223.24 341.15 284.28 280.11 284.28 280.11 345.2 219.18 326.05 209.75"/>
      </g>
      <g class="cls-6">
        <circle class="cls-2" cx="214.92" cy="287.99" r="18.33"/>
        <circle class="cls-2" cx="292.05" cy="210.87" r="18.33"/>
      </g>
      <rect class="cls-3" x="257.96" y="224.67" width="4.85" height="63.43" transform="translate(263.21 621.79) rotate(-135)"/>
      <rect class="cls-3" x="252.25" y="218.97" width="4.85" height="63.43" transform="translate(257.51 608.03) rotate(-135)"/>
      <rect class="cls-3" x="246.55" y="213.26" width="4.85" height="63.43" transform="translate(251.8 594.26) rotate(-135)"/>
      <rect class="cls-3" x="240.85" y="207.56" width="4.85" height="63.43" transform="translate(246.1 580.5) rotate(-135)"/>
      <rect class="cls-3" x="235.15" y="201.86" width="4.85" height="63.43" transform="translate(240.4 566.73) rotate(-135)"/>
    </g>
  </g>
</svg>