<?xml version="1.0" encoding="UTF-8"?>
<svg xmlns="http://www.w3.org/2000/svg" xmlns:xlink="http://www.w3.org/1999/xlink" viewBox="0 0 360 360">
  <defs>
    <style>
      .cls-1 {
        fill: url(#linear-gradient-2);
      }

      .cls-2, .cls-3 {
        fill: #032000;
      }

      .cls-4 {
        fill: #24363f;
      }

      .cls-5 {
        fill: url(#linear-gradient-5);
      }

      .cls-6 {
        opacity: .49;
      }

      .cls-7 {
        fill: #56646c;
      }

      .cls-8 {
        fill: url(#linear-gradient-3);
      }

      .cls-9 {
        fill: url(#linear-gradient);
      }

      .cls-3 {
        opacity: .69;
      }

      .cls-10 {
        fill: url(#linear-gradient-4);
      }
    </style>
    <linearGradient id="linear-gradient" x1="180.35" y1="266.22" x2="180.35" y2="229.19" gradientTransform="translate(-74.16 181.16) rotate(-45)" gradientUnits="userSpaceOnUse">
      <stop offset="0" stop-color="#225e00"/>
      <stop offset="1" stop-color="#4c9619"/>
    </linearGradient>
    <linearGradient id="linear-gradient-2" x1="180.35" y1="93.77" x2="180.35" y2="130.8" gradientTransform="translate(-74.16 181.16) rotate(-45)" gradientUnits="userSpaceOnUse">
      <stop offset="0" stop-color="#225e00"/>
      <stop offset="1" stop-color="#4c9619"/>
    </linearGradient>
    <linearGradient id="linear-gradient-3" x1="300.52" y1="180" x2="320.2" y2="180" gradientTransform="translate(-74.16 181.16) rotate(-45)" gradientUnits="userSpaceOnUse">
      <stop offset="0" stop-color="#4c9619"/>
      <stop offset="1" stop-color="#0f3800"/>
    </linearGradient>
    <linearGradient id="linear-gradient-4" x1="60.68" y1="180" x2="300.58" y2="180" gradientTransform="translate(-74.16 181.16) rotate(-45)" gradientUnits="userSpaceOnUse">
      <stop offset="0" stop-color="#8ce13c"/>
      <stop offset="0" stop-color="#88de39"/>
      <stop offset=".07" stop-color="#77d22e"/>
      <stop offset=".14" stop-color="#6bca26"/>
      <stop offset=".23" stop-color="#64c522"/>
      <stop offset=".5" stop-color="#63c421"/>
      <stop offset=".77" stop-color="#64c522"/>
      <stop offset=".87" stop-color="#6bca26"/>
      <stop offset=".94" stop-color="#77d22e"/>
      <stop offset=".99" stop-color="#88de39"/>
      <stop offset="1" stop-color="#8ce13c"/>
    </linearGradient>
    <linearGradient id="linear-gradient-5" x1="40.51" y1="180" x2="60.72" y2="180" gradientTransform="translate(-74.16 181.16) rotate(-45)" gradientUnits="userSpaceOnUse">
      <stop offset="0" stop-color="#225e00"/>
      <stop offset="1" stop-color="#63c421"/>
    </linearGradient>
  </defs>
  <g id="Treads">
    <g>
      <g>
        <rect class="cls-4" x="-9.75" y="107.3" width="282.48" height="37.74" rx=".36" ry=".36" transform="translate(-50.7 129.93) rotate(-45)"/>
        <g>
          <rect class="cls-7" x="32.88" y="198.18" width="12.67" height="40.52" rx="1.74" ry="1.74" transform="translate(-142.98 91.71) rotate(-45)"/>
          <rect class="cls-7" x="51.27" y="179.79" width="12.67" height="40.52" rx="1.74" ry="1.74" transform="translate(-124.59 99.32) rotate(-45)"/>
          <rect class="cls-7" x="88.05" y="143.02" width="12.67" height="40.52" rx="1.74" ry="1.74" transform="translate(-87.81 114.56) rotate(-45)"/>
          <rect class="cls-7" x="69.66" y="161.41" width="12.67" height="40.52" rx="1.74" ry="1.74" transform="translate(-106.2 106.94) rotate(-45)"/>
          <rect class="cls-7" x="106.43" y="124.63" width="12.67" height="40.52" rx="1.74" ry="1.74" transform="translate(-69.42 122.18) rotate(-45)"/>
          <rect class="cls-7" x="124.82" y="106.24" width="12.67" height="40.52" rx="1.74" ry="1.74" transform="translate(-51.03 129.79) rotate(-45)"/>
          <rect class="cls-7" x="161.6" y="69.46" width="12.67" height="40.52" rx="1.74" ry="1.74" transform="translate(-14.25 145.03) rotate(-45)"/>
          <rect class="cls-7" x="143.21" y="87.85" width="12.67" height="40.52" rx="1.74" ry="1.74" transform="translate(-32.64 137.41) rotate(-45)"/>
          <rect class="cls-7" x="179.99" y="51.07" width="12.67" height="40.52" rx="1.74" ry="1.74" transform="translate(4.13 152.64) rotate(-45)"/>
          <rect class="cls-7" x="198.38" y="32.68" width="12.67" height="40.52" rx="1.74" ry="1.74" transform="translate(22.52 160.26) rotate(-45)"/>
          <rect class="cls-7" x="216.77" y="14.29" width="12.67" height="40.52" rx="1.74" ry="1.74" transform="translate(40.91 167.88) rotate(-45)"/>
        </g>
      </g>
      <g>
        <rect class="cls-4" x="94.09" y="211.14" width="282.48" height="37.74" rx=".36" ry=".36" transform="translate(-93.71 233.77) rotate(-45)"/>
        <g>
          <rect class="cls-7" x="136.72" y="302.03" width="12.67" height="40.52" rx="1.74" ry="1.74" transform="translate(-185.99 195.55) rotate(-45)"/>
          <rect class="cls-7" x="155.11" y="283.64" width="12.67" height="40.52" rx="1.74" ry="1.74" transform="translate(-167.6 203.17) rotate(-45)"/>
          <rect class="cls-7" x="191.89" y="246.86" width="12.67" height="40.52" rx="1.74" ry="1.74" transform="translate(-130.82 218.4) rotate(-45)"/>
          <rect class="cls-7" x="173.5" y="265.25" width="12.67" height="40.52" rx="1.74" ry="1.74" transform="translate(-149.21 210.78) rotate(-45)"/>
          <rect class="cls-7" x="210.28" y="228.47" width="12.67" height="40.52" rx="1.74" ry="1.74" transform="translate(-112.43 226.02) rotate(-45)"/>
          <rect class="cls-7" x="228.67" y="210.08" width="12.67" height="40.52" rx="1.74" ry="1.74" transform="translate(-94.05 233.64) rotate(-45)"/>
          <rect class="cls-7" x="265.44" y="173.3" width="12.67" height="40.52" rx="1.74" ry="1.74" transform="translate(-57.27 248.87) rotate(-45)"/>
          <rect class="cls-7" x="247.06" y="191.69" width="12.67" height="40.52" rx="1.74" ry="1.74" transform="translate(-75.66 241.25) rotate(-45)"/>
          <rect class="cls-7" x="283.83" y="154.91" width="12.67" height="40.52" rx="1.74" ry="1.74" transform="translate(-38.88 256.49) rotate(-45)"/>
          <rect class="cls-7" x="302.22" y="136.52" width="12.67" height="40.52" rx="1.74" ry="1.74" transform="translate(-20.49 264.1) rotate(-45)"/>
          <rect class="cls-7" x="320.61" y="118.13" width="12.67" height="40.52" rx="1.74" ry="1.74" transform="translate(-2.1 271.72) rotate(-45)"/>
        </g>
      </g>
    </g>
  </g>
  <g id="M4_Sherman" data-name="M4 Sherman">
    <g>
      <g>
        <polygon class="cls-9" points="142.71 340.79 151.75 320.68 300.43 130.7 335.19 137.64 142.71 340.79"/>
        <polygon class="cls-1" points="20.76 218.85 40.87 209.81 230.85 61.13 223.91 26.36 20.76 218.85"/>
        <polygon class="cls-8" points="278.88 81.37 223.89 26.38 230.44 60.76 265.95 96.27 266.27 96.59 266.27 96.59 300.8 131.11 335.17 137.66 279.19 81.68 278.88 81.37 278.88 81.37"/>
        <polygon class="cls-10" points="265.53 95.77 265.5 95.74 230.42 60.66 39.96 209.46 95.87 265.37 96.16 265.65 96.16 265.65 96.19 265.68 152.09 321.59 300.9 131.13 265.82 96.05 265.53 95.77 265.53 95.77"/>
        <polygon class="cls-5" points="152.18 321.62 95.9 265.4 95.9 265.4 39.93 209.38 20.78 218.81 81.82 279.85 81.82 279.85 142.74 340.77 152.18 321.62"/>
      </g>
      <g class="cls-6">
        <circle class="cls-2" cx="73.93" cy="210.49" r="18.33"/>
        <circle class="cls-2" cx="151.06" cy="287.62" r="18.33"/>
      </g>
      <rect class="cls-3" x="103.12" y="224.23" width="4.85" height="63.43" transform="translate(-150.07 149.6) rotate(-45)"/>
      <rect class="cls-3" x="108.82" y="218.53" width="4.85" height="63.43" transform="translate(-144.37 151.96) rotate(-45)"/>
      <rect class="cls-3" x="114.52" y="212.83" width="4.85" height="63.43" transform="translate(-138.67 154.32) rotate(-45)"/>
      <rect class="cls-3" x="120.22" y="207.13" width="4.85" height="63.43" transform="translate(-132.97 156.68) rotate(-45)"/>
      <rect class="cls-3" x="125.92" y="201.43" width="4.85" height="63.43" transform="translate(-127.26 159.04) rotate(-45)"/>
    </g>
  </g>
</svg>