<?xml version="1.0" encoding="UTF-8"?>
<svg xmlns="http://www.w3.org/2000/svg" xmlns:xlink="http://www.w3.org/1999/xlink" viewBox="0 0 360 360">
  <defs>
    <style>
      .cls-1 {
        opacity: .83;
      }

      .cls-2 {
        fill: url(#linear-gradient);
      }

      .cls-2, .cls-3, .cls-4 {
        stroke: #24363f;
        stroke-miterlimit: 10;
      }

      .cls-2, .cls-4 {
        stroke-width: .05px;
      }

      .cls-3 {
        fill: url(#linear-gradient-3);
        stroke-width: .05px;
      }

      .cls-5 {
        fill: #24363f;
      }

      .cls-6 {
        fill: #851014;
      }

      .cls-7 {
        fill: #8a1216;
      }

      .cls-4 {
        fill: url(#linear-gradient-2);
      }

      .cls-8 {
        fill: #56646c;
      }
    </style>
    <linearGradient id="linear-gradient" x1="317.44" y1="245.41" x2="180.14" y2="245.41" gradientTransform="translate(-.46 -.98)" gradientUnits="userSpaceOnUse">
      <stop offset="0" stop-color="#520000"/>
      <stop offset=".23" stop-color="#b8161c"/>
      <stop offset=".25" stop-color="#b8171d"/>
      <stop offset=".26" stop-color="#ba1e23"/>
      <stop offset=".26" stop-color="#be2a2e"/>
      <stop offset=".26" stop-color="#c33b3d"/>
      <stop offset=".26" stop-color="#c94b4b"/>
      <stop offset=".32" stop-color="#c33b3d"/>
      <stop offset=".39" stop-color="#be2a2e"/>
      <stop offset=".49" stop-color="#ba1e23"/>
      <stop offset=".62" stop-color="#b8171d"/>
      <stop offset="1" stop-color="#b8161c"/>
    </linearGradient>
    <linearGradient id="linear-gradient-2" x1="317.44" y1="117.78" y2="117.78" xlink:href="#linear-gradient"/>
    <linearGradient id="linear-gradient-3" x1="46.38" y1="181.91" x2="304.68" y2="181.91" gradientTransform="translate(-.46 -.98)" gradientUnits="userSpaceOnUse">
      <stop offset="0" stop-color="#b8161c"/>
      <stop offset=".29" stop-color="#b8171d"/>
      <stop offset=".4" stop-color="#ba1e23"/>
      <stop offset=".48" stop-color="#be2a2e"/>
      <stop offset=".54" stop-color="#c33b3d"/>
      <stop offset=".58" stop-color="#c94b4b"/>
      <stop offset=".58" stop-color="#b8161c"/>
      <stop offset="1" stop-color="#520000"/>
    </linearGradient>
  </defs>
  <g id="Treads">
    <g>
      <g>
        <rect class="cls-5" x="42.6" y="86.69" width="282.48" height="37.74" rx=".36" ry=".36"/>
        <g>
          <rect class="cls-8" x="47" y="85.29" width="12.67" height="40.52" rx="1.74" ry="1.74"/>
          <rect class="cls-8" x="73.01" y="85.29" width="12.67" height="40.52" rx="1.74" ry="1.74"/>
          <rect class="cls-8" x="125.02" y="85.29" width="12.67" height="40.52" rx="1.74" ry="1.74"/>
          <rect class="cls-8" x="99.01" y="85.29" width="12.67" height="40.52" rx="1.74" ry="1.74"/>
          <rect class="cls-8" x="151.03" y="85.29" width="12.67" height="40.52" rx="1.74" ry="1.74"/>
          <rect class="cls-8" x="177.03" y="85.29" width="12.67" height="40.52" rx="1.74" ry="1.74"/>
          <rect class="cls-8" x="229.05" y="85.29" width="12.67" height="40.52" rx="1.74" ry="1.74"/>
          <rect class="cls-8" x="203.04" y="85.29" width="12.67" height="40.52" rx="1.74" ry="1.74"/>
          <rect class="cls-8" x="255.05" y="85.29" width="12.67" height="40.52" rx="1.74" ry="1.74"/>
          <rect class="cls-8" x="281.06" y="85.29" width="12.67" height="40.52" rx="1.74" ry="1.74"/>
          <rect class="cls-8" x="307.06" y="85.29" width="12.67" height="40.52" rx="1.74" ry="1.74"/>
        </g>
      </g>
      <g>
        <rect class="cls-5" x="42.6" y="233.54" width="282.48" height="37.74" rx=".36" ry=".36"/>
        <g>
          <rect class="cls-8" x="47" y="232.15" width="12.67" height="40.52" rx="1.74" ry="1.74"/>
          <rect class="cls-8" x="73.01" y="232.15" width="12.67" height="40.52" rx="1.74" ry="1.74"/>
          <rect class="cls-8" x="125.02" y="232.15" width="12.67" height="40.52" rx="1.74" ry="1.74"/>
          <rect class="cls-8" x="99.01" y="232.15" width="12.67" height="40.52" rx="1.74" ry="1.74"/>
          <rect class="cls-8" x="151.03" y="232.15" width="12.67" height="40.52" rx="1.74" ry="1.74"/>
          <rect class="cls-8" x="177.03" y="232.15" width="12.67" height="40.52" rx="1.74" ry="1.74"/>
          <rect class="cls-8" x="229.05" y="232.15" width="12.67" height="40.52" rx="1.74" ry="1.74"/>
          <rect class="cls-8" x="203.04" y="232.15" width="12.67" height="40.52" rx="1.74" ry="1.74"/>
          <rect class="cls-8" x="255.05" y="232.15" width="12.67" height="40.52" rx="1.74" ry="1.74"/>
          <rect class="cls-8" x="281.06" y="232.15" width="12.67" height="40.52" rx="1.74" ry="1.74"/>
          <rect class="cls-8" x="307.06" y="232.15" width="12.67" height="40.52" rx="1.74" ry="1.74"/>
        </g>
      </g>
    </g>
  </g>
  <g id="Ram_Tank" data-name="Ram Tank">
    <g>
      <g>
        <rect class="cls-2" x="179.68" y="222.97" width="137.3" height="42.93"/>
        <rect class="cls-4" x="179.68" y="95.34" width="137.3" height="42.93"/>
      </g>
      <path class="cls-3" d="m304.21,223.44v-85.71s-108.23-42.85-108.23-42.85l-115.71.19c-19,.07-34.36,15.49-34.36,34.49v102.95c0,19.22,15.72,34.73,34.94,34.48l115.14-.69,108.23-42.85Z"/>
      <circle class="cls-6" cx="196.94" cy="118.33" r="17.06"/>
      <g class="cls-1">
        <rect class="cls-7" x="69.3" y="157.59" width="3.97" height="46.7"/>
        <rect class="cls-7" x="75.13" y="157.59" width="3.97" height="46.7"/>
        <rect class="cls-7" x="80.96" y="157.59" width="3.97" height="46.7"/>
        <rect class="cls-7" x="86.78" y="157.59" width="3.97" height="46.7"/>
        <rect class="cls-7" x="92.61" y="157.59" width="3.97" height="46.7"/>
        <rect class="cls-7" x="98.44" y="157.59" width="3.97" height="46.7"/>
        <rect class="cls-7" x="104.27" y="157.59" width="3.97" height="46.7"/>
        <rect class="cls-7" x="110.1" y="157.59" width="3.97" height="46.7"/>
      </g>
    </g>
    <g>
      <rect class="cls-7" x="58.65" y="135.83" width="58.22" height="16.89"/>
      <rect class="cls-7" x="58.65" y="209.15" width="58.22" height="16.89"/>
    </g>
  </g>
</svg>