<?xml version="1.0" encoding="UTF-8" standalone="no"?>
<!-- Created with Inkscape (http://www.inkscape.org/) -->

<svg
   width="360"
   height="360"
   viewBox="0 0 360 360"
   version="1.1"
   id="svg1"
   xmlns:xlink="http://www.w3.org/1999/xlink"
   xmlns="http://www.w3.org/2000/svg"
   xmlns:svg="http://www.w3.org/2000/svg">
  <defs
     id="defs1">
    <linearGradient
       id="linear-gradient-91"
       x1="315.25"
       y1="112.1"
       x2="53.119999"
       y2="112.1"
       gradientTransform="translate(-49.57,114.49)"
       gradientUnits="userSpaceOnUse">
      <stop
         offset="0"
         stop-color="#ffd117"
         id="stop1-09" />
      <stop
         offset=".42"
         stop-color="#e9b715"
         id="stop2-45" />
      <stop
         offset="1"
         stop-color="#c78e12"
         id="stop3-62" />
    </linearGradient>
    <linearGradient
       id="linear-gradient-2-59"
       x1="315.25"
       y1="247.89999"
       x2="53.119999"
       y2="247.89999"
       gradientTransform="translate(46.46,-117.34)"
       xlink:href="#linear-gradient-91" />
    <linearGradient
       id="linear-gradient-3-91"
       x1="248.28"
       y1="181.57001"
       x2="318.06"
       y2="181.57001"
       gradientTransform="rotate(-135,183.1122,179.60805)"
       gradientUnits="userSpaceOnUse">
      <stop
         offset="0"
         stop-color="#edb715"
         id="stop7-38" />
      <stop
         offset=".75"
         stop-color="#8f5e17"
         id="stop8-74" />
      <stop
         offset="1"
         stop-color="#6e3f18"
         id="stop9-93" />
    </linearGradient>
    <linearGradient
       id="linear-gradient-4-13"
       x1="50.310001"
       y1="180"
       x2="68.540001"
       y2="180"
       gradientTransform="translate(211.42,86.79)"
       gradientUnits="userSpaceOnUse">
      <stop
         offset="0"
         stop-color="#995d0e"
         id="stop10-879" />
      <stop
         offset="1"
         stop-color="#ffd117"
         id="stop11-38" />
    </linearGradient>
    <linearGradient
       id="linear-gradient-5-84"
       x1="68.849998"
       y1="181.87"
       x2="109.28"
       y2="181.87"
       gradientTransform="rotate(-135,183.1122,179.60805)"
       gradientUnits="userSpaceOnUse">
      <stop
         offset="0"
         stop-color="#c78e12"
         id="stop12-00" />
      <stop
         offset="1"
         stop-color="#ffd117"
         id="stop13-86" />
    </linearGradient>
    <linearGradient
       xlink:href="#linear-gradient-91"
       id="linearGradient13"
       gradientUnits="userSpaceOnUse"
       gradientTransform="translate(-49.57,114.49)"
       x1="315.25"
       y1="112.1"
       x2="53.119999"
       y2="112.1" />
  </defs>
  <g
     id="layer1">
    <g
       id="Treads"
       transform="translate(1.0000012,1.0000012)">
      <g
         id="g35">
        <g
           id="g22">
          <rect
             class="cls-7"
             x="-10.65"
             y="211.57001"
             width="282.48001"
             height="37.740002"
             rx="0.36000001"
             ry="0.36000001"
             transform="rotate(-135,130.59591,230.43359)"
             id="rect10"
             style="fill:#24363f" />
          <g
             id="g21">
            <rect
               class="cls-9"
               x="202.61"
               y="316.38"
               width="40.52"
               height="12.67"
               rx="1.74"
               ry="1.74"
               transform="rotate(-45,222.88076,322.70977)"
               id="rect11"
               style="fill:#56646c" />
            <rect
               class="cls-9"
               x="184.23"
               y="297.98999"
               width="40.52"
               height="12.67"
               rx="1.74"
               ry="1.74"
               transform="rotate(-45,204.48707,304.32868)"
               id="rect12"
               style="fill:#56646c" />
            <rect
               class="cls-9"
               x="147.45"
               y="261.20999"
               width="40.52"
               height="12.67"
               rx="1.74"
               ry="1.74"
               transform="rotate(-45,167.70968,267.54238)"
               id="rect13"
               style="fill:#56646c" />
            <rect
               class="cls-9"
               x="165.84"
               y="279.60001"
               width="40.52"
               height="12.67"
               rx="1.74"
               ry="1.74"
               transform="rotate(-45,186.09837,285.93553)"
               id="rect14"
               style="fill:#56646c" />
            <rect
               class="cls-9"
               x="129.06"
               y="242.82001"
               width="40.52"
               height="12.67"
               rx="1.74"
               ry="1.74"
               transform="rotate(-45,149.31599,249.16129)"
               id="rect15"
               style="fill:#56646c" />
            <rect
               class="cls-9"
               x="110.67"
               y="224.42999"
               width="40.52"
               height="12.67"
               rx="1.74"
               ry="1.74"
               transform="rotate(-45,130.92729,230.76814)"
               id="rect16"
               style="fill:#56646c" />
            <rect
               class="cls-9"
               x="73.889999"
               y="187.66"
               width="40.52"
               height="12.67"
               rx="1.74"
               ry="1.74"
               transform="rotate(-45,94.144906,193.9939)"
               id="rect17"
               style="fill:#56646c" />
            <rect
               class="cls-9"
               x="92.279999"
               y="206.03999"
               width="40.52"
               height="12.67"
               rx="1.74"
               ry="1.74"
               transform="rotate(-45,112.5386,212.37499)"
               id="rect18"
               style="fill:#56646c" />
            <rect
               class="cls-9"
               x="55.5"
               y="169.27"
               width="40.52"
               height="12.67"
               rx="1.74"
               ry="1.74"
               transform="rotate(-45,75.756212,175.60075)"
               id="rect19"
               style="fill:#56646c" />
            <rect
               class="cls-9"
               x="37.110001"
               y="150.88"
               width="40.52"
               height="12.67"
               rx="1.74"
               ry="1.74"
               transform="rotate(-45,57.367518,157.2076)"
               id="rect20"
               style="fill:#56646c" />
            <rect
               class="cls-9"
               x="18.719999"
               y="132.49001"
               width="40.52"
               height="12.67"
               rx="1.74"
               ry="1.74"
               transform="rotate(-45,38.990896,138.81944)"
               id="rect21"
               style="fill:#56646c" />
          </g>
        </g>
        <g
           id="g34">
          <rect
             class="cls-7"
             x="93.199997"
             y="107.72"
             width="282.48001"
             height="37.740002"
             rx="0.36000001"
             ry="0.36000001"
             transform="rotate(-135,234.43994,126.59192)"
             id="rect22"
             style="fill:#24363f" />
          <g
             id="g33">
            <rect
               class="cls-9"
               x="306.45999"
               y="212.53999"
               width="40.52"
               height="12.67"
               rx="1.74"
               ry="1.74"
               transform="rotate(-45,326.71842,218.8688)"
               id="rect23"
               style="fill:#56646c" />
            <rect
               class="cls-9"
               x="288.07001"
               y="194.14999"
               width="40.52"
               height="12.67"
               rx="1.74"
               ry="1.74"
               transform="rotate(-45,308.32973,200.47564)"
               id="rect24"
               style="fill:#56646c" />
            <rect
               class="cls-9"
               x="251.28999"
               y="157.37"
               width="40.52"
               height="12.67"
               rx="1.74"
               ry="1.74"
               transform="rotate(-45,271.54734,163.70141)"
               id="rect25"
               style="fill:#56646c" />
            <rect
               class="cls-9"
               x="269.67999"
               y="175.75999"
               width="40.52"
               height="12.67"
               rx="1.74"
               ry="1.74"
               transform="rotate(-45,289.93604,182.09456)"
               id="rect26"
               style="fill:#56646c" />
            <rect
               class="cls-9"
               x="232.89999"
               y="138.98"
               width="40.52"
               height="12.67"
               rx="1.74"
               ry="1.74"
               transform="rotate(-45,253.15865,145.30825)"
               id="rect27"
               style="fill:#56646c" />
            <rect
               class="cls-9"
               x="214.50999"
               y="120.59"
               width="40.52"
               height="12.67"
               rx="1.74"
               ry="1.74"
               transform="rotate(-45,234.76496,126.92717)"
               id="rect28"
               style="fill:#56646c" />
            <rect
               class="cls-9"
               x="177.73"
               y="83.809998"
               width="40.52"
               height="12.67"
               rx="1.74"
               ry="1.74"
               transform="rotate(-45,197.99964,90.145864)"
               id="rect29"
               style="fill:#56646c" />
            <rect
               class="cls-9"
               x="196.12"
               y="102.2"
               width="40.52"
               height="12.67"
               rx="1.74"
               ry="1.74"
               transform="rotate(-45,216.38833,108.53902)"
               id="rect30"
               style="fill:#56646c" />
            <rect
               class="cls-9"
               x="159.34"
               y="65.419998"
               width="40.52"
               height="12.67"
               rx="1.74"
               ry="1.74"
               transform="rotate(-45,179.60595,71.764781)"
               id="rect31"
               style="fill:#56646c" />
            <rect
               class="cls-9"
               x="140.95"
               y="47.029999"
               width="40.52"
               height="12.67"
               rx="1.74"
               ry="1.74"
               transform="rotate(-45,161.21725,53.371628)"
               id="rect32"
               style="fill:#56646c" />
            <rect
               class="cls-9"
               x="122.57"
               y="28.639999"
               width="40.52"
               height="12.67"
               rx="1.74"
               ry="1.74"
               transform="rotate(-45,142.82856,34.978474)"
               id="rect33"
               style="fill:#56646c" />
          </g>
        </g>
      </g>
    </g>
    <g
       id="T-34"
       transform="translate(1.0000012,1.0000012)">
      <g
         id="g36">
        <rect
           class="cls-11"
           x="3.55"
           y="210.11"
           width="262.14001"
           height="32.939999"
           transform="rotate(-135,134.6134,226.58451)"
           id="rect35"
           style="fill:url(#linearGradient13)" />
        <rect
           class="cls-2"
           x="99.57"
           y="114.09"
           width="262.14001"
           height="32.939999"
           transform="rotate(-135,230.63993,130.55595)"
           id="rect36"
           style="fill:url(#linear-gradient-2-59)" />
      </g>
      <path
         class="cls-3"
         d="m 248.77,136.66 c -17.08,0.93 -34.16,1.85 -51.25,2.78 l -54.02,54.02 c -0.93,17.08 -1.85,34.16 -2.78,51.25 36.02,-36.02 72.03,-72.03 108.05,-108.05 z"
         id="path36"
         style="fill:#c78e12" />
      <rect
         class="cls-5"
         x="84.370003"
         y="111.55"
         width="213.42999"
         height="146.49001"
         transform="rotate(-135,191.0761,184.79148)"
         id="rect37"
         style="fill:#ffdb47" />
      <rect
         class="cls-3"
         x="44.310001"
         y="205.13"
         width="213.48"
         height="36.119999"
         transform="rotate(45,151.05251,223.188)"
         id="rect38"
         style="fill:#c78e12" />
      <rect
         class="cls-3"
         x="122.83"
         y="125.73"
         width="213.12"
         height="37.740002"
         transform="rotate(-135,229.38703,144.60072)"
         id="rect39"
         style="fill:#c78e12" />
      <path
         class="cls-10"
         d="m 49.47,122.4 25.79,25.79 c -4.14,4.14 -8.29,8.29 -12.43,12.43 16.52,-0.82 33.05,-1.65 49.57,-2.47 l 52.04,-52.04 c 0.82,-16.52 1.65,-33.05 2.47,-49.57 -4.86,4.86 -9.72,9.72 -14.58,14.58 L 126.54,45.33 Z"
         id="path39"
         style="fill:url(#linear-gradient-3-91)" />
      <rect
         class="cls-12"
         x="261.73999"
         y="182.16"
         width="18.219999"
         height="169.27"
         transform="rotate(-135,270.8498,266.79073)"
         id="rect40"
         style="fill:url(#linear-gradient-4-13)" />
      <polygon
         class="cls-8"
         points="210.01,257.12 213.12,311.18 317.89,206.42 262.61,204.51 "
         id="polygon40"
         style="fill:url(#linear-gradient-5-84)" />
      <g
         id="g42">
        <rect
           class="cls-6"
           x="261.19"
           y="226.96001"
           width="34.689999"
           height="12.35"
           transform="rotate(-135,278.53818,233.13935)"
           id="rect41"
           style="fill:#a8700f" />
        <rect
           class="cls-6"
           x="219.92999"
           y="268.22"
           width="34.689999"
           height="12.35"
           transform="rotate(-135,237.27841,274.39926)"
           id="rect42"
           style="fill:#a8700f" />
      </g>
      <g
         id="g47">
        <g
           id="g44">
          <rect
             class="cls-1"
             x="124.96"
             y="246.16"
             width="80.660004"
             height="19.82"
             transform="rotate(-135,165.28923,256.0665)"
             id="rect43"
             style="fill:#995d0e" />
          <ellipse
             class="cls-1"
             cx="193.58"
             cy="284.35999"
             rx="9.9099998"
             ry="2.74"
             transform="rotate(-45,193.5787,284.36708)"
             id="ellipse43"
             style="fill:#995d0e" />
          <ellipse
             class="cls-1"
             cx="136.63"
             cy="227.48"
             rx="9.9099998"
             ry="3.97"
             transform="rotate(-45,136.62811,227.48678)"
             id="ellipse44"
             style="fill:#995d0e" />
        </g>
        <g
           id="g46">
          <rect
             class="cls-1"
             x="219.83"
             y="151.28"
             width="80.660004"
             height="19.82"
             transform="rotate(-135,260.16601,161.1937)"
             id="rect44"
             style="fill:#995d0e" />
          <ellipse
             class="cls-1"
             cx="288.45999"
             cy="189.49001"
             rx="9.9099998"
             ry="2.74"
             transform="rotate(-45,288.458,189.48679)"
             id="ellipse45"
             style="fill:#995d0e" />
          <ellipse
             class="cls-1"
             cx="231.5"
             cy="132.61"
             rx="9.9099998"
             ry="3.97"
             transform="rotate(-45,231.50741,132.60649)"
             id="ellipse46"
             style="fill:#995d0e" />
        </g>
      </g>
      <polygon
         class="cls-4"
         points="210.54,268.7 102.32,158.58 165.26,95.64 274.43,204.81 "
         id="polygon47"
         style="fill:#ffd117" />
    </g>
  </g>
</svg>
