<?xml version="1.0" encoding="UTF-8"?>
<svg xmlns="http://www.w3.org/2000/svg" xmlns:xlink="http://www.w3.org/1999/xlink" viewBox="0 0 360 360">
  <defs>
    <style>
      .cls-1 {
        fill: url(#linear-gradient-2);
      }

      .cls-2 {
        fill: url(#New_Gradient_Swatch_copy_3-2);
      }

      .cls-3 {
        fill: #24363f;
      }

      .cls-4 {
        fill: #56646c;
      }

      .cls-5 {
        fill: url(#linear-gradient);
      }

      .cls-6 {
        fill: url(#New_Gradient_Swatch_copy_3);
      }

      .cls-7 {
        fill: url(#New_Gradient_Swatch_copy_3-3);
      }
    </style>
    <linearGradient id="linear-gradient" x1="49.23" y1="180" x2="323.9" y2="180" gradientTransform="translate(-6.31 -1.52)" gradientUnits="userSpaceOnUse">
      <stop offset=".45" stop-color="#008ae6"/>
      <stop offset="1" stop-color="#5fb3ea"/>
    </linearGradient>
    <linearGradient id="New_Gradient_Swatch_copy_3" data-name="New Gradient Swatch copy 3" x1="256.46" y1="180" x2="323.9" y2="180" gradientTransform="translate(-213.53 -1.52)" gradientUnits="userSpaceOnUse">
      <stop offset="0" stop-color="#008ae6"/>
      <stop offset="1" stop-color="#002c4a"/>
    </linearGradient>
    <linearGradient id="linear-gradient-2" x1="49.23" y1="180" x2="89.66" y2="180" gradientTransform="translate(366.82 358.47) rotate(-180)" gradientUnits="userSpaceOnUse">
      <stop offset="0" stop-color="#008ae6"/>
      <stop offset="1" stop-color="#002c4a"/>
    </linearGradient>
    <linearGradient id="New_Gradient_Swatch_copy_3-2" x1="177.27" y1="276.13" x2="177.27" y2="235.7" gradientTransform="translate(366.82 358.47) rotate(-180)" gradientUnits="userSpaceOnUse">
      <stop offset="0" stop-color="#008ae6"/>
      <stop offset="1" stop-color="#002c4a"/>
    </linearGradient>
    <linearGradient id="New_Gradient_Swatch_copy_3-3" x1="175.47" y1="83.92" x2="175.47" y2="124.36" gradientTransform="translate(366.82 358.47) rotate(-180)" gradientUnits="userSpaceOnUse">
      <stop offset="0" stop-color="#008ae6"/>
      <stop offset="1" stop-color="#002c4a"/>
    </linearGradient>
  </defs>
  <g id="Treads">
    <g>
      <g>
        <rect class="cls-3" x="41.28" y="233.07" width="282.48" height="37.74" rx=".36" ry=".36" transform="translate(365.03 503.88) rotate(180)"/>
        <g>
          <rect class="cls-4" x="306.69" y="231.68" width="12.67" height="40.52" rx="1.74" ry="1.74"/>
          <rect class="cls-4" x="280.68" y="231.68" width="12.67" height="40.52" rx="1.74" ry="1.74"/>
          <rect class="cls-4" x="228.67" y="231.68" width="12.67" height="40.52" rx="1.74" ry="1.74"/>
          <rect class="cls-4" x="254.67" y="231.68" width="12.67" height="40.52" rx="1.74" ry="1.74"/>
          <rect class="cls-4" x="202.66" y="231.68" width="12.67" height="40.52" rx="1.74" ry="1.74"/>
          <rect class="cls-4" x="176.65" y="231.68" width="12.67" height="40.52" rx="1.74" ry="1.74"/>
          <rect class="cls-4" x="124.64" y="231.68" width="12.67" height="40.52" rx="1.74" ry="1.74"/>
          <rect class="cls-4" x="150.65" y="231.68" width="12.67" height="40.52" rx="1.74" ry="1.74"/>
          <rect class="cls-4" x="98.64" y="231.68" width="12.67" height="40.52" rx="1.74" ry="1.74"/>
          <rect class="cls-4" x="72.63" y="231.68" width="12.67" height="40.52" rx="1.74" ry="1.74"/>
          <rect class="cls-4" x="46.62" y="231.68" width="12.67" height="40.52" rx="1.74" ry="1.74"/>
        </g>
      </g>
      <g>
        <rect class="cls-3" x="41.28" y="86.22" width="282.48" height="37.74" rx=".36" ry=".36" transform="translate(365.03 210.17) rotate(180)"/>
        <g>
          <rect class="cls-4" x="306.69" y="84.82" width="12.67" height="40.52" rx="1.74" ry="1.74"/>
          <rect class="cls-4" x="280.68" y="84.82" width="12.67" height="40.52" rx="1.74" ry="1.74"/>
          <rect class="cls-4" x="228.67" y="84.82" width="12.67" height="40.52" rx="1.74" ry="1.74"/>
          <rect class="cls-4" x="254.67" y="84.82" width="12.67" height="40.52" rx="1.74" ry="1.74"/>
          <rect class="cls-4" x="202.66" y="84.82" width="12.67" height="40.52" rx="1.74" ry="1.74"/>
          <rect class="cls-4" x="176.65" y="84.82" width="12.67" height="40.52" rx="1.74" ry="1.74"/>
          <rect class="cls-4" x="124.64" y="84.82" width="12.67" height="40.52" rx="1.74" ry="1.74"/>
          <rect class="cls-4" x="150.65" y="84.82" width="12.67" height="40.52" rx="1.74" ry="1.74"/>
          <rect class="cls-4" x="98.64" y="84.82" width="12.67" height="40.52" rx="1.74" ry="1.74"/>
          <rect class="cls-4" x="72.63" y="84.82" width="12.67" height="40.52" rx="1.74" ry="1.74"/>
          <rect class="cls-4" x="46.62" y="84.82" width="12.67" height="40.52" rx="1.74" ry="1.74"/>
        </g>
      </g>
    </g>
  </g>
  <g id="Churchill">
    <rect class="cls-5" x="42.92" y="123.22" width="274.66" height="110.51" transform="translate(360.51 356.95) rotate(180)"/>
    <rect class="cls-6" x="42.92" y="123.22" width="67.44" height="110.51" transform="translate(153.29 356.95) rotate(180)"/>
    <polygon class="cls-1" points="317.59 130.59 277.16 152.46 277.16 204.49 317.59 226.36 317.59 130.59"/>
    <polygon class="cls-2" points="275.36 122.78 236.16 82.34 142.95 82.34 103.75 122.78 275.36 122.78"/>
    <polygon class="cls-7" points="105.55 234.12 144.75 274.55 237.96 274.55 277.16 234.12 105.55 234.12"/>
  </g>
</svg>