<?xml version="1.0" encoding="UTF-8"?>
<svg xmlns="http://www.w3.org/2000/svg" xmlns:xlink="http://www.w3.org/1999/xlink" viewBox="0 0 360 360">
  <defs>
    <style>
      .cls-1 {
        fill: #995d0e;
      }

      .cls-2 {
        fill: url(#linear-gradient-2);
      }

      .cls-3 {
        fill: #c78e12;
      }

      .cls-4 {
        fill: #ffd117;
      }

      .cls-5 {
        fill: #ffdb47;
      }

      .cls-6 {
        fill: #a8700f;
      }

      .cls-7 {
        fill: #24363f;
      }

      .cls-8 {
        fill: url(#linear-gradient-5);
      }

      .cls-9 {
        fill: #56646c;
      }

      .cls-10 {
        fill: url(#linear-gradient-3);
      }

      .cls-11 {
        fill: url(#linear-gradient);
      }

      .cls-12 {
        fill: url(#linear-gradient-4);
      }
    </style>
    <linearGradient id="linear-gradient" x1="315.25" y1="112.1" x2="53.12" y2="112.1" gradientTransform="translate(66.62 67.19)" gradientUnits="userSpaceOnUse">
      <stop offset="0" stop-color="#ffd117"/>
      <stop offset=".42" stop-color="#e9b715"/>
      <stop offset="1" stop-color="#c78e12"/>
    </linearGradient>
    <linearGradient id="linear-gradient-2" x1="315.25" y1="247.9" x2="53.12" y2="247.9" gradientTransform="translate(-69.18 -68.61)" xlink:href="#linear-gradient"/>
    <linearGradient id="linear-gradient-3" x1="248.28" y1="181.57" x2="318.06" y2="181.57" gradientTransform="translate(362.9 -4.9) rotate(90)" gradientUnits="userSpaceOnUse">
      <stop offset="0" stop-color="#edb715"/>
      <stop offset=".75" stop-color="#8f5e17"/>
      <stop offset="1" stop-color="#6e3f18"/>
    </linearGradient>
    <linearGradient id="linear-gradient-4" x1="50.31" y1="180" x2="68.54" y2="180" gradientTransform="translate(123.48 -125.47)" gradientUnits="userSpaceOnUse">
      <stop offset="0" stop-color="#995d0e"/>
      <stop offset="1" stop-color="#ffd117"/>
    </linearGradient>
    <linearGradient id="linear-gradient-5" x1="68.85" y1="181.87" x2="109.28" y2="181.87" gradientTransform="translate(362.9 -4.9) rotate(90)" gradientUnits="userSpaceOnUse">
      <stop offset="0" stop-color="#c78e12"/>
      <stop offset="1" stop-color="#ffd117"/>
    </linearGradient>
  </defs>
  <g id="Treads">
    <g>
      <g>
        <rect class="cls-7" x="115.13" y="160.54" width="282.48" height="37.74" rx=".36" ry=".36" transform="translate(435.78 -76.96) rotate(90)"/>
        <g>
          <rect class="cls-9" x="236.11" y="42.57" width="40.52" height="12.67" rx="1.74" ry="1.74"/>
          <rect class="cls-9" x="236.11" y="68.58" width="40.52" height="12.67" rx="1.74" ry="1.74"/>
          <rect class="cls-9" x="236.11" y="120.59" width="40.52" height="12.67" rx="1.74" ry="1.74"/>
          <rect class="cls-9" x="236.11" y="94.58" width="40.52" height="12.67" rx="1.74" ry="1.74"/>
          <rect class="cls-9" x="236.11" y="146.6" width="40.52" height="12.67" rx="1.74" ry="1.74"/>
          <rect class="cls-9" x="236.11" y="172.6" width="40.52" height="12.67" rx="1.74" ry="1.74"/>
          <rect class="cls-9" x="236.11" y="224.61" width="40.52" height="12.67" rx="1.74" ry="1.74"/>
          <rect class="cls-9" x="236.11" y="198.61" width="40.52" height="12.67" rx="1.74" ry="1.74"/>
          <rect class="cls-9" x="236.11" y="250.62" width="40.52" height="12.67" rx="1.74" ry="1.74"/>
          <rect class="cls-9" x="236.11" y="276.63" width="40.52" height="12.67" rx="1.74" ry="1.74"/>
          <rect class="cls-9" x="236.11" y="302.63" width="40.52" height="12.67" rx="1.74" ry="1.74"/>
        </g>
      </g>
      <g>
        <rect class="cls-7" x="-31.73" y="160.54" width="282.48" height="37.74" rx=".36" ry=".36" transform="translate(288.92 69.89) rotate(90)"/>
        <g>
          <rect class="cls-9" x="89.25" y="42.57" width="40.52" height="12.67" rx="1.74" ry="1.74"/>
          <rect class="cls-9" x="89.25" y="68.58" width="40.52" height="12.67" rx="1.74" ry="1.74"/>
          <rect class="cls-9" x="89.25" y="120.59" width="40.52" height="12.67" rx="1.74" ry="1.74"/>
          <rect class="cls-9" x="89.25" y="94.58" width="40.52" height="12.67" rx="1.74" ry="1.74"/>
          <rect class="cls-9" x="89.25" y="146.6" width="40.52" height="12.67" rx="1.74" ry="1.74"/>
          <rect class="cls-9" x="89.25" y="172.6" width="40.52" height="12.67" rx="1.74" ry="1.74"/>
          <rect class="cls-9" x="89.25" y="224.61" width="40.52" height="12.67" rx="1.74" ry="1.74"/>
          <rect class="cls-9" x="89.25" y="198.61" width="40.52" height="12.67" rx="1.74" ry="1.74"/>
          <rect class="cls-9" x="89.25" y="250.62" width="40.52" height="12.67" rx="1.74" ry="1.74"/>
          <rect class="cls-9" x="89.25" y="276.63" width="40.52" height="12.67" rx="1.74" ry="1.74"/>
          <rect class="cls-9" x="89.25" y="302.63" width="40.52" height="12.67" rx="1.74" ry="1.74"/>
        </g>
      </g>
    </g>
  </g>
  <g id="T-34">
    <g>
      <rect class="cls-11" x="119.74" y="162.82" width="262.14" height="32.94" transform="translate(430.09 -71.52) rotate(90)"/>
      <rect class="cls-2" x="-16.06" y="162.82" width="262.14" height="32.94" transform="translate(294.29 64.28) rotate(90)"/>
    </g>
    <path class="cls-3" d="m106.51,162.15c12.73,11.42,25.47,22.85,38.2,34.27h76.4c12.73-11.42,25.47-22.85,38.2-34.27-50.93,0-101.87,0-152.8,0Z"/>
    <rect class="cls-5" x="74.62" y="95.67" width="213.43" height="146.49" transform="translate(350.24 -12.41) rotate(90)"/>
    <rect class="cls-3" x="130.05" y="152.01" width="213.48" height="36.12" transform="translate(66.72 406.85) rotate(-90)"/>
    <rect class="cls-3" x="19.26" y="151.38" width="213.12" height="37.74" transform="translate(296.07 44.42) rotate(90)"/>
    <path class="cls-10" d="m237.34,313.16v-36.48c5.86,0,11.72,0,17.58,0-12.27-11.1-24.53-22.2-36.8-33.31h-73.59c-12.27,11.1-24.53,22.2-36.8,33.31h20.62v36.48h108.99Z"/>
    <rect class="cls-12" x="173.79" y="-30.11" width="18.22" height="169.27" transform="translate(237.43 -128.38) rotate(90)"/>
    <polygon class="cls-8" points="106.95 63.96 144.69 104.39 219.08 104.39 255.11 63.96 106.95 63.96"/>
    <g>
      <rect class="cls-6" x="136.32" y="66.71" width="34.69" height="12.35" transform="translate(226.56 -80.79) rotate(90)"/>
      <rect class="cls-6" x="194.67" y="66.71" width="34.69" height="12.35" transform="translate(284.91 -139.14) rotate(90)"/>
    </g>
    <g>
      <g>
        <rect class="cls-1" x="209.64" y="126.84" width="80.66" height="19.82" transform="translate(386.72 -113.22) rotate(90)"/>
        <ellipse class="cls-1" cx="249.97" cy="96.74" rx="9.91" ry="2.74"/>
        <ellipse class="cls-1" cx="250.02" cy="177.23" rx="9.91" ry="3.97"/>
      </g>
      <g>
        <rect class="cls-1" x="75.46" y="126.84" width="80.66" height="19.82" transform="translate(252.54 20.96) rotate(90)"/>
        <path class="cls-1" d="m115.79,94c-5.47,0-9.91,1.23-9.91,2.74s4.44,2.74,9.91,2.74c5.47,0,9.91-1.23,9.91-2.74,0-1.51-4.44-2.74-9.91-2.74Z"/>
        <path class="cls-1" d="m115.84,173.26c-5.47,0-9.91,1.78-9.91,3.97,0,2.19,4.44,3.97,9.91,3.97s9.91-1.78,9.91-3.97-4.44-3.97-9.91-3.97Z"/>
      </g>
    </g>
    <polygon class="cls-4" points="136.54 250.21 136.54 95.82 226.9 95.82 225.55 250.21 136.54 250.21"/>
  </g>
</svg>