<?xml version="1.0" encoding="UTF-8"?>
<svg xmlns="http://www.w3.org/2000/svg" xmlns:xlink="http://www.w3.org/1999/xlink" viewBox="0 0 360 360">
  <defs>
    <style>
      .cls-1 {
        fill: url(#linear-gradient-2);
      }

      .cls-2 {
        fill: url(#New_Gradient_Swatch_copy_3-2);
      }

      .cls-3 {
        fill: #24363f;
      }

      .cls-4 {
        fill: #56646c;
      }

      .cls-5 {
        fill: url(#linear-gradient);
      }

      .cls-6 {
        fill: url(#New_Gradient_Swatch_copy_3);
      }

      .cls-7 {
        fill: url(#New_Gradient_Swatch_copy_3-3);
      }
    </style>
    <linearGradient id="linear-gradient" x1="49.23" y1="180" x2="323.9" y2="180" gradientTransform="translate(-1.15 .61)" gradientUnits="userSpaceOnUse">
      <stop offset=".45" stop-color="#008ae6"/>
      <stop offset="1" stop-color="#5fb3ea"/>
    </linearGradient>
    <linearGradient id="New_Gradient_Swatch_copy_3" data-name="New Gradient Swatch copy 3" x1="256.46" y1="180" x2="323.9" y2="180" gradientTransform="translate(-31.5 73.88)" gradientUnits="userSpaceOnUse">
      <stop offset="0" stop-color="#008ae6"/>
      <stop offset="1" stop-color="#002c4a"/>
    </linearGradient>
    <linearGradient id="linear-gradient-2" x1="49.23" y1="180" x2="89.66" y2="180" gradientTransform="translate(180.77 -78.59) rotate(45)" gradientUnits="userSpaceOnUse">
      <stop offset="0" stop-color="#008ae6"/>
      <stop offset="1" stop-color="#002c4a"/>
    </linearGradient>
    <linearGradient id="New_Gradient_Swatch_copy_3-2" x1="177.27" y1="276.13" x2="177.27" y2="235.7" gradientTransform="translate(180.77 -78.59) rotate(45)" gradientUnits="userSpaceOnUse">
      <stop offset="0" stop-color="#008ae6"/>
      <stop offset="1" stop-color="#002c4a"/>
    </linearGradient>
    <linearGradient id="New_Gradient_Swatch_copy_3-3" x1="175.47" y1="83.92" x2="175.47" y2="124.36" gradientTransform="translate(180.77 -78.59) rotate(45)" gradientUnits="userSpaceOnUse">
      <stop offset="0" stop-color="#008ae6"/>
      <stop offset="1" stop-color="#002c4a"/>
    </linearGradient>
  </defs>
  <g id="Treads">
    <g>
      <g>
        <rect class="cls-3" x="94.52" y="108.19" width="282.48" height="37.74" rx=".36" ry=".36" transform="translate(158.9 -129.49) rotate(45)"/>
        <g>
          <rect class="cls-4" x="123.22" y="28.45" width="40.52" height="12.67" rx="1.74" ry="1.74" transform="translate(17.43 111.64) rotate(-45)"/>
          <rect class="cls-4" x="141.61" y="46.84" width="40.52" height="12.67" rx="1.74" ry="1.74" transform="translate(9.81 130.03) rotate(-45)"/>
          <rect class="cls-4" x="178.39" y="83.61" width="40.52" height="12.67" rx="1.74" ry="1.74" transform="translate(-5.42 166.81) rotate(-45)"/>
          <rect class="cls-4" x="160" y="65.23" width="40.52" height="12.67" rx="1.74" ry="1.74" transform="translate(2.2 148.42) rotate(-45)"/>
          <rect class="cls-4" x="196.78" y="102" width="40.52" height="12.67" rx="1.74" ry="1.74" transform="translate(-13.04 185.2) rotate(-45)"/>
          <rect class="cls-4" x="215.17" y="120.39" width="40.52" height="12.67" rx="1.74" ry="1.74" transform="translate(-20.65 203.59) rotate(-45)"/>
          <rect class="cls-4" x="251.94" y="157.17" width="40.52" height="12.67" rx="1.74" ry="1.74" transform="translate(-35.89 240.37) rotate(-45)"/>
          <rect class="cls-4" x="233.56" y="138.78" width="40.52" height="12.67" rx="1.74" ry="1.74" transform="translate(-28.27 221.98) rotate(-45)"/>
          <rect class="cls-4" x="270.33" y="175.56" width="40.52" height="12.67" rx="1.74" ry="1.74" transform="translate(-43.51 258.76) rotate(-45)"/>
          <rect class="cls-4" x="288.72" y="193.95" width="40.52" height="12.67" rx="1.74" ry="1.74" transform="translate(-51.12 277.15) rotate(-45)"/>
          <rect class="cls-4" x="307.11" y="212.34" width="40.52" height="12.67" rx="1.74" ry="1.74" transform="translate(-58.74 295.54) rotate(-45)"/>
        </g>
      </g>
      <g>
        <rect class="cls-3" x="-9.32" y="212.04" width="282.48" height="37.74" rx=".36" ry=".36" transform="translate(201.91 -25.65) rotate(45)"/>
        <g>
          <rect class="cls-4" x="19.38" y="132.29" width="40.52" height="12.67" rx="1.74" ry="1.74" transform="translate(-86.41 68.63) rotate(-45)"/>
          <rect class="cls-4" x="37.77" y="150.68" width="40.52" height="12.67" rx="1.74" ry="1.74" transform="translate(-94.03 87.02) rotate(-45)"/>
          <rect class="cls-4" x="74.55" y="187.46" width="40.52" height="12.67" rx="1.74" ry="1.74" transform="translate(-109.26 123.8) rotate(-45)"/>
          <rect class="cls-4" x="56.16" y="169.07" width="40.52" height="12.67" rx="1.74" ry="1.74" transform="translate(-101.65 105.41) rotate(-45)"/>
          <rect class="cls-4" x="92.93" y="205.85" width="40.52" height="12.67" rx="1.74" ry="1.74" transform="translate(-116.88 142.19) rotate(-45)"/>
          <rect class="cls-4" x="111.32" y="224.24" width="40.52" height="12.67" rx="1.74" ry="1.74" transform="translate(-124.5 160.58) rotate(-45)"/>
          <rect class="cls-4" x="148.1" y="261.01" width="40.52" height="12.67" rx="1.74" ry="1.74" transform="translate(-139.73 197.35) rotate(-45)"/>
          <rect class="cls-4" x="129.71" y="242.62" width="40.52" height="12.67" rx="1.74" ry="1.74" transform="translate(-132.11 178.97) rotate(-45)"/>
          <rect class="cls-4" x="166.49" y="279.4" width="40.52" height="12.67" rx="1.74" ry="1.74" transform="translate(-147.35 215.74) rotate(-45)"/>
          <rect class="cls-4" x="184.88" y="297.79" width="40.52" height="12.67" rx="1.74" ry="1.74" transform="translate(-154.97 234.13) rotate(-45)"/>
          <rect class="cls-4" x="203.27" y="316.18" width="40.52" height="12.67" rx="1.74" ry="1.74" transform="translate(-162.58 252.52) rotate(-45)"/>
        </g>
      </g>
    </g>
  </g>
  <g id="Churchill">
    <rect class="cls-5" x="48.08" y="125.35" width="274.66" height="110.51" transform="translate(182.02 -78.21) rotate(45)"/>
    <rect class="cls-6" x="224.96" y="198.62" width="67.44" height="110.51" transform="translate(255.28 -108.55) rotate(45)"/>
    <polygon class="cls-1" points="54.44 117.36 98.5 130.48 135.29 93.7 122.16 49.64 54.44 117.36"/>
    <polygon class="cls-2" points="78.78 152.75 77.91 209.05 143.82 274.96 200.12 274.09 78.78 152.75"/>
    <polygon class="cls-7" points="277.58 194.09 278.45 137.78 212.54 71.87 156.24 72.74 277.58 194.09"/>
  </g>
</svg>